<svg xmlns="http://www.w3.org/2000/svg" width="160.767" height="48.758" viewBox="0 0 160.767 48.758">
  <path id="Untitled-1" d="M138.3,47.816c-5.561,2.153-7.822.113-7.822-1.174C132.451,46.476,137.158,46.206,138.3,47.816Zm7.058-1.761a7.229,7.229,0,0,1-9.334-.655C137.925,44.874,143.106,44.249,145.361,46.056Zm-9.407-4.185c.211,2.679-2.533,4.185-5.5,4.4.54-2.695,3.306-3.9,5.5-4.4Zm5.313-2.469c.314,1.145-.117,4.254-4.379,5.487C137.071,42.789,138.187,40.056,141.266,39.4Zm8.451,3.117a6.6,6.6,0,0,1-8.414.752C143.011,42.39,147.112,41.2,149.717,42.517Zm-4.5-6.2c.584,1.128.708,4.342-3.065,6.276-.219-2.069.613-5.607,3.065-6.276Zm9.334,1.249a5.784,5.784,0,0,1-3.5,2.921,5.591,5.591,0,0,1-4.467-.58c2.379-2.236,6.174-3.094,7.968-2.342Zm-5.64-5.992c1.692,2.952-.1,6.323-1.957,7.708a7.69,7.69,0,0,1,1.956-7.708Zm8.779-.128c.2,4.584-4.583,4.335-6.831,4.366C151.563,34.848,155.5,31.356,157.687,31.446Zm-5.9-4.283a6.092,6.092,0,0,1-.731,7.813c-.926-2.22-1.131-5.629.73-7.813Zm8.414-2.032c.153,3.7-2.964,5.577-5.969,5.548C155.132,28.894,157.549,25.455,160.2,25.131Zm-6.305-2.551c1.992,1.173,1.766,4.96.59,6.931C153.162,27.676,152.176,25.395,153.892,22.58Zm6.436-3.47a4.665,4.665,0,0,1-3.649,5.848c.445-1.61,1.029-4.463,3.65-5.848Zm-6.071-1.121a5,5,0,0,1,2.415,6.1C155.14,22.858,153.294,20.246,154.257,17.989Zm6.174-4.08c1.357,4.1-1.759,5.442-2.919,5.772C157.65,17.936,158.76,14.458,160.431,13.909Zm-6.087-1.077a5.717,5.717,0,0,1,2.97,6.075C155.643,17.966,153.614,16.174,154.344,12.832Zm5.167-5.139c1.518,5.042-1.015,7.112-1.846,7.524-.132-1.594-.293-5.32,1.846-7.524Zm-5.619.127c1.591.444,3.6,3.364,3.5,6.172C155.818,13.27,153.461,10.267,153.892,7.82ZM154.366,0c3.692,3.816,4.21,6.826,3.131,10.537C155.825,9.032,154.49,4.516,154.366,0ZM22.464,47.816c5.561,2.153,7.822.113,7.822-1.174C28.316,46.476,23.609,46.206,22.464,47.816ZM15.4,46.056a7.229,7.229,0,0,0,9.334-.655c-1.9-.527-7.079-1.152-9.334.655Zm9.407-4.185c-.211,2.679,2.533,4.185,5.5,4.4-.54-2.695-3.306-3.9-5.5-4.4ZM19.5,39.4c-.314,1.145.117,4.254,4.379,5.487C23.7,42.789,22.58,40.056,19.5,39.4Zm-8.451,3.117a6.6,6.6,0,0,0,8.414.752C17.755,42.39,13.655,41.2,11.049,42.517Zm4.5-6.2c-.584,1.128-.708,4.342,3.065,6.276.219-2.069-.613-5.607-3.065-6.276ZM6.219,37.565a5.784,5.784,0,0,0,3.5,2.921,5.591,5.591,0,0,0,4.467-.58c-2.379-2.236-6.174-3.094-7.968-2.342Zm5.64-5.992c-1.692,2.952.1,6.323,1.957,7.708a7.69,7.69,0,0,0-1.956-7.708ZM3.08,31.446c-.2,4.584,4.583,4.335,6.831,4.366C9.2,34.848,5.27,31.356,3.08,31.446Zm5.9-4.283a6.092,6.092,0,0,0,.731,7.813c.926-2.22,1.131-5.629-.73-7.813ZM.571,25.131c-.153,3.7,2.964,5.577,5.969,5.548-.9-1.784-3.321-5.224-5.969-5.548ZM6.876,22.58c-1.992,1.173-1.766,4.96-.59,6.931C7.606,27.676,8.592,25.395,6.876,22.58ZM.439,19.11a4.665,4.665,0,0,0,3.649,5.848C3.642,23.348,3.059,20.5.437,19.11ZM6.51,17.989a5,5,0,0,0-2.415,6.1c1.533-1.235,3.379-3.847,2.415-6.1ZM.336,13.909c-1.357,4.1,1.759,5.442,2.919,5.772-.138-1.745-1.248-5.222-2.919-5.772Zm6.087-1.077a5.717,5.717,0,0,0-2.97,6.075c1.671-.941,3.7-2.733,2.97-6.075ZM1.256,7.693C-.262,12.735,2.271,14.805,3.1,15.217c.132-1.594.293-5.32-1.846-7.524Zm5.619.127c-1.591.444-3.6,3.364-3.5,6.172C4.948,13.27,7.306,10.267,6.875,7.82ZM6.4,0C2.708,3.816,2.19,6.826,3.269,10.537,4.942,9.032,6.276,4.516,6.4,0ZM71.109,46.122a.355.355,0,0,0,.38-.356V43.418a.374.374,0,0,0-.38-.38H65.3l3.961-4.032a6.421,6.421,0,0,0,2.206-4.6c0-2.918-2.253-5.076-5.5-5.076a6.07,6.07,0,0,0-5.171,2.728.377.377,0,0,0,.047.522l1.637,1.637c.213.19.356.213.546,0a3.218,3.218,0,0,1,2.633-1.565,2.072,2.072,0,0,1,2.277,2.087c0,1.471-1.21,2.585-1.874,3.25l-4.934,5a.709.709,0,0,0-.166.451v2.325a.355.355,0,0,0,.38.356h9.772Zm6.025,0a.355.355,0,0,0,.38-.356V39.883c0-1.542.759-2.348,2.016-2.348,1.281,0,1.945.806,1.945,2.348v5.882a.355.355,0,0,0,.38.356h2.87a.355.355,0,0,0,.38-.356V39.029c0-3.036-1.779-4.815-4.2-4.815a3.676,3.676,0,0,0-3.392,2.016l-.119-1.352c0-.285-.142-.38-.356-.38h-2.8a.336.336,0,0,0-.356.356V45.766a.336.336,0,0,0,.356.356h2.894Zm15.489.285a4.175,4.175,0,0,0,3.629-1.779l.047,1.139a.355.355,0,0,0,.38.356h2.609a.376.376,0,0,0,.4-.356V29.518a.355.355,0,0,0-.38-.356H96.394a.336.336,0,0,0-.356.356v6.143a4.227,4.227,0,0,0-3.416-1.447c-3.226,0-5.456,2.657-5.456,6.1,0,3.463,2.23,6.1,5.456,6.1Zm.783-3.3a2.8,2.8,0,0,1,0-5.6,2.591,2.591,0,0,1,2.68,2.775,2.6,2.6,0,0,1-2.68,2.823ZM27.3,19.766a.187.187,0,0,0,.2-.2V16.591h.949c2.227,0,3.281-1.226,3.281-3.018s-1.054-3.031-3.281-3.031H25.617a.187.187,0,0,0-.2.2v8.829a.187.187,0,0,0,.2.2H27.3Zm.2-7.379h.9c.7,0,1.344.224,1.344,1.186S29.1,14.746,28.4,14.746h-.9Zm7.248,7.379a.2.2,0,0,0,.211-.2v-3.11c0-.962.5-1.489,1.331-1.489a1.581,1.581,0,0,1,.474.066c.184.04.277,0,.277-.171V13.586a.283.283,0,0,0-.119-.264.927.927,0,0,0-.593-.171c-.751,0-1.16.527-1.37,1.226l-.066-.857c0-.158-.079-.211-.2-.211H33.142a.187.187,0,0,0-.2.2v6.062a.187.187,0,0,0,.2.2Zm6.286.158a3.387,3.387,0,1,0-3.387-3.387,3.323,3.323,0,0,0,3.387,3.387Zm0-1.845a1.431,1.431,0,0,1-1.45-1.542,1.452,1.452,0,1,1,2.9,0A1.431,1.431,0,0,1,41.035,18.08Zm7.234,1.845a2.319,2.319,0,0,0,2.016-.988l.026.633a.2.2,0,0,0,.211.2h1.45a.209.209,0,0,0,.224-.2V10.542a.2.2,0,0,0-.211-.2H50.365a.187.187,0,0,0-.2.2v3.413a2.348,2.348,0,0,0-1.9-.8,3.125,3.125,0,0,0-3.031,3.387,3.118,3.118,0,0,0,3.031,3.387Zm.435-1.832a1.46,1.46,0,0,1-1.5-1.555,1.468,1.468,0,0,1,1.5-1.555,1.439,1.439,0,0,1,1.489,1.542A1.447,1.447,0,0,1,48.7,18.093Zm7.274,1.832a2.048,2.048,0,0,0,1.9-1.12l.053.751a.188.188,0,0,0,.211.211h1.542a.2.2,0,0,0,.211-.2V13.507a.2.2,0,0,0-.211-.2H58.087a.2.2,0,0,0-.211.2v3.268c0,.857-.435,1.3-1.12,1.3-.712,0-1.081-.448-1.081-1.3V13.507a.2.2,0,0,0-.211-.2H53.857a.187.187,0,0,0-.2.2v3.742c0,1.687.975,2.675,2.319,2.675Zm8.486,0a3.043,3.043,0,0,0,2.464-1.186.191.191,0,0,0-.013-.277l-.909-.87a.236.236,0,0,0-.343-.013,1.6,1.6,0,0,1-1.133.5A1.515,1.515,0,0,1,62.976,16.5,1.453,1.453,0,0,1,64.5,15a1.5,1.5,0,0,1,1.133.5.251.251,0,0,0,.356-.013l.909-.87a.192.192,0,0,0,.013-.277,3.065,3.065,0,0,0-2.5-1.186A3.277,3.277,0,0,0,61.039,16.5a3.347,3.347,0,0,0,3.426,3.426Zm6.286,0c.448,0,1.16-.079,1.16-.409V18.422c0-.132-.105-.2-.237-.184-.171.013-.29.013-.409.013a.5.5,0,0,1-.553-.54V14.864H71.7a.187.187,0,0,0,.2-.2v-1.16a.187.187,0,0,0-.2-.2h-.988V11.794a.2.2,0,0,0-.211-.2H68.879a.2.2,0,0,0-.211.2v1.515h-.8a.187.187,0,0,0-.2.2v1.16a.187.187,0,0,0,.2.2h.8v3.07a1.854,1.854,0,0,0,2.082,1.99Zm7.841,0A3.387,3.387,0,1,0,75.2,16.538,3.323,3.323,0,0,0,78.591,19.925Zm0-1.845a1.431,1.431,0,0,1-1.45-1.542,1.452,1.452,0,1,1,2.9,0A1.431,1.431,0,0,1,78.591,18.08Zm6.786,1.687a.2.2,0,0,0,.211-.2v-4.7H86.88a.187.187,0,0,0,.2-.2v-1.16a.187.187,0,0,0-.2-.2H85.588v-.646c0-.435.145-.751.764-.751a3.685,3.685,0,0,1,.553.079c.092.013.171,0,.171-.092V10.568a.237.237,0,0,0-.119-.211,2.132,2.132,0,0,0-1.081-.224A2.042,2.042,0,0,0,83.559,12.4v.909h-.764a.187.187,0,0,0-.2.2v1.16a.187.187,0,0,0,.2.2h.764v4.7a.187.187,0,0,0,.2.2h1.621Zm8.012.158c.448,0,1.16-.079,1.16-.409V18.422c0-.132-.105-.2-.237-.184-.171.013-.29.013-.409.013a.5.5,0,0,1-.553-.54V14.864h.988a.187.187,0,0,0,.2-.2v-1.16a.187.187,0,0,0-.2-.2H93.35V11.794a.2.2,0,0,0-.211-.2H91.518a.2.2,0,0,0-.211.2v1.515h-.8a.187.187,0,0,0-.2.2v1.16a.187.187,0,0,0,.2.2h.8v3.07a1.853,1.853,0,0,0,2.082,1.99Zm6.128-6.773a2.042,2.042,0,0,0-1.884,1.12V10.542a.2.2,0,0,0-.211-.2H95.814a.187.187,0,0,0-.2.2v9.027a.187.187,0,0,0,.2.2h1.608a.2.2,0,0,0,.211-.2V16.3c0-.857.422-1.3,1.12-1.3s1.081.448,1.081,1.3v3.268a.2.2,0,0,0,.211.2h1.594a.2.2,0,0,0,.211-.2V15.826a2.368,2.368,0,0,0-2.332-2.675Zm7.037,6.773a3.2,3.2,0,0,0,2.293-.817.21.21,0,0,0,.066-.29l-.54-.764c-.079-.092-.132-.119-.237-.066a2.7,2.7,0,0,1-1.423.356,1.618,1.618,0,0,1-1.753-1.041h3.716c.593,0,.764-.4.764-1.054a2.987,2.987,0,0,0-3.123-3.1A3.222,3.222,0,0,0,103,16.512a3.348,3.348,0,0,0,3.558,3.413Zm-1.621-4.019a1.314,1.314,0,0,1,1.4-1.094,1.212,1.212,0,0,1,1.318,1.094Zm10.9,4.019a2.319,2.319,0,0,0,2.016-.988l.026.633a.2.2,0,0,0,.211.2h1.45a.209.209,0,0,0,.224-.2V10.542a.2.2,0,0,0-.211-.2h-1.621a.187.187,0,0,0-.2.2v3.413a2.348,2.348,0,0,0-1.9-.8,3.125,3.125,0,0,0-3.031,3.387,3.118,3.118,0,0,0,3.031,3.387Zm.435-1.832a1.46,1.46,0,0,1-1.5-1.555,1.468,1.468,0,0,1,1.5-1.555,1.439,1.439,0,0,1,1.489,1.542,1.447,1.447,0,0,1-1.489,1.568Zm7.656,1.832a2.319,2.319,0,0,0,2.016-.988l.026.633a.2.2,0,0,0,.211.2h1.45a.209.209,0,0,0,.224-.2V13.507a.2.2,0,0,0-.211-.2h-1.463a.2.2,0,0,0-.211.2l-.026.619a2.293,2.293,0,0,0-2.016-.975,3.125,3.125,0,0,0-3.031,3.387,3.118,3.118,0,0,0,3.031,3.387Zm.435-1.832a1.46,1.46,0,0,1-1.5-1.555,1.468,1.468,0,0,1,1.5-1.555,1.439,1.439,0,0,1,1.489,1.542,1.447,1.447,0,0,1-1.489,1.568Zm7.854,4.177a.241.241,0,0,0,.237-.158l3.426-8.579c.053-.145-.026-.224-.171-.224h-1.634a.258.258,0,0,0-.25.158L132.4,17.421l-1.423-3.953a.258.258,0,0,0-.25-.158h-1.634c-.145,0-.224.079-.171.224l2.5,6.246-.949,2.253c-.066.158.013.237.171.237Z" fill="#fff"/>
</svg>
