<svg xmlns="http://www.w3.org/2000/svg" width="225.248" height="47.889" viewBox="0 0 225.248 47.889">
  <g id="AdCreative" transform="translate(28.482 -426.978)">
    <g id="Group_4_00000132789768262851372880000001265437830197497743_" transform="translate(27.713 438.689)">
      <g id="Group_1_00000162344572098529837090000005309863954205815430_" transform="translate(0 0)">
        <path id="Path_2_00000078739612845345381840000010264491996735662232_" d="M275.429,512.77v23.973h-3.292v-2.107l-.1-.07a.946.946,0,0,1-.1.193,6.5,6.5,0,0,1-10.569-.512,8.476,8.476,0,0,1,.78-10.511,6.432,6.432,0,0,1,9.091-.31q.228.212.433.445l.449.494V512.77Zm-7.712,21.142a4.452,4.452,0,1,0-4.49-4.413v.027a4.465,4.465,0,0,0,4.49,4.386Z" transform="translate(-239.662 -512.77)" fill="#fff"/>
        <path id="Path_3_00000004508948911347000330000000437009650605690763_" d="M31.47,536.71c3.414,7.341,6.8,14.629,10.2,21.962H39.745c-.621,0-1.237-.006-1.858.006a.3.3,0,0,1-.334-.218c-.467-1.038-.954-2.069-1.422-3.113a.377.377,0,0,0-.4-.256q-4.275.01-8.551,0a.4.4,0,0,0-.429.276q-.691,1.547-1.416,3.074c-.045.1-.166.218-.249.218-1.268.013-2.536.013-3.862.013C24.641,551.345,28.043,544.063,31.47,536.71Zm2.837,14.769L31.47,545.3,28.6,551.479Z" transform="translate(-21.22 -534.68)" fill="#fff"/>
      </g>
      <g id="Group_2_00000173845967124572718460000005969622017738285467_" transform="translate(37.799 2.044)">
        <path id="Path_4_00000000203094416466780310000001623024455502157245_" d="M384.235,534.627c-.839.871-1.665,1.736-2.49,2.594a7.592,7.592,0,0,0-11.016,10.44,7.322,7.322,0,0,0,5.444,2.53,7.44,7.44,0,0,0,5.572-2.2l2.5,2.588a11.2,11.2,0,1,1-.5-16.4q.251.219.487.452h0Z" transform="translate(-365.176 -531.406)" fill="#fff"/>
        <path id="Path_5_00000145027013808169736290000012555142063742220704_" d="M897.669,627.656h-3.286v-2.106l-.064-.032c-.07.083-.141.16-.212.243a6.379,6.379,0,0,1-5.515,2.357,6.243,6.243,0,0,1-4.515-2.377,8.2,8.2,0,0,1-1.287-8.595,6.886,6.886,0,0,1,4.023-4.106,6.407,6.407,0,0,1,7.122,1.762c.129.141.256.282.436.487v-2.2h3.305v14.565Zm-7.8-2.831a4.4,4.4,0,1,0-.023,0Z" transform="translate(-838.279 -605.727)" fill="#fff"/>
        <path id="Path_7_00000104687471719789338510000008851401199222755749_" d="M703.634,621.659H692.515c.07.16.109.288.173.4a4.889,4.889,0,0,0,3.619,2.53,5.661,5.661,0,0,0,5.079-1.447l2.293,2.389a8.233,8.233,0,0,1-2.3,1.6,9.118,9.118,0,0,1-10.12-1.531,7.209,7.209,0,0,1-2.081-7.347,7.319,7.319,0,0,1,13.9-1.268A8.146,8.146,0,0,1,703.634,621.659Zm-3.459-2.843a4.058,4.058,0,0,0-3.965-3.017c-1.747.083-3.613,1.594-3.708,3.017Z" transform="translate(-661.441 -605.603)" fill="#fff"/>
        <path id="Path_8_00000139996582035586428130000017310912645939538878_" d="M1440.235,621.717c1.107,3.107,6,4.227,8.838,1.492.756.788,1.511,1.582,2.293,2.389a7.787,7.787,0,0,1-1.9,1.39,9.146,9.146,0,0,1-10.8-1.594,7.7,7.7,0,0,1,3.484-12.611,7.352,7.352,0,0,1,8.608,4.253,8.061,8.061,0,0,1,.583,4.541c-.006.037-.019.077-.032.141h-11.072Zm-.058-2.844h7.693a3.962,3.962,0,0,0-7.693,0Z" transform="translate(-1345.726 -605.666)" fill="#fff"/>
        <path id="Path_9_00000176029137813935734420000002077786726504127629_" d="M1283.013,617.891c-2.582,5.055-5.137,10.035-7.712,15.077l-7.711-15.077h.75c.852,0,1.71.013,2.562-.006a.559.559,0,0,1,.608.365c1.189,2.351,2.4,4.689,3.605,7.024.051.1.109.2.186.339.071-.135.128-.231.18-.334q1.824-3.555,3.65-7.109a.445.445,0,0,1,.461-.288C1280.712,617.9,1281.828,617.891,1283.013,617.891Z" transform="translate(-1191.053 -610.545)" fill="#fff"/>
        <path id="Path_10_00000066474534919719563450000012175202433220353168_" d="M1088.887,578.836h-3.318V567.583h-3.149V564.26h3.145v-1.6c0-.5-.006-1.006.006-1.505a.363.363,0,0,1,.135-.282c1.031-.532,2.068-1.05,3.159-1.6v4.977h3.471v3.318h-3.452Z" transform="translate(-1021.588 -556.907)" fill="#fff"/>
        <path id="Path_11_00000037688886255101197990000004404262860908671645_" d="M610.658,616.058a3.521,3.521,0,0,0-2.741.521,3.47,3.47,0,0,0-1.531,3.035v8.1H603.1V613.151h3.267v1.487l.07.051a5.984,5.984,0,0,1,1.883-1.466,5.106,5.106,0,0,1,2.337-.544Z" transform="translate(-582.921 -605.785)" fill="#fff"/>
        <path id="Path_12_00000100362953822341161380000011844199709609085836_" d="M1216.31,618.24h3.267V632.8h-3.267Z" transform="translate(-1144.123 -610.875)" fill="#fff"/>
        <path id="Path_15_00000171000788387766346700000006062068342533316240_" d="M1216.385,536.242a1.963,1.963,0,1,1-1.952-1.973h.026A1.956,1.956,0,0,1,1216.385,536.242Z" transform="translate(-1140.599 -534.027)" fill="#fff"/>
      </g>
      <g id="Group_3_00000035494149311762114530000010873231162142002367_" transform="translate(145.463 3.292)">
        <path id="Path_40_00000006708562785701622400000002616327845336055997_" d="M1393.824,617.491a19.183,19.183,0,0,1-1.589,1.991,7.127,7.127,0,0,1-11.049-1.14,8.06,8.06,0,0,1,.679-9.889,7.186,7.186,0,0,1,11.734,1.487.836.836,0,0,0,.2.269v-3.664h1.537V621.1h-1.511V617.49h-.006Zm-6.244,2.555a6.229,6.229,0,1,0-6.231-6.226h0A6.229,6.229,0,0,0,1387.58,620.046Z" transform="translate(-1376.851 -600.689)" fill="#fff"/>
        <path id="Path_45_00000106110365583942194940000018402195128955800232_" d="M1599.506,626.335h-1.3c-.064,0-.122-.006-.205-.013V611.75h1.5v14.585Z" transform="translate(-1576.538 -605.896)" fill="#fff"/>
        <path id="Path_46_00000047783154692966807830000015260186448207110332_" d="M1346.3,760.083a1.385,1.385,0,0,1-1.351-1.345,1.354,1.354,0,1,1,2.709.014A1.369,1.369,0,0,1,1346.3,760.083Z" transform="translate(-1344.95 -739.184)" fill="#fff"/>
        <path id="Path_48_00000057141410596888519080000008937362415262578607_" d="M1592.482,542.73a1.343,1.343,0,1,1-1.352,1.338A1.349,1.349,0,0,1,1592.482,542.73Z" transform="translate(-1570.25 -542.73)" fill="#fff"/>
      </g>
    </g>
    <g id="Group_9718" transform="translate(-28.482 426.978)">
      <path id="Path_11399" d="M610.077,394.713l-3.956-1.933-17.266,9.091a6.4,6.4,0,0,1-5.961,0l-17.266-9.089-3.956,1.933a1.8,1.8,0,0,0-.048,3.205l21.27,11.2a6.4,6.4,0,0,0,5.961,0l21.27-11.2a1.8,1.8,0,0,0-.048-3.207Z" transform="translate(-560.663 -361.966)" fill="#fff" opacity="0.4"/>
      <path id="Path_11400" d="M610.073,309.533l-3.916-1.913-17.306,9.112a6.4,6.4,0,0,1-5.961,0l-17.306-9.112-3.916,1.913a1.8,1.8,0,0,0-.048,3.205l21.27,11.2a6.4,6.4,0,0,0,5.961,0l21.27-11.2a1.8,1.8,0,0,0-.048-3.205Z" transform="translate(-560.659 -284.029)" fill="#fff" opacity="0.6"/>
      <path id="Path_3570_00000022524399146698099000000015618269424764638626_" d="M610.141,43.772l-21.27,11.2a6.4,6.4,0,0,1-5.961,0l-21.27-11.2a1.8,1.8,0,0,1,.049-3.206l21.394-10.447a6.4,6.4,0,0,1,5.614,0l21.4,10.447a1.8,1.8,0,0,1,.049,3.206Z" transform="translate(-560.678 -29.47)" fill="#fff"/>
      <path id="Path_11401" d="M610.073,224.59l-3.912-1.91-17.31,9.113a6.4,6.4,0,0,1-5.961,0l-17.31-9.113-3.912,1.91a1.8,1.8,0,0,0-.048,3.205l21.27,11.2a6.4,6.4,0,0,0,5.961,0l21.27-11.2a1.8,1.8,0,0,0-.048-3.205Z" transform="translate(-560.659 -206.293)" fill="#fff" opacity="0.8"/>
    </g>
  </g>
</svg>
