<svg xmlns="http://www.w3.org/2000/svg" width="28.486" height="28.485" viewBox="0 0 28.486 28.485">
  <g id="layers" transform="translate(0 -0.009)">
    <g id="Group_11749" data-name="Group 11749" transform="translate(0 12.267)">
      <g id="Group_11748" data-name="Group 11748" transform="translate(0)">
        <path id="Path_25232" data-name="Path 25232" d="M28.04,206.8a1,1,0,0,0-.089-.053l-2.021-1.089-11.21,5.935a1.017,1.017,0,0,1-.952,0l-11.21-5.935L.535,206.743A1.007,1.007,0,0,0,.117,208.1a1.023,1.023,0,0,0,.053.089l14.072,7.45,14.072-7.45A1.007,1.007,0,0,0,28.04,206.8Z" transform="translate(0 -205.654)" fill="#fff"/>
      </g>
    </g>
    <g id="Group_11751" data-name="Group 11751" transform="translate(0.001 18.372)">
      <g id="Group_11750" data-name="Group 11750">
        <path id="Path_25233" data-name="Path 25233" d="M28.377,309.555a1.017,1.017,0,0,0-.412-.412l-2.021-1.089-11.21,5.935a1.017,1.017,0,0,1-.952,0L2.57,308.054.549,309.143a1.017,1.017,0,0,0,0,1.791l13.226,7.121a1.017,1.017,0,0,0,.964,0l13.226-7.121A1.017,1.017,0,0,0,28.377,309.555Z" transform="translate(-0.014 -308.054)" fill="#fff"/>
      </g>
    </g>
    <g id="Group_11753" data-name="Group 11753" transform="translate(0 0.009)">
      <g id="Group_11752" data-name="Group 11752" transform="translate(0 0)">
        <path id="Path_25234" data-name="Path 25234" d="M28.04,7.305a1.008,1.008,0,0,0-.089-.053L14.725.13a1.017,1.017,0,0,0-.964,0L.535,7.252A1.007,1.007,0,0,0,.171,8.7l14.072,7.45L28.315,8.7A1.007,1.007,0,0,0,28.04,7.305Z" transform="translate(0 -0.009)" fill="#fff"/>
      </g>
    </g>
  </g>
</svg>
