<svg xmlns="http://www.w3.org/2000/svg" width="300" height="487.402" viewBox="0 0 300 487.402">
  <g id="Group_13374" data-name="Group 13374" transform="translate(-1143 -1603)">
    <g id="Rectangle_6642" data-name="Rectangle 6642" transform="translate(1143 1603)" fill="#f9f9ff" stroke="#fff" stroke-width="1">
      <rect width="300" height="487.402" rx="25" stroke="none"/>
      <rect x="0.5" y="0.5" width="299" height="486.402" rx="24.5" fill="none"/>
    </g>
    <path id="Path_25883" data-name="Path 25883" d="M-73.616-10.16l.448,1.568,2.256-.64V0h1.84V-11.2h-1.6Zm13.7,8.784A6.922,6.922,0,0,0-58.752-5.6,6.922,6.922,0,0,0-59.92-9.824a3.759,3.759,0,0,0-3.232-1.584A3.808,3.808,0,0,0-66.4-9.824,7.029,7.029,0,0,0-67.552-5.6,7.029,7.029,0,0,0-66.4-1.376,3.808,3.808,0,0,0-63.152.208,3.759,3.759,0,0,0-59.92-1.376Zm-3.232-.208c-1.648,0-2.56-1.44-2.56-4.016s.912-4.016,2.56-4.016c1.664,0,2.56,1.44,2.56,4.016S-61.488-1.584-63.152-1.584Zm11.488-4.24a2.68,2.68,0,0,0,1.28-2.368,2.879,2.879,0,0,0-1.04-2.368,3.847,3.847,0,0,0-2.512-.848,3.86,3.86,0,0,0-2.528.848,2.868,2.868,0,0,0-1.024,2.368,2.666,2.666,0,0,0,1.264,2.368A3.06,3.06,0,0,0-57.872-3.1,2.98,2.98,0,0,0-56.8-.672a4.375,4.375,0,0,0,2.864.88c2.368,0,3.92-1.264,3.92-3.312A2.929,2.929,0,0,0-51.664-5.824Zm-2.272-3.84a1.532,1.532,0,0,1,1.712,1.552A1.566,1.566,0,0,1-53.936-6.56a1.558,1.558,0,0,1-1.712-1.552A1.517,1.517,0,0,1-53.936-9.664Zm0,8.128c-1.264,0-2.1-.64-2.1-1.744s.832-1.744,2.1-1.744c1.232,0,2.08.64,2.08,1.744S-52.7-1.536-53.936-1.536Zm12.432.16A6.922,6.922,0,0,0-40.336-5.6,6.922,6.922,0,0,0-41.5-9.824a3.759,3.759,0,0,0-3.232-1.584,3.808,3.808,0,0,0-3.248,1.584A7.029,7.029,0,0,0-49.136-5.6a7.029,7.029,0,0,0,1.152,4.224A3.808,3.808,0,0,0-44.736.208,3.759,3.759,0,0,0-41.5-1.376Zm-3.232-.208c-1.648,0-2.56-1.44-2.56-4.016s.912-4.016,2.56-4.016c1.664,0,2.56,1.44,2.56,4.016S-43.072-1.584-44.736-1.584ZM-34.848-4.1-32-8h-2.016l-1.84,2.528L-37.7-8h-2l2.848,3.888L-39.856,0h2.016l2-2.736L-33.856,0h2Zm3.04-6.064.448,1.568,2.256-.64V0h1.84V-11.2h-1.6Zm13.04.528V-11.2h-6.88v1.728h4.688l-2.416,3.184.736,1.1h.416c1.28,0,2.08.688,2.08,1.792s-.8,1.808-2.08,1.808a2.077,2.077,0,0,1-2.192-1.44l-1.568.912a3.809,3.809,0,0,0,3.76,2.32,4.147,4.147,0,0,0,2.784-.96A3.288,3.288,0,0,0-18.3-3.392,3.275,3.275,0,0,0-21.04-6.624Zm3.536,2.656.192-2.5H-10.5V-11.2h-6.24l-.432,6.016H-13.9a1.808,1.808,0,0,1,2.048,1.792,1.831,1.831,0,0,1-2.08,1.808A2.067,2.067,0,0,1-16.16-3.1l-1.584.912a3.822,3.822,0,0,0,3.808,2.4,4.147,4.147,0,0,0,2.784-.96,3.288,3.288,0,0,0,1.136-2.64,3.26,3.26,0,0,0-1.1-2.624,3.967,3.967,0,0,0-2.7-.96Zm13.424,5.6A6.922,6.922,0,0,0-.64-5.6,6.922,6.922,0,0,0-1.808-9.824,3.759,3.759,0,0,0-5.04-11.408,3.808,3.808,0,0,0-8.288-9.824,7.029,7.029,0,0,0-9.44-5.6,7.029,7.029,0,0,0-8.288-1.376,3.808,3.808,0,0,0-5.04.208,3.759,3.759,0,0,0-1.808-1.376ZM-5.04-1.584c-1.648,0-2.56-1.44-2.56-4.016s.912-4.016,2.56-4.016c1.664,0,2.56,1.44,2.56,4.016S-3.376-1.584-5.04-1.584Z" transform="translate(1425.999 2065)" fill="#3b2a82"/>
    <g id="Group_12715" data-name="Group 12715" transform="translate(1159 2046)">
      <rect id="Rectangle_6759" data-name="Rectangle 6759" width="122" height="29" rx="14.5" transform="translate(-0.001)" fill="#3b2a82" opacity="0.1"/>
      <path id="Path_25882" data-name="Path 25882" d="M6.176,0l3.888-11.2h-2L5.072-2.224,2.1-11.2H.08L3.968,0ZM17.6-3.264a4.692,4.692,0,0,0,.064-.72,4.278,4.278,0,0,0-1.136-2.992,3.75,3.75,0,0,0-2.88-1.232,4.038,4.038,0,0,0-3.04,1.216A4.1,4.1,0,0,0,9.424-4a4.1,4.1,0,0,0,1.2,3.024A4.324,4.324,0,0,0,13.776.208a3.936,3.936,0,0,0,3.5-1.744l-1.424-.832a2.37,2.37,0,0,1-2.064.992,2.39,2.39,0,0,1-2.56-1.888ZM11.216-4.672A2.323,2.323,0,0,1,13.632-6.64,2.229,2.229,0,0,1,15.92-4.672ZM20.592-8H18.864V0h1.728V-4.032a2.01,2.01,0,0,1,.736-1.76,2.5,2.5,0,0,1,1.728-.48V-8.144a2.447,2.447,0,0,0-2.464,1.488Zm8.1,0H26.7v-2.24l-1.728.512V-8H23.5v1.664h1.472V-2.5c0,2.1,1.072,2.816,3.712,2.5V-1.552c-1.312.064-1.984.08-1.984-.944v-3.84h1.984Zm2.88-1.52a1.078,1.078,0,0,0,.016-1.552,1.083,1.083,0,0,0-1.568,0,1.091,1.091,0,0,0,0,1.552A1.091,1.091,0,0,0,31.568-9.52Zm.1,9.52V-8H29.936V0ZM37.12.208a4.028,4.028,0,0,0,3.6-2.08L39.232-2.72A2.337,2.337,0,0,1,37.1-1.488a2.413,2.413,0,0,1-1.776-.72A2.474,2.474,0,0,1,34.624-4a2.474,2.474,0,0,1,.7-1.792,2.413,2.413,0,0,1,1.776-.72A2.226,2.226,0,0,1,39.2-5.28l1.488-.864A3.94,3.94,0,0,0,37.12-8.208,4.1,4.1,0,0,0,34.1-6.992,4.052,4.052,0,0,0,32.9-4a4.1,4.1,0,0,0,1.2,2.992A4.1,4.1,0,0,0,37.12.208ZM47.856-6.864a3.257,3.257,0,0,0-2.8-1.344A3.744,3.744,0,0,0,42.24-6.992,4.141,4.141,0,0,0,41.072-4,4.167,4.167,0,0,0,42.24-1.008,3.744,3.744,0,0,0,45.056.208a3.231,3.231,0,0,0,2.8-1.36V0h1.728V-8H47.856ZM43.52-2.16A2.534,2.534,0,0,1,42.8-4a2.472,2.472,0,0,1,.72-1.824,2.413,2.413,0,0,1,1.808-.736,2.413,2.413,0,0,1,1.808.736A2.472,2.472,0,0,1,47.856-4a2.534,2.534,0,0,1-.72,1.84,2.46,2.46,0,0,1-1.808.72A2.46,2.46,0,0,1,43.52-2.16ZM53.008,0V-11.68H51.28V0Zm9.2.208a4.375,4.375,0,0,0,2.864-.88,2.949,2.949,0,0,0,1.1-2.416,2.686,2.686,0,0,0-1.152-2.3,3.087,3.087,0,0,0-.816-.448c-.352-.144-.624-.256-.832-.32-.192-.08-.5-.176-.928-.32-1.712-.528-2.256-.912-2.256-1.744,0-.848.688-1.392,1.76-1.392A2.411,2.411,0,0,1,64.3-8.048l1.552-.9a4.147,4.147,0,0,0-3.9-2.464,3.816,3.816,0,0,0-2.544.88,2.877,2.877,0,0,0-1.056,2.352A2.579,2.579,0,0,0,59.44-5.92,7.609,7.609,0,0,0,61.792-4.9a8.626,8.626,0,0,1,1.984.8,1.161,1.161,0,0,1,.56,1.04c0,.88-.688,1.472-2.08,1.472a2.676,2.676,0,0,1-2.784-1.888l-1.584.928A4.243,4.243,0,0,0,62.208.208ZM68.976-9.52a1.078,1.078,0,0,0,.016-1.552,1.083,1.083,0,0,0-1.568,0,1.091,1.091,0,0,0,0,1.552A1.091,1.091,0,0,0,68.976-9.52Zm.1,9.52V-8H67.344V0Zm7.472-6.848V-8h-5.92v1.632h3.584L70.464-1.152V0H76.7V-1.632H72.816Zm8.7,3.584a4.692,4.692,0,0,0,.064-.72,4.278,4.278,0,0,0-1.136-2.992A3.75,3.75,0,0,0,81.3-8.208a4.038,4.038,0,0,0-3.04,1.216A4.1,4.1,0,0,0,77.072-4a4.1,4.1,0,0,0,1.2,3.024A4.324,4.324,0,0,0,81.424.208a3.936,3.936,0,0,0,3.5-1.744L83.5-2.368a2.37,2.37,0,0,1-2.064.992,2.39,2.39,0,0,1-2.56-1.888ZM78.864-4.672A2.323,2.323,0,0,1,81.28-6.64a2.229,2.229,0,0,1,2.288,1.968Z" transform="translate(17.999 19)" fill="#3b2a82"/>
    </g>
    <path id="Path_25881" data-name="Path 25881" d="M10.16,0,5.984-11.2H4.3L.128,0H1.712l.912-2.512h5.04L8.576,0ZM5.136-9.424,7.152-3.9H3.136ZM11.488,0h1.488V-11.2H11.488ZM27.664,0l-2.64-4.48a3.426,3.426,0,0,0,1.664-1.264,3.316,3.316,0,0,0,.656-1.984,3.287,3.287,0,0,0-1.024-2.448A3.347,3.347,0,0,0,23.856-11.2h-4.48V0h1.488V-4.288H23.5L26.016,0ZM23.856-9.808a1.876,1.876,0,0,1,1.408.608,2,2,0,0,1,.592,1.472,2.065,2.065,0,0,1-.592,1.488,1.876,1.876,0,0,1-1.408.608H20.864V-9.808ZM36.288-3.36a4.1,4.1,0,0,0,.048-.624,4.226,4.226,0,0,0-1.12-2.976,3.653,3.653,0,0,0-2.864-1.248,4.05,4.05,0,0,0-3.024,1.2A4.126,4.126,0,0,0,28.16-4,4.15,4.15,0,0,0,29.344-.976a4.261,4.261,0,0,0,3.1,1.184A3.926,3.926,0,0,0,35.968-1.6l-1.184-.672A2.493,2.493,0,0,1,32.48-1.1a2.73,2.73,0,0,1-2.9-2.256ZM32.352-6.9a2.532,2.532,0,0,1,2.576,2.32H29.584A2.664,2.664,0,0,1,32.352-6.9ZM41.68.208a4.059,4.059,0,0,0,3.6-2.08L44.1-2.56A2.671,2.671,0,0,1,41.68-1.168a2.739,2.739,0,0,1-2.016-.816A2.789,2.789,0,0,1,38.864-4a2.8,2.8,0,0,1,.8-2.032,2.739,2.739,0,0,1,2.016-.816A2.557,2.557,0,0,1,44.048-5.44l1.168-.672a3.836,3.836,0,0,0-3.536-2.1,4.04,4.04,0,0,0-3.008,1.216A4.052,4.052,0,0,0,37.472-4a4.114,4.114,0,0,0,1.2,3.008A4.089,4.089,0,0,0,41.68.208ZM53.3-1.008A4.068,4.068,0,0,0,54.528-4,4.068,4.068,0,0,0,53.3-6.992,4.08,4.08,0,0,0,50.3-8.208a4.08,4.08,0,0,0-2.992,1.216A4.054,4.054,0,0,0,46.1-4a4.054,4.054,0,0,0,1.216,2.992A4.08,4.08,0,0,0,50.3.208,4.08,4.08,0,0,0,53.3-1.008ZM50.3-1.152a2.728,2.728,0,0,1-2-.816A2.75,2.75,0,0,1,47.488-4,2.75,2.75,0,0,1,48.3-6.032a2.728,2.728,0,0,1,2-.816,2.739,2.739,0,0,1,2.016.816A2.75,2.75,0,0,1,53.136-4a2.75,2.75,0,0,1-.816,2.032A2.739,2.739,0,0,1,50.3-1.152ZM64.816-8.208A2.745,2.745,0,0,0,62.3-6.848a2.485,2.485,0,0,0-2.352-1.36,2.67,2.67,0,0,0-2.384,1.28V-8H56.176V0h1.392V-4.448c0-1.616.88-2.432,2.048-2.432,1.04,0,1.7.72,1.7,1.952V0H62.7V-4.448c0-1.648.768-2.432,1.968-2.432a1.721,1.721,0,0,1,1.76,1.952V0h1.392V-4.976A2.937,2.937,0,0,0,64.816-8.208Zm13.584,0a2.745,2.745,0,0,0-2.512,1.36,2.485,2.485,0,0,0-2.352-1.36,2.67,2.67,0,0,0-2.384,1.28V-8H69.76V0h1.392V-4.448c0-1.616.88-2.432,2.048-2.432,1.04,0,1.7.72,1.7,1.952V0h1.392V-4.448c0-1.648.768-2.432,1.968-2.432a1.721,1.721,0,0,1,1.76,1.952V0h1.392V-4.976A2.937,2.937,0,0,0,78.4-8.208ZM91.024-3.36a4.1,4.1,0,0,0,.048-.624,4.226,4.226,0,0,0-1.12-2.976,3.653,3.653,0,0,0-2.864-1.248,4.05,4.05,0,0,0-3.024,1.2A4.126,4.126,0,0,0,82.9-4,4.15,4.15,0,0,0,84.08-.976a4.261,4.261,0,0,0,3.1,1.184A3.926,3.926,0,0,0,90.7-1.6L89.52-2.272a2.493,2.493,0,0,1-2.3,1.168,2.73,2.73,0,0,1-2.9-2.256ZM87.088-6.9a2.532,2.532,0,0,1,2.576,2.32H84.32A2.664,2.664,0,0,1,87.088-6.9Zm9.568-1.312a2.822,2.822,0,0,0-2.592,1.36V-8H92.672V0h1.392V-4.24c0-1.792.928-2.64,2.32-2.64a1.852,1.852,0,0,1,1.984,2.048V0H99.76V-4.912A2.994,2.994,0,0,0,96.656-8.208ZM108.32-6.624A3.382,3.382,0,0,0,105.3-8.208a3.837,3.837,0,0,0-2.864,1.232A4.143,4.143,0,0,0,101.248-4a4.181,4.181,0,0,0,1.184,2.992A3.822,3.822,0,0,0,105.3.208a3.382,3.382,0,0,0,3.024-1.584V0h1.392V-11.2H108.32Zm-2.848,5.488a2.739,2.739,0,0,1-2.016-.816A2.812,2.812,0,0,1,102.64-4a2.75,2.75,0,0,1,.816-2.032,2.692,2.692,0,0,1,2.016-.832,2.7,2.7,0,0,1,2.032.832A2.75,2.75,0,0,1,108.32-4a2.812,2.812,0,0,1-.816,2.048A2.75,2.75,0,0,1,105.472-1.136Zm12.976-5.488a3.382,3.382,0,0,0-3.024-1.584,3.837,3.837,0,0,0-2.864,1.232A4.143,4.143,0,0,0,111.376-4a4.181,4.181,0,0,0,1.184,2.992A3.822,3.822,0,0,0,115.424.208a3.382,3.382,0,0,0,3.024-1.584V0h1.392V-8h-1.392ZM115.6-1.136a2.739,2.739,0,0,1-2.016-.816A2.812,2.812,0,0,1,112.768-4a2.75,2.75,0,0,1,.816-2.032,2.692,2.692,0,0,1,2.016-.832,2.7,2.7,0,0,1,2.032.832A2.75,2.75,0,0,1,118.448-4a2.812,2.812,0,0,1-.816,2.048A2.75,2.75,0,0,1,115.6-1.136ZM126.3-8h-2.128v-2.24l-1.392.416V-8H121.2v1.344h1.584V-2.32c0,1.984,1.088,2.64,3.52,2.32V-1.248c-1.424.064-2.128.16-2.128-1.072V-6.656H126.3Zm2.352-1.456a.929.929,0,0,0,.928-.928.942.942,0,0,0-.928-.944.946.946,0,0,0-.944.944A.932.932,0,0,0,128.656-9.456ZM129.344,0V-8h-1.392V0Zm8.88-1.008A4.069,4.069,0,0,0,139.456-4a4.069,4.069,0,0,0-1.232-2.992,4.08,4.08,0,0,0-2.992-1.216,4.08,4.08,0,0,0-2.992,1.216A4.054,4.054,0,0,0,131.024-4a4.054,4.054,0,0,0,1.216,2.992A4.08,4.08,0,0,0,135.232.208,4.08,4.08,0,0,0,138.224-1.008Zm-2.992-.144a2.728,2.728,0,0,1-2-.816A2.75,2.75,0,0,1,132.416-4a2.75,2.75,0,0,1,.816-2.032,2.728,2.728,0,0,1,2-.816,2.739,2.739,0,0,1,2.016.816A2.75,2.75,0,0,1,138.064-4a2.75,2.75,0,0,1-.816,2.032A2.739,2.739,0,0,1,135.232-1.152Zm9.856-7.056a2.822,2.822,0,0,0-2.592,1.36V-8H141.1V0H142.5V-4.24c0-1.792.928-2.64,2.32-2.64A1.852,1.852,0,0,1,146.8-4.832V0h1.392V-4.912A2.994,2.994,0,0,0,145.088-8.208Zm16.464.672a3.7,3.7,0,0,0-1.136-2.8,4.064,4.064,0,0,0-2.928-1.088,4.064,4.064,0,0,0-2.928,1.088,3.713,3.713,0,0,0-1.12,2.8,3.774,3.774,0,0,0,1.088,2.784,3.975,3.975,0,0,0,2.848,1.1L154.88,0h2.528L160.9-5.264h-.016A3.919,3.919,0,0,0,161.552-7.536Zm-5.92,0a1.769,1.769,0,0,1,1.856-1.808,1.747,1.747,0,0,1,1.872,1.808,1.76,1.76,0,0,1-1.872,1.824A1.773,1.773,0,0,1,155.632-7.536Zm13.3,1.712a2.682,2.682,0,0,0,1.168-2.32,2.976,2.976,0,0,0-1.04-2.416,3.9,3.9,0,0,0-2.592-.864,3.974,3.974,0,0,0-2.608.864,2.976,2.976,0,0,0-1.04,2.416,2.7,2.7,0,0,0,1.168,2.32,2.981,2.981,0,0,0-1.536,2.7c0,2.064,1.52,3.344,4.016,3.344,2.48,0,4.016-1.28,4.016-3.344A2.965,2.965,0,0,0,168.928-5.824ZM167.5-8.992a1.211,1.211,0,0,1,.4.96,1.245,1.245,0,0,1-.4.976,1.491,1.491,0,0,1-1.04.352,1.491,1.491,0,0,1-1.04-.352,1.245,1.245,0,0,1-.4-.976,1.211,1.211,0,0,1,.4-.96,1.491,1.491,0,0,1,1.04-.352A1.491,1.491,0,0,1,167.5-8.992Zm.784,5.584c0,.976-.736,1.552-1.824,1.552s-1.824-.576-1.824-1.552c0-.96.736-1.536,1.824-1.536S168.288-4.368,168.288-3.408Zm10.56-9.392h-.912l-6.4,14.4h.912Zm.7,2.64.544,1.888,2.112-.592V0h2.208V-11.2H182.5ZM190.608.224a3.875,3.875,0,0,0,3.3-1.584,7.009,7.009,0,0,0,1.184-4.24A6.925,6.925,0,0,0,193.9-9.824a3.848,3.848,0,0,0-3.3-1.6,3.888,3.888,0,0,0-3.3,1.6A6.925,6.925,0,0,0,186.128-5.6a7.009,7.009,0,0,0,1.184,4.24A3.915,3.915,0,0,0,190.608.224ZM192.9-5.6c0,2.368-.8,3.664-2.288,3.664s-2.272-1.28-2.272-3.664.784-3.68,2.272-3.68S192.9-7.984,192.9-5.6ZM200.688.224a3.875,3.875,0,0,0,3.3-1.584,7.009,7.009,0,0,0,1.184-4.24,6.925,6.925,0,0,0-1.184-4.224,3.848,3.848,0,0,0-3.3-1.6,3.888,3.888,0,0,0-3.3,1.6A6.925,6.925,0,0,0,196.208-5.6a7.009,7.009,0,0,0,1.184,4.24A3.915,3.915,0,0,0,200.688.224ZM202.976-5.6c0,2.368-.8,3.664-2.288,3.664s-2.272-1.28-2.272-3.664.784-3.68,2.272-3.68S202.976-7.984,202.976-5.6Z" transform="translate(1193.629 1637)" fill="#3b2a82"/>
    <g id="_x32_5" transform="translate(1171.001 1622.414)">
      <path id="Path_11666" data-name="Path 11666" d="M9.593,1a8.586,8.586,0,1,0,8.578,8.578A8.6,8.6,0,0,0,9.593,1Zm3.942,13.351-.222-.687a1.4,1.4,0,0,0-1.331-.973h-4.8a1.4,1.4,0,0,0-1.331.973l-.222.687a6.2,6.2,0,1,1,7.906,0Z" transform="translate(-1 -1)" fill="#ff3067"/>
      <path id="Path_11667" data-name="Path 11667" d="M12.722,8.32a.2.2,0,0,0-.379,0l-.594,2.454a1.1,1.1,0,0,0-.379.844,1.163,1.163,0,1,0,2.325,0,1.1,1.1,0,0,0-.379-.844Z" transform="translate(-3.951 -3.04)" fill="#ff3067"/>
    </g>
  </g>
</svg>
