<svg xmlns="http://www.w3.org/2000/svg" width="30.156" height="32.573" viewBox="0 0 30.156 32.573">
  <g id="money-back" transform="translate(-18.993 -0.001)">
    <path id="Path_27712" data-name="Path 27712" d="M44.913,7.017a14.992,14.992,0,0,0-8.691-4.446l.941-.941a.954.954,0,0,0-1.35-1.35L33.4,2.7a.954.954,0,0,0,0,1.35l2.417,2.417a.954.954,0,0,0,1.349-1.35l-.54-.54a13.16,13.16,0,1,1-6.98.516A.954.954,0,1,0,29,3.292,15.082,15.082,0,1,0,44.913,7.017Z" transform="translate(0 0)" fill="#fff"/>
    <path id="Path_27713" data-name="Path 27713" d="M101.884,130.682a9.8,9.8,0,1,0,9.8-9.8A9.816,9.816,0,0,0,101.884,130.682Zm10.391.849a9.556,9.556,0,0,1-2.747-1.321,2.552,2.552,0,0,1-.849-2.512,2.854,2.854,0,0,1,1.959-2.236l.041-.012v-.384a.954.954,0,0,1,1.909,0v.324a3.644,3.644,0,0,1,1.319.6.954.954,0,0,1-1.143,1.529,1.741,1.741,0,0,0-1.576-.23.966.966,0,0,0-.634.762.694.694,0,0,0,.151.657,8.7,8.7,0,0,0,2.205,1.023,3.019,3.019,0,0,1,2.051,3.417,3.433,3.433,0,0,1-1.057,1.95,3.28,3.28,0,0,1-1.317.742v.457a.954.954,0,1,1-1.909,0v-.363a4.07,4.07,0,0,1-1.877-.736.954.954,0,1,1,1.045-1.6,2.453,2.453,0,0,0,1.78.466,1.464,1.464,0,0,0,1.453-1.235A1.11,1.11,0,0,0,112.275,131.531Z" transform="translate(-77.618 -113.186)" fill="#fff"/>
  </g>
</svg>
