<svg xmlns="http://www.w3.org/2000/svg" xmlns:xlink="http://www.w3.org/1999/xlink" width="23.66" height="16.38" viewBox="0 0 23.66 16.38">
  <defs>
    <clipPath id="clip-path">
      <rect id="Rectangle_7393" data-name="Rectangle 7393" width="23.66" height="16.38" rx="5" transform="translate(-11884 1785.237)" fill="#fff" stroke="#707070" stroke-width="1"/>
    </clipPath>
  </defs>
  <g id="Mask_Group_112" data-name="Mask Group 112" transform="translate(11884 -1785.237)" clip-path="url(#clip-path)">
    <g id="turkey" transform="translate(-11884 1779.737)">
      <path id="Path_27781" data-name="Path 27781" d="M0,5.5H24.961V21.88H0Z" fill="#e53030"/>
      <g id="Group_19174" data-name="Group 19174" transform="translate(3.606 9.304)">
        <path id="Path_27782" data-name="Path 27782" d="M14.963,13.7l2.282,3.6-3.829-1.513,3.949-1.114-2.582,3.32Z" transform="translate(-6.557 -11.108)" fill="#fff"/>
        <path id="Path_27783" data-name="Path 27783" d="M12.025,17.223A3.338,3.338,0,0,1,8.77,19.042a4.239,4.239,0,0,1-4.146-4.331A4.241,4.241,0,0,1,8.77,10.38a3.71,3.71,0,0,1,3.644,2.455,2.886,2.886,0,0,0-2.763-1.59,3.453,3.453,0,0,0-3.374,3.527A3.451,3.451,0,0,0,9.651,18.3a2.5,2.5,0,0,0,2.374-1.075Z" transform="translate(-4.623 -10.377)" fill="#fff"/>
      </g>
    </g>
  </g>
</svg>
