<svg xmlns="http://www.w3.org/2000/svg" width="17.244" height="17.062" viewBox="0 0 17.244 17.062">
  <path id="just-search-icon" d="M16.523,17.062a.665.665,0,0,1-.488-.215l-3.588-3.533-.224.167a7.671,7.671,0,0,1-4.545,1.5,7.5,7.5,0,0,1-.936-.058H6.735A7.482,7.482,0,0,1,7.473,0c.254,0,.509.012.755.037h.005a7.571,7.571,0,0,1,6.875,6.574,7.377,7.377,0,0,1-1.493,5.423l-.176.226,3.58,3.581.01.01a.661.661,0,0,1,0,.975l-.02.02A.66.66,0,0,1,16.523,17.062ZM7.732,1.475a6.045,6.045,0,0,0-1.085.1,5.94,5.94,0,0,0-4.891,4.89,6.045,6.045,0,0,0,6.921,7.028h0a6.093,6.093,0,0,0,4.94-4.938A5.988,5.988,0,0,0,7.732,1.475Z" transform="translate(0)" fill="#605880"/>
</svg>
