<svg id="Group_20962" data-name="Group 20962" xmlns="http://www.w3.org/2000/svg" width="406.068" height="73.682" viewBox="0 0 406.068 73.682">
  <g id="Path_28561" data-name="Path 28561" transform="translate(0)" fill="#fff">
    <path d="M 385.6005859375 73.18161773681641 L 36.14839553833008 73.18161773681641 L 20.46714401245117 73.18161773681641 C 17.77139472961426 73.18161773681641 15.156494140625 72.65377044677734 12.69519424438477 71.61271667480469 C 10.31754398345947 70.60707092285156 8.182144165039062 69.16732025146484 6.348244190216064 67.33341979980469 C 4.514344215393066 65.49951934814453 3.074543952941895 63.36407089233398 2.068893909454346 60.98646926879883 C 1.027843952178955 58.52516937255859 0.4999939799308777 55.91027069091797 0.4999939799308777 53.21451950073242 L 0.4999939799308777 20.46712112426758 C 0.4999939799308777 17.77136993408203 1.027843952178955 15.15647029876709 2.068893909454346 12.69517040252686 C 3.074543952941895 10.31757068634033 4.514344215393066 8.182120323181152 6.348244190216064 6.348220348358154 C 8.182144165039062 4.514320373535156 10.31754398345947 3.074570417404175 12.69519424438477 2.068920373916626 C 15.156494140625 1.027870297431946 17.77139472961426 0.5000203251838684 20.46714401245117 0.5000203251838684 L 385.6005859375 0.5000203251838684 C 388.2963562011719 0.5000203251838684 390.9112548828125 1.027870297431946 393.37255859375 2.068920373916626 C 395.7501525878906 3.074570417404175 397.8855895996094 4.514320373535156 399.719482421875 6.348220348358154 C 401.5534057617188 8.182120323181152 402.9931335449219 10.31757068634033 403.998779296875 12.69517040252686 C 405.0398559570312 15.15647029876709 405.5676879882812 17.77136993408203 405.5676879882812 20.46712112426758 L 405.5676879882812 53.21451950073242 C 405.5676879882812 55.91027069091797 405.0398559570312 58.52516937255859 403.998779296875 60.98646926879883 C 402.9931335449219 63.36407089233398 401.5534057617188 65.49951934814453 399.719482421875 67.33341979980469 C 397.8855895996094 69.16732025146484 395.7501525878906 70.60707092285156 393.37255859375 71.61271667480469 C 390.9112548828125 72.65377044677734 388.2963562011719 73.18161773681641 385.6005859375 73.18161773681641 Z" stroke="none"/>
    <path d="M 20.46713256835938 1.000022888183594 C 17.83865356445312 1.000022888183594 15.289306640625 1.514572143554688 12.88995361328125 2.5294189453125 C 10.57192993164062 3.509872436523438 8.48992919921875 4.913673400878906 6.7017822265625 6.701766967773438 C 4.91363525390625 8.489921569824219 3.509857177734375 10.57191848754883 2.529388427734375 12.88991928100586 C 1.514556884765625 15.28932189941406 1 17.83861923217773 1 20.46712112426758 L 1 53.21451950073242 C 1 55.843017578125 1.514556884765625 58.39231872558594 2.529388427734375 60.79167175292969 C 3.509857177734375 63.10967254638672 4.91363525390625 65.19167327880859 6.7017822265625 66.97982025146484 C 8.48992919921875 68.76796722412109 10.57192993164062 70.17176818847656 12.88995361328125 71.1522216796875 C 15.28933715820312 72.16706848144531 17.83865356445312 72.68161773681641 20.46713256835938 72.68161773681641 L 385.6005859375 72.68161773681641 C 388.2290954589844 72.68161773681641 390.7783813476562 72.16706848144531 393.177734375 71.1522216796875 C 395.4957580566406 70.17176818847656 397.5777587890625 68.76796722412109 399.3659057617188 66.97982025146484 C 401.154052734375 65.19167327880859 402.5578308105469 63.10967254638672 403.5382995605469 60.79167175292969 C 404.5531311035156 58.39231872558594 405.0676879882812 55.843017578125 405.0676879882812 53.21451950073242 L 405.0676879882812 20.46712112426758 C 405.0676879882812 17.83861923217773 404.5531311035156 15.28932189941406 403.5382995605469 12.88991928100586 C 402.5578308105469 10.57191848754883 401.154052734375 8.489921569824219 399.3659057617188 6.701766967773438 C 397.5777587890625 4.913673400878906 395.4957580566406 3.509872436523438 393.177734375 2.5294189453125 C 390.7783813476562 1.514572143554688 388.2290954589844 1.000022888183594 385.6005859375 1.000022888183594 L 20.46713256835938 1.000022888183594 M 20.46713256835938 2.288818359375e-05 L 385.6005859375 2.288818359375e-05 C 396.9042358398438 2.288818359375e-05 406.0676879882812 9.163421630859375 406.0676879882812 20.46712112426758 L 406.0676879882812 53.21451950073242 C 406.0676879882812 64.51817321777344 396.9042358398438 73.68161773681641 385.6005859375 73.68161773681641 L 20.46713256835938 73.68161773681641 C 9.1634521484375 73.68161773681641 0 64.51817321777344 0 53.21451950073242 L 0 20.46712112426758 C 0 9.163421630859375 9.1634521484375 2.288818359375e-05 20.46713256835938 2.288818359375e-05 Z" stroke="none" fill="#fff"/>
  </g>
  <path id="Path_28556" data-name="Path 28556" d="M7.282-2.6A6.241,6.241,0,0,0,12.7-5.568L10.56-6.811A3.64,3.64,0,0,1,7.282-5.027,3.962,3.962,0,0,1,4.31-6.18,4.138,4.138,0,0,1,3.194-9.152a4.152,4.152,0,0,1,1.117-2.99,3.962,3.962,0,0,1,2.972-1.153,3.624,3.624,0,0,1,3.278,1.8L12.7-12.736a6.263,6.263,0,0,0-5.421-2.972,6.325,6.325,0,0,0-4.7,1.891A6.34,6.34,0,0,0,.726-9.152,6.369,6.369,0,0,0,2.581-4.487,6.325,6.325,0,0,0,7.282-2.6ZM21.493-3.965A4.62,4.62,0,0,0,22.88-7.351a4.58,4.58,0,0,0-1.387-3.368,4.62,4.62,0,0,0-3.386-1.387,4.62,4.62,0,0,0-3.386,1.387,4.564,4.564,0,0,0-1.369,3.368,4.6,4.6,0,0,0,1.369,3.386A4.6,4.6,0,0,0,18.107-2.6,4.6,4.6,0,0,0,21.493-3.965Zm-5.133-1.6a2.475,2.475,0,0,1-.684-1.783,2.475,2.475,0,0,1,.684-1.783,2.362,2.362,0,0,1,1.747-.7,2.362,2.362,0,0,1,1.747.7,2.416,2.416,0,0,1,.7,1.783,2.416,2.416,0,0,1-.7,1.783,2.362,2.362,0,0,1-1.747.7A2.362,2.362,0,0,1,16.36-5.568Zm17.759-6.538a3.046,3.046,0,0,0-2.684,1.3,2.669,2.669,0,0,0-2.45-1.3,2.785,2.785,0,0,0-2.5,1.207v-.955H24.158v9.006h2.323V-7.909c0-1.315.666-2.035,1.693-2.035.955,0,1.513.63,1.513,1.711v5.385h2.323V-7.909c0-1.315.612-2.035,1.675-2.035.955,0,1.513.63,1.513,1.711v5.385h2.323V-8.4C37.523-10.647,36.19-12.106,34.119-12.106Zm10.266,0a3.469,3.469,0,0,0-2.918,1.315v-1.063H39.144V.754h2.323V-3.911A3.469,3.469,0,0,0,44.385-2.6a4.063,4.063,0,0,0,3.1-1.369,4.765,4.765,0,0,0,1.3-3.386,4.722,4.722,0,0,0-1.3-3.368A4.081,4.081,0,0,0,44.385-12.106ZM42.169-5.514a2.542,2.542,0,0,1-.7-1.837,2.471,2.471,0,0,1,.7-1.819,2.362,2.362,0,0,1,1.783-.72,2.362,2.362,0,0,1,1.783.72,2.415,2.415,0,0,1,.72,1.819,2.484,2.484,0,0,1-.72,1.837,2.416,2.416,0,0,1-1.783.7A2.416,2.416,0,0,1,42.169-5.514ZM56.9-10.791a3.527,3.527,0,0,0-2.936-1.315,4.108,4.108,0,0,0-3.1,1.387A4.785,4.785,0,0,0,49.59-7.351a4.829,4.829,0,0,0,1.279,3.386,4.09,4.09,0,0,0,3.1,1.369A3.527,3.527,0,0,0,56.9-3.911v1.063h2.323v-9.006H56.9ZM52.616-5.514a2.542,2.542,0,0,1-.7-1.837,2.471,2.471,0,0,1,.7-1.819A2.362,2.362,0,0,1,54.4-9.89a2.362,2.362,0,0,1,1.783.72,2.415,2.415,0,0,1,.72,1.819,2.484,2.484,0,0,1-.72,1.837,2.416,2.416,0,0,1-1.783.7A2.416,2.416,0,0,1,52.616-5.514ZM65.98-12.106A2.98,2.98,0,0,0,63.3-10.845v-1.009H60.973v9.006H63.3V-7.711c0-1.495.774-2.233,1.981-2.233a1.668,1.668,0,0,1,1.783,1.855v5.241h2.323V-8.377a3.74,3.74,0,0,0-.973-2.738A3.191,3.191,0,0,0,65.98-12.106Zm8.7,6.3-2.341-6.052H69.8l3.692,8.717a2.2,2.2,0,0,1-2.359,1.729V.754c2.305.126,3.818-1.009,4.755-3.6l3.278-9.006H76.679ZM91.448-7.765l-5.4-7.691H84.153V-2.848h2.486v-7.709l5.4,7.709h1.891V-15.456H91.448Zm11.2-3.026a3.527,3.527,0,0,0-2.936-1.315,4.108,4.108,0,0,0-3.1,1.387,4.785,4.785,0,0,0-1.279,3.368,4.829,4.829,0,0,0,1.279,3.386,4.09,4.09,0,0,0,3.1,1.369,3.527,3.527,0,0,0,2.936-1.315v1.063h2.323v-9.006h-2.323ZM98.364-5.514a2.542,2.542,0,0,1-.7-1.837,2.471,2.471,0,0,1,.7-1.819,2.362,2.362,0,0,1,1.783-.72,2.362,2.362,0,0,1,1.783.72,2.415,2.415,0,0,1,.72,1.819,2.484,2.484,0,0,1-.72,1.837,2.416,2.416,0,0,1-1.783.7A2.416,2.416,0,0,1,98.364-5.514Zm18.317-6.592a3.046,3.046,0,0,0-2.684,1.3,2.669,2.669,0,0,0-2.45-1.3,2.785,2.785,0,0,0-2.5,1.207v-.955h-2.323v9.006h2.323V-7.909c0-1.315.666-2.035,1.693-2.035.955,0,1.513.63,1.513,1.711v5.385h2.323V-7.909c0-1.315.612-2.035,1.675-2.035.955,0,1.513.63,1.513,1.711v5.385h2.323V-8.4C120.085-10.647,118.753-12.106,116.681-12.106ZM130.46-6.4a6.082,6.082,0,0,0,.09-.955,4.735,4.735,0,0,0-1.3-3.386,4.245,4.245,0,0,0-3.26-1.369,4.546,4.546,0,0,0-3.422,1.369,4.659,4.659,0,0,0-1.333,3.386,4.615,4.615,0,0,0,1.351,3.4A4.835,4.835,0,0,0,126.173-2.6,4.474,4.474,0,0,0,130.1-4.523L128.226-5.6a2.392,2.392,0,0,1-2.017.9A2.3,2.3,0,0,1,123.67-6.4Zm-6.826-1.8a2.246,2.246,0,0,1,2.359-1.819A2.177,2.177,0,0,1,128.226-8.2Z" transform="translate(74.369 46.238)" fill="#3b2a82"/>
  <g id="Group_19876" data-name="Group 19876" transform="translate(21.286 16.374)">
    <circle id="Ellipse_1357" data-name="Ellipse 1357" cx="20.5" cy="20.5" r="20.5" transform="translate(-0.286 0.214)" fill="#3b2a82" opacity="0.1"/>
    <g id="brand-type-bag" transform="translate(11.745 11.745)">
      <g id="Layer_2_00000019654958983984013150000000517224448883661720_">
        <path id="Path_27761" data-name="Path 27761" d="M42.248,358.249v4.21a2.233,2.233,0,0,1-2.232,2.235H28.636a2.233,2.233,0,0,1-2.235-2.232v-4.213a2.483,2.483,0,0,0,.544.228l6.266,1.885a4.011,4.011,0,0,0,1.113.163,3.911,3.911,0,0,0,1.105-.163l6.274-1.885A2.485,2.485,0,0,0,42.248,358.249Z" transform="translate(-25.588 -347.221)" fill="#3b2a82"/>
        <path id="Path_27762" data-name="Path 27762" d="M15.238,105.6h-13A2.237,2.237,0,0,0,0,107.836v2.854a2.222,2.222,0,0,0,1.593,2.141l6.267,1.88a3.041,3.041,0,0,0,1.751,0l6.268-1.881a2.222,2.222,0,0,0,1.593-2.141v-2.853A2.237,2.237,0,0,0,15.238,105.6Z" transform="translate(0 -102.35)" fill="#3b2a82"/>
        <path id="Path_27763" data-name="Path 27763" d="M115.963,4.471h-9.752a.61.61,0,0,1-.61-.61V2.236A2.236,2.236,0,0,1,107.836,0h6.5a2.236,2.236,0,0,1,2.235,2.235V3.861A.61.61,0,0,1,115.963,4.471ZM106.82,3.252h8.533V2.236a1.017,1.017,0,0,0-1.016-1.016h-6.5a1.017,1.017,0,0,0-1.016,1.016Z" transform="translate(-102.35 -0.001)" fill="#3b2a82"/>
      </g>
    </g>
  </g>
  <path id="Path_28557" data-name="Path 28557" d="M-115.711-12.646l-2.24,4.3-2.24-4.3h-2.3l3.522,6.292V-2.33h2.019V-6.353l3.537-6.292Zm8,9.4a3.78,3.78,0,0,0,1.135-2.77,3.747,3.747,0,0,0-1.135-2.756A3.78,3.78,0,0,0-110.48-9.9a3.78,3.78,0,0,0-2.77,1.135,3.734,3.734,0,0,0-1.12,2.756,3.767,3.767,0,0,0,1.12,2.77,3.767,3.767,0,0,0,2.77,1.12A3.767,3.767,0,0,0-107.709-3.244Zm-4.2-1.312a2.025,2.025,0,0,1-.56-1.459,2.025,2.025,0,0,1,.56-1.459,1.933,1.933,0,0,1,1.429-.575,1.933,1.933,0,0,1,1.429.575,1.977,1.977,0,0,1,.575,1.459,1.977,1.977,0,0,1-.575,1.459,1.933,1.933,0,0,1-1.429.575A1.933,1.933,0,0,1-111.909-4.555Zm11.539-1.164c0,1.223-.634,1.827-1.621,1.827a1.365,1.365,0,0,1-1.459-1.518V-9.7h-1.9v4.524a3.115,3.115,0,0,0,.781,2.24,2.666,2.666,0,0,0,2,.81,2.438,2.438,0,0,0,2.2-1.032v.825h1.9V-9.7h-1.9ZM-94.83-9.7h-1.9V-2.33h1.9V-5.852a1.69,1.69,0,0,1,.678-1.518,2.214,2.214,0,0,1,1.562-.354V-9.846a2.26,2.26,0,0,0-2.24,1.415Zm12.01,7.574a5.106,5.106,0,0,0,4.436-2.431l-1.754-1.017A2.978,2.978,0,0,1-82.82-4.113a3.242,3.242,0,0,1-2.431-.943,3.385,3.385,0,0,1-.914-2.431,3.4,3.4,0,0,1,.914-2.446,3.241,3.241,0,0,1,2.431-.943A2.965,2.965,0,0,1-80.138-9.4l1.754-1.017a5.124,5.124,0,0,0-4.436-2.431A5.175,5.175,0,0,0-86.666-11.3a5.187,5.187,0,0,0-1.518,3.817,5.211,5.211,0,0,0,1.518,3.817A5.175,5.175,0,0,0-82.82-2.124ZM-70.9-3.244a3.78,3.78,0,0,0,1.135-2.77A3.747,3.747,0,0,0-70.9-8.77,3.78,3.78,0,0,0-73.669-9.9a3.78,3.78,0,0,0-2.77,1.135,3.734,3.734,0,0,0-1.12,2.756,3.767,3.767,0,0,0,1.12,2.77,3.767,3.767,0,0,0,2.77,1.12A3.767,3.767,0,0,0-70.9-3.244Zm-4.2-1.312a2.025,2.025,0,0,1-.56-1.459,2.025,2.025,0,0,1,.56-1.459,1.933,1.933,0,0,1,1.429-.575,1.933,1.933,0,0,1,1.429.575,1.977,1.977,0,0,1,.575,1.459,1.977,1.977,0,0,1-.575,1.459,1.933,1.933,0,0,1-1.429.575A1.933,1.933,0,0,1-75.1-4.555ZM-60.273-9.9a2.492,2.492,0,0,0-2.2,1.061,2.184,2.184,0,0,0-2-1.061,2.279,2.279,0,0,0-2.048.987V-9.7h-1.9V-2.33h1.9V-6.471c0-1.076.545-1.665,1.385-1.665.781,0,1.238.516,1.238,1.4V-2.33H-62V-6.471c0-1.076.5-1.665,1.37-1.665.781,0,1.238.516,1.238,1.4V-2.33h1.9V-6.869A2.734,2.734,0,0,0-60.273-9.9Zm8.694,0a2.839,2.839,0,0,0-2.387,1.076V-9.7h-1.9V.617h1.9V-3.2a2.839,2.839,0,0,0,2.387,1.076,3.324,3.324,0,0,0,2.535-1.12,3.9,3.9,0,0,0,1.061-2.77A3.863,3.863,0,0,0-49.044-8.77,3.339,3.339,0,0,0-51.579-9.9Zm-1.813,5.393a2.08,2.08,0,0,1-.575-1.5A2.022,2.022,0,0,1-53.391-7.5a1.933,1.933,0,0,1,1.459-.589,1.933,1.933,0,0,1,1.459.589,1.976,1.976,0,0,1,.589,1.488,2.032,2.032,0,0,1-.589,1.5,1.977,1.977,0,0,1-1.459.575A1.977,1.977,0,0,1-53.391-4.511Zm12.349-4.318a2.886,2.886,0,0,0-2.4-1.076A3.361,3.361,0,0,0-45.979-8.77a3.915,3.915,0,0,0-1.046,2.756,3.951,3.951,0,0,0,1.046,2.77,3.347,3.347,0,0,0,2.535,1.12,2.886,2.886,0,0,0,2.4-1.076v.869h1.9V-9.7h-1.9ZM-44.55-4.511a2.08,2.08,0,0,1-.575-1.5A2.022,2.022,0,0,1-44.55-7.5a1.933,1.933,0,0,1,1.459-.589,1.933,1.933,0,0,1,1.459.589,1.976,1.976,0,0,1,.589,1.488,2.032,2.032,0,0,1-.589,1.5,1.977,1.977,0,0,1-1.459.575A1.977,1.977,0,0,1-44.55-4.511ZM-33.32-9.9a2.438,2.438,0,0,0-2.2,1.032V-9.7h-1.9V-2.33h1.9V-6.309c0-1.223.634-1.827,1.621-1.827a1.365,1.365,0,0,1,1.459,1.518V-2.33h1.9V-6.854a3.06,3.06,0,0,0-.8-2.24A2.611,2.611,0,0,0-33.32-9.9Zm7.412,5.158L-27.824-9.7H-29.9l3.021,7.132a1.8,1.8,0,0,1-1.93,1.415V.617c1.886.1,3.124-.825,3.89-2.947L-22.239-9.7h-2.034Z" transform="translate(401.26 44.083)" fill="#ff3067"/>
</svg>
