<svg id="Group_20963" data-name="Group 20963" xmlns="http://www.w3.org/2000/svg" width="406.068" height="73.682" viewBox="0 0 406.068 73.682">
  <g id="Path_28562" data-name="Path 28562" transform="translate(0)" fill="#fff">
    <path d="M 385.6005859375 73.18161773681641 L 32.53834533691406 73.18161773681641 L 20.46714401245117 73.18161773681641 C 17.77139472961426 73.18161773681641 15.156494140625 72.65377044677734 12.69519424438477 71.61271667480469 C 10.31754398345947 70.60707092285156 8.182144165039062 69.16732025146484 6.348244190216064 67.33341979980469 C 4.514344215393066 65.49951934814453 3.074543952941895 63.36407089233398 2.068893909454346 60.98646926879883 C 1.027843952178955 58.52516937255859 0.4999939799308777 55.91027069091797 0.4999939799308777 53.21451950073242 L 0.4999939799308777 20.46712112426758 C 0.4999939799308777 17.77136993408203 1.027843952178955 15.15647029876709 2.068893909454346 12.69517040252686 C 3.074543952941895 10.31757068634033 4.514344215393066 8.182120323181152 6.348244190216064 6.348220348358154 C 8.182144165039062 4.514320373535156 10.31754398345947 3.074570417404175 12.69519424438477 2.068920373916626 C 15.156494140625 1.027870297431946 17.77139472961426 0.5000203251838684 20.46714401245117 0.5000203251838684 L 385.6005859375 0.5000203251838684 C 388.2963562011719 0.5000203251838684 390.9112548828125 1.027870297431946 393.37255859375 2.068920373916626 C 395.7501525878906 3.074570417404175 397.8855895996094 4.514320373535156 399.719482421875 6.348220348358154 C 401.5534057617188 8.182120323181152 402.9931335449219 10.31757068634033 403.998779296875 12.69517040252686 C 405.0398559570312 15.15647029876709 405.5676879882812 17.77136993408203 405.5676879882812 20.46712112426758 L 405.5676879882812 53.21451950073242 C 405.5676879882812 55.91027069091797 405.0398559570312 58.52516937255859 403.998779296875 60.98646926879883 C 402.9931335449219 63.36407089233398 401.5534057617188 65.49951934814453 399.719482421875 67.33341979980469 C 397.8855895996094 69.16732025146484 395.7501525878906 70.60707092285156 393.37255859375 71.61271667480469 C 390.9112548828125 72.65377044677734 388.2963562011719 73.18161773681641 385.6005859375 73.18161773681641 Z" stroke="none"/>
    <path d="M 20.46713256835938 1.000022888183594 C 17.83865356445312 1.000022888183594 15.289306640625 1.514572143554688 12.88995361328125 2.5294189453125 C 10.57192993164062 3.509872436523438 8.48992919921875 4.913673400878906 6.7017822265625 6.701766967773438 C 4.91363525390625 8.489921569824219 3.509857177734375 10.57191848754883 2.529388427734375 12.88991928100586 C 1.514556884765625 15.28932189941406 1 17.83861923217773 1 20.46712112426758 L 1 53.21451950073242 C 1 55.843017578125 1.514556884765625 58.39231872558594 2.529388427734375 60.79167175292969 C 3.509857177734375 63.10967254638672 4.91363525390625 65.19167327880859 6.7017822265625 66.97982025146484 C 8.48992919921875 68.76796722412109 10.57192993164062 70.17176818847656 12.88995361328125 71.1522216796875 C 15.28933715820312 72.16706848144531 17.83865356445312 72.68161773681641 20.46713256835938 72.68161773681641 L 385.6005859375 72.68161773681641 C 388.2290954589844 72.68161773681641 390.7783813476562 72.16706848144531 393.177734375 71.1522216796875 C 395.4957580566406 70.17176818847656 397.5777587890625 68.76796722412109 399.3659057617188 66.97982025146484 C 401.154052734375 65.19167327880859 402.5578308105469 63.10967254638672 403.5382995605469 60.79167175292969 C 404.5531311035156 58.39231872558594 405.0676879882812 55.843017578125 405.0676879882812 53.21451950073242 L 405.0676879882812 20.46712112426758 C 405.0676879882812 17.83861923217773 404.5531311035156 15.28932189941406 403.5382995605469 12.88991928100586 C 402.5578308105469 10.57191848754883 401.154052734375 8.489921569824219 399.3659057617188 6.701766967773438 C 397.5777587890625 4.913673400878906 395.4957580566406 3.509872436523438 393.177734375 2.5294189453125 C 390.7783813476562 1.514572143554688 388.2290954589844 1.000022888183594 385.6005859375 1.000022888183594 L 20.46713256835938 1.000022888183594 M 20.46713256835938 2.288818359375e-05 L 385.6005859375 2.288818359375e-05 C 396.9042358398438 2.288818359375e-05 406.0676879882812 9.163421630859375 406.0676879882812 20.46712112426758 L 406.0676879882812 53.21451950073242 C 406.0676879882812 64.51817321777344 396.9042358398438 73.68161773681641 385.6005859375 73.68161773681641 L 20.46713256835938 73.68161773681641 C 9.1634521484375 73.68161773681641 0 64.51817321777344 0 53.21451950073242 L 0 20.46712112426758 C 0 9.163421630859375 9.1634521484375 2.288818359375e-05 20.46713256835938 2.288818359375e-05 Z" stroke="none" fill="#fff"/>
  </g>
  <path id="Path_28555" data-name="Path 28555" d="M9.049-9.33a3.067,3.067,0,0,0,1.189-2.522,3.279,3.279,0,0,0-1.117-2.54A3.908,3.908,0,0,0,6.4-15.4H1.43V-2.792H6.779A4.019,4.019,0,0,0,9.571-3.819a3.4,3.4,0,0,0,1.135-2.63A3.127,3.127,0,0,0,9.049-9.33ZM6.4-13.077A1.325,1.325,0,0,1,7.752-11.69,1.335,1.335,0,0,1,6.4-10.3H3.916v-2.774ZM3.916-5.116V-8.088H6.779A1.424,1.424,0,0,1,8.238-6.611,1.429,1.429,0,0,1,6.779-5.116ZM14.182-11.8H11.858v9.006h2.323V-7.1a2.065,2.065,0,0,1,.829-1.855,2.706,2.706,0,0,1,1.909-.432v-2.594a2.762,2.762,0,0,0-2.738,1.729Zm10.23,1.063a3.527,3.527,0,0,0-2.936-1.315,4.108,4.108,0,0,0-3.1,1.387A4.785,4.785,0,0,0,17.1-7.3a4.829,4.829,0,0,0,1.279,3.386,4.09,4.09,0,0,0,3.1,1.369,3.527,3.527,0,0,0,2.936-1.315v1.063h2.323V-11.8H24.412ZM20.125-5.458a2.542,2.542,0,0,1-.7-1.837,2.471,2.471,0,0,1,.7-1.819,2.362,2.362,0,0,1,1.783-.72,2.362,2.362,0,0,1,1.783.72,2.415,2.415,0,0,1,.72,1.819,2.484,2.484,0,0,1-.72,1.837,2.416,2.416,0,0,1-1.783.7A2.416,2.416,0,0,1,20.125-5.458ZM33.49-12.05a2.98,2.98,0,0,0-2.684,1.261V-11.8H28.483v9.006h2.323V-7.655c0-1.495.774-2.233,1.981-2.233A1.668,1.668,0,0,1,34.57-8.033v5.241h2.323V-8.322a3.74,3.74,0,0,0-.973-2.738A3.191,3.191,0,0,0,33.49-12.05Zm11.851,1.315a3.469,3.469,0,0,0-2.918-1.315,4.146,4.146,0,0,0-3.116,1.387A4.785,4.785,0,0,0,38.028-7.3a4.829,4.829,0,0,0,1.279,3.386A4.128,4.128,0,0,0,42.423-2.54a3.469,3.469,0,0,0,2.918-1.315v1.063h2.323V-15.4H45.341ZM41.054-5.458a2.542,2.542,0,0,1-.7-1.837,2.471,2.471,0,0,1,.7-1.819,2.43,2.43,0,0,1,1.8-.72,2.362,2.362,0,0,1,1.783.72,2.471,2.471,0,0,1,.7,1.819,2.542,2.542,0,0,1-.7,1.837,2.416,2.416,0,0,1-1.783.7A2.487,2.487,0,0,1,41.054-5.458ZM56.166-15.4H53.68V-2.792h7.294V-5.17H56.166ZM69.4-3.909A4.62,4.62,0,0,0,70.791-7.3,4.58,4.58,0,0,0,69.4-10.663a4.62,4.62,0,0,0-3.386-1.387,4.62,4.62,0,0,0-3.386,1.387A4.564,4.564,0,0,0,61.263-7.3a4.6,4.6,0,0,0,1.369,3.386A4.6,4.6,0,0,0,66.018-2.54,4.6,4.6,0,0,0,69.4-3.909Zm-5.133-1.6A2.475,2.475,0,0,1,63.586-7.3a2.475,2.475,0,0,1,.684-1.783,2.362,2.362,0,0,1,1.747-.7,2.362,2.362,0,0,1,1.747.7,2.416,2.416,0,0,1,.7,1.783,2.416,2.416,0,0,1-.7,1.783,2.362,2.362,0,0,1-1.747.7A2.362,2.362,0,0,1,64.271-5.512Zm14.7-5.169a3.372,3.372,0,0,0-2.882-1.369A4.246,4.246,0,0,0,72.9-10.7a4.527,4.527,0,0,0-1.3,3.26A4.629,4.629,0,0,0,72.88-4.161a4.308,4.308,0,0,0,3.206,1.333A3.372,3.372,0,0,0,78.968-4.2v.973a2.1,2.1,0,0,1-2.359,2.215A2.443,2.443,0,0,1,74.249-2.27L72.268-1.135a4.575,4.575,0,0,0,4.269,2.2,5.106,5.106,0,0,0,3.314-1.1,3.858,3.858,0,0,0,1.387-3.188V-11.8H78.968Zm0,3.242a2.408,2.408,0,0,1-2.522,2.468,2.408,2.408,0,0,1-2.522-2.468,2.334,2.334,0,0,1,.7-1.747,2.5,2.5,0,0,1,1.819-.7,2.429,2.429,0,0,1,1.8.7A2.283,2.283,0,0,1,78.968-7.439Zm11.689,3.53A4.62,4.62,0,0,0,92.044-7.3a4.58,4.58,0,0,0-1.387-3.368,4.62,4.62,0,0,0-3.386-1.387,4.62,4.62,0,0,0-3.386,1.387A4.564,4.564,0,0,0,82.516-7.3a4.6,4.6,0,0,0,1.369,3.386A4.6,4.6,0,0,0,87.271-2.54,4.6,4.6,0,0,0,90.657-3.909Zm-5.133-1.6A2.475,2.475,0,0,1,84.839-7.3a2.475,2.475,0,0,1,.684-1.783,2.362,2.362,0,0,1,1.747-.7,2.362,2.362,0,0,1,1.747.7,2.416,2.416,0,0,1,.7,1.783,2.416,2.416,0,0,1-.7,1.783,2.362,2.362,0,0,1-1.747.7A2.362,2.362,0,0,1,85.524-5.512Z" transform="translate(74.241 46.183)" fill="#3b2a82"/>
  <circle id="Ellipse_1368" data-name="Ellipse 1368" cx="20.5" cy="20.5" r="20.5" transform="translate(21 16.532)" fill="#3b2a82" opacity="0.1"/>
  <g id="_x35_6" transform="translate(34.385 27.835)">
    <path id="Path_25488" data-name="Path 25488" d="M19.039,5.963l-2.489-2.3A2.412,2.412,0,0,0,14.881,3H7.894A2.465,2.465,0,0,0,5.435,5.459V18.59a2.465,2.465,0,0,0,2.459,2.459h9.468a2.465,2.465,0,0,0,2.459-2.459V7.768A2.481,2.481,0,0,0,19.039,5.963ZM10.173,9.182c2.033-2.033,1.963-1.973,2.038-2.023a.745.745,0,0,1,.414-.128h.008a.772.772,0,0,1,.526.218l1.925,1.933a.75.75,0,0,1-1.06,1.06L13.384,9.6v2.655a.752.752,0,0,1-1.5,0V9.6l-.647.647a.752.752,0,0,1-1.06-1.068Zm5.37,7.836H9.714a.752.752,0,0,1,0-1.5h5.828a.752.752,0,1,1,0,1.5Z" transform="translate(-5.435 -3)" fill="#3b2a82"/>
  </g>
  <path id="Path_28213" data-name="Path 28213" d="M9.607-22.55,6.755-16.76,3.9-22.55H0l5.04,9.243v5.769H8.471v-5.769l5.04-9.243ZM26.42-9.49a7.472,7.472,0,0,0,2.273-5.554A7.472,7.472,0,0,0,26.42-20.6a7.59,7.59,0,0,0-5.533-2.252A7.59,7.59,0,0,0,15.354-20.6a7.472,7.472,0,0,0-2.273,5.554A7.472,7.472,0,0,0,15.354-9.49a7.59,7.59,0,0,0,5.533,2.252A7.59,7.59,0,0,0,26.42-9.49Zm-8.661-2.337a4.347,4.347,0,0,1-1.244-3.217,4.347,4.347,0,0,1,1.244-3.217A4.251,4.251,0,0,1,20.89-19.5,4.2,4.2,0,0,1,24-18.261a4.363,4.363,0,0,1,1.268,3.217A4.363,4.363,0,0,1,24-11.828a4.2,4.2,0,0,1-3.109,1.244A4.251,4.251,0,0,1,17.759-11.828Zm12.652-.558a4.664,4.664,0,0,0,1.63,3.753A6.212,6.212,0,0,0,36.2-7.239a6.212,6.212,0,0,0,4.16-1.394,4.664,4.664,0,0,0,1.63-3.753V-22.55H38.558v9.865c0,1.394-.793,2.1-2.359,2.1s-2.356-.708-2.356-2.1V-22.55H30.411ZM56.035-7.539l-3.2-5.511a5,5,0,0,0,2.766-4.356,4.936,4.936,0,0,0-1.5-3.646,4.936,4.936,0,0,0-3.643-1.5h-6V-7.539h3.431v-4.932h1.63l2.828,4.932ZM50.462-19.333a1.817,1.817,0,0,1,1.26.607,1.817,1.817,0,0,1,.455,1.323,1.817,1.817,0,0,1-.455,1.323,1.818,1.818,0,0,1-1.26.607H47.889v-3.86ZM66.439-22.55H63.007V-7.539H71.8v-3.3H66.439Zm18.7,13.06a7.472,7.472,0,0,0,2.273-5.554A7.472,7.472,0,0,0,85.136-20.6,7.59,7.59,0,0,0,79.6-22.85,7.59,7.59,0,0,0,74.07-20.6,7.472,7.472,0,0,0,71.8-15.044,7.472,7.472,0,0,0,74.07-9.49,7.59,7.59,0,0,0,79.6-7.239,7.59,7.59,0,0,0,85.136-9.49Zm-8.664-2.337a4.347,4.347,0,0,1-1.244-3.217,4.347,4.347,0,0,1,1.244-3.217A4.251,4.251,0,0,1,79.6-19.5a4.2,4.2,0,0,1,3.109,1.244,4.363,4.363,0,0,1,1.265,3.217,4.363,4.363,0,0,1-1.265,3.217A4.2,4.2,0,0,1,79.6-10.584a4.251,4.251,0,0,1-3.131-1.244Zm20.2-4.075v3h4.01c-.579,1.541-1.844,2.316-3.839,2.316a4.764,4.764,0,0,1-3.431-1.222A4.249,4.249,0,0,1,92.127-15a4.4,4.4,0,0,1,1.244-3.238A4.332,4.332,0,0,1,96.544-19.5a4.328,4.328,0,0,1,3.667,1.758l2.916-1.675a7.689,7.689,0,0,0-6.562-3.431,7.6,7.6,0,0,0-5.6,2.273A7.539,7.539,0,0,0,88.7-15.026,7.477,7.477,0,0,0,90.99-9.493,7.99,7.99,0,0,0,96.8-7.241,7.354,7.354,0,0,0,102.1-9.236a7.138,7.138,0,0,0,2.1-5.383V-15.9ZM118.826-9.49a7.472,7.472,0,0,0,2.27-5.554,7.472,7.472,0,0,0-2.273-5.554,7.59,7.59,0,0,0-5.533-2.252,7.59,7.59,0,0,0-5.533,2.252,7.472,7.472,0,0,0-2.273,5.554A7.472,7.472,0,0,0,107.76-9.49a7.59,7.59,0,0,0,5.533,2.252A7.59,7.59,0,0,0,118.826-9.49Zm-8.664-2.337a4.347,4.347,0,0,1-1.244-3.217,4.347,4.347,0,0,1,1.244-3.217,4.251,4.251,0,0,1,3.131-1.244,4.2,4.2,0,0,1,3.112,1.244,4.363,4.363,0,0,1,1.265,3.217,4.363,4.363,0,0,1-1.265,3.217,4.2,4.2,0,0,1-3.109,1.244,4.251,4.251,0,0,1-3.134-1.244Z" transform="translate(253.036 51.508)" fill="#2a3b82"/>
</svg>
