<svg xmlns="http://www.w3.org/2000/svg" width="776" height="718" viewBox="0 0 776 718">
  <g id="Group_21313" data-name="Group 21313" transform="translate(-572 -5449.984)">
    <g id="Rectangle_9143" data-name="Rectangle 9143" transform="translate(572 5449.984)" fill="rgba(255,255,255,0.2)" stroke="rgba(255,255,255,0.2)" stroke-width="1">
      <rect width="776" height="718" rx="25" stroke="none"/>
      <rect x="0.5" y="0.5" width="775" height="717" rx="24.5" fill="none"/>
    </g>
    <g id="Group_21312" data-name="Group 21312">
      <line id="Line_266" data-name="Line 266" x2="775" transform="translate(572.5 5558.549)" fill="none" stroke="rgba(222,219,232,0.3)" stroke-width="1"/>
      <g id="Group_21311" data-name="Group 21311">
        <g id="Group_21166" data-name="Group 21166" transform="translate(-5 399.949)">
          <path id="Path_28971" data-name="Path 28971" d="M9.26-14,6.22-8.16,3.18-14H.06L4.84-5.46V0H7.58V-5.46L12.38-14ZM19.72-1.24A5.131,5.131,0,0,0,21.26-5a5.086,5.086,0,0,0-1.54-3.74,5.131,5.131,0,0,0-3.76-1.54A5.131,5.131,0,0,0,12.2-8.74,5.068,5.068,0,0,0,10.68-5,5.113,5.113,0,0,0,12.2-1.24,5.113,5.113,0,0,0,15.96.28,5.113,5.113,0,0,0,19.72-1.24Zm-5.7-1.78A2.748,2.748,0,0,1,13.26-5a2.748,2.748,0,0,1,.76-1.98,2.623,2.623,0,0,1,1.94-.78,2.623,2.623,0,0,1,1.94.78A2.683,2.683,0,0,1,18.68-5a2.683,2.683,0,0,1-.78,1.98,2.623,2.623,0,0,1-1.94.78A2.623,2.623,0,0,1,14.02-3.02ZM29.28-4.6c0,1.66-.86,2.48-2.2,2.48A1.852,1.852,0,0,1,25.1-4.18V-10H22.52v6.14A4.227,4.227,0,0,0,23.58-.82,3.618,3.618,0,0,0,26.3.28a3.309,3.309,0,0,0,2.98-1.4V0h2.58V-10H29.28ZM36.4-10H33.82V0H36.4V-4.78a2.293,2.293,0,0,1,.92-2.06,3,3,0,0,1,2.12-.48V-10.2A3.067,3.067,0,0,0,36.4-8.28Zm8.86-4V0h2.76V-4.6h2.46a4.693,4.693,0,0,0,3.4-1.36A4.5,4.5,0,0,0,55.26-9.3a4.5,4.5,0,0,0-1.38-3.34A4.693,4.693,0,0,0,50.48-14Zm2.76,6.82v-4.24h2.46A2.019,2.019,0,0,1,52.52-9.3a2.03,2.03,0,0,1-2.04,2.12ZM56.66-14V0h5.56a6.372,6.372,0,0,0,4.8-2.02A6.864,6.864,0,0,0,68.96-7a6.864,6.864,0,0,0-1.94-4.98A6.372,6.372,0,0,0,62.22-14ZM59.42-2.64v-8.72h2.8a3.833,3.833,0,0,1,2.96,1.22A4.36,4.36,0,0,1,66.32-7a4.443,4.443,0,0,1-1.14,3.16,3.888,3.888,0,0,1-2.96,1.2ZM78.88-14H70.52V0h2.76V-5.4h5.44V-8.04H73.28v-3.32h5.6Zm8.68,4H84.98V0h2.58V-4.78a2.293,2.293,0,0,1,.92-2.06,3,3,0,0,1,2.12-.48V-10.2a3.067,3.067,0,0,0-3.04,1.92Zm13.48,6.06a6.754,6.754,0,0,0,.1-1.06A5.257,5.257,0,0,0,99.7-8.76a4.713,4.713,0,0,0-3.62-1.52,5.048,5.048,0,0,0-3.8,1.52A5.174,5.174,0,0,0,90.8-5a5.125,5.125,0,0,0,1.5,3.78A5.369,5.369,0,0,0,96.28.28a4.968,4.968,0,0,0,4.36-2.14l-2.08-1.2a2.656,2.656,0,0,1-2.24,1A2.548,2.548,0,0,1,93.5-3.94Zm-7.58-2a2.494,2.494,0,0,1,2.62-2.02,2.417,2.417,0,0,1,2.48,2.02Zm14.9-4.34a3.852,3.852,0,0,0-3.24,1.46V-10h-2.58V4h2.58V-1.18A3.852,3.852,0,0,0,108.36.28a4.512,4.512,0,0,0,3.44-1.52A5.291,5.291,0,0,0,113.24-5a5.243,5.243,0,0,0-1.44-3.74A4.531,4.531,0,0,0,108.36-10.28ZM105.9-2.96A2.823,2.823,0,0,1,105.12-5a2.744,2.744,0,0,1,.78-2.02,2.623,2.623,0,0,1,1.98-.8,2.623,2.623,0,0,1,1.98.8,2.682,2.682,0,0,1,.8,2.02,2.758,2.758,0,0,1-.8,2.04,2.683,2.683,0,0,1-1.98.78A2.683,2.683,0,0,1,105.9-2.96Zm17.28,1.72A5.131,5.131,0,0,0,124.72-5a5.086,5.086,0,0,0-1.54-3.74,5.131,5.131,0,0,0-3.76-1.54,5.131,5.131,0,0,0-3.76,1.54A5.068,5.068,0,0,0,114.14-5a5.113,5.113,0,0,0,1.52,3.76A5.113,5.113,0,0,0,119.42.28,5.113,5.113,0,0,0,123.18-1.24Zm-5.7-1.78A2.748,2.748,0,0,1,116.72-5a2.748,2.748,0,0,1,.76-1.98,2.623,2.623,0,0,1,1.94-.78,2.623,2.623,0,0,1,1.94.78A2.683,2.683,0,0,1,122.14-5a2.683,2.683,0,0,1-.78,1.98,2.623,2.623,0,0,1-1.94.78A2.623,2.623,0,0,1,117.48-3.02ZM128.72-10h-2.58V0h2.58V-4.78a2.293,2.293,0,0,1,.92-2.06,3,3,0,0,1,2.12-.48V-10.2a3.067,3.067,0,0,0-3.04,1.92Zm10.14,0H136.6v-2.8l-2.58.78V-10h-1.74v2.48h1.74v4.16c0,2.74,1.3,3.76,4.84,3.36V-2.34c-1.48.08-2.26.06-2.26-1.02V-7.52h2.26Zm7.46-1.2a1.6,1.6,0,0,0,1.6-1.58,1.618,1.618,0,0,0-1.6-1.6,1.614,1.614,0,0,0-1.58,1.6A1.6,1.6,0,0,0,146.32-11.2ZM147.62,0V-10h-2.58V0Zm4.26-7.16c0-.5.5-.82,1.16-.82a1.652,1.652,0,0,1,1.6,1.02l2.2-1.2a4.251,4.251,0,0,0-3.8-2.12,4.255,4.255,0,0,0-2.72.86,2.785,2.785,0,0,0-1.08,2.32c0,2.08,1.86,2.7,3.34,3.08,1.02.26,1.82.56,1.82,1.1,0,.58-.46.86-1.38.86a1.861,1.861,0,0,1-1.96-1.3L148.82-2.1a4.2,4.2,0,0,0,4.2,2.38,4.834,4.834,0,0,0,2.86-.82,2.757,2.757,0,0,0,1.16-2.38c.02-2.14-1.88-2.84-3.34-3.14C152.68-6.32,151.88-6.62,151.88-7.16Zm16.68-3.12a3.309,3.309,0,0,0-2.98,1.4V-10H163V0h2.58V-5.4c0-1.66.86-2.48,2.2-2.48a1.852,1.852,0,0,1,1.98,2.06V0h2.58V-6.14a4.152,4.152,0,0,0-1.08-3.04A3.543,3.543,0,0,0,168.56-10.28Zm14.1,9.04A5.131,5.131,0,0,0,184.2-5a5.086,5.086,0,0,0-1.54-3.74,5.131,5.131,0,0,0-3.76-1.54,5.131,5.131,0,0,0-3.76,1.54A5.068,5.068,0,0,0,173.62-5a5.113,5.113,0,0,0,1.52,3.76A5.113,5.113,0,0,0,178.9.28,5.113,5.113,0,0,0,182.66-1.24Zm-5.7-1.78A2.748,2.748,0,0,1,176.2-5a2.748,2.748,0,0,1,.76-1.98,2.623,2.623,0,0,1,1.94-.78,2.623,2.623,0,0,1,1.94.78A2.683,2.683,0,0,1,181.62-5a2.683,2.683,0,0,1-.78,1.98,2.623,2.623,0,0,1-1.94.78A2.623,2.623,0,0,1,176.96-3.02Zm17.82-.82L192.96-10h-2.44L188.7-3.86,187-10h-2.74l3.18,10h2.46l1.84-6.06L193.58,0h2.46l3.18-10h-2.74Zm17.64-4.98a3.917,3.917,0,0,0-3.26-1.46,4.562,4.562,0,0,0-3.44,1.54A5.313,5.313,0,0,0,204.3-5a5.362,5.362,0,0,0,1.42,3.76A4.542,4.542,0,0,0,209.16.28a3.917,3.917,0,0,0,3.26-1.46V0H215V-10h-2.58Zm-4.76,5.86A2.823,2.823,0,0,1,206.88-5a2.744,2.744,0,0,1,.78-2.02,2.623,2.623,0,0,1,1.98-.8,2.623,2.623,0,0,1,1.98.8,2.682,2.682,0,0,1,.8,2.02,2.758,2.758,0,0,1-.8,2.04,2.683,2.683,0,0,1-1.98.78A2.683,2.683,0,0,1,207.66-2.96ZM221.08-3l-2.42-7h-2.84l3.8,10h2.94l3.8-10h-2.84ZM234.4-8.82a3.917,3.917,0,0,0-3.26-1.46,4.562,4.562,0,0,0-3.44,1.54A5.313,5.313,0,0,0,226.28-5a5.362,5.362,0,0,0,1.42,3.76A4.542,4.542,0,0,0,231.14.28a3.917,3.917,0,0,0,3.26-1.46V0h2.58V-10H234.4Zm-4.76,5.86A2.823,2.823,0,0,1,228.86-5a2.744,2.744,0,0,1,.78-2.02,2.623,2.623,0,0,1,1.98-.8,2.623,2.623,0,0,1,1.98.8A2.682,2.682,0,0,1,234.4-5a2.758,2.758,0,0,1-.8,2.04,2.683,2.683,0,0,1-1.98.78A2.683,2.683,0,0,1,229.64-2.96ZM240.2-11.2a1.6,1.6,0,0,0,1.6-1.58,1.618,1.618,0,0,0-1.6-1.6,1.614,1.614,0,0,0-1.58,1.6A1.6,1.6,0,0,0,240.2-11.2ZM241.5,0V-10h-2.58V0Zm4.54,0V-14.6h-2.58V0Zm9.56-8.82a3.917,3.917,0,0,0-3.26-1.46,4.562,4.562,0,0,0-3.44,1.54A5.313,5.313,0,0,0,247.48-5a5.362,5.362,0,0,0,1.42,3.76A4.542,4.542,0,0,0,252.34.28a3.917,3.917,0,0,0,3.26-1.46V0h2.58V-10H255.6Zm-4.76,5.86A2.823,2.823,0,0,1,250.06-5a2.744,2.744,0,0,1,.78-2.02,2.623,2.623,0,0,1,1.98-.8,2.623,2.623,0,0,1,1.98.8A2.682,2.682,0,0,1,255.6-5a2.758,2.758,0,0,1-.8,2.04,2.683,2.683,0,0,1-1.98.78A2.683,2.683,0,0,1,250.84-2.96Zm15.1-7.32a3.852,3.852,0,0,0-3.24,1.46V-14h-2.58V0h2.58V-1.18A3.852,3.852,0,0,0,265.94.28a4.512,4.512,0,0,0,3.44-1.52A5.291,5.291,0,0,0,270.82-5a5.243,5.243,0,0,0-1.44-3.74A4.531,4.531,0,0,0,265.94-10.28Zm-2.46,7.32A2.823,2.823,0,0,1,262.7-5a2.744,2.744,0,0,1,.78-2.02,2.623,2.623,0,0,1,1.98-.8,2.623,2.623,0,0,1,1.98.8,2.682,2.682,0,0,1,.8,2.02,2.758,2.758,0,0,1-.8,2.04,2.683,2.683,0,0,1-1.98.78A2.683,2.683,0,0,1,263.48-2.96ZM274.82,0V-14.6h-2.58V0ZM286.5-3.94A6.754,6.754,0,0,0,286.6-5a5.257,5.257,0,0,0-1.44-3.76,4.713,4.713,0,0,0-3.62-1.52,5.048,5.048,0,0,0-3.8,1.52A5.174,5.174,0,0,0,276.26-5a5.125,5.125,0,0,0,1.5,3.78,5.369,5.369,0,0,0,3.98,1.5,4.968,4.968,0,0,0,4.36-2.14l-2.08-1.2a2.656,2.656,0,0,1-2.24,1,2.548,2.548,0,0,1-2.82-1.88Zm-7.58-2a2.494,2.494,0,0,1,2.62-2.02,2.417,2.417,0,0,1,2.48,2.02Zm11.6,1.24.52-5.3v-4h-3.1v4l.54,5.3Zm.18,4.46a1.7,1.7,0,0,0,0-2.4,1.7,1.7,0,0,0-2.4,0,1.7,1.7,0,0,0,0,2.4A1.7,1.7,0,0,0,290.7-.24Z" transform="translate(682 5097.8)" fill="#fff"/>
          <path id="Path_28972" data-name="Path 28972" d="M6.464.208A5.583,5.583,0,0,0,9.3-.528a5.221,5.221,0,0,0,2-2L10-3.264A3.959,3.959,0,0,1,6.464-1.248,4.242,4.242,0,0,1,3.3-2.5,4.259,4.259,0,0,1,2.08-5.6,4.271,4.271,0,0,1,3.3-8.72,4.242,4.242,0,0,1,6.464-9.968,3.942,3.942,0,0,1,10-7.936l1.3-.752a5.537,5.537,0,0,0-4.832-2.72,5.666,5.666,0,0,0-4.208,1.68A5.647,5.647,0,0,0,.608-5.6,5.647,5.647,0,0,0,2.256-1.472,5.666,5.666,0,0,0,6.464.208ZM14.272,0V-11.68H12.88V0ZM17.1-9.456a.929.929,0,0,0,.928-.928.942.942,0,0,0-.928-.944.946.946,0,0,0-.944.944A.932.932,0,0,0,17.1-9.456ZM17.792,0V-8H16.4V0ZM23.68.208a4.059,4.059,0,0,0,3.6-2.08L26.1-2.56A2.671,2.671,0,0,1,23.68-1.168a2.739,2.739,0,0,1-2.016-.816A2.789,2.789,0,0,1,20.864-4a2.8,2.8,0,0,1,.8-2.032,2.739,2.739,0,0,1,2.016-.816A2.557,2.557,0,0,1,26.048-5.44l1.168-.672a3.836,3.836,0,0,0-3.536-2.1,4.04,4.04,0,0,0-3.008,1.216A4.052,4.052,0,0,0,19.472-4a4.114,4.114,0,0,0,1.2,3.008A4.089,4.089,0,0,0,23.68.208Zm7.792-4.336L35.3-8H33.5L30.048-4.464V-11.2H28.656V0h1.392V-3.792L33.7,0h1.728ZM45.072-8H42.944v-2.24l-1.392.416V-8H39.968v1.344h1.584V-2.32c0,1.984,1.088,2.64,3.52,2.32V-1.248c-1.424.064-2.128.16-2.128-1.072V-6.656h2.128ZM50.7-8.208a2.822,2.822,0,0,0-2.592,1.36V-11.2H46.72V0h1.392V-4.24c0-1.792.928-2.64,2.32-2.64a1.852,1.852,0,0,1,1.984,2.048V0h1.392V-4.912A2.994,2.994,0,0,0,50.7-8.208ZM63.424-3.36a4.1,4.1,0,0,0,.048-.624,4.226,4.226,0,0,0-1.12-2.976,3.653,3.653,0,0,0-2.864-1.248,4.05,4.05,0,0,0-3.024,1.2A4.126,4.126,0,0,0,55.3-4,4.15,4.15,0,0,0,56.48-.976a4.261,4.261,0,0,0,3.1,1.184A3.926,3.926,0,0,0,63.1-1.6L61.92-2.272a2.493,2.493,0,0,1-2.3,1.168,2.73,2.73,0,0,1-2.9-2.256ZM59.488-6.9a2.532,2.532,0,0,1,2.576,2.32H56.72A2.664,2.664,0,0,1,59.488-6.9ZM70.464,0V-11.68H69.072V0ZM73.3-9.456a.929.929,0,0,0,.928-.928.942.942,0,0,0-.928-.944.946.946,0,0,0-.944.944A.932.932,0,0,0,73.3-9.456ZM73.984,0V-8H72.592V0ZM80.1-8.208A2.822,2.822,0,0,0,77.5-6.848V-8H76.112V0H77.5V-4.24c0-1.792.928-2.64,2.32-2.64a1.852,1.852,0,0,1,1.984,2.048V0H83.2V-4.912A2.994,2.994,0,0,0,80.1-8.208Zm7.856,4.08L91.776-8H89.984L86.528-4.464V-11.2H85.136V0h1.392V-3.792L90.176,0H91.9Zm13.664-4.08a3.382,3.382,0,0,0-3.024,1.584V-11.2H97.2V0h1.392V-1.376A3.382,3.382,0,0,0,101.616.208a3.822,3.822,0,0,0,2.864-1.216A4.181,4.181,0,0,0,105.664-4a4.143,4.143,0,0,0-1.184-2.976A3.837,3.837,0,0,0,101.616-8.208Zm-.176,7.072a2.75,2.75,0,0,1-2.032-.816A2.812,2.812,0,0,1,98.592-4a2.75,2.75,0,0,1,.816-2.032,2.7,2.7,0,0,1,2.032-.832,2.692,2.692,0,0,1,2.016.832A2.75,2.75,0,0,1,104.272-4a2.812,2.812,0,0,1-.816,2.048A2.739,2.739,0,0,1,101.44-1.136ZM115.008-3.36a4.1,4.1,0,0,0,.048-.624,4.226,4.226,0,0,0-1.12-2.976,3.653,3.653,0,0,0-2.864-1.248,4.05,4.05,0,0,0-3.024,1.2A4.126,4.126,0,0,0,106.88-4a4.15,4.15,0,0,0,1.184,3.024,4.261,4.261,0,0,0,3.1,1.184,3.926,3.926,0,0,0,3.52-1.808L113.5-2.272A2.493,2.493,0,0,1,111.2-1.1a2.73,2.73,0,0,1-2.9-2.256ZM111.072-6.9a2.532,2.532,0,0,1,2.576,2.32H108.3A2.664,2.664,0,0,1,111.072-6.9ZM118.048,0V-11.68h-1.392V0Zm8.88-1.008A4.068,4.068,0,0,0,128.16-4a4.068,4.068,0,0,0-1.232-2.992,4.08,4.08,0,0,0-2.992-1.216,4.08,4.08,0,0,0-2.992,1.216A4.054,4.054,0,0,0,119.728-4a4.054,4.054,0,0,0,1.216,2.992A4.08,4.08,0,0,0,123.936.208,4.08,4.08,0,0,0,126.928-1.008Zm-2.992-.144a2.728,2.728,0,0,1-2-.816A2.75,2.75,0,0,1,121.12-4a2.75,2.75,0,0,1,.816-2.032,2.728,2.728,0,0,1,2-.816,2.739,2.739,0,0,1,2.016.816A2.75,2.75,0,0,1,126.768-4a2.75,2.75,0,0,1-.816,2.032A2.739,2.739,0,0,1,123.936-1.152ZM137.152-1.9,135.264-8H133.92l-1.888,6.08L130.272-8h-1.456l2.48,8h1.424l1.872-5.92L136.464,0h1.424l2.48-8h-1.456ZM150.16-8h-2.128v-2.24l-1.392.416V-8h-1.584v1.344h1.584V-2.32c0,1.984,1.088,2.64,3.52,2.32V-1.248c-1.424.064-2.128.16-2.128-1.072V-6.656h2.128Zm8,6.992A4.069,4.069,0,0,0,159.392-4a4.069,4.069,0,0,0-1.232-2.992,4.08,4.08,0,0,0-2.992-1.216,4.08,4.08,0,0,0-2.992,1.216A4.054,4.054,0,0,0,150.96-4a4.054,4.054,0,0,0,1.216,2.992A4.08,4.08,0,0,0,155.168.208,4.08,4.08,0,0,0,158.16-1.008Zm-2.992-.144a2.728,2.728,0,0,1-2-.816A2.75,2.75,0,0,1,152.352-4a2.75,2.75,0,0,1,.816-2.032,2.728,2.728,0,0,1,2-.816,2.739,2.739,0,0,1,2.016.816A2.75,2.75,0,0,1,158-4a2.75,2.75,0,0,1-.816,2.032A2.739,2.739,0,0,1,155.168-1.152Zm16.5-5.472a3.382,3.382,0,0,0-3.024-1.584,3.837,3.837,0,0,0-2.864,1.232A4.143,4.143,0,0,0,164.592-4a4.181,4.181,0,0,0,1.184,2.992A3.822,3.822,0,0,0,168.64.208a3.382,3.382,0,0,0,3.024-1.584V0h1.392V-11.2h-1.392Zm-2.848,5.488a2.739,2.739,0,0,1-2.016-.816A2.812,2.812,0,0,1,165.984-4a2.75,2.75,0,0,1,.816-2.032,2.692,2.692,0,0,1,2.016-.832,2.7,2.7,0,0,1,2.032.832A2.75,2.75,0,0,1,171.664-4a2.812,2.812,0,0,1-.816,2.048A2.75,2.75,0,0,1,168.816-1.136Zm13.1.128A4.069,4.069,0,0,0,183.152-4a4.069,4.069,0,0,0-1.232-2.992,4.08,4.08,0,0,0-2.992-1.216,4.08,4.08,0,0,0-2.992,1.216A4.054,4.054,0,0,0,174.72-4a4.054,4.054,0,0,0,1.216,2.992A4.08,4.08,0,0,0,178.928.208,4.08,4.08,0,0,0,181.92-1.008Zm-2.992-.144a2.728,2.728,0,0,1-2-.816A2.75,2.75,0,0,1,176.112-4a2.75,2.75,0,0,1,.816-2.032,2.728,2.728,0,0,1,2-.816,2.739,2.739,0,0,1,2.016.816A2.75,2.75,0,0,1,181.76-4a2.75,2.75,0,0,1-.816,2.032A2.739,2.739,0,0,1,178.928-1.152ZM192.144-1.9,190.256-8h-1.344l-1.888,6.08L185.264-8h-1.456l2.48,8h1.424l1.872-5.92L191.456,0h1.424l2.48-8H193.9Zm8.64-6.3a2.822,2.822,0,0,0-2.592,1.36V-8H196.8V0h1.392V-4.24c0-1.792.928-2.64,2.32-2.64A1.852,1.852,0,0,1,202.5-4.832V0h1.392V-4.912A2.994,2.994,0,0,0,200.784-8.208ZM207.216,0V-11.68h-1.392V0Zm8.88-1.008A4.069,4.069,0,0,0,217.328-4,4.069,4.069,0,0,0,216.1-6.992,4.08,4.08,0,0,0,213.1-8.208a4.08,4.08,0,0,0-2.992,1.216A4.054,4.054,0,0,0,208.9-4a4.054,4.054,0,0,0,1.216,2.992A4.08,4.08,0,0,0,213.1.208,4.08,4.08,0,0,0,216.1-1.008ZM213.1-1.152a2.728,2.728,0,0,1-2-.816A2.75,2.75,0,0,1,210.288-4a2.75,2.75,0,0,1,.816-2.032,2.728,2.728,0,0,1,2-.816,2.739,2.739,0,0,1,2.016.816A2.75,2.75,0,0,1,215.936-4a2.75,2.75,0,0,1-.816,2.032A2.739,2.739,0,0,1,213.1-1.152Zm12.5-5.472a3.382,3.382,0,0,0-3.024-1.584,3.837,3.837,0,0,0-2.864,1.232A4.143,4.143,0,0,0,218.528-4a4.181,4.181,0,0,0,1.184,2.992A3.822,3.822,0,0,0,222.576.208,3.382,3.382,0,0,0,225.6-1.376V0h1.392V-8H225.6Zm-2.848,5.488a2.739,2.739,0,0,1-2.016-.816A2.812,2.812,0,0,1,219.92-4a2.75,2.75,0,0,1,.816-2.032,2.692,2.692,0,0,1,2.016-.832,2.7,2.7,0,0,1,2.032.832A2.75,2.75,0,0,1,225.6-4a2.812,2.812,0,0,1-.816,2.048A2.75,2.75,0,0,1,222.752-1.136Zm12.976-5.488A3.382,3.382,0,0,0,232.7-8.208a3.837,3.837,0,0,0-2.864,1.232A4.143,4.143,0,0,0,228.656-4a4.181,4.181,0,0,0,1.184,2.992A3.822,3.822,0,0,0,232.7.208a3.382,3.382,0,0,0,3.024-1.584V0h1.392V-11.2h-1.392ZM232.88-1.136a2.739,2.739,0,0,1-2.016-.816A2.812,2.812,0,0,1,230.048-4a2.75,2.75,0,0,1,.816-2.032,2.692,2.692,0,0,1,2.016-.832,2.7,2.7,0,0,1,2.032.832A2.75,2.75,0,0,1,235.728-4a2.812,2.812,0,0,1-.816,2.048A2.75,2.75,0,0,1,232.88-1.136ZM247.584-8h-2.128v-2.24l-1.392.416V-8H242.48v1.344h1.584V-2.32c0,1.984,1.088,2.64,3.52,2.32V-1.248c-1.424.064-2.128.16-2.128-1.072V-6.656h2.128Zm5.632-.208a2.822,2.822,0,0,0-2.592,1.36V-11.2h-1.392V0h1.392V-4.24c0-1.792.928-2.64,2.32-2.64a1.852,1.852,0,0,1,1.984,2.048V0h1.392V-4.912A2.994,2.994,0,0,0,253.216-8.208Zm12.72,4.848a4.1,4.1,0,0,0,.048-.624,4.226,4.226,0,0,0-1.12-2.976A3.653,3.653,0,0,0,262-8.208a4.05,4.05,0,0,0-3.024,1.2A4.126,4.126,0,0,0,257.808-4a4.15,4.15,0,0,0,1.184,3.024A4.261,4.261,0,0,0,262.1.208a3.926,3.926,0,0,0,3.52-1.808l-1.184-.672a2.493,2.493,0,0,1-2.3,1.168,2.73,2.73,0,0,1-2.9-2.256ZM262-6.9a2.532,2.532,0,0,1,2.576,2.32h-5.344A2.664,2.664,0,0,1,262-6.9Zm9.728-4.3V0h1.488V-4h2.576a3.485,3.485,0,0,0,2.576-1.04,3.5,3.5,0,0,0,1.04-2.56,3.474,3.474,0,0,0-1.04-2.56,3.485,3.485,0,0,0-2.576-1.04Zm1.488,5.808V-9.808h2.576A2.111,2.111,0,0,1,277.936-7.6a2.252,2.252,0,0,1-.608,1.584,2.038,2.038,0,0,1-1.536.624Zm7.952-5.808V0h4.368a4.994,4.994,0,0,0,3.792-1.616,5.653,5.653,0,0,0,1.52-3.984,5.588,5.588,0,0,0-1.52-3.968,4.952,4.952,0,0,0-3.792-1.632Zm1.488,9.792V-9.792h2.88a3.608,3.608,0,0,1,2.8,1.2A4.3,4.3,0,0,1,289.424-5.6a4.3,4.3,0,0,1-1.088,2.992,3.608,3.608,0,0,1-2.8,1.2ZM299.1-11.2h-6.448V0h1.488V-4.752H298.9V-6.16h-4.752V-9.792h4.96ZM300.832.176a1.028,1.028,0,0,0,1.04-1.04,1.028,1.028,0,0,0-1.04-1.04,1.038,1.038,0,0,0-1.04,1.04A1.038,1.038,0,0,0,300.832.176Z" transform="translate(682 5124.8)" fill="#fff"/>
        </g>
        <g id="Group_21165" data-name="Group 21165" transform="translate(3 402.749)">
          <path id="Path_28973" data-name="Path 28973" d="M15,0H45A15,15,0,0,1,60,15V45A15,15,0,0,1,45,60H15A15,15,0,0,1,0,45V15A15,15,0,0,1,15,0Z" transform="translate(599 5073)" fill="#fff" opacity="0.1"/>
          <g id="Group_13046" data-name="Group 13046" transform="translate(-947 -2171.674)">
            <path id="Path_25596" data-name="Path 25596" d="M109.266,26.558a2.763,2.763,0,0,1,1.6-1.469V22.452a2.794,2.794,0,0,1,2.791-2.791h1.6a2.778,2.778,0,0,1,.93.16V2.791A2.794,2.794,0,0,0,113.4,0H94.791A2.794,2.794,0,0,0,92,2.791V4.156h16a3.726,3.726,0,0,1,3.721,3.721V16.56A3.726,3.726,0,0,1,108,20.281H92v8.683a2.794,2.794,0,0,0,2.791,2.791h16.79l-1.9-2.215a2.763,2.763,0,0,1-.417-2.983Z" transform="translate(1473.624 7258.674)" fill="#fff"/>
            <path id="Path_25597" data-name="Path 25597" d="M402.476,352.272h-.929V347.93a.93.93,0,0,0-.93-.93h-1.6a.93.93,0,0,0-.93.93v4.342h-.929a.93.93,0,0,0-.706,1.536l2.658,3.1a.93.93,0,0,0,1.413,0l2.658-3.1A.93.93,0,0,0,402.476,352.272Z" transform="translate(1188.266 6933.196)" fill="#fff"/>
            <path id="Subtraction_82" data-name="Subtraction 82" d="M21.708,12.4H1.861A1.863,1.863,0,0,1,0,10.544V1.861A1.863,1.863,0,0,1,1.861,0H21.708a1.863,1.863,0,0,1,1.861,1.861v8.683A1.863,1.863,0,0,1,21.708,12.4Zm-5.2-9.4V9.417h1.237V6.728h2.2V5.671h-2.2V4.137h2.365V3.009Zm-7.05,0V9.417h2.32a3.055,3.055,0,0,0,2.211-.895,3,3,0,0,0,.65-1.013,3.695,3.695,0,0,0,0-2.593,3,3,0,0,0-.65-1.013,3.055,3.055,0,0,0-2.211-.895Zm-6.2,0V9.417H4.5V7.359H5.525a2.359,2.359,0,0,0,1.668-.6,2.114,2.114,0,0,0,.625-1.578,2.114,2.114,0,0,0-.625-1.578,2.359,2.359,0,0,0-1.668-.6Zm8.476,5.244H10.7V4.173h1.038a1.793,1.793,0,0,1,1.851,2.04A1.793,1.793,0,0,1,11.735,8.253ZM5.417,6.222H4.5V4.146h.921a1.268,1.268,0,0,1,.824.241.975.975,0,0,1,.323.8C6.563,6.042,5.94,6.222,5.417,6.222Z" transform="translate(1560 7264.773)" fill="#fff"/>
          </g>
        </g>
      </g>
    </g>
  </g>
</svg>
