<svg xmlns="http://www.w3.org/2000/svg" xmlns:xlink="http://www.w3.org/1999/xlink" width="1402.401" height="418.107" viewBox="0 0 1402.401 418.107">
  <defs>
    <clipPath id="clip-path">
      <rect id="Rectangle_9264" data-name="Rectangle 9264" width="11.154" height="11.553" fill="none"/>
    </clipPath>
    <clipPath id="clip-path-2">
      <rect id="Rectangle_9273" data-name="Rectangle 9273" width="5.955" height="6.146" fill="none"/>
    </clipPath>
    <clipPath id="clip-path-3">
      <rect id="Rectangle_9274" data-name="Rectangle 9274" width="12.021" height="12.454" fill="none"/>
    </clipPath>
    <clipPath id="clip-path-4">
      <rect id="Rectangle_9275" data-name="Rectangle 9275" width="12.022" height="12.454" fill="none"/>
    </clipPath>
  </defs>
  <g id="Group_22344" data-name="Group 22344" transform="translate(0 -0.001)">
    <g id="Group_22334" data-name="Group 22334" transform="translate(0.75 0.751)">
      <g id="Group_22333" data-name="Group 22333">
        <g id="Group_22335" data-name="Group 22335">
          <g id="Group_22319" data-name="Group 22319" transform="translate(497.183 170.056)" opacity="0.17">
            <g id="Group_22318" data-name="Group 22318">
              <g id="Group_22317" data-name="Group 22317" clip-path="url(#clip-path)">
                <path id="Path_29010" data-name="Path 29010" d="M438.88,159.617a5.205,5.205,0,1,1,4.966-5.237,5.107,5.107,0,0,1-4.966,5.237m-.062-9.029a3.831,3.831,0,1,0,3.708,3.8,3.763,3.763,0,0,0-3.708-3.8" transform="translate(-433.266 -148.639)" fill="#4a7991"/>
                <path id="Path_29011" data-name="Path 29011" d="M438.88,159.617a5.205,5.205,0,1,1,4.966-5.237A5.107,5.107,0,0,1,438.88,159.617Zm-.062-9.029a3.831,3.831,0,1,0,3.708,3.8A3.763,3.763,0,0,0,438.818,150.588Z" transform="translate(-433.266 -148.639)" fill="none" stroke="#fff" stroke-miterlimit="10" stroke-width="1"/>
              </g>
            </g>
          </g>
          <path id="Path_29012" data-name="Path 29012" d="M520.051,145.091l-86.478.633a13.832,13.832,0,0,1-13.893-13.7l-.616-91.018a13.834,13.834,0,0,1,13.691-13.885l86.478-.633a13.831,13.831,0,0,1,13.893,13.7l.616,91.018A13.834,13.834,0,0,1,520.051,145.091Z" transform="translate(61.711 3.092)" fill="none" stroke="#fff" stroke-miterlimit="10" stroke-width="2"/>
          <path id="Path_29013" data-name="Path 29013" d="M84.688,112.914l-50.756.371a13.83,13.83,0,0,1-13.892-13.7l-.364-53.874A13.833,13.833,0,0,1,33.366,31.828l50.756-.371a13.831,13.831,0,0,1,13.893,13.7l.364,53.874A13.834,13.834,0,0,1,84.688,112.914Z" transform="translate(2.076 3.834)" fill="none" stroke="#fff" stroke-miterlimit="10" stroke-width="1.5"/>
          <path id="Path_29014" data-name="Path 29014" d="M519.686,343.759l-29.493.217a9.389,9.389,0,0,1-9.432-9.3l-.214-31.412a9.39,9.39,0,0,1,9.293-9.427l29.493-.218a9.391,9.391,0,0,1,9.432,9.3l.214,31.412A9.391,9.391,0,0,1,519.686,343.759Z" transform="translate(70.891 42.979)" fill="none" stroke="#fff" stroke-miterlimit="10" stroke-width="2"/>
          <path id="Path_29015" data-name="Path 29015" d="M272.776,348.814l-51.215.378a13.83,13.83,0,0,1-13.893-13.7l-.371-54.351a13.833,13.833,0,0,1,13.689-13.885l51.215-.378a13.83,13.83,0,0,1,13.893,13.7l.371,54.35A13.834,13.834,0,0,1,272.776,348.814Z" transform="translate(30.091 38.986)" fill="none" stroke="#fff" stroke-miterlimit="10" stroke-width="1.5"/>
          <path id="Path_29016" data-name="Path 29016" d="M642.921,223.9l-62.248.46a13.831,13.831,0,0,1-13.894-13.7l-.449-65.824a13.834,13.834,0,0,1,13.69-13.886l62.249-.46a13.83,13.83,0,0,1,13.893,13.7l.449,65.824A13.834,13.834,0,0,1,642.921,223.9Z" transform="translate(83.699 18.622)" fill="none" stroke="#fff" stroke-miterlimit="10" stroke-width="2"/>
          <path id="Path_29017" data-name="Path 29017" d="M414.586,365.431l-62.248.46a13.831,13.831,0,0,1-13.894-13.7l-.449-65.824a13.834,13.834,0,0,1,13.69-13.886l62.249-.46a13.832,13.832,0,0,1,13.893,13.7l.449,65.824A13.834,13.834,0,0,1,414.586,365.431Z" transform="translate(49.606 39.754)" fill="none" stroke="#fff" stroke-miterlimit="10" stroke-width="1.5"/>
          <line id="Line_268" data-name="Line 268" x2="0.534" y2="78.297" transform="translate(157.85 239.855)" fill="none" stroke="#fff" stroke-miterlimit="10" stroke-width="2"/>
          <line id="Line_269" data-name="Line 269" x2="0.693" y2="102.466" transform="translate(381.039 109.581)" fill="none" stroke="#fff" stroke-miterlimit="10" stroke-width="2"/>
          <line id="Line_270" data-name="Line 270" y1="0.369" x2="49.988" transform="translate(337.955 376.38)" fill="none" stroke="#fff" stroke-miterlimit="10" stroke-width="2"/>
          <path id="Path_29018" data-name="Path 29018" d="M145.893,278.4a6.5,6.5,0,1,1-6.537-6.7,6.629,6.629,0,0,1,6.537,6.7" transform="translate(18.984 39.705)" fill="#fff"/>
          <ellipse id="Ellipse_1422" data-name="Ellipse 1422" cx="6.491" cy="6.75" rx="6.491" ry="6.75" transform="translate(151.893 311.403)" fill="none" stroke="#fff" stroke-miterlimit="10" stroke-width="1"/>
          <path id="Path_29019" data-name="Path 29019" d="M340.238,186.1a6.5,6.5,0,1,1-6.537-6.7,6.629,6.629,0,0,1,6.537,6.7" transform="translate(48.002 25.923)" fill="#fff"/>
          <path id="Path_29020" data-name="Path 29020" d="M340.238,186.1a6.5,6.5,0,1,1-6.537-6.7A6.629,6.629,0,0,1,340.238,186.1Z" transform="translate(48.002 25.923)" fill="none" stroke="#fff" stroke-miterlimit="10" stroke-width="1"/>
          <path id="Path_29021" data-name="Path 29021" d="M163.478,122.148a6.5,6.5,0,1,1-6.537-6.7,6.629,6.629,0,0,1,6.537,6.7" transform="translate(21.609 16.375)" fill="#fff"/>
          <ellipse id="Ellipse_1423" data-name="Ellipse 1423" cx="6.491" cy="6.75" rx="6.491" ry="6.75" transform="translate(172.105 131.82)" fill="none" stroke="#fff" stroke-miterlimit="10" stroke-width="1"/>
          <path id="Path_29022" data-name="Path 29022" d="M476.026,95.221a13.281,13.281,0,0,1-5.155,1.079,13.547,13.547,0,0,1-9.594-3.926l1.138-.713a.939.939,0,0,0-.029-1.755l-5.594-3.232c-.814-.47-1.484-.057-1.5.922l-.086,6.814c-.011.98.625,1.37,1.423.87l1.573-.984a17,17,0,0,0,12.69,5.62,16.556,16.556,0,0,0,5.194-.878c3.487-.993,1.724-4.6-.063-3.818M456.977,79.99A14.3,14.3,0,0,1,467.2,67.877l-.024-3.726a17.77,17.77,0,0,0-13.456,14.187c-1.2,4.54,3.144,3.6,3.256,1.653m11.782-9,5.635-3.565a1.013,1.013,0,0,0-.009-1.864l-5.735-3.551c-.825-.51-1.485-.116-1.475.883l.079,7.23c.01,1,.684,1.387,1.5.868m19.7,17.2-2.977-1.8,1.809,1.069a18.674,18.674,0,0,0,.871-5.744,18.327,18.327,0,0,0-6.147-13.66c-1.781-1.647-4.377.179-2.692,2.381a14.64,14.64,0,0,1,5.36,11.3,14.992,14.992,0,0,1-.492,3.869l-1.535-.93c-.8-.485-1.432-.076-1.411.913l.147,6.794c.022.99.688,1.4,1.49.916l5.574-3.357a.939.939,0,0,0,0-1.752" transform="translate(66.854 8.362)" fill="#fff"/>
          <path id="Path_29023" data-name="Path 29023" d="M476.026,95.221a13.281,13.281,0,0,1-5.155,1.079,13.547,13.547,0,0,1-9.594-3.926l1.138-.713a.939.939,0,0,0-.029-1.755l-5.594-3.232c-.814-.47-1.484-.057-1.5.922l-.086,6.814c-.011.98.625,1.37,1.423.87l1.573-.984a17,17,0,0,0,12.69,5.62,16.556,16.556,0,0,0,5.194-.878C479.576,98.046,477.813,94.443,476.026,95.221ZM456.977,79.99A14.3,14.3,0,0,1,467.2,67.877l-.024-3.726a17.77,17.77,0,0,0-13.456,14.187C452.526,82.877,456.866,81.942,456.977,79.99Zm11.782-9,5.635-3.565a1.013,1.013,0,0,0-.009-1.864l-5.735-3.551c-.825-.51-1.485-.116-1.475.883l.079,7.23C467.265,71.118,467.938,71.507,468.759,70.988Zm19.7,17.2-2.977-1.8,1.809,1.069a18.674,18.674,0,0,0,.871-5.744,18.327,18.327,0,0,0-6.147-13.66c-1.781-1.647-4.377.179-2.692,2.381a14.64,14.64,0,0,1,5.36,11.3,14.992,14.992,0,0,1-.492,3.869l-1.535-.93c-.8-.485-1.432-.076-1.411.913l.147,6.794c.022.99.688,1.4,1.49.916l5.574-3.357A.939.939,0,0,0,488.456,88.19Z" transform="translate(66.854 8.362)" fill="none" stroke="#fff" stroke-miterlimit="10" stroke-width="1"/>
          <path id="Path_29024" data-name="Path 29024" d="M333.96,38.628c-8.613.045-15.561,7.343-15.517,16.3s7.061,16.18,15.673,16.135,15.561-7.343,15.517-16.3-7.061-16.179-15.673-16.134m.121,25-7.19-8.746,4.548-.024L331.4,46.75l5.2-.028.039,8.107,4.549-.023Z" transform="translate(46.686 4.905)" fill="#fff"/>
          <path id="Path_29025" data-name="Path 29025" d="M333.96,38.628c-8.613.045-15.561,7.343-15.517,16.3s7.061,16.18,15.673,16.135,15.561-7.343,15.517-16.3S342.572,38.583,333.96,38.628Zm.121,25-7.19-8.746,4.548-.024L331.4,46.75l5.2-.028.039,8.107,4.549-.023Z" transform="translate(46.686 4.905)" fill="none" stroke="#fff" stroke-miterlimit="10" stroke-width="1"/>
          <path id="Path_29026" data-name="Path 29026" d="M253.419,169.929l12.1,12.4-11.926,12.577,4.79,4.911,16.649-17.558-16.887-17.311Z" transform="translate(36.977 23.766)" fill="#fff"/>
          <path id="Path_29027" data-name="Path 29027" d="M253.419,169.929l12.1,12.4-11.926,12.577,4.79,4.911,16.649-17.558-16.887-17.311Z" transform="translate(36.977 23.766)" fill="none" stroke="#fff" stroke-miterlimit="10" stroke-width="1"/>
          <path id="Path_29028" data-name="Path 29028" d="M244.817,199.917l16.648-17.558-16.886-17.311-4.723,4.981,12.1,12.4-11.925,12.577Z" transform="translate(34.952 23.781)" fill="#fff"/>
          <path id="Path_29029" data-name="Path 29029" d="M244.817,199.917l16.648-17.558-16.886-17.311-4.723,4.981,12.1,12.4-11.925,12.577Z" transform="translate(34.952 23.781)" fill="none" stroke="#fff" stroke-miterlimit="10" stroke-width="1"/>
          <path id="Path_29030" data-name="Path 29030" d="M715.266,234.378l86.478-.638a13.829,13.829,0,0,1,13.893,13.7l.622,91.019a13.833,13.833,0,0,1-13.69,13.885l-86.478.639a13.83,13.83,0,0,1-13.893-13.7l-.622-91.018A13.834,13.834,0,0,1,715.266,234.378Z" transform="translate(103.894 34.038)" fill="none" stroke="#fff" stroke-miterlimit="10" stroke-width="2"/>
          <path id="Path_29031" data-name="Path 29031" d="M1145.957,261.667l50.756-.375a13.83,13.83,0,0,1,13.893,13.7l.368,53.874a13.834,13.834,0,0,1-13.689,13.885l-50.756.375a13.83,13.83,0,0,1-13.893-13.7l-.368-53.873A13.834,13.834,0,0,1,1145.957,261.667Z" transform="translate(168.202 38.152)" fill="none" stroke="#fff" stroke-miterlimit="10" stroke-width="1.5"/>
          <path id="Path_29032" data-name="Path 29032" d="M707.031,26.773l29.493-.216a9.389,9.389,0,0,1,9.431,9.3l.213,31.413a9.391,9.391,0,0,1-9.293,9.426l-29.494.216a9.39,9.39,0,0,1-9.431-9.3L697.737,36.2A9.393,9.393,0,0,1,707.031,26.773Z" transform="translate(103.32 3.102)" fill="none" stroke="#fff" stroke-miterlimit="10" stroke-width="2"/>
          <path id="Path_29033" data-name="Path 29033" d="M957.935,25.886l51.215-.375a13.831,13.831,0,0,1,13.893,13.7l.368,54.351a13.834,13.834,0,0,1-13.691,13.885l-51.215.375a13.831,13.831,0,0,1-13.893-13.7l-.368-54.351A13.835,13.835,0,0,1,957.935,25.886Z" transform="translate(140.128 2.946)" fill="none" stroke="#fff" stroke-miterlimit="10" stroke-width="1.5"/>
          <path id="Path_29034" data-name="Path 29034" d="M817.569,10.76l62.249-.455A13.83,13.83,0,0,1,893.71,24l.446,65.825a13.835,13.835,0,0,1-13.691,13.885l-62.249.455a13.83,13.83,0,0,1-13.892-13.7l-.446-65.824A13.835,13.835,0,0,1,817.569,10.76Z" transform="translate(119.169 0.676)" fill="none" stroke="#fff" stroke-miterlimit="10" stroke-width="1.5"/>
          <line id="Line_271" data-name="Line 271" x1="0.53" y1="78.297" transform="translate(1242.539 98.489)" fill="none" stroke="#fff" stroke-miterlimit="10" stroke-width="2"/>
          <line id="Line_272" data-name="Line 272" x1="0.7" y1="102.466" transform="translate(1019.184 204.539)" fill="none" stroke="#fff" stroke-miterlimit="10" stroke-width="2"/>
          <line id="Line_273" data-name="Line 273" x1="49.988" y2="0.365" transform="translate(1012.984 39.881)" fill="none" stroke="#fff" stroke-miterlimit="10" stroke-width="2"/>
          <path id="Path_29035" data-name="Path 29035" d="M1076.215,87.369a6.5,6.5,0,1,1,6.537,6.7,6.629,6.629,0,0,1-6.537-6.7" transform="translate(159.833 11.168)" fill="#fff"/>
          <path id="Path_29036" data-name="Path 29036" d="M1076.215,87.369a6.5,6.5,0,1,1,6.537,6.7A6.629,6.629,0,0,1,1076.215,87.369Z" transform="translate(159.833 11.168)" fill="none" stroke="#fff" stroke-miterlimit="10" stroke-width="1"/>
          <path id="Path_29037" data-name="Path 29037" d="M881.878,179.642a6.5,6.5,0,1,1,6.537,6.7,6.631,6.631,0,0,1-6.537-6.7" transform="translate(130.815 24.945)" fill="#fff"/>
          <path id="Path_29038" data-name="Path 29038" d="M881.878,179.642a6.5,6.5,0,1,1,6.537,6.7A6.631,6.631,0,0,1,881.878,179.642Z" transform="translate(130.815 24.945)" fill="none" stroke="#fff" stroke-miterlimit="10" stroke-width="1"/>
          <path id="Path_29039" data-name="Path 29039" d="M1058.637,243.591a6.5,6.5,0,1,1,6.537,6.7,6.629,6.629,0,0,1-6.537-6.7" transform="translate(157.208 34.494)" fill="#fff"/>
          <path id="Path_29040" data-name="Path 29040" d="M1058.637,243.591a6.5,6.5,0,1,1,6.537,6.7A6.629,6.629,0,0,1,1058.637,243.591Z" transform="translate(157.208 34.494)" fill="none" stroke="#fff" stroke-miterlimit="10" stroke-width="1"/>
          <path id="Path_29041" data-name="Path 29041" d="M749.012,273.709a13.3,13.3,0,0,1,5.155-1.08,13.551,13.551,0,0,1,9.6,3.925l-1.138.713a.94.94,0,0,0,.029,1.756l5.594,3.231c.814.47,1.484.057,1.5-.922l.086-6.813c.012-.982-.625-1.371-1.424-.871l-1.572.984a17,17,0,0,0-12.69-5.619,16.558,16.558,0,0,0-5.195.878c-3.487.994-1.724,4.6.063,3.819m19.05,15.23a14.3,14.3,0,0,1-10.223,12.114l.025,3.726a17.768,17.768,0,0,0,13.454-14.188c1.2-4.54-3.144-3.6-3.256-1.652m-11.781,9-5.635,3.565a1.013,1.013,0,0,0,.009,1.864l5.735,3.551c.825.51,1.486.116,1.475-.883l-.079-7.23c-.01-1-.685-1.387-1.5-.868m-19.7-17.2,2.977,1.8-1.809-1.069a18.641,18.641,0,0,0-.87,5.744,18.318,18.318,0,0,0,6.147,13.658c1.781,1.648,4.377-.179,2.692-2.38a14.641,14.641,0,0,1-5.362-11.3,14.994,14.994,0,0,1,.492-3.869l1.535.93c.8.485,1.432.076,1.411-.913l-.147-6.794c-.022-.99-.688-1.4-1.491-.917l-5.573,3.358a.939.939,0,0,0,0,1.752" transform="translate(109.031 39.304)" fill="#fff"/>
          <path id="Path_29042" data-name="Path 29042" d="M749.012,273.709a13.3,13.3,0,0,1,5.155-1.08,13.551,13.551,0,0,1,9.6,3.925l-1.138.713a.94.94,0,0,0,.029,1.756l5.594,3.231c.814.47,1.484.057,1.5-.922l.086-6.813c.012-.982-.625-1.371-1.424-.871l-1.572.984a17,17,0,0,0-12.69-5.619,16.558,16.558,0,0,0-5.195.878C745.461,270.884,747.224,274.486,749.012,273.709Zm19.05,15.23a14.3,14.3,0,0,1-10.223,12.114l.025,3.726a17.768,17.768,0,0,0,13.454-14.188C772.514,286.051,768.173,286.986,768.061,288.939Zm-11.781,9-5.635,3.565a1.013,1.013,0,0,0,.009,1.864l5.735,3.551c.825.51,1.486.116,1.475-.883l-.079-7.23C757.775,297.81,757.1,297.422,756.281,297.941Zm-19.7-17.2,2.977,1.8-1.809-1.069a18.641,18.641,0,0,0-.87,5.744,18.318,18.318,0,0,0,6.147,13.658c1.781,1.648,4.377-.179,2.692-2.38a14.641,14.641,0,0,1-5.362-11.3,14.994,14.994,0,0,1,.492-3.869l1.535.93c.8.485,1.432.076,1.411-.913l-.147-6.794c-.022-.99-.688-1.4-1.491-.917l-5.573,3.358A.939.939,0,0,0,736.583,280.741Z" transform="translate(109.031 39.304)" fill="none" stroke="#fff" stroke-miterlimit="10" stroke-width="1"/>
          <path id="Path_29043" data-name="Path 29043" d="M890.518,328.461c8.612-.046,15.559-7.343,15.516-16.3s-7.062-16.179-15.676-16.134-15.559,7.344-15.516,16.3,7.063,16.179,15.676,16.133m-.123-25,7.191,8.746-4.549.024.04,8.107-5.2.028-.039-8.107-4.548.024Z" transform="translate(129.765 43.338)" fill="#fff"/>
          <path id="Path_29044" data-name="Path 29044" d="M890.518,328.461c8.612-.046,15.559-7.343,15.516-16.3s-7.062-16.179-15.676-16.134-15.559,7.344-15.516,16.3S881.9,328.506,890.518,328.461Zm-.123-25,7.191,8.746-4.549.024.04,8.107-5.2.028-.039-8.107-4.548.024Z" transform="translate(129.765 43.338)" fill="none" stroke="#fff" stroke-miterlimit="10" stroke-width="1"/>
          <path id="Path_29045" data-name="Path 29045" d="M969.817,198.585l-12.1-12.4,11.926-12.577-4.792-4.911-16.648,17.558,16.887,17.311Z" transform="translate(140.719 24.326)" fill="#fff"/>
          <path id="Path_29046" data-name="Path 29046" d="M969.817,198.585l-12.1-12.4,11.926-12.577-4.792-4.911-16.648,17.558,16.887,17.311Z" transform="translate(140.719 24.326)" fill="none" stroke="#fff" stroke-miterlimit="10" stroke-width="1"/>
          <path id="Path_29047" data-name="Path 29047" d="M978.42,168.6l-16.648,17.558,16.886,17.312,4.723-4.981-12.1-12.4,11.925-12.577Z" transform="translate(142.745 24.311)" fill="#fff"/>
          <path id="Path_29048" data-name="Path 29048" d="M978.42,168.6l-16.648,17.558,16.886,17.312,4.723-4.981-12.1-12.4,11.925-12.577Z" transform="translate(142.745 24.311)" fill="none" stroke="#fff" stroke-miterlimit="10" stroke-width="1"/>
          <path id="Path_29049" data-name="Path 29049" d="M109.265,138.153l-93.954.687a13.83,13.83,0,0,1-13.892-13.7L.75,26.351A13.834,13.834,0,0,1,14.441,12.466l93.954-.687a13.83,13.83,0,0,1,13.892,13.7l.669,98.792A13.834,13.834,0,0,1,109.265,138.153Z" transform="translate(-0.75 0.896)" fill="none" stroke="#fff" stroke-miterlimit="10" stroke-width="1.5"/>
          <path id="Path_29050" data-name="Path 29050" d="M297.072,373.208l-93.954.687a13.83,13.83,0,0,1-13.892-13.7l-.669-98.792a13.834,13.834,0,0,1,13.691-13.885l93.954-.687a13.831,13.831,0,0,1,13.892,13.7l.669,98.792A13.834,13.834,0,0,1,297.072,373.208Z" transform="translate(27.293 35.993)" fill="none" stroke="#fff" stroke-miterlimit="10" stroke-width="1.5"/>
          <path id="Path_29051" data-name="Path 29051" d="M546.852,172.614l-133.585.977a13.83,13.83,0,0,1-13.893-13.7l-.947-140A13.833,13.833,0,0,1,412.118,6.008L545.7,5.031a13.831,13.831,0,0,1,13.893,13.7l.947,140A13.834,13.834,0,0,1,546.852,172.614Z" transform="translate(58.629 -0.112)" fill="none" stroke="#fff" stroke-miterlimit="10" stroke-width="1.5"/>
          <path id="Path_29052" data-name="Path 29052" d="M88.967,262.121l-72.817.533a13.832,13.832,0,0,1-13.893-13.7l-.519-76.813a13.835,13.835,0,0,1,13.691-13.885l72.817-.532a13.831,13.831,0,0,1,13.893,13.7l.519,76.813A13.834,13.834,0,0,1,88.967,262.121Z" transform="translate(-0.602 22.688)" fill="none" stroke="#fff" stroke-miterlimit="10" stroke-width="1.5"/>
          <path id="Path_29053" data-name="Path 29053" d="M291.989,230.738l-62.248.455a13.83,13.83,0,0,1-13.893-13.7l-.446-65.825a13.835,13.835,0,0,1,13.691-13.885l62.249-.455a13.83,13.83,0,0,1,13.892,13.7l.446,65.824A13.834,13.834,0,0,1,291.989,230.738Z" transform="translate(31.301 19.642)" fill="none" stroke="#fff" stroke-miterlimit="10" stroke-width="1.5"/>
          <path id="Path_29054" data-name="Path 29054" d="M369.323,108.032l-62.248.455a13.831,13.831,0,0,1-13.893-13.7l-.446-65.825A13.835,13.835,0,0,1,306.427,15.08l62.249-.455a13.83,13.83,0,0,1,13.892,13.7l.446,65.824A13.835,13.835,0,0,1,369.323,108.032Z" transform="translate(42.848 1.321)" fill="none" stroke="#fff" stroke-miterlimit="10" stroke-width="1.5"/>
          <path id="Path_29055" data-name="Path 29055" d="M155.7,370.9l-62.248.455a13.83,13.83,0,0,1-13.893-13.7l-.446-65.825A13.835,13.835,0,0,1,92.8,277.946l62.249-.455a13.83,13.83,0,0,1,13.892,13.7l.446,65.824A13.834,13.834,0,0,1,155.7,370.9Z" transform="translate(10.951 40.57)" fill="none" stroke="#fff" stroke-miterlimit="10" stroke-width="1.5"/>
          <path id="Path_29056" data-name="Path 29056" d="M538.907,368.094l-62.248.455a13.83,13.83,0,0,1-13.893-13.7l-.446-65.825a13.835,13.835,0,0,1,13.691-13.885l62.249-.455a13.83,13.83,0,0,1,13.892,13.7l.446,65.824A13.834,13.834,0,0,1,538.907,368.094Z" transform="translate(68.169 40.152)" fill="none" stroke="#fff" stroke-miterlimit="10" stroke-width="1.5"/>
          <path id="Path_29057" data-name="Path 29057" d="M167.262,217.032l-41.5.3a8.083,8.083,0,0,1-8.12-8.006l-.3-43.8a8.086,8.086,0,0,1,8-8.115l41.5-.3a8.086,8.086,0,0,1,8.121,8.006l.3,43.8A8.087,8.087,0,0,1,167.262,217.032Z" transform="translate(16.659 22.596)" fill="none" stroke="#fff" stroke-miterlimit="10" stroke-width="1.5"/>
          <path id="Path_29058" data-name="Path 29058" d="M52.436,338.138l-41.5.3a8.084,8.084,0,0,1-8.12-8.006l-.3-43.8a8.086,8.086,0,0,1,8-8.115l41.5-.3a8.083,8.083,0,0,1,8.12,8.006l.3,43.8A8.086,8.086,0,0,1,52.436,338.138Z" transform="translate(-0.486 40.679)" fill="none" stroke="#fff" stroke-miterlimit="10" stroke-width="1.5"/>
          <path id="Path_29059" data-name="Path 29059" d="M186.9,99.983l-41.5.3a8.082,8.082,0,0,1-8.12-8.006l-.3-43.8a8.086,8.086,0,0,1,8-8.115l41.5-.3a8.084,8.084,0,0,1,8.121,8.006l.3,43.8A8.087,8.087,0,0,1,186.9,99.983Z" transform="translate(19.591 5.119)" fill="none" stroke="#fff" stroke-miterlimit="10" stroke-width="1.5"/>
          <rect id="Rectangle_9265" data-name="Rectangle 9265" width="57.627" height="59.92" rx="7.014" transform="matrix(1, -0.007, 0.007, 1, 386.891, 227.154)" fill="none" stroke="#fff" stroke-miterlimit="10" stroke-width="1.5"/>
          <rect id="Rectangle_9266" data-name="Rectangle 9266" width="57.627" height="59.92" rx="7.014" transform="translate(561.802 199.183) rotate(-0.419)" fill="none" stroke="#fff" stroke-miterlimit="10" stroke-width="1.5"/>
          <rect id="Rectangle_9267" data-name="Rectangle 9267" width="57.627" height="59.92" rx="7.014" transform="matrix(1, -0.007, 0.007, 1, 665.263, 39.231)" fill="none" stroke="#fff" stroke-miterlimit="10" stroke-width="1.5"/>
          <rect id="Rectangle_9268" data-name="Rectangle 9268" width="57.627" height="59.92" rx="7.014" transform="matrix(1, -0.007, 0.007, 1, 667.27, 335.85)" fill="none" stroke="#fff" stroke-miterlimit="10" stroke-width="1.5"/>
          <line id="Line_274" data-name="Line 274" y1="0.89" x2="121.537" transform="translate(214.345 74.194)" fill="none" stroke="#fff" stroke-miterlimit="10" stroke-width="1.5"/>
          <line id="Line_275" data-name="Line 275" x2="0.171" y2="25.247" transform="translate(416.126 286.862)" fill="none" stroke="#fff" stroke-miterlimit="10" stroke-width="1.5"/>
          <line id="Line_276" data-name="Line 276" x1="0.178" y1="26.36" transform="translate(590.453 172.612)" fill="none" stroke="#fff" stroke-miterlimit="10" stroke-width="1.5"/>
          <line id="Line_277" data-name="Line 277" y1="0.86" x2="117.467" transform="translate(444.687 248.633)" fill="none" stroke="#fff" stroke-miterlimit="10" stroke-width="1.5"/>
          <line id="Line_278" data-name="Line 278" x2="0.514" y2="75.811" transform="translate(502.907 173.253)" fill="none" stroke="#fff" stroke-miterlimit="10" stroke-width="1.5"/>
          <line id="Line_279" data-name="Line 279" y1="0.238" x2="32.506" transform="translate(101.644 210.033)" fill="none" stroke="#fff" stroke-miterlimit="10" stroke-width="1.5"/>
          <line id="Line_280" data-name="Line 280" x2="0.22" y2="32.446" transform="translate(298.763 250.56)" fill="none" stroke="#fff" stroke-miterlimit="10" stroke-width="1.5"/>
          <line id="Line_281" data-name="Line 281" y1="0.264" x2="36.188" transform="translate(180.087 360.279)" fill="none" stroke="#fff" stroke-miterlimit="10" stroke-width="1.5"/>
          <line id="Line_282" data-name="Line 282" x2="0.279" y2="41.209" transform="translate(50.963 139.469)" fill="none" stroke="#fff" stroke-miterlimit="10" stroke-width="1.5"/>
          <line id="Line_283" data-name="Line 283" y1="0.255" x2="34.848" transform="translate(121.872 75.505)" fill="none" stroke="#fff" stroke-miterlimit="10" stroke-width="1.5"/>
          <line id="Line_284" data-name="Line 284" y1="1.217" x2="166.347" transform="translate(336.817 211.158)" fill="none" stroke="#fff" stroke-miterlimit="10" stroke-width="1.5"/>
          <line id="Line_285" data-name="Line 285" x2="0.56" y2="82.678" transform="translate(275.113 74.639)" fill="none" stroke="#fff" stroke-miterlimit="10" stroke-width="1.5"/>
          <line id="Line_286" data-name="Line 286" x2="0.503" y2="74.436" transform="translate(178.36 105.308)" fill="none" stroke="#fff" stroke-miterlimit="10" stroke-width="1.5"/>
          <line id="Line_287" data-name="Line 287" y1="0.709" x2="96.956" transform="translate(178.585 137.827)" fill="none" stroke="#fff" stroke-miterlimit="10" stroke-width="1.5"/>
          <line id="Line_288" data-name="Line 288" x2="0.379" y2="56.059" transform="translate(591.036 258.89)" fill="none" stroke="#fff" stroke-miterlimit="10" stroke-width="1.5"/>
          <path id="Path_29060" data-name="Path 29060" d="M326.379,96.915a5.718,5.718,0,1,1-5.755-5.9A5.835,5.835,0,0,1,326.379,96.915Z" transform="translate(46.165 12.727)" fill="none" stroke="#fff" stroke-miterlimit="10" stroke-width="1.5"/>
          <path id="Path_29061" data-name="Path 29061" d="M222.063,180.964a5.718,5.718,0,1,1-5.753-5.9A5.834,5.834,0,0,1,222.063,180.964Z" transform="translate(30.589 25.277)" fill="none" stroke="#fff" stroke-miterlimit="10" stroke-width="1.5"/>
          <path id="Path_29062" data-name="Path 29062" d="M301.094,309.01a5.718,5.718,0,1,1-5.753-5.9A5.834,5.834,0,0,1,301.094,309.01Z" transform="translate(42.39 44.396)" fill="none" stroke="#fff" stroke-miterlimit="10" stroke-width="1.5"/>
          <path id="Path_29063" data-name="Path 29063" d="M73.948,122.667a5.718,5.718,0,1,1-5.753-5.9A5.834,5.834,0,0,1,73.948,122.667Z" transform="translate(8.474 16.572)" fill="none" stroke="#fff" stroke-miterlimit="10" stroke-width="1.5"/>
          <path id="Path_29064" data-name="Path 29064" d="M405.564,119.537a5.718,5.718,0,1,1-5.753-5.9A5.834,5.834,0,0,1,405.564,119.537Z" transform="translate(57.989 16.105)" fill="none" stroke="#fff" stroke-miterlimit="10" stroke-width="1.5"/>
          <path id="Path_29065" data-name="Path 29065" d="M468.888,304.515a5.718,5.718,0,1,1-5.753-5.9A5.834,5.834,0,0,1,468.888,304.515Z" transform="translate(67.444 43.725)" fill="none" stroke="#fff" stroke-miterlimit="10" stroke-width="1.5"/>
          <path id="Path_29066" data-name="Path 29066" d="M115.215,358.8a5.718,5.718,0,1,1-5.753-5.9A5.834,5.834,0,0,1,115.215,358.8Z" transform="translate(14.635 51.829)" fill="none" stroke="#fff" stroke-miterlimit="10" stroke-width="1.5"/>
          <path id="Path_29067" data-name="Path 29067" d="M182.067,229.629,201,229.49l-7.118-9.879" transform="translate(26.323 31.928)" fill="none" stroke="#fff" stroke-miterlimit="10" stroke-width="1.5"/>
          <line id="Line_289" data-name="Line 289" y1="10.035" x2="7.25" transform="translate(220.648 261.631)" fill="none" stroke="#fff" stroke-miterlimit="10" stroke-width="1.5"/>
          <path id="Path_29068" data-name="Path 29068" d="M367.049,148.1l-.133-19.689-9.5,7.4" transform="translate(52.505 18.31)" fill="none" stroke="#fff" stroke-miterlimit="10" stroke-width="1.5"/>
          <line id="Line_290" data-name="Line 290" x1="9.65" y1="7.538" transform="translate(419.627 146.122)" fill="none" stroke="#fff" stroke-miterlimit="10" stroke-width="1.5"/>
          <path id="Path_29069" data-name="Path 29069" d="M572.6,255.869l18.935-.139-7.119-9.88" transform="translate(84.636 35.846)" fill="none" stroke="#fff" stroke-miterlimit="10" stroke-width="1.5"/>
          <line id="Line_291" data-name="Line 291" y1="10.035" x2="7.25" transform="translate(669.493 291.789)" fill="none" stroke="#fff" stroke-miterlimit="10" stroke-width="1.5"/>
          <line id="Line_292" data-name="Line 292" y1="0.229" x2="31.325" transform="translate(237.007 31.87)" fill="none" stroke="#fff" stroke-miterlimit="10" stroke-width="1.5"/>
          <path id="Path_29070" data-name="Path 29070" d="M499.006,82.855c.108,15.9-12.2,28.887-27.5,29s-27.781-12.691-27.889-28.594,12.2-28.888,27.5-29S498.9,66.951,499.006,82.855Z" transform="translate(65.377 7.239)" fill="none" stroke="#fff" stroke-miterlimit="10" stroke-width="1.5"/>
          <line id="Line_293" data-name="Line 293" x2="0.156" y2="23.106" transform="translate(276.67 306.028)" fill="none" stroke="#fff" stroke-miterlimit="10" stroke-width="1.5"/>
          <path id="Path_29071" data-name="Path 29071" d="M245.294,290.472a3.244,3.244,0,1,1-3.264-3.347A3.31,3.31,0,0,1,245.294,290.472Z" transform="translate(34.796 42.009)" fill="none" stroke="#fff" stroke-miterlimit="10" stroke-width="1.5"/>
          <path id="Path_29072" data-name="Path 29072" d="M1127.013,242.339l93.954-.687a13.831,13.831,0,0,1,13.892,13.7l.669,98.792a13.834,13.834,0,0,1-13.691,13.885l-93.954.687a13.83,13.83,0,0,1-13.892-13.7l-.669-98.792A13.835,13.835,0,0,1,1127.013,242.339Z" transform="translate(165.373 35.219)" fill="none" stroke="#fff" stroke-miterlimit="10" stroke-width="1.5"/>
          <path id="Path_29073" data-name="Path 29073" d="M939.205,7.283,1033.16,6.6a13.829,13.829,0,0,1,13.892,13.7l.669,98.792a13.833,13.833,0,0,1-13.691,13.885l-93.953.687a13.831,13.831,0,0,1-13.893-13.7l-.668-98.79A13.833,13.833,0,0,1,939.205,7.283Z" transform="translate(137.331 0.122)" fill="none" stroke="#fff" stroke-miterlimit="10" stroke-width="1.5"/>
          <path id="Path_29074" data-name="Path 29074" d="M694.611,213.269l133.585-.977a13.83,13.83,0,0,1,13.893,13.7l.947,140a13.834,13.834,0,0,1-13.691,13.885l-133.585.977a13.83,13.83,0,0,1-13.893-13.7l-.947-140A13.834,13.834,0,0,1,694.611,213.269Z" transform="translate(100.809 30.835)" fill="none" stroke="#fff" stroke-miterlimit="10" stroke-width="1.5"/>
          <path id="Path_29075" data-name="Path 29075" d="M1144.547,115.5l72.817-.533a13.83,13.83,0,0,1,13.892,13.7l.521,76.813a13.835,13.835,0,0,1-13.691,13.885l-72.817.532a13.83,13.83,0,0,1-13.893-13.7l-.52-76.813A13.834,13.834,0,0,1,1144.547,115.5Z" transform="translate(167.991 16.302)" fill="none" stroke="#fff" stroke-miterlimit="10" stroke-width="1.5"/>
          <path id="Path_29076" data-name="Path 29076" d="M940.142,145.44l62.248-.455a13.83,13.83,0,0,1,13.893,13.7l.446,65.825a13.834,13.834,0,0,1-13.691,13.884l-62.249.456a13.831,13.831,0,0,1-13.892-13.7l-.446-65.824A13.834,13.834,0,0,1,940.142,145.44Z" transform="translate(137.471 20.785)" fill="none" stroke="#fff" stroke-miterlimit="10" stroke-width="1.5"/>
          <path id="Path_29077" data-name="Path 29077" d="M862.807,268.146l62.248-.455a13.831,13.831,0,0,1,13.893,13.7l.446,65.825A13.835,13.835,0,0,1,925.7,361.1l-62.249.455a13.83,13.83,0,0,1-13.892-13.7l-.446-65.825A13.834,13.834,0,0,1,862.807,268.146Z" transform="translate(125.923 39.107)" fill="none" stroke="#fff" stroke-miterlimit="10" stroke-width="1.5"/>
          <path id="Path_29078" data-name="Path 29078" d="M1076.434,5.28l62.249-.455a13.831,13.831,0,0,1,13.892,13.7l.446,65.825a13.836,13.836,0,0,1-13.691,13.885l-62.249.455a13.83,13.83,0,0,1-13.892-13.7l-.446-65.824A13.834,13.834,0,0,1,1076.434,5.28Z" transform="translate(157.821 -0.143)" fill="none" stroke="#fff" stroke-miterlimit="10" stroke-width="1.5"/>
          <path id="Path_29079" data-name="Path 29079" d="M693.223,8.084l62.248-.455a13.83,13.83,0,0,1,13.893,13.7l.446,65.825a13.835,13.835,0,0,1-13.691,13.885l-62.249.455a13.83,13.83,0,0,1-13.892-13.7l-.446-65.824A13.834,13.834,0,0,1,693.223,8.084Z" transform="translate(100.602 0.276)" fill="none" stroke="#fff" stroke-miterlimit="10" stroke-width="1.5"/>
          <rect id="Rectangle_9269" data-name="Rectangle 9269" width="57.627" height="59.92" rx="7.014" transform="matrix(1, -0.007, 0.007, 1, 1208.906, 177.036)" fill="none" stroke="#fff" stroke-miterlimit="10" stroke-width="1.5"/>
          <path id="Path_29080" data-name="Path 29080" d="M1175.49,33.669l41.5-.3a8.085,8.085,0,0,1,8.12,8.006l.3,43.8a8.086,8.086,0,0,1-8,8.115l-41.5.3a8.083,8.083,0,0,1-8.12-8.006l-.3-43.8A8.086,8.086,0,0,1,1175.49,33.669Z" transform="translate(173.461 4.119)" fill="none" stroke="#fff" stroke-miterlimit="10" stroke-width="1.5"/>
          <rect id="Rectangle_9270" data-name="Rectangle 9270" width="57.627" height="59.92" rx="7.014" transform="translate(1186.337 311.563) rotate(-0.419)" fill="none" stroke="#fff" stroke-miterlimit="10" stroke-width="1.5"/>
          <rect id="Rectangle_9271" data-name="Rectangle 9271" width="57.627" height="59.92" rx="7.014" transform="matrix(1, -0.007, 0.007, 1, 955.947, 129.955)" fill="none" stroke="#fff" stroke-miterlimit="10" stroke-width="1.5"/>
          <rect id="Rectangle_9272" data-name="Rectangle 9272" width="57.627" height="59.92" rx="7.014" transform="matrix(1, -0.007, 0.007, 1, 781.036, 157.927)" fill="none" stroke="#fff" stroke-miterlimit="10" stroke-width="1.5"/>
          <line id="Line_294" data-name="Line 294" x1="121.537" y2="0.89" transform="translate(1065.02 341.522)" fill="none" stroke="#fff" stroke-miterlimit="10" stroke-width="1.5"/>
          <line id="Line_295" data-name="Line 295" x1="0.171" y1="25.247" transform="translate(984.605 104.497)" fill="none" stroke="#fff" stroke-miterlimit="10" stroke-width="1.5"/>
          <line id="Line_296" data-name="Line 296" x2="0.178" y2="26.36" transform="translate(810.271 217.634)" fill="none" stroke="#fff" stroke-miterlimit="10" stroke-width="1.5"/>
          <line id="Line_297" data-name="Line 297" x1="117.467" y2="0.86" transform="translate(838.748 167.113)" fill="none" stroke="#fff" stroke-miterlimit="10" stroke-width="1.5"/>
          <line id="Line_298" data-name="Line 298" x1="0.513" y1="75.811" transform="translate(897.482 167.543)" fill="none" stroke="#fff" stroke-miterlimit="10" stroke-width="1.5"/>
          <line id="Line_299" data-name="Line 299" x1="32.506" y2="0.238" transform="translate(1266.751 206.336)" fill="none" stroke="#fff" stroke-miterlimit="10" stroke-width="1.5"/>
          <line id="Line_300" data-name="Line 300" x1="0.219" y1="32.446" transform="translate(1101.919 133.599)" fill="none" stroke="#fff" stroke-miterlimit="10" stroke-width="1.5"/>
          <line id="Line_301" data-name="Line 301" x1="36.188" y2="0.264" transform="translate(1184.626 56.063)" fill="none" stroke="#fff" stroke-miterlimit="10" stroke-width="1.5"/>
          <line id="Line_302" data-name="Line 302" x1="0.279" y1="41.209" transform="translate(1349.66 235.928)" fill="none" stroke="#fff" stroke-miterlimit="10" stroke-width="1.5"/>
          <line id="Line_303" data-name="Line 303" x1="34.848" y2="0.255" transform="translate(1244.181 340.846)" fill="none" stroke="#fff" stroke-miterlimit="10" stroke-width="1.5"/>
          <line id="Line_304" data-name="Line 304" x1="166.346" y2="1.217" transform="translate(897.739 204.231)" fill="none" stroke="#fff" stroke-miterlimit="10" stroke-width="1.5"/>
          <line id="Line_305" data-name="Line 305" x1="0.56" y1="82.678" transform="translate(1125.228 259.289)" fill="none" stroke="#fff" stroke-miterlimit="10" stroke-width="1.5"/>
          <line id="Line_306" data-name="Line 306" x1="0.503" y1="74.436" transform="translate(1222.038 236.862)" fill="none" stroke="#fff" stroke-miterlimit="10" stroke-width="1.5"/>
          <line id="Line_307" data-name="Line 307" x1="96.956" y2="0.709" transform="translate(1125.361 278.071)" fill="none" stroke="#fff" stroke-miterlimit="10" stroke-width="1.5"/>
          <line id="Line_308" data-name="Line 308" x1="0.379" y1="56.059" transform="translate(809.486 101.657)" fill="none" stroke="#fff" stroke-miterlimit="10" stroke-width="1.5"/>
          <path id="Path_29081" data-name="Path 29081" d="M895.507,268.612a5.718,5.718,0,1,1,5.753,5.9A5.834,5.834,0,0,1,895.507,268.612Z" transform="translate(132.85 38.351)" fill="none" stroke="#fff" stroke-miterlimit="10" stroke-width="1.5"/>
          <path id="Path_29082" data-name="Path 29082" d="M999.822,184.564a5.718,5.718,0,1,1,5.753,5.9A5.834,5.834,0,0,1,999.822,184.564Z" transform="translate(148.426 25.802)" fill="none" stroke="#fff" stroke-miterlimit="10" stroke-width="1.5"/>
          <path id="Path_29083" data-name="Path 29083" d="M920.791,56.517a5.718,5.718,0,1,1,5.753,5.9A5.834,5.834,0,0,1,920.791,56.517Z" transform="translate(136.626 6.683)" fill="none" stroke="#fff" stroke-miterlimit="10" stroke-width="1.5"/>
          <path id="Path_29084" data-name="Path 29084" d="M1147.938,242.86a5.718,5.718,0,1,1,5.753,5.9A5.834,5.834,0,0,1,1147.938,242.86Z" transform="translate(170.542 34.506)" fill="none" stroke="#fff" stroke-miterlimit="10" stroke-width="1.5"/>
          <path id="Path_29085" data-name="Path 29085" d="M816.321,245.991a5.718,5.718,0,1,1,5.754,5.9A5.834,5.834,0,0,1,816.321,245.991Z" transform="translate(121.027 34.974)" fill="none" stroke="#fff" stroke-miterlimit="10" stroke-width="1.5"/>
          <path id="Path_29086" data-name="Path 29086" d="M753,61.012a5.718,5.718,0,1,1,5.753,5.9A5.834,5.834,0,0,1,753,61.012Z" transform="translate(111.572 7.354)" fill="none" stroke="#fff" stroke-miterlimit="10" stroke-width="1.5"/>
          <path id="Path_29087" data-name="Path 29087" d="M1106.67,6.733a5.718,5.718,0,1,1,11.426-.084,5.718,5.718,0,1,1-11.426.084Z" transform="translate(164.38 -0.751)" fill="none" stroke="#fff" stroke-miterlimit="10" stroke-width="1.5"/>
          <path id="Path_29088" data-name="Path 29088" d="M1040.795,135.657l-18.935.139,7.119,9.88" transform="translate(151.717 19.393)" fill="none" stroke="#fff" stroke-miterlimit="10" stroke-width="1.5"/>
          <line id="Line_309" data-name="Line 309" x1="7.25" y2="10.035" transform="translate(1173.003 144.941)" fill="none" stroke="#fff" stroke-miterlimit="10" stroke-width="1.5"/>
          <path id="Path_29089" data-name="Path 29089" d="M854.6,218.445l.133,19.689,9.5-7.4" transform="translate(126.743 31.754)" fill="none" stroke="#fff" stroke-miterlimit="10" stroke-width="1.5"/>
          <line id="Line_310" data-name="Line 310" x2="9.651" y2="7.538" transform="translate(971.625 262.946)" fill="none" stroke="#fff" stroke-miterlimit="10" stroke-width="1.5"/>
          <line id="Line_311" data-name="Line 311" x1="31.325" y2="0.229" transform="translate(1132.569 384.507)" fill="none" stroke="#fff" stroke-miterlimit="10" stroke-width="1.5"/>
          <path id="Path_29090" data-name="Path 29090" d="M728.591,288.612c-.108-15.9,12.2-28.887,27.5-29s27.781,12.691,27.889,28.594-12.2,28.888-27.5,29S728.7,304.516,728.591,288.612Z" transform="translate(107.927 37.901)" fill="none" stroke="#fff" stroke-miterlimit="10" stroke-width="1.5"/>
          <line id="Line_312" data-name="Line 312" x1="0.156" y1="23.106" transform="translate(1124.075 87.473)" fill="none" stroke="#fff" stroke-miterlimit="10" stroke-width="1.5"/>
          <path id="Path_29091" data-name="Path 29091" d="M975.949,74.388a3.244,3.244,0,1,1,3.264,3.347A3.31,3.31,0,0,1,975.949,74.388Z" transform="translate(144.861 9.737)" fill="none" stroke="#fff" stroke-miterlimit="10" stroke-width="1.5"/>
          <line id="Line_313" data-name="Line 313" y1="0.225" x2="30.81" transform="translate(619.595 220.959)" fill="none" stroke="#fff" stroke-miterlimit="10" stroke-width="1.5"/>
          <line id="Line_314" data-name="Line 314" x2="0.63" y2="93.063" transform="translate(695.471 242.755)" fill="none" stroke="#fff" stroke-miterlimit="10" stroke-width="1.5"/>
          <line id="Line_315" data-name="Line 315" x2="0.336" y2="49.554" transform="translate(694.497 98.938)" fill="none" stroke="#fff" stroke-miterlimit="10" stroke-width="1.5"/>
          <line id="Line_316" data-name="Line 316" y1="0.301" x2="41.236" transform="translate(740.117 202.373)" fill="none" stroke="#fff" stroke-miterlimit="10" stroke-width="1.5"/>
          <line id="Line_317" data-name="Line 317" y1="0.42" x2="57.339" transform="translate(725.147 369.776)" fill="none" stroke="#fff" stroke-miterlimit="10" stroke-width="1.5"/>
          <line id="Line_318" data-name="Line 318" y1="0.419" x2="57.339" transform="translate(723.05 59.953)" fill="none" stroke="#fff" stroke-miterlimit="10" stroke-width="1.5"/>
          <path id="Path_29092" data-name="Path 29092" d="M372.032,307.4l9.792,6.589-9.7,7.03Z" transform="translate(54.688 45.036)" fill="#fff"/>
          <path id="Path_29093" data-name="Path 29093" d="M372.032,307.4l9.792,6.589-9.7,7.03Z" transform="translate(54.688 45.036)" fill="none" stroke="#fff" stroke-miterlimit="10" stroke-width="1"/>
          <g id="Group_22322" data-name="Group 22322" transform="translate(1012.535 361.987)" opacity="0.17">
            <g id="Group_22321" data-name="Group 22321">
              <g id="Group_22320" data-name="Group 22320" clip-path="url(#clip-path-2)">
                <path id="Path_29094" data-name="Path 29094" d="M882.24,318.726a2.4,2.4,0,1,1,2.419,2.48,2.454,2.454,0,0,1-2.419-2.48" transform="translate(-881.665 -315.635)" fill="#fff"/>
                <path id="Path_29095" data-name="Path 29095" d="M882.24,318.726a2.4,2.4,0,1,1,2.419,2.48A2.454,2.454,0,0,1,882.24,318.726Z" transform="translate(-881.665 -315.635)" fill="none" stroke="#fff" stroke-miterlimit="10" stroke-width="1"/>
              </g>
            </g>
          </g>
          <path id="Path_29096" data-name="Path 29096" d="M247.457,66.523a6.5,6.5,0,1,1-6.538-6.7,6.629,6.629,0,0,1,6.538,6.7" transform="translate(34.148 8.069)" fill="#fff"/>
          <path id="Path_29097" data-name="Path 29097" d="M247.457,66.523a6.5,6.5,0,1,1-6.538-6.7A6.629,6.629,0,0,1,247.457,66.523Z" transform="translate(34.148 8.069)" fill="none" stroke="#fff" stroke-miterlimit="10" stroke-width="1"/>
          <path id="Path_29098" data-name="Path 29098" d="M96.537,184.567a6.5,6.5,0,1,1-6.537-6.7,6.631,6.631,0,0,1,6.537,6.7" transform="translate(11.614 25.695)" fill="#fff"/>
          <path id="Path_29099" data-name="Path 29099" d="M96.537,184.567a6.5,6.5,0,1,1-6.537-6.7A6.631,6.631,0,0,1,96.537,184.567Z" transform="translate(11.614 25.695)" fill="none" stroke="#fff" stroke-miterlimit="10" stroke-width="1"/>
          <path id="Path_29100" data-name="Path 29100" d="M445.668,152.336a6.5,6.5,0,1,1-6.537-6.7,6.63,6.63,0,0,1,6.537,6.7" transform="translate(63.744 20.882)" fill="#fff"/>
          <path id="Path_29101" data-name="Path 29101" d="M445.668,152.336a6.5,6.5,0,1,1-6.537-6.7A6.63,6.63,0,0,1,445.668,152.336Z" transform="translate(63.744 20.882)" fill="none" stroke="#fff" stroke-miterlimit="10" stroke-width="1"/>
          <path id="Path_29102" data-name="Path 29102" d="M446.118,218.3a6.5,6.5,0,1,1-6.537-6.7,6.629,6.629,0,0,1,6.537,6.7" transform="translate(63.812 30.731)" fill="#fff"/>
          <ellipse id="Ellipse_1424" data-name="Ellipse 1424" cx="6.491" cy="6.75" rx="6.491" ry="6.75" transform="translate(496.947 242.326)" fill="none" stroke="#fff" stroke-miterlimit="10" stroke-width="1"/>
          <path id="Path_29103" data-name="Path 29103" d="M114.123,67.5a6.5,6.5,0,1,1-6.537-6.7,6.63,6.63,0,0,1,6.537,6.7" transform="translate(14.24 8.215)" fill="#fff"/>
          <path id="Path_29104" data-name="Path 29104" d="M114.123,67.5a6.5,6.5,0,1,1-6.537-6.7A6.63,6.63,0,0,1,114.123,67.5Z" transform="translate(14.24 8.215)" fill="none" stroke="#fff" stroke-miterlimit="10" stroke-width="1"/>
          <path id="Path_29105" data-name="Path 29105" d="M370.167,251.191a6.5,6.5,0,1,1-6.537-6.7,6.63,6.63,0,0,1,6.537,6.7" transform="translate(52.471 35.643)" fill="#fff"/>
          <path id="Path_29106" data-name="Path 29106" d="M370.167,251.191a6.5,6.5,0,1,1-6.537-6.7A6.63,6.63,0,0,1,370.167,251.191Z" transform="translate(52.471 35.643)" fill="none" stroke="#fff" stroke-miterlimit="10" stroke-width="1"/>
          <path id="Path_29107" data-name="Path 29107" d="M522.685,275.618a6.5,6.5,0,1,1-6.537-6.7,6.631,6.631,0,0,1,6.537,6.7" transform="translate(75.244 39.29)" fill="#fff"/>
          <path id="Path_29108" data-name="Path 29108" d="M522.685,275.618a6.5,6.5,0,1,1-6.537-6.7A6.631,6.631,0,0,1,522.685,275.618Z" transform="translate(75.244 39.29)" fill="none" stroke="#fff" stroke-miterlimit="10" stroke-width="1"/>
          <path id="Path_29109" data-name="Path 29109" d="M232.873,104.365l8.339-13.4,8.9,13.271Z" transform="translate(33.91 12.72)" fill="#fff"/>
          <path id="Path_29110" data-name="Path 29110" d="M232.873,104.365l8.339-13.4,8.9,13.271Z" transform="translate(33.91 12.72)" fill="none" stroke="#fff" stroke-miterlimit="10" stroke-width="1"/>
          <path id="Path_29111" data-name="Path 29111" d="M130.8,241.4l8.338-13.4,8.9,13.27Z" transform="translate(18.669 33.181)" fill="#fff"/>
          <path id="Path_29112" data-name="Path 29112" d="M130.8,241.4l8.338-13.4,8.9,13.27Z" transform="translate(18.669 33.181)" fill="none" stroke="#fff" stroke-miterlimit="10" stroke-width="1"/>
          <path id="Path_29113" data-name="Path 29113" d="M312.056,321.027l12.885,8.67-12.763,9.252Z" transform="translate(45.733 47.071)" fill="#fff"/>
          <path id="Path_29114" data-name="Path 29114" d="M312.056,321.027l12.885,8.67-12.763,9.252Z" transform="translate(45.733 47.071)" fill="none" stroke="#fff" stroke-miterlimit="10" stroke-width="1"/>
          <path id="Path_29115" data-name="Path 29115" d="M116.137,183.969a3.164,3.164,0,1,1-3.185-3.264,3.229,3.229,0,0,1,3.185,3.264" transform="translate(15.535 26.119)" fill="#fff"/>
          <path id="Path_29116" data-name="Path 29116" d="M116.137,183.969a3.164,3.164,0,1,1-3.185-3.264A3.229,3.229,0,0,1,116.137,183.969Z" transform="translate(15.535 26.119)" fill="none" stroke="#fff" stroke-miterlimit="10" stroke-width="1"/>
          <path id="Path_29117" data-name="Path 29117" d="M48.79,139.5a3.164,3.164,0,1,1-3.185-3.264A3.228,3.228,0,0,1,48.79,139.5" transform="translate(5.479 19.479)" fill="#fff"/>
          <path id="Path_29118" data-name="Path 29118" d="M48.79,139.5a3.164,3.164,0,1,1-3.185-3.264A3.228,3.228,0,0,1,48.79,139.5Z" transform="translate(5.479 19.479)" fill="none" stroke="#fff" stroke-miterlimit="10" stroke-width="1"/>
          <path id="Path_29119" data-name="Path 29119" d="M264.38,232.709a3.164,3.164,0,1,1-3.185-3.264,3.228,3.228,0,0,1,3.185,3.264" transform="translate(37.67 33.396)" fill="#fff"/>
          <path id="Path_29120" data-name="Path 29120" d="M264.38,232.709a3.164,3.164,0,1,1-3.185-3.264A3.228,3.228,0,0,1,264.38,232.709Z" transform="translate(37.67 33.396)" fill="none" stroke="#fff" stroke-miterlimit="10" stroke-width="1"/>
          <path id="Path_29121" data-name="Path 29121" d="M274.025,65.875a3.164,3.164,0,1,1-3.185-3.264,3.229,3.229,0,0,1,3.185,3.264" transform="translate(39.11 8.486)" fill="#fff"/>
          <path id="Path_29122" data-name="Path 29122" d="M274.025,65.875a3.164,3.164,0,1,1-3.185-3.264A3.229,3.229,0,0,1,274.025,65.875Z" transform="translate(39.11 8.486)" fill="none" stroke="#fff" stroke-miterlimit="10" stroke-width="1"/>
          <path id="Path_29123" data-name="Path 29123" d="M208.422,121.362a3.164,3.164,0,1,1-3.185-3.264,3.228,3.228,0,0,1,3.185,3.264" transform="translate(29.314 16.771)" fill="#fff"/>
          <path id="Path_29124" data-name="Path 29124" d="M208.422,121.362a3.164,3.164,0,1,1-3.185-3.264A3.228,3.228,0,0,1,208.422,121.362Z" transform="translate(29.314 16.771)" fill="none" stroke="#fff" stroke-miterlimit="10" stroke-width="1"/>
          <path id="Path_29125" data-name="Path 29125" d="M413.227,185.362a3.164,3.164,0,1,1-3.185-3.264,3.229,3.229,0,0,1,3.185,3.264" transform="translate(59.895 26.327)" fill="#fff"/>
          <path id="Path_29126" data-name="Path 29126" d="M413.227,185.362a3.164,3.164,0,1,1-3.185-3.264A3.229,3.229,0,0,1,413.227,185.362Z" transform="translate(59.895 26.327)" fill="none" stroke="#fff" stroke-miterlimit="10" stroke-width="1"/>
          <path id="Path_29127" data-name="Path 29127" d="M366.495,264a3.164,3.164,0,1,1-3.185-3.264A3.228,3.228,0,0,1,366.495,264" transform="translate(52.917 38.068)" fill="#fff"/>
          <path id="Path_29128" data-name="Path 29128" d="M366.495,264a3.164,3.164,0,1,1-3.185-3.264A3.228,3.228,0,0,1,366.495,264Z" transform="translate(52.917 38.068)" fill="none" stroke="#fff" stroke-miterlimit="10" stroke-width="1"/>
          <path id="Path_29129" data-name="Path 29129" d="M237.794,28.884a3.164,3.164,0,1,1-3.184-3.264,3.229,3.229,0,0,1,3.184,3.264" transform="translate(33.7 2.962)" fill="#fff"/>
          <path id="Path_29130" data-name="Path 29130" d="M237.794,28.884a3.164,3.164,0,1,1-3.184-3.264A3.229,3.229,0,0,1,237.794,28.884Z" transform="translate(33.7 2.962)" fill="none" stroke="#fff" stroke-miterlimit="10" stroke-width="1"/>
          <path id="Path_29131" data-name="Path 29131" d="M974.653,299.192a6.5,6.5,0,1,1,6.537,6.7,6.631,6.631,0,0,1-6.537-6.7" transform="translate(144.668 42.796)" fill="#fff"/>
          <path id="Path_29132" data-name="Path 29132" d="M974.653,299.192a6.5,6.5,0,1,1,6.537,6.7A6.631,6.631,0,0,1,974.653,299.192Z" transform="translate(144.668 42.796)" fill="none" stroke="#fff" stroke-miterlimit="10" stroke-width="1"/>
          <path id="Path_29133" data-name="Path 29133" d="M1125.579,181.171a6.5,6.5,0,1,1,6.537,6.7,6.629,6.629,0,0,1-6.537-6.7" transform="translate(167.203 25.173)" fill="#fff"/>
          <path id="Path_29134" data-name="Path 29134" d="M1125.579,181.171a6.5,6.5,0,1,1,6.537,6.7A6.629,6.629,0,0,1,1125.579,181.171Z" transform="translate(167.203 25.173)" fill="none" stroke="#fff" stroke-miterlimit="10" stroke-width="1"/>
          <path id="Path_29135" data-name="Path 29135" d="M776.448,213.4a6.5,6.5,0,1,1,6.537,6.7,6.629,6.629,0,0,1-6.537-6.7" transform="translate(115.073 29.986)" fill="#fff"/>
          <path id="Path_29136" data-name="Path 29136" d="M776.448,213.4a6.5,6.5,0,1,1,6.537,6.7A6.629,6.629,0,0,1,776.448,213.4Z" transform="translate(115.073 29.986)" fill="none" stroke="#fff" stroke-miterlimit="10" stroke-width="1"/>
          <path id="Path_29137" data-name="Path 29137" d="M776,147.441a6.5,6.5,0,1,1,6.537,6.7,6.63,6.63,0,0,1-6.537-6.7" transform="translate(115.006 20.137)" fill="#fff"/>
          <path id="Path_29138" data-name="Path 29138" d="M776,147.441a6.5,6.5,0,1,1,6.537,6.7A6.63,6.63,0,0,1,776,147.441Z" transform="translate(115.006 20.137)" fill="none" stroke="#fff" stroke-miterlimit="10" stroke-width="1"/>
          <path id="Path_29139" data-name="Path 29139" d="M1107.986,298.207a6.5,6.5,0,1,1,6.537,6.7,6.629,6.629,0,0,1-6.537-6.7" transform="translate(164.576 42.649)" fill="#fff"/>
          <path id="Path_29140" data-name="Path 29140" d="M1107.986,298.207a6.5,6.5,0,1,1,6.537,6.7A6.629,6.629,0,0,1,1107.986,298.207Z" transform="translate(164.576 42.649)" fill="none" stroke="#fff" stroke-miterlimit="10" stroke-width="1"/>
          <path id="Path_29141" data-name="Path 29141" d="M851.939,114.563a6.5,6.5,0,1,1,6.537,6.7,6.629,6.629,0,0,1-6.537-6.7" transform="translate(126.345 15.228)" fill="#fff"/>
          <path id="Path_29142" data-name="Path 29142" d="M851.939,114.563a6.5,6.5,0,1,1,6.537,6.7A6.629,6.629,0,0,1,851.939,114.563Z" transform="translate(126.345 15.228)" fill="none" stroke="#fff" stroke-miterlimit="10" stroke-width="1"/>
          <path id="Path_29143" data-name="Path 29143" d="M699.422,90.126a6.5,6.5,0,1,1,6.537,6.7,6.629,6.629,0,0,1-6.537-6.7" transform="translate(103.572 11.579)" fill="#fff"/>
          <path id="Path_29144" data-name="Path 29144" d="M699.422,90.126a6.5,6.5,0,1,1,6.537,6.7A6.629,6.629,0,0,1,699.422,90.126Z" transform="translate(103.572 11.579)" fill="none" stroke="#fff" stroke-miterlimit="10" stroke-width="1"/>
          <path id="Path_29145" data-name="Path 29145" d="M989.786,261.335l-8.339,13.4-8.9-13.27Z" transform="translate(144.354 38.158)" fill="#fff"/>
          <path id="Path_29146" data-name="Path 29146" d="M989.786,261.335l-8.339,13.4-8.9-13.27Z" transform="translate(144.354 38.158)" fill="none" stroke="#fff" stroke-miterlimit="10" stroke-width="1"/>
          <path id="Path_29147" data-name="Path 29147" d="M1091.868,124.325l-8.338,13.4-8.9-13.27Z" transform="translate(159.596 17.701)" fill="#fff"/>
          <path id="Path_29148" data-name="Path 29148" d="M1091.868,124.325l-8.338,13.4-8.9-13.27Z" transform="translate(159.596 17.701)" fill="none" stroke="#fff" stroke-miterlimit="10" stroke-width="1"/>
          <path id="Path_29149" data-name="Path 29149" d="M910.041,45.305l-12.885-8.672,12.763-9.251Z" transform="translate(133.097 3.226)" fill="#fff"/>
          <path id="Path_29150" data-name="Path 29150" d="M910.041,45.305l-12.885-8.672,12.763-9.251Z" transform="translate(133.097 3.226)" fill="none" stroke="#fff" stroke-miterlimit="10" stroke-width="1"/>
          <path id="Path_29151" data-name="Path 29151" d="M1105.114,180.869a3.164,3.164,0,1,1,3.185,3.264,3.229,3.229,0,0,1-3.185-3.264" transform="translate(164.148 25.649)" fill="#fff"/>
          <path id="Path_29152" data-name="Path 29152" d="M1105.114,180.869a3.164,3.164,0,1,1,3.185,3.264A3.229,3.229,0,0,1,1105.114,180.869Z" transform="translate(164.148 25.649)" fill="none" stroke="#fff" stroke-miterlimit="10" stroke-width="1"/>
          <path id="Path_29153" data-name="Path 29153" d="M1172.46,225.337a3.164,3.164,0,1,1,3.185,3.264,3.229,3.229,0,0,1-3.185-3.264" transform="translate(174.203 32.289)" fill="#fff"/>
          <path id="Path_29154" data-name="Path 29154" d="M1172.46,225.337a3.164,3.164,0,1,1,3.185,3.264A3.229,3.229,0,0,1,1172.46,225.337Z" transform="translate(174.203 32.289)" fill="none" stroke="#fff" stroke-miterlimit="10" stroke-width="1"/>
          <path id="Path_29155" data-name="Path 29155" d="M956.871,132.129a3.164,3.164,0,1,1,3.185,3.264,3.229,3.229,0,0,1-3.185-3.264" transform="translate(142.013 18.371)" fill="#fff"/>
          <path id="Path_29156" data-name="Path 29156" d="M956.871,132.129a3.164,3.164,0,1,1,3.185,3.264A3.229,3.229,0,0,1,956.871,132.129Z" transform="translate(142.013 18.371)" fill="none" stroke="#fff" stroke-miterlimit="10" stroke-width="1"/>
          <path id="Path_29157" data-name="Path 29157" d="M947.219,298.941a3.164,3.164,0,1,1,3.184,3.264,3.228,3.228,0,0,1-3.184-3.264" transform="translate(140.572 43.279)" fill="#fff"/>
          <path id="Path_29158" data-name="Path 29158" d="M947.219,298.941a3.164,3.164,0,1,1,3.184,3.264A3.228,3.228,0,0,1,947.219,298.941Z" transform="translate(140.572 43.279)" fill="none" stroke="#fff" stroke-miterlimit="10" stroke-width="1"/>
          <path id="Path_29159" data-name="Path 29159" d="M1012.829,243.476a3.164,3.164,0,1,1,3.185,3.264,3.228,3.228,0,0,1-3.185-3.264" transform="translate(150.368 34.997)" fill="#fff"/>
          <path id="Path_29160" data-name="Path 29160" d="M1012.829,243.476a3.164,3.164,0,1,1,3.185,3.264A3.228,3.228,0,0,1,1012.829,243.476Z" transform="translate(150.368 34.997)" fill="none" stroke="#fff" stroke-miterlimit="10" stroke-width="1"/>
          <path id="Path_29161" data-name="Path 29161" d="M808.024,179.477a3.164,3.164,0,1,1,3.185,3.264,3.229,3.229,0,0,1-3.185-3.264" transform="translate(119.788 25.441)" fill="#fff"/>
          <path id="Path_29162" data-name="Path 29162" d="M808.024,179.477a3.164,3.164,0,1,1,3.185,3.264A3.229,3.229,0,0,1,808.024,179.477Z" transform="translate(119.788 25.441)" fill="none" stroke="#fff" stroke-miterlimit="10" stroke-width="1"/>
          <path id="Path_29163" data-name="Path 29163" d="M854.747,100.856a3.164,3.164,0,1,1,3.184,3.264,3.229,3.229,0,0,1-3.184-3.264" transform="translate(126.764 13.702)" fill="#fff"/>
          <path id="Path_29164" data-name="Path 29164" d="M854.747,100.856a3.164,3.164,0,1,1,3.184,3.264A3.229,3.229,0,0,1,854.747,100.856Z" transform="translate(126.764 13.702)" fill="none" stroke="#fff" stroke-miterlimit="10" stroke-width="1"/>
          <path id="Path_29165" data-name="Path 29165" d="M983.452,335.93a3.164,3.164,0,1,1,3.185,3.264,3.229,3.229,0,0,1-3.185-3.264" transform="translate(145.982 48.802)" fill="#fff"/>
          <path id="Path_29166" data-name="Path 29166" d="M983.452,335.93a3.164,3.164,0,1,1,3.185,3.264A3.229,3.229,0,0,1,983.452,335.93Z" transform="translate(145.982 48.802)" fill="none" stroke="#fff" stroke-miterlimit="10" stroke-width="1"/>
          <path id="Path_29167" data-name="Path 29167" d="M547.2,194.034a6.5,6.5,0,1,1-6.537-6.7,6.628,6.628,0,0,1,6.537,6.7" transform="translate(78.904 27.108)" fill="#fff"/>
          <path id="Path_29168" data-name="Path 29168" d="M547.2,194.034a6.5,6.5,0,1,1-6.537-6.7A6.628,6.628,0,0,1,547.2,194.034Z" transform="translate(78.904 27.108)" fill="none" stroke="#fff" stroke-miterlimit="10" stroke-width="1"/>
          <path id="Path_29169" data-name="Path 29169" d="M613.771,293.771a6.5,6.5,0,1,1-6.537-6.7,6.628,6.628,0,0,1,6.537,6.7" transform="translate(88.845 42.001)" fill="#fff"/>
          <path id="Path_29170" data-name="Path 29170" d="M613.771,293.771a6.5,6.5,0,1,1-6.537-6.7A6.628,6.628,0,0,1,613.771,293.771Z" transform="translate(88.845 42.001)" fill="none" stroke="#fff" stroke-miterlimit="10" stroke-width="1"/>
          <path id="Path_29171" data-name="Path 29171" d="M652.062,177.922a6.5,6.5,0,1,1-6.536-6.7,6.629,6.629,0,0,1,6.536,6.7" transform="translate(94.562 24.703)" fill="#fff"/>
          <path id="Path_29172" data-name="Path 29172" d="M652.062,177.922a6.5,6.5,0,1,1-6.536-6.7A6.629,6.629,0,0,1,652.062,177.922Z" transform="translate(94.562 24.703)" fill="none" stroke="#fff" stroke-miterlimit="10" stroke-width="1"/>
          <path id="Path_29173" data-name="Path 29173" d="M612.356,87.665a6.5,6.5,0,1,1-6.537-6.7,6.629,6.629,0,0,1,6.537,6.7" transform="translate(88.633 11.226)" fill="#fff"/>
          <path id="Path_29174" data-name="Path 29174" d="M612.356,87.665a6.5,6.5,0,1,1-6.537-6.7A6.629,6.629,0,0,1,612.356,87.665Z" transform="translate(88.633 11.226)" fill="none" stroke="#fff" stroke-miterlimit="10" stroke-width="1"/>
          <g id="Group_22325" data-name="Group 22325" transform="translate(734.266 288.854)" opacity="0.54">
            <g id="Group_22324" data-name="Group 22324">
              <g id="Group_22323" data-name="Group 22323" clip-path="url(#clip-path-3)">
                <path id="Path_29175" data-name="Path 29175" d="M650.994,258.23a5.44,5.44,0,1,1-5.436-5.652,5.547,5.547,0,0,1,5.436,5.652" transform="translate(-639.548 -252.003)" fill="#fff"/>
                <path id="Path_29176" data-name="Path 29176" d="M650.994,258.23a5.44,5.44,0,1,1-5.436-5.652A5.547,5.547,0,0,1,650.994,258.23Z" transform="translate(-639.548 -252.003)" fill="none" stroke="#fff" stroke-miterlimit="10" stroke-width="1"/>
              </g>
            </g>
          </g>
          <g id="Group_22328" data-name="Group 22328" transform="translate(892.245 104.159)" opacity="0.54">
            <g id="Group_22327" data-name="Group 22327">
              <g id="Group_22326" data-name="Group 22326" clip-path="url(#clip-path-4)">
                <path id="Path_29177" data-name="Path 29177" d="M788.45,97.53a5.44,5.44,0,1,1-5.436-5.652,5.547,5.547,0,0,1,5.436,5.652" transform="translate(-777.003 -91.303)" fill="#fff"/>
                <path id="Path_29178" data-name="Path 29178" d="M788.45,97.53a5.44,5.44,0,1,1-5.436-5.652A5.547,5.547,0,0,1,788.45,97.53Z" transform="translate(-777.003 -91.303)" fill="none" stroke="#fff" stroke-miterlimit="10" stroke-width="1"/>
              </g>
            </g>
          </g>
          <g id="Group_22331" data-name="Group 22331" transform="translate(133.285 148.86)" opacity="0.54">
            <g id="Group_22330" data-name="Group 22330">
              <g id="Group_22329" data-name="Group 22329" clip-path="url(#clip-path-3)">
                <path id="Path_29179" data-name="Path 29179" d="M128.09,136.424a5.44,5.44,0,1,1-5.436-5.652,5.547,5.547,0,0,1,5.436,5.652" transform="translate(-116.644 -130.197)" fill="#fff"/>
                <path id="Path_29180" data-name="Path 29180" d="M128.09,136.424a5.44,5.44,0,1,1-5.436-5.652A5.547,5.547,0,0,1,128.09,136.424Z" transform="translate(-116.644 -130.197)" fill="none" stroke="#fff" stroke-miterlimit="10" stroke-width="1"/>
              </g>
            </g>
          </g>
          <path id="Path_29181" data-name="Path 29181" d="M214.3,29.509a6.5,6.5,0,1,1-6.537-6.7,6.629,6.629,0,0,1,6.537,6.7" transform="translate(29.198 2.542)" fill="#fff"/>
          <path id="Path_29182" data-name="Path 29182" d="M214.3,29.509a6.5,6.5,0,1,1-6.537-6.7A6.629,6.629,0,0,1,214.3,29.509Z" transform="translate(29.198 2.542)" fill="none" stroke="#fff" stroke-miterlimit="10" stroke-width="1"/>
        </g>
      </g>
    </g>
  </g>
</svg>
