<svg id="g2-crowd-vector-logo-2022" xmlns="http://www.w3.org/2000/svg" width="30.136" height="30.136" viewBox="0 0 30.136 30.136">
  <path id="Path_25757" data-name="Path 25757" d="M101.536,86.468A15.068,15.068,0,1,1,86.468,71.4a15.066,15.066,0,0,1,15.068,15.068" transform="translate(-71.4 -71.4)" fill="#ff492c"/>
  <path id="Path_25758" data-name="Path 25758" d="M196.077,184.842h-3.894v-.181a3.072,3.072,0,0,1,.4-1.639,3.325,3.325,0,0,1,1.386-1.151l.3-.151c.536-.271.675-.506.675-.784,0-.331-.289-.573-.753-.573a1.356,1.356,0,0,0-1.26.874l-.747-.747a2.021,2.021,0,0,1,.777-.85,2.166,2.166,0,0,1,1.175-.331,2.215,2.215,0,0,1,1.38.428,1.4,1.4,0,0,1,.585,1.187c0,.8-.452,1.29-1.3,1.724l-.476.241c-.506.253-.753.482-.826.886h2.574Zm-.344,1.23h-4.261l-2.128,3.689h4.261l2.134,3.689,2.128-3.689Zm-6.021,6.154a4.918,4.918,0,0,1,0-9.836l1.688-3.526a8.612,8.612,0,1,0,3.381,15.405l-1.868-3.231a4.9,4.9,0,0,1-3.2,1.187" transform="translate(-174.488 -172.233)" fill="#fff"/>
</svg>
