<svg width="60" height="60" viewBox="0 0 60 60" fill="none" xmlns="http://www.w3.org/2000/svg">
<circle opacity="0.2" cx="30" cy="30" r="30" fill="#00B67A"/>
<path d="M32.0137 22.5996H43.3437V25.5036H39.1857V37.9996H36.1497V25.5036H32.0137V22.5996Z" fill="#00B67A"/>
<path d="M24.7346 38.308C22.4246 38.308 20.5106 37.538 18.9926 35.998C17.4746 34.458 16.7266 32.566 16.7266 30.3C16.7266 28.034 17.4746 26.12 18.9926 24.602C20.5106 23.062 22.4246 22.292 24.7346 22.292C27.5286 22.292 30.0366 23.7 31.3566 25.922L28.7386 27.44C27.9686 26.054 26.4946 25.24 24.7346 25.24C23.2386 25.24 22.0286 25.702 21.1046 26.648C20.2026 27.594 19.7406 28.804 19.7406 30.3C19.7406 31.774 20.2026 32.984 21.1046 33.93C22.0286 34.876 23.2386 35.338 24.7346 35.338C26.4946 35.338 28.0126 34.502 28.7386 33.16L31.3566 34.678C30.0366 36.9 27.5506 38.308 24.7346 38.308Z" fill="#00B67A"/>
</svg>
