<svg width="60" height="60" viewBox="0 0 60 60" fill="none" xmlns="http://www.w3.org/2000/svg">
<circle opacity="0.2" cx="30" cy="30" r="30" fill="#DA552F"/>
<path d="M36.6917 29.728H44.4137V30.916C44.4137 33.116 43.7097 34.898 42.3017 36.262C40.8937 37.626 39.0677 38.308 36.8457 38.308C34.4697 38.308 32.4897 37.538 30.9277 35.998C29.3657 34.436 28.5957 32.544 28.5957 30.322C28.5957 28.078 29.3657 26.186 30.9057 24.624C32.4677 23.062 34.3817 22.292 36.6697 22.292C39.5517 22.292 42.0597 23.7 43.3797 25.878L40.7837 27.374C40.0577 26.12 38.4737 25.24 36.6477 25.24C35.1737 25.24 33.9637 25.724 33.0177 26.692C32.0717 27.638 31.6097 28.848 31.6097 30.322C31.6097 31.774 32.0937 32.984 33.0397 33.93C34.0077 34.876 35.2837 35.338 36.8677 35.338C39.2217 35.338 40.8057 34.238 41.3557 32.412H36.6917V29.728Z" fill="#DA552F"/>
<path d="M16.4297 22.5996H22.1717C23.6457 22.5996 24.8997 23.1056 25.9117 24.0956C26.9237 25.0856 27.4297 26.3176 27.4297 27.7696C27.4297 29.2216 26.9237 30.4536 25.9117 31.4436C24.8997 32.4336 23.6457 32.9396 22.1717 32.9396H19.4657V37.9996H16.4297V22.5996ZM19.4657 30.1016H22.1717C23.4697 30.1016 24.4157 29.0896 24.4157 27.7696C24.4157 26.4276 23.4697 25.4376 22.1717 25.4376H19.4657V30.1016Z" fill="#DA552F"/>
</svg>
