<svg id="AdCreative" xmlns="http://www.w3.org/2000/svg" xmlns:xlink="http://www.w3.org/1999/xlink" width="137.147" height="19.849" viewBox="0 0 137.147 19.849">
  <defs>
    <linearGradient id="linear-gradient" x1="0.425" y1="0.235" x2="1.424" y2="2.133" gradientUnits="objectBoundingBox">
      <stop offset="0.001" stop-color="#ff3067"/>
      <stop offset="1" stop-color="#a5009f"/>
    </linearGradient>
    <linearGradient id="linear-gradient-2" x1="-0.169" y1="-1.173" x2="1.055" y2="1.568" xlink:href="#linear-gradient"/>
    <linearGradient id="linear-gradient-3" x1="-0.072" y1="-0.727" x2="1.211" y2="2.012" xlink:href="#linear-gradient"/>
    <linearGradient id="linear-gradient-4" x1="-0.863" y1="-2.417" x2="0.42" y2="0.323" xlink:href="#linear-gradient"/>
    <linearGradient id="linear-gradient-5" x1="-0.465" y1="-2.206" x2="0.769" y2="0.616" xlink:href="#linear-gradient"/>
    <linearGradient id="linear-gradient-6" x1="-0.779" y1="-1.002" x2="1.142" y2="1.174" xlink:href="#linear-gradient"/>
    <linearGradient id="linear-gradient-7" x1="-0.347" y1="-0.452" x2="2.173" y2="2.38" xlink:href="#linear-gradient"/>
    <linearGradient id="linear-gradient-8" x1="-4.294" y1="-1.904" x2="1.537" y2="1.02" xlink:href="#linear-gradient"/>
    <linearGradient id="linear-gradient-9" x1="-2.308" y1="-5.738" x2="2.542" y2="5.035" xlink:href="#linear-gradient"/>
  </defs>
  <g id="Group_4" data-name="Group 4">
    <g id="Group_1" data-name="Group 1" transform="translate(0 0)">
      <path id="Path_2_8_" d="M1580.038,350.1v19.449h-2.671v-1.71l-.083-.057a.737.737,0,0,1-.078.156,5.269,5.269,0,0,1-8.573-.416,6.875,6.875,0,0,1,.634-8.527,5.218,5.218,0,0,1,7.727.109l.364.4V350.1Zm-6.256,17.152a3.612,3.612,0,1,0-3.643-3.559A3.622,3.622,0,0,0,1573.782,367.252Z" transform="translate(-1551.023 -350.1)" fill="#3b2a82"/>
      <path id="Path_3_8_" d="M1259.714,381.8c2.769,5.955,5.518,11.868,8.278,17.818h-1.564c-.5,0-1-.005-1.507.005a.246.246,0,0,1-.27-.177c-.379-.842-.774-1.678-1.154-2.525a.306.306,0,0,0-.327-.208q-3.469.008-6.937,0a.326.326,0,0,0-.348.223q-.561,1.255-1.148,2.494c-.036.078-.135.177-.2.177-1.029.01-2.058.01-3.133.01C1254.175,393.673,1256.934,387.765,1259.714,381.8Zm2.3,11.982-2.3-5.014-2.328,5.014Z" transform="translate(-1251.4 -380.153)" fill="#3b2a82"/>
    </g>
    <g id="Group_2" data-name="Group 2" transform="translate(30.672 1.646)">
      <path id="Path_4_8_" d="M1857.138,384.408c-.681.707-1.351,1.408-2.021,2.1a6.159,6.159,0,0,0-8.937,8.47,5.939,5.939,0,0,0,4.417,2.053,6.037,6.037,0,0,0,4.521-1.787l2.032,2.1a9.085,9.085,0,1,1-.01-12.938Z" transform="translate(-1841.684 -381.783)" fill="url(#linear-gradient)"/>
      <path id="Path_5_8_" d="M2538.693,501.576h-2.666v-1.71l-.052-.026c-.057.068-.115.13-.172.2a5.178,5.178,0,0,1-4.474,1.912,5.066,5.066,0,0,1-3.663-1.928,6.654,6.654,0,0,1-1.045-6.973,5.587,5.587,0,0,1,3.263-3.331,5.2,5.2,0,0,1,5.778,1.429c.1.114.208.229.354.395V489.76h2.681v11.816Zm-6.329-2.3a3.612,3.612,0,1,0-3.57-3.684A3.619,3.619,0,0,0,2532.364,499.28Z" transform="translate(-2490.519 -483.773)" fill="url(#linear-gradient-2)"/>
      <path id="Path_7_8_" d="M2282.155,496.8h-9.021c.058.13.089.234.141.327a3.965,3.965,0,0,0,2.936,2.052,4.592,4.592,0,0,0,4.12-1.174l1.86,1.938a6.684,6.684,0,0,1-1.871,1.3,7.4,7.4,0,0,1-8.21-1.242,5.849,5.849,0,0,1-1.689-5.96,5.938,5.938,0,0,1,11.276-1.029A6.618,6.618,0,0,1,2282.155,496.8Zm-2.806-2.307a3.292,3.292,0,0,0-3.216-2.447c-1.418.068-2.931,1.294-3.009,2.447Z" transform="translate(-2247.932 -483.765)" fill="url(#linear-gradient-3)"/>
      <path id="Path_8_8_" d="M3263.263,496.668c.9,2.52,4.868,3.43,7.17,1.211.613.639,1.226,1.283,1.86,1.938a6.322,6.322,0,0,1-1.543,1.128,7.421,7.421,0,0,1-8.761-1.294,6.243,6.243,0,0,1,2.827-10.231,5.965,5.965,0,0,1,6.984,3.45,6.537,6.537,0,0,1,.472,3.684c-.005.031-.015.062-.026.114Zm-.047-2.307h6.241a3.214,3.214,0,0,0-6.241,0Z" transform="translate(-3186.599 -483.635)" fill="url(#linear-gradient-4)"/>
      <path id="Path_9_8_" d="M3049.013,496.6c-2.094,4.1-4.168,8.142-6.256,12.232L3036.5,496.6h.608c.691,0,1.387.01,2.078-.005a.454.454,0,0,1,.494.3c.967,1.907,1.948,3.8,2.925,5.7.042.083.089.161.151.275.057-.109.1-.187.145-.27l2.961-5.768a.361.361,0,0,1,.375-.234C3047.147,496.605,3048.051,496.6,3049.013,496.6Z" transform="translate(-2974.417 -490.629)" fill="url(#linear-gradient-5)"/>
      <path id="Path_10_8_" d="M2796.549,434.774h-2.692v-9.13H2791.3v-2.7h2.551v-1.3c0-.405-.005-.816,0-1.221a.294.294,0,0,1,.109-.229c.837-.431,1.678-.852,2.562-1.3v4.037h2.816v2.692h-2.8Z" transform="translate(-2741.957 -416.971)" fill="url(#linear-gradient-6)"/>
      <path id="Path_11_8_" d="M2162.731,492.335a2.856,2.856,0,0,0-2.224.421,2.816,2.816,0,0,0-1.242,2.463v6.568H2156.6V489.976h2.65v1.206l.057.042a4.862,4.862,0,0,1,1.528-1.19,4.138,4.138,0,0,1,1.9-.442Z" transform="translate(-2140.237 -483.989)" fill="url(#linear-gradient-7)"/>
      <path id="Path_12_8_" d="M2968.6,497h2.65v11.811h-2.65Z" transform="translate(-2910.044 -491.013)" fill="url(#linear-gradient-8)"/>
      <path id="Path_15_8_" d="M2966.683,387.4a1.593,1.593,0,1,1-1.569-1.6h.005A1.587,1.587,0,0,1,2966.683,387.4Z" transform="translate(-2905.208 -385.589)" fill="url(#linear-gradient-9)"/>
    </g>
    <g id="Group_3" data-name="Group 3" transform="translate(118.009 2.671)">
      <path id="Path_40_8_" d="M3580.055,494.616a15.627,15.627,0,0,1-1.289,1.616,5.782,5.782,0,0,1-8.963-.925,6.539,6.539,0,0,1,.551-8.023,5.83,5.83,0,0,1,9.519,1.206.676.676,0,0,0,.166.218v-2.972h1.247v11.806h-1.226v-2.925Zm-5.066,2.073a5.053,5.053,0,1,0-5.056-5.051,5.054,5.054,0,0,0,5.056,5.051Z" transform="translate(-3566.285 -480.986)" fill="#3b2a82"/>
      <path id="Path_45_8_" d="M3858.821,504.732h-1.055c-.052,0-.1-.005-.167-.01V492.9h1.216v11.832Z" transform="translate(-3840.188 -488.151)" fill="#3b2a82"/>
      <path id="Path_46_8_" d="M3523.6,687.79a1.124,1.124,0,0,1-1.1-1.091,1.1,1.1,0,1,1,2.2.01A1.111,1.111,0,0,1,3523.6,687.79Z" transform="translate(-3522.5 -670.835)" fill="#3b2a82"/>
      <path id="Path_48_8_" d="M3849.594,401.5a1.094,1.094,0,0,1,1.1,1.076,1.1,1.1,0,0,1-2.2.01A1.1,1.1,0,0,1,3849.594,401.5Z" transform="translate(-3831.558 -401.5)" fill="#3b2a82"/>
    </g>
  </g>
</svg>
