<svg xmlns="http://www.w3.org/2000/svg" width="282" height="60" viewBox="0 0 282 60">
  <g id="top-post-badge" transform="translate(0.34 -0.333)">
    <g id="Group_12273" data-name="Group 12273" transform="translate(0.5 0.5)">
      <g id="Group_12272" data-name="Group 12272">
        <rect id="Rectangle_6751" data-name="Rectangle 6751" width="281" height="59" rx="10" transform="translate(-0.34 0.333)" fill="#fff" stroke="#d9e1ec" stroke-width="1"/>
        <path id="Path_25495" data-name="Path 25495" d="M3.779-1.782H2.23V.84H.716V-6.453H3.892a2.587,2.587,0,0,1,1.751.564A2.185,2.185,0,0,1,6.3-4.142a2.238,2.238,0,0,1-.653,1.826A2.876,2.876,0,0,1,3.779-1.782ZM4.491-3.3a1.055,1.055,0,0,0,.3-.831.987.987,0,0,0-.3-.811,1.3,1.3,0,0,0-.839-.242H2.23v2.147H3.65A1.241,1.241,0,0,0,4.491-3.3ZM10.537-2.02H8.963V.84H7.474V-6.453h3.577a3.332,3.332,0,0,1,1.18.188,1.843,1.843,0,0,1,.7.51,2.258,2.258,0,0,1,.376.613,2,2,0,0,1,.139.767,2.185,2.185,0,0,1-.262,1.022,1.465,1.465,0,0,1-.866.71,1.362,1.362,0,0,1,.715.576,2.4,2.4,0,0,1,.21,1.14v.49a3.746,3.746,0,0,0,.04.678.609.609,0,0,0,.277.416V.84H11.882q-.069-.242-.1-.391a3.591,3.591,0,0,1-.064-.628l-.01-.678a1.324,1.324,0,0,0-.255-.93A1.352,1.352,0,0,0,10.537-2.02Zm.925-1.326a.812.812,0,0,0,.455-.821.906.906,0,0,0-.44-.891,1.664,1.664,0,0,0-.742-.129H8.963v1.959H10.69A1.924,1.924,0,0,0,11.462-3.346Zm6.521,4.388a3.18,3.18,0,0,1-2.39-.851,3.934,3.934,0,0,1-1.108-3.008,3.857,3.857,0,0,1,1.108-3.008,3.18,3.18,0,0,1,2.39-.851,3.18,3.18,0,0,1,2.39.851,3.866,3.866,0,0,1,1.1,3.008,3.944,3.944,0,0,1-1.1,3.008A3.18,3.18,0,0,1,17.982,1.042Zm1.44-1.959a2.994,2.994,0,0,0,.529-1.9,2.986,2.986,0,0,0-.532-1.9,1.738,1.738,0,0,0-1.437-.67,1.761,1.761,0,0,0-1.445.668A2.955,2.955,0,0,0,16-2.816a2.955,2.955,0,0,0,.539,1.9,1.761,1.761,0,0,0,1.445.668A1.747,1.747,0,0,0,19.422-.917ZM25.779.84H22.638V-6.453h3.142a3.833,3.833,0,0,1,1.128.158,2.407,2.407,0,0,1,1.242.925,3.245,3.245,0,0,1,.519,1.177,5.652,5.652,0,0,1,.139,1.207,4.847,4.847,0,0,1-.584,2.464A2.634,2.634,0,0,1,25.779.84Zm1.133-5.432a1.481,1.481,0,0,0-1.39-.594H24.117V-.427h1.405a1.517,1.517,0,0,0,1.5-1.064,3.752,3.752,0,0,0,.233-1.39A3.458,3.458,0,0,0,26.912-4.592ZM34.269-1.97V-6.453h1.549V-1.97A3.754,3.754,0,0,1,35.456-.16a2.689,2.689,0,0,1-2.568,1.187A2.7,2.7,0,0,1,30.316-.16a3.754,3.754,0,0,1-.361-1.811V-6.453H31.5V-1.97a2.531,2.531,0,0,0,.178,1.1,1.182,1.182,0,0,0,1.207.613,1.177,1.177,0,0,0,1.2-.613A2.531,2.531,0,0,0,34.269-1.97ZM42.417.3a2.972,2.972,0,0,1-2.088.747A3.145,3.145,0,0,1,37.856.033a4.04,4.04,0,0,1-.9-2.78,4,4,0,0,1,1.024-2.944,3.052,3.052,0,0,1,2.266-.9,3.064,3.064,0,0,1,2.691,1.207,2.613,2.613,0,0,1,.5,1.361H41.917a2.058,2.058,0,0,0-.381-.792A1.549,1.549,0,0,0,40.3-5.29a1.527,1.527,0,0,0-1.311.67,3.223,3.223,0,0,0-.48,1.9,2.828,2.828,0,0,0,.507,1.838,1.6,1.6,0,0,0,1.289.611A1.474,1.474,0,0,0,41.531-.8a2.278,2.278,0,0,0,.386-.846h1.509A3.279,3.279,0,0,1,42.417.3Zm7.47-6.748v1.291H47.706v6H46.172v-6H43.98V-6.453ZM57.942.84V-2.416h-2.85V.84H53.583V-6.453h1.509v2.78h2.85v-2.78h1.514V.84Zm7.282-2.81V-6.453h1.549V-1.97A3.754,3.754,0,0,1,66.411-.16a2.689,2.689,0,0,1-2.568,1.187A2.7,2.7,0,0,1,61.271-.16,3.754,3.754,0,0,1,60.91-1.97V-6.453h1.549V-1.97a2.531,2.531,0,0,0,.178,1.1,1.182,1.182,0,0,0,1.207.613,1.177,1.177,0,0,0,1.2-.613A2.531,2.531,0,0,0,65.224-1.97Zm8.9,2.81H72.6L69.622-4.34V.84H68.2V-6.453h1.6l2.9,5.091V-6.453h1.42Zm6.718-7.292v1.291H78.661v6H77.127v-6H74.936V-6.453Z" transform="translate(59.194 21.113)" fill="#4b587c"/>
        <path id="Path_25494" data-name="Path 25494" d="M2.876-6.1H1.082l.4-1.478H3.272l.959-3.544h1.75L5.022-7.578h1.46l.932-3.544h1.75L8.232-7.578H10L9.6-6.1H7.837L7.124-3.532H8.918l-.4,1.478H6.728L5.787,1.463H4.037l.941-3.518H3.536L2.577,1.463H.827l.959-3.518H0L.4-3.532H2.181Zm2.5,2.568L6.086-6.1H4.626L3.94-3.532ZM16.28-8.7A1.58,1.58,0,0,0,15-9.232a1.566,1.566,0,0,0-1.557.853,4.231,4.231,0,0,0-.281,1.566H10.721a6.161,6.161,0,0,1,.589-2.63,3.67,3.67,0,0,1,3.562-1.909,4.517,4.517,0,0,1,3.219,1.121,3.877,3.877,0,0,1,1.2,2.968,4.019,4.019,0,0,1-.844,2.515,8.412,8.412,0,0,1-1.821,1.627l-1,.712q-.941.668-1.288.967a2.835,2.835,0,0,0-.585.695h5.567V1.463H10.581a5.993,5.993,0,0,1,.589-2.507,7.087,7.087,0,0,1,2.533-2.7A18.575,18.575,0,0,0,15.946-5.52a2.626,2.626,0,0,0,.783-1.829A2.027,2.027,0,0,0,16.28-8.7ZM31.918-3.2H29.165V1.463H26.474V-11.5H32.12a4.6,4.6,0,0,1,3.113,1,3.885,3.885,0,0,1,1.161,3.1,3.979,3.979,0,0,1-1.161,3.245A5.112,5.112,0,0,1,31.918-3.2Zm1.267-2.7a1.875,1.875,0,0,0,.528-1.478,1.755,1.755,0,0,0-.532-1.442,2.309,2.309,0,0,0-1.491-.431H29.165v3.817h2.524A2.206,2.206,0,0,0,33.184-5.9Zm9.859.088a2.079,2.079,0,0,0-2.032.985,3.832,3.832,0,0,0-.29,1.706V1.463H38.2V-8.124H40.59v1.671A5.3,5.3,0,0,1,41.6-7.763a2.753,2.753,0,0,1,1.829-.589q.07,0,.119,0l.215.013v2.568q-.237-.026-.422-.035T43.044-5.81Zm10.185-1.1a5.594,5.594,0,0,1,1.214,3.6A5.557,5.557,0,0,1,53.228.3a4.46,4.46,0,0,1-3.685,1.5A4.46,4.46,0,0,1,45.858.3a5.557,5.557,0,0,1-1.214-3.61,5.594,5.594,0,0,1,1.214-3.6,4.429,4.429,0,0,1,3.685-1.522A4.429,4.429,0,0,1,53.228-6.91Zm-3.694.6a2,2,0,0,0-1.693.778,3.6,3.6,0,0,0-.594,2.221,3.622,3.622,0,0,0,.594,2.225A2,2,0,0,0,49.535-.3a1.987,1.987,0,0,0,1.689-.783,3.642,3.642,0,0,0,.589-2.225,3.621,3.621,0,0,0-.589-2.221A1.991,1.991,0,0,0,49.535-6.312Zm15.427-5.172V1.463H62.525V.135A3.536,3.536,0,0,1,61.3,1.375a3.432,3.432,0,0,1-1.706.387A3.563,3.563,0,0,1,56.769.4a5.218,5.218,0,0,1-1.148-3.487,6,6,0,0,1,1.13-3.861,3.677,3.677,0,0,1,3.021-1.407,3.092,3.092,0,0,1,1.548.383,3.045,3.045,0,0,1,1.1,1.06v-4.573ZM58.207-3.269a3.769,3.769,0,0,0,.528,2.12,1.757,1.757,0,0,0,1.583.8,1.851,1.851,0,0,0,1.618-.792,3.5,3.5,0,0,0,.554-2.049A3.143,3.143,0,0,0,61.6-5.7a1.912,1.912,0,0,0-1.267-.457,1.761,1.761,0,0,0-1.614.831A3.851,3.851,0,0,0,58.207-3.269ZM73.387.109q-.035.044-.176.264a1.766,1.766,0,0,1-.334.387,3.491,3.491,0,0,1-1.139.721,3.882,3.882,0,0,1-1.288.193A2.872,2.872,0,0,1,67.582.144a5.856,5.856,0,0,1-.413-2.489V-8.124h2.568v5.778a3.025,3.025,0,0,0,.193,1.231,1.339,1.339,0,0,0,1.346.73,1.759,1.759,0,0,0,1.759-1.038,3.757,3.757,0,0,0,.246-1.486V-8.124h2.542V1.463H73.387ZM86.536-4.685H83.968a2.224,2.224,0,0,0-.361-.967,1.512,1.512,0,0,0-1.31-.58,1.726,1.726,0,0,0-1.733,1.258A5.258,5.258,0,0,0,80.318-3.2a4.835,4.835,0,0,0,.246,1.7A1.673,1.673,0,0,0,82.253-.3,1.489,1.489,0,0,0,83.5-.78a2.364,2.364,0,0,0,.449-1.231h2.559A4.193,4.193,0,0,1,85.683.153,4.019,4.019,0,0,1,82.191,1.8a4.085,4.085,0,0,1-3.4-1.372A5.552,5.552,0,0,1,77.7-3.137,5.634,5.634,0,0,1,78.9-6.98a4.194,4.194,0,0,1,3.325-1.372,5.006,5.006,0,0,1,2.951.809A3.763,3.763,0,0,1,86.536-4.685ZM92.649-.322V1.551L91.461,1.6A3.186,3.186,0,0,1,89.034.979a1.833,1.833,0,0,1-.422-1.328v-5.9H87.275V-8.036h1.337v-2.674h2.48v2.674h1.557V-6.25H91.092v5.066a1.141,1.141,0,0,0,.15.734,1.646,1.646,0,0,0,.915.145q.114,0,.242,0T92.649-.322ZM107.257-6.91a5.594,5.594,0,0,1,1.214,3.6A5.557,5.557,0,0,1,107.257.3a4.46,4.46,0,0,1-3.685,1.5A4.46,4.46,0,0,1,99.887.3a5.557,5.557,0,0,1-1.214-3.61,5.594,5.594,0,0,1,1.214-3.6,4.429,4.429,0,0,1,3.685-1.522A4.429,4.429,0,0,1,107.257-6.91Zm-3.694.6a2,2,0,0,0-1.693.778,3.6,3.6,0,0,0-.594,2.221,3.622,3.622,0,0,0,.594,2.225,2,2,0,0,0,1.693.783,1.987,1.987,0,0,0,1.689-.783,3.642,3.642,0,0,0,.589-2.225,3.621,3.621,0,0,0-.589-2.221A1.991,1.991,0,0,0,103.563-6.312Zm11.2-5.268v2.04q-.211-.026-.708-.04a.815.815,0,0,0-.686.22.8.8,0,0,0-.189.515v.809h1.645v1.768h-1.645V1.463h-2.5V-6.268h-1.4V-8.036h1.372v-.616a3.239,3.239,0,0,1,.519-2.12q.545-.862,2.63-.862.237,0,.431.013Zm10.9,11.258V1.551L124.47,1.6a3.186,3.186,0,0,1-2.427-.616,1.833,1.833,0,0,1-.422-1.328v-5.9h-1.337V-8.036h1.337v-2.674h2.48v2.674h1.557V-6.25H124.1v5.066a1.141,1.141,0,0,0,.15.734,1.646,1.646,0,0,0,.915.145q.114,0,.242,0T125.657-.322ZM135.93-4.166V1.463H133.37V-4.368a2.565,2.565,0,0,0-.264-1.249,1.325,1.325,0,0,0-1.3-.668,1.792,1.792,0,0,0-1.508.664,3.039,3.039,0,0,0-.515,1.9V1.463h-2.5v-12.92h2.5v4.582a3.074,3.074,0,0,1,1.262-1.165,3.567,3.567,0,0,1,1.508-.33,4.093,4.093,0,0,1,1.614.308,2.822,2.822,0,0,1,1.192.941,2.5,2.5,0,0,1,.484,1.1A13.591,13.591,0,0,1,135.93-4.166Zm10.545,2.814a3.18,3.18,0,0,1-.888,1.733,4.352,4.352,0,0,1-3.448,1.4A4.862,4.862,0,0,1,138.911.6a4.753,4.753,0,0,1-1.4-3.835,5.33,5.33,0,0,1,1.262-3.817,4.315,4.315,0,0,1,3.276-1.328,5.024,5.024,0,0,1,2.155.449,3.775,3.775,0,0,1,1.583,1.416,4.831,4.831,0,0,1,.73,1.979,12.777,12.777,0,0,1,.079,1.9h-6.561a2.382,2.382,0,0,0,.906,2.023,2.134,2.134,0,0,0,1.249.361,1.8,1.8,0,0,0,1.258-.44,2.089,2.089,0,0,0,.466-.66Zm-2.48-2.938a2.182,2.182,0,0,0-.6-1.508,1.871,1.871,0,0,0-1.341-.515,1.7,1.7,0,0,0-1.35.545,2.722,2.722,0,0,0-.6,1.478Zm15.084,5.752h-5.585V-11.5h5.585a6.814,6.814,0,0,1,2.005.281,4.28,4.28,0,0,1,2.208,1.645,5.769,5.769,0,0,1,.923,2.093,10.048,10.048,0,0,1,.246,2.146,8.617,8.617,0,0,1-1.038,4.38A4.683,4.683,0,0,1,159.079,1.463Zm2.014-9.657a2.633,2.633,0,0,0-2.471-1.055h-2.5V-.788h2.5a2.7,2.7,0,0,0,2.674-1.891,6.669,6.669,0,0,0,.413-2.471A6.147,6.147,0,0,0,161.093-8.194Zm5.567,1.108a4.093,4.093,0,0,1,3.413-1.267,6.063,6.063,0,0,1,2.8.624,2.4,2.4,0,0,1,1.223,2.357v4.4q0,.457.018,1.108a1.393,1.393,0,0,0,.15.668.9.9,0,0,0,.369.29v.369H171.9a2.793,2.793,0,0,1-.158-.545q-.044-.255-.07-.58a5.15,5.15,0,0,1-1.2.959,3.6,3.6,0,0,1-1.829.466,3.145,3.145,0,0,1-2.15-.743,2.651,2.651,0,0,1-.849-2.106,2.734,2.734,0,0,1,1.363-2.559,6.053,6.053,0,0,1,2.2-.616l.853-.106a3.913,3.913,0,0,0,.994-.22.754.754,0,0,0,.536-.712.845.845,0,0,0-.409-.814,2.555,2.555,0,0,0-1.2-.224,1.564,1.564,0,0,0-1.258.44,1.828,1.828,0,0,0-.352.88h-2.419A3.679,3.679,0,0,1,166.66-7.086Zm1.865,6.737a1.31,1.31,0,0,0,.862.29,2.553,2.553,0,0,0,1.491-.475,2.025,2.025,0,0,0,.708-1.733V-3.2a2.724,2.724,0,0,1-.479.242,4.009,4.009,0,0,1-.664.172l-.563.106a3.635,3.635,0,0,0-1.135.343,1.15,1.15,0,0,0-.58,1.064A1.1,1.1,0,0,0,168.525-.349Zm11.689-.7,1.979-7.071h2.665L181.568,1.3a13.24,13.24,0,0,1-1.5,3.382,2.858,2.858,0,0,1-2.216.655q-.334,0-.537,0t-.607-.031V3.3l.317.018a3.95,3.95,0,0,0,.7-.026,1.263,1.263,0,0,0,.563-.2,1.353,1.353,0,0,0,.409-.624,1.32,1.32,0,0,0,.154-.58L175.332-8.124h2.788Z" transform="translate(57.978 43.005)" fill="#4b587c"/>
        <g id="Group_12271" data-name="Group 12271" transform="translate(18.588 14.072)">
          <path id="Path_25458" data-name="Path 25458" d="M4.839,16.364.334,25.974c-.142.29.008.473.481.383l3.668-.8a.275.275,0,0,1,.357.191l1.652,3.385c.158.365.34.439.482.15l4.8-10.058Zm13.892,0,4.505,9.61c.15.29-.008.473-.481.383l-3.668-.8a.277.277,0,0,0-.357.191L17.08,29.136c-.158.365-.332.439-.482.15L11.8,19.228Z" transform="translate(0.023 2.058)" fill="#de7818"/>
          <path id="Path_25459" data-name="Path 25459" d="M10.056,21.789c0,.008-.016,0-.033,0A11.753,11.753,0,0,1,3.3,18.7c-.009-.009-.034-.017-.026-.026l.207-.439c.009-.017.025.025.034.034a12.192,12.192,0,0,0,6.763,2.995c.009,0,.026,0,.026.009Z" transform="translate(0.4 2.293)" fill="#b35454" fill-rule="evenodd"/>
          <circle id="Ellipse_1287" data-name="Ellipse 1287" cx="11.808" cy="11.808" r="11.808" transform="translate(0 0)" fill="#9b9b9b"/>
          <circle id="Ellipse_1288" data-name="Ellipse 1288" cx="10.183" cy="10.183" r="10.183" transform="translate(1.626 1.626)" fill="#949494"/>
          <circle id="Ellipse_1289" data-name="Ellipse 1289" cx="9.851" cy="9.851" r="9.851" transform="translate(2.239 2.252)" fill="#b6b6b6"/>
          <path id="Path_25460" data-name="Path 25460" d="M7.19,9.372v.041H9.407V9.367a1.3,1.3,0,0,1,1.385-1.34,1.169,1.169,0,0,1,1.3,1.167c0,.561-.357,1.042-1.756,2.335L7.33,14.36v1.617h7.235V14.089H10.554v-.125l1.57-1.446c1.689-1.5,2.308-2.441,2.308-3.5,0-1.682-1.424-2.823-3.555-2.823C8.668,6.2,7.19,7.48,7.19,9.372Z" transform="translate(0.892 0.78)" fill="#efefef" fill-rule="evenodd"/>
          <path id="Path_25461" data-name="Path 25461" d="M12.97,3.089a8.56,8.56,0,0,1,.4,16.547,10.2,10.2,0,0,0,3.81-8.133,10.1,10.1,0,0,0-4.208-8.414Z" transform="translate(1.619 0.389)" fill="rgba(255,255,255,0.2)" fill-rule="evenodd"/>
          <path id="Path_25462" data-name="Path 25462" d="M11.73,21.787c.008.008.025,0,.033,0A11.793,11.793,0,0,0,18.5,18.716c.008-.008.033-.016.025-.025l-.208-.439c-.008-.017-.025.025-.034.033a12.185,12.185,0,0,1-6.778,2.979c-.009,0-.026,0-.026.009Z" transform="translate(1.432 2.295)" fill="#b35454" fill-rule="evenodd"/>
        </g>
      </g>
    </g>
  </g>
</svg>
