<svg xmlns="http://www.w3.org/2000/svg" width="300" height="563.402" viewBox="0 0 300 563.402">
  <g id="Group_12733" data-name="Group 12733" transform="translate(-1499 -1603)">
    <g id="Rectangle_6642" data-name="Rectangle 6642" transform="translate(1499 1603)" fill="#f9f9ff" stroke="#fff" stroke-width="1">
      <rect width="300" height="563.402" rx="25" stroke="none"/>
      <rect x="0.5" y="0.5" width="299" height="562.402" rx="24.5" fill="none"/>
    </g>
    <path id="Path_25886" data-name="Path 25886" d="M-76.32-10.16l.448,1.568,2.256-.64V0h1.84V-11.2h-1.6Zm13.7,8.784A6.922,6.922,0,0,0-61.456-5.6a6.922,6.922,0,0,0-1.168-4.224,3.759,3.759,0,0,0-3.232-1.584A3.808,3.808,0,0,0-69.1-9.824,7.029,7.029,0,0,0-70.256-5.6,7.029,7.029,0,0,0-69.1-1.376,3.808,3.808,0,0,0-65.856.208,3.759,3.759,0,0,0-62.624-1.376Zm-3.232-.208c-1.648,0-2.56-1.44-2.56-4.016s.912-4.016,2.56-4.016c1.664,0,2.56,1.44,2.56,4.016S-64.192-1.584-65.856-1.584Zm12.992.208A6.922,6.922,0,0,0-51.7-5.6a6.922,6.922,0,0,0-1.168-4.224A3.759,3.759,0,0,0-56.1-11.408a3.808,3.808,0,0,0-3.248,1.584A7.029,7.029,0,0,0-60.5-5.6a7.029,7.029,0,0,0,1.152,4.224A3.808,3.808,0,0,0-56.1.208,3.759,3.759,0,0,0-52.864-1.376ZM-56.1-1.584c-1.648,0-2.56-1.44-2.56-4.016s.912-4.016,2.56-4.016c1.664,0,2.56,1.44,2.56,4.016S-54.432-1.584-56.1-1.584Zm12.992.208A6.922,6.922,0,0,0-41.936-5.6,6.922,6.922,0,0,0-43.1-9.824a3.759,3.759,0,0,0-3.232-1.584,3.808,3.808,0,0,0-3.248,1.584A7.029,7.029,0,0,0-50.736-5.6a7.029,7.029,0,0,0,1.152,4.224A3.808,3.808,0,0,0-46.336.208,3.759,3.759,0,0,0-43.1-1.376Zm-3.232-.208c-1.648,0-2.56-1.44-2.56-4.016s.912-4.016,2.56-4.016c1.664,0,2.56,1.44,2.56,4.016S-44.672-1.584-46.336-1.584ZM-36.448-4.1-33.6-8h-2.016l-1.84,2.528L-39.3-8h-2l2.848,3.888L-41.456,0h2.016l2-2.736L-35.456,0h2Zm3.04-6.064.448,1.568,2.256-.64V0h1.84V-11.2h-1.6Zm8.416,3.184.192-2.5h4.544V-11.2H-26.5l-.432,6.016h3.264a1.808,1.808,0,0,1,2.048,1.792A1.831,1.831,0,0,1-23.7-1.584,2.067,2.067,0,0,1-25.92-3.1l-1.584.912A3.822,3.822,0,0,0-23.7.208a4.147,4.147,0,0,0,2.784-.96,3.288,3.288,0,0,0,1.136-2.64,3.26,3.26,0,0,0-1.1-2.624,3.967,3.967,0,0,0-2.7-.96Zm13.424,5.6A6.922,6.922,0,0,0-10.4-5.6a6.922,6.922,0,0,0-1.168-4.224A3.759,3.759,0,0,0-14.8-11.408a3.808,3.808,0,0,0-3.248,1.584A7.029,7.029,0,0,0-19.2-5.6a7.029,7.029,0,0,0,1.152,4.224A3.808,3.808,0,0,0-14.8.208,3.759,3.759,0,0,0-11.568-1.376ZM-14.8-1.584c-1.648,0-2.56-1.44-2.56-4.016s.912-4.016,2.56-4.016c1.664,0,2.56,1.44,2.56,4.016S-13.136-1.584-14.8-1.584Zm12.992.208A6.922,6.922,0,0,0-.64-5.6,6.922,6.922,0,0,0-1.808-9.824,3.759,3.759,0,0,0-5.04-11.408,3.808,3.808,0,0,0-8.288-9.824,7.029,7.029,0,0,0-9.44-5.6,7.029,7.029,0,0,0-8.288-1.376,3.808,3.808,0,0,0-5.04.208,3.759,3.759,0,0,0-1.808-1.376ZM-5.04-1.584c-1.648,0-2.56-1.44-2.56-4.016s.912-4.016,2.56-4.016c1.664,0,2.56,1.44,2.56,4.016S-3.376-1.584-5.04-1.584Z" transform="translate(1787.999 2141)" fill="#3b2a82"/>
    <g id="Group_12715" data-name="Group 12715" transform="translate(1514 2122)">
      <rect id="Rectangle_6759" data-name="Rectangle 6759" width="107" height="29" rx="14.5" transform="translate(-0.001)" fill="#3b2a82" opacity="0.1"/>
      <path id="Path_25885" data-name="Path 25885" d="M1.12-11.2V0H2.96V-3.84H5.248A3.582,3.582,0,0,0,7.888-4.9,3.548,3.548,0,0,0,8.96-7.52a3.523,3.523,0,0,0-1.072-2.624A3.582,3.582,0,0,0,5.248-11.2ZM2.96-5.568v-3.9H5.248A1.846,1.846,0,0,1,7.12-7.52,1.846,1.846,0,0,1,5.248-5.568Zm8.8-3.952a1.078,1.078,0,0,0,.016-1.552,1.083,1.083,0,0,0-1.568,0,1.091,1.091,0,0,0,0,1.552A1.091,1.091,0,0,0,11.76-9.52Zm.1,9.52V-8H10.128V0Zm5.888-8.208a2.735,2.735,0,0,0-2.48,1.232V-8H13.536V0h1.728V-4.288c0-1.552.816-2.3,2.032-2.3a1.668,1.668,0,0,1,1.792,1.856V0h1.728V-4.912A2.979,2.979,0,0,0,17.744-8.208ZM29.872.208a4.375,4.375,0,0,0,2.864-.88,2.949,2.949,0,0,0,1.1-2.416,2.686,2.686,0,0,0-1.152-2.3,3.087,3.087,0,0,0-.816-.448c-.352-.144-.624-.256-.832-.32-.192-.08-.5-.176-.928-.32-1.712-.528-2.256-.912-2.256-1.744,0-.848.688-1.392,1.76-1.392a2.411,2.411,0,0,1,2.352,1.568l1.552-.9a4.147,4.147,0,0,0-3.9-2.464,3.816,3.816,0,0,0-2.544.88,2.877,2.877,0,0,0-1.056,2.352A2.579,2.579,0,0,0,27.1-5.92,7.609,7.609,0,0,0,29.456-4.9a8.626,8.626,0,0,1,1.984.8A1.161,1.161,0,0,1,32-3.056c0,.88-.688,1.472-2.08,1.472a2.676,2.676,0,0,1-2.784-1.888l-1.584.928A4.243,4.243,0,0,0,29.872.208ZM36.64-9.52a1.078,1.078,0,0,0,.016-1.552,1.083,1.083,0,0,0-1.568,0,1.091,1.091,0,0,0,0,1.552A1.091,1.091,0,0,0,36.64-9.52Zm.1,9.52V-8H35.008V0Zm7.472-6.848V-8h-5.92v1.632h3.584L38.128-1.152V0h6.24V-1.632H40.48Zm8.7,3.584a4.692,4.692,0,0,0,.064-.72A4.278,4.278,0,0,0,51.84-6.976a3.75,3.75,0,0,0-2.88-1.232,4.038,4.038,0,0,0-3.04,1.216A4.1,4.1,0,0,0,44.736-4a4.1,4.1,0,0,0,1.2,3.024A4.324,4.324,0,0,0,49.088.208a3.936,3.936,0,0,0,3.5-1.744l-1.424-.832a2.37,2.37,0,0,1-2.064.992,2.39,2.39,0,0,1-2.56-1.888ZM46.528-4.672A2.323,2.323,0,0,1,48.944-6.64a2.229,2.229,0,0,1,2.288,1.968Z" transform="translate(26.999 19)" fill="#3b2a82"/>
    </g>
    <path id="Path_25884" data-name="Path 25884" d="M10.16,0,5.984-11.2H4.3L.128,0H1.712l.912-2.512h5.04L8.576,0ZM5.136-9.424,7.152-3.9H3.136ZM11.488,0h1.488V-11.2H11.488ZM27.664,0l-2.64-4.48a3.426,3.426,0,0,0,1.664-1.264,3.316,3.316,0,0,0,.656-1.984,3.287,3.287,0,0,0-1.024-2.448A3.347,3.347,0,0,0,23.856-11.2h-4.48V0h1.488V-4.288H23.5L26.016,0ZM23.856-9.808a1.876,1.876,0,0,1,1.408.608,2,2,0,0,1,.592,1.472,2.065,2.065,0,0,1-.592,1.488,1.876,1.876,0,0,1-1.408.608H20.864V-9.808ZM36.288-3.36a4.1,4.1,0,0,0,.048-.624,4.226,4.226,0,0,0-1.12-2.976,3.653,3.653,0,0,0-2.864-1.248,4.05,4.05,0,0,0-3.024,1.2A4.126,4.126,0,0,0,28.16-4,4.15,4.15,0,0,0,29.344-.976a4.261,4.261,0,0,0,3.1,1.184A3.926,3.926,0,0,0,35.968-1.6l-1.184-.672A2.493,2.493,0,0,1,32.48-1.1a2.73,2.73,0,0,1-2.9-2.256ZM32.352-6.9a2.532,2.532,0,0,1,2.576,2.32H29.584A2.664,2.664,0,0,1,32.352-6.9ZM41.68.208a4.059,4.059,0,0,0,3.6-2.08L44.1-2.56A2.671,2.671,0,0,1,41.68-1.168a2.739,2.739,0,0,1-2.016-.816A2.789,2.789,0,0,1,38.864-4a2.8,2.8,0,0,1,.8-2.032,2.739,2.739,0,0,1,2.016-.816A2.557,2.557,0,0,1,44.048-5.44l1.168-.672a3.836,3.836,0,0,0-3.536-2.1,4.04,4.04,0,0,0-3.008,1.216A4.052,4.052,0,0,0,37.472-4a4.114,4.114,0,0,0,1.2,3.008A4.089,4.089,0,0,0,41.68.208ZM53.3-1.008A4.068,4.068,0,0,0,54.528-4,4.068,4.068,0,0,0,53.3-6.992,4.08,4.08,0,0,0,50.3-8.208a4.08,4.08,0,0,0-2.992,1.216A4.054,4.054,0,0,0,46.1-4a4.054,4.054,0,0,0,1.216,2.992A4.08,4.08,0,0,0,50.3.208,4.08,4.08,0,0,0,53.3-1.008ZM50.3-1.152a2.728,2.728,0,0,1-2-.816A2.75,2.75,0,0,1,47.488-4,2.75,2.75,0,0,1,48.3-6.032a2.728,2.728,0,0,1,2-.816,2.739,2.739,0,0,1,2.016.816A2.75,2.75,0,0,1,53.136-4a2.75,2.75,0,0,1-.816,2.032A2.739,2.739,0,0,1,50.3-1.152ZM64.816-8.208A2.745,2.745,0,0,0,62.3-6.848a2.485,2.485,0,0,0-2.352-1.36,2.67,2.67,0,0,0-2.384,1.28V-8H56.176V0h1.392V-4.448c0-1.616.88-2.432,2.048-2.432,1.04,0,1.7.72,1.7,1.952V0H62.7V-4.448c0-1.648.768-2.432,1.968-2.432a1.721,1.721,0,0,1,1.76,1.952V0h1.392V-4.976A2.937,2.937,0,0,0,64.816-8.208Zm13.584,0a2.745,2.745,0,0,0-2.512,1.36,2.485,2.485,0,0,0-2.352-1.36,2.67,2.67,0,0,0-2.384,1.28V-8H69.76V0h1.392V-4.448c0-1.616.88-2.432,2.048-2.432,1.04,0,1.7.72,1.7,1.952V0h1.392V-4.448c0-1.648.768-2.432,1.968-2.432a1.721,1.721,0,0,1,1.76,1.952V0h1.392V-4.976A2.937,2.937,0,0,0,78.4-8.208ZM91.024-3.36a4.1,4.1,0,0,0,.048-.624,4.226,4.226,0,0,0-1.12-2.976,3.653,3.653,0,0,0-2.864-1.248,4.05,4.05,0,0,0-3.024,1.2A4.126,4.126,0,0,0,82.9-4,4.15,4.15,0,0,0,84.08-.976a4.261,4.261,0,0,0,3.1,1.184A3.926,3.926,0,0,0,90.7-1.6L89.52-2.272a2.493,2.493,0,0,1-2.3,1.168,2.73,2.73,0,0,1-2.9-2.256ZM87.088-6.9a2.532,2.532,0,0,1,2.576,2.32H84.32A2.664,2.664,0,0,1,87.088-6.9Zm9.568-1.312a2.822,2.822,0,0,0-2.592,1.36V-8H92.672V0h1.392V-4.24c0-1.792.928-2.64,2.32-2.64a1.852,1.852,0,0,1,1.984,2.048V0H99.76V-4.912A2.994,2.994,0,0,0,96.656-8.208ZM108.32-6.624A3.382,3.382,0,0,0,105.3-8.208a3.837,3.837,0,0,0-2.864,1.232A4.143,4.143,0,0,0,101.248-4a4.181,4.181,0,0,0,1.184,2.992A3.822,3.822,0,0,0,105.3.208a3.382,3.382,0,0,0,3.024-1.584V0h1.392V-11.2H108.32Zm-2.848,5.488a2.739,2.739,0,0,1-2.016-.816A2.812,2.812,0,0,1,102.64-4a2.75,2.75,0,0,1,.816-2.032,2.692,2.692,0,0,1,2.016-.832,2.7,2.7,0,0,1,2.032.832A2.75,2.75,0,0,1,108.32-4a2.812,2.812,0,0,1-.816,2.048A2.75,2.75,0,0,1,105.472-1.136Zm12.976-5.488a3.382,3.382,0,0,0-3.024-1.584,3.837,3.837,0,0,0-2.864,1.232A4.143,4.143,0,0,0,111.376-4a4.181,4.181,0,0,0,1.184,2.992A3.822,3.822,0,0,0,115.424.208a3.382,3.382,0,0,0,3.024-1.584V0h1.392V-8h-1.392ZM115.6-1.136a2.739,2.739,0,0,1-2.016-.816A2.812,2.812,0,0,1,112.768-4a2.75,2.75,0,0,1,.816-2.032,2.692,2.692,0,0,1,2.016-.832,2.7,2.7,0,0,1,2.032.832A2.75,2.75,0,0,1,118.448-4a2.812,2.812,0,0,1-.816,2.048A2.75,2.75,0,0,1,115.6-1.136ZM126.3-8h-2.128v-2.24l-1.392.416V-8H121.2v1.344h1.584V-2.32c0,1.984,1.088,2.64,3.52,2.32V-1.248c-1.424.064-2.128.16-2.128-1.072V-6.656H126.3Zm2.352-1.456a.929.929,0,0,0,.928-.928.942.942,0,0,0-.928-.944.946.946,0,0,0-.944.944A.932.932,0,0,0,128.656-9.456ZM129.344,0V-8h-1.392V0Zm8.88-1.008A4.069,4.069,0,0,0,139.456-4a4.069,4.069,0,0,0-1.232-2.992,4.08,4.08,0,0,0-2.992-1.216,4.08,4.08,0,0,0-2.992,1.216A4.054,4.054,0,0,0,131.024-4a4.054,4.054,0,0,0,1.216,2.992A4.08,4.08,0,0,0,135.232.208,4.08,4.08,0,0,0,138.224-1.008Zm-2.992-.144a2.728,2.728,0,0,1-2-.816A2.75,2.75,0,0,1,132.416-4a2.75,2.75,0,0,1,.816-2.032,2.728,2.728,0,0,1,2-.816,2.739,2.739,0,0,1,2.016.816A2.75,2.75,0,0,1,138.064-4a2.75,2.75,0,0,1-.816,2.032A2.739,2.739,0,0,1,135.232-1.152Zm9.856-7.056a2.822,2.822,0,0,0-2.592,1.36V-8H141.1V0H142.5V-4.24c0-1.792.928-2.64,2.32-2.64A1.852,1.852,0,0,1,146.8-4.832V0h1.392V-4.912A2.994,2.994,0,0,0,145.088-8.208Zm16.464.672a3.7,3.7,0,0,0-1.136-2.8,4.064,4.064,0,0,0-2.928-1.088,4.064,4.064,0,0,0-2.928,1.088,3.713,3.713,0,0,0-1.12,2.8,3.774,3.774,0,0,0,1.088,2.784,3.975,3.975,0,0,0,2.848,1.1L154.88,0h2.528L160.9-5.264h-.016A3.919,3.919,0,0,0,161.552-7.536Zm-5.92,0a1.769,1.769,0,0,1,1.856-1.808,1.747,1.747,0,0,1,1.872,1.808,1.76,1.76,0,0,1-1.872,1.824A1.773,1.773,0,0,1,155.632-7.536Zm13.3,1.712a2.682,2.682,0,0,0,1.168-2.32,2.976,2.976,0,0,0-1.04-2.416,3.9,3.9,0,0,0-2.592-.864,3.974,3.974,0,0,0-2.608.864,2.976,2.976,0,0,0-1.04,2.416,2.7,2.7,0,0,0,1.168,2.32,2.981,2.981,0,0,0-1.536,2.7c0,2.064,1.52,3.344,4.016,3.344,2.48,0,4.016-1.28,4.016-3.344A2.965,2.965,0,0,0,168.928-5.824ZM167.5-8.992a1.211,1.211,0,0,1,.4.96,1.245,1.245,0,0,1-.4.976,1.491,1.491,0,0,1-1.04.352,1.491,1.491,0,0,1-1.04-.352,1.245,1.245,0,0,1-.4-.976,1.211,1.211,0,0,1,.4-.96,1.491,1.491,0,0,1,1.04-.352A1.491,1.491,0,0,1,167.5-8.992Zm.784,5.584c0,.976-.736,1.552-1.824,1.552s-1.824-.576-1.824-1.552c0-.96.736-1.536,1.824-1.536S168.288-4.368,168.288-3.408Zm10.56-9.392h-.912l-6.4,14.4h.912Zm.7,2.64.544,1.888,2.112-.592V0h2.208V-11.2H182.5ZM190.608.224a3.875,3.875,0,0,0,3.3-1.584,7.009,7.009,0,0,0,1.184-4.24A6.925,6.925,0,0,0,193.9-9.824a3.848,3.848,0,0,0-3.3-1.6,3.888,3.888,0,0,0-3.3,1.6A6.925,6.925,0,0,0,186.128-5.6a7.009,7.009,0,0,0,1.184,4.24A3.915,3.915,0,0,0,190.608.224ZM192.9-5.6c0,2.368-.8,3.664-2.288,3.664s-2.272-1.28-2.272-3.664.784-3.68,2.272-3.68S192.9-7.984,192.9-5.6ZM200.688.224a3.875,3.875,0,0,0,3.3-1.584,7.009,7.009,0,0,0,1.184-4.24,6.925,6.925,0,0,0-1.184-4.224,3.848,3.848,0,0,0-3.3-1.6,3.888,3.888,0,0,0-3.3,1.6A6.925,6.925,0,0,0,196.208-5.6a7.009,7.009,0,0,0,1.184,4.24A3.915,3.915,0,0,0,200.688.224ZM202.976-5.6c0,2.368-.8,3.664-2.288,3.664s-2.272-1.28-2.272-3.664.784-3.68,2.272-3.68S202.976-7.984,202.976-5.6Z" transform="translate(1549.629 1637)" fill="#3b2a82"/>
    <g id="_x32_5" transform="translate(1527.001 1622.414)">
      <path id="Path_11666" data-name="Path 11666" d="M9.593,1a8.586,8.586,0,1,0,8.578,8.578A8.6,8.6,0,0,0,9.593,1Zm3.942,13.351-.222-.687a1.4,1.4,0,0,0-1.331-.973h-4.8a1.4,1.4,0,0,0-1.331.973l-.222.687a6.2,6.2,0,1,1,7.906,0Z" transform="translate(-1 -1)" fill="#ff3067"/>
      <path id="Path_11667" data-name="Path 11667" d="M12.722,8.32a.2.2,0,0,0-.379,0l-.594,2.454a1.1,1.1,0,0,0-.379.844,1.163,1.163,0,1,0,2.325,0,1.1,1.1,0,0,0-.379-.844Z" transform="translate(-3.951 -3.04)" fill="#ff3067"/>
    </g>
  </g>
</svg>
