<svg xmlns="http://www.w3.org/2000/svg" width="91" height="21" viewBox="0 0 91 21">
  <g id="Group_13223" data-name="Group 13223" transform="translate(0.25)">
    <rect id="Rectangle_6739" data-name="Rectangle 6739" width="91" height="21" rx="10.5" transform="translate(-0.25)" fill="#ff3067" opacity="0.1"/>
    <path id="Path_25715" data-name="Path 25715" d="M-67.272.156A4.187,4.187,0,0,0-65.148-.4a3.916,3.916,0,0,0,1.5-1.5l-.972-.552A2.969,2.969,0,0,1-67.272-.936a3.182,3.182,0,0,1-2.376-.936A3.194,3.194,0,0,1-70.56-4.2a3.2,3.2,0,0,1,.912-2.34,3.182,3.182,0,0,1,2.376-.936A2.956,2.956,0,0,1-64.62-5.952l.972-.564a4.153,4.153,0,0,0-3.624-2.04A4.25,4.25,0,0,0-70.428-7.3a4.235,4.235,0,0,0-1.236,3.1,4.235,4.235,0,0,0,1.236,3.1A4.25,4.25,0,0,0-67.272.156ZM-57.7-.756A3.051,3.051,0,0,0-56.772-3,3.051,3.051,0,0,0-57.7-5.244a3.06,3.06,0,0,0-2.244-.912,3.06,3.06,0,0,0-2.244.912A3.041,3.041,0,0,0-63.1-3a3.041,3.041,0,0,0,.912,2.244A3.06,3.06,0,0,0-59.94.156,3.06,3.06,0,0,0-57.7-.756ZM-59.94-.864a2.046,2.046,0,0,1-1.5-.612A2.062,2.062,0,0,1-62.052-3a2.062,2.062,0,0,1,.612-1.524,2.046,2.046,0,0,1,1.5-.612,2.054,2.054,0,0,1,1.512.612A2.062,2.062,0,0,1-57.816-3a2.062,2.062,0,0,1-.612,1.524A2.054,2.054,0,0,1-59.94-.864ZM-49.3-6.156a2.059,2.059,0,0,0-1.884,1.02,1.863,1.863,0,0,0-1.764-1.02,2,2,0,0,0-1.788.96V-6h-1.044V0h1.044V-3.336c0-1.212.66-1.824,1.536-1.824.78,0,1.272.54,1.272,1.464V0h1.044V-3.336c0-1.236.576-1.824,1.476-1.824A1.291,1.291,0,0,1-48.084-3.7V0h1.044V-3.732A2.2,2.2,0,0,0-49.3-6.156Zm4-.936a.7.7,0,0,0,.7-.7.707.707,0,0,0-.7-.708.709.709,0,0,0-.708.708A.7.7,0,0,0-45.3-7.092ZM-44.784,0V-6h-1.044V0Zm4.344-6.156a2.117,2.117,0,0,0-1.944,1.02V-6h-1.044V0h1.044V-3.18c0-1.344.7-1.98,1.74-1.98a1.389,1.389,0,0,1,1.488,1.536V0h1.044V-3.684A2.246,2.246,0,0,0-40.44-6.156Zm8.52,1.188a2.53,2.53,0,0,0-2.256-1.188,2.9,2.9,0,0,0-2.172.912,3.032,3.032,0,0,0-.888,2.208,3.08,3.08,0,0,0,.888,2.22A2.9,2.9,0,0,0-34.176.1,2.542,2.542,0,0,0-31.92-1.1v.852a1.777,1.777,0,0,1-2,1.836A1.96,1.96,0,0,1-35.88.576l-.912.516a2.984,2.984,0,0,0,2.844,1.464,3.3,3.3,0,0,0,2.16-.744,2.515,2.515,0,0,0,.9-2.064V-6H-31.92Zm0,1.932a2.062,2.062,0,0,1-.612,1.524A2.062,2.062,0,0,1-34.056-.9a2.062,2.062,0,0,1-1.524-.612,2.062,2.062,0,0,1-.612-1.524,2.054,2.054,0,0,1,.612-1.512,2.062,2.062,0,0,1,1.524-.612,2.062,2.062,0,0,1,1.524.612A2.054,2.054,0,0,1-31.92-3.036ZM-23.964.156a3.251,3.251,0,0,0,2.1-.648,2.165,2.165,0,0,0,.8-1.764,1.708,1.708,0,0,0-.42-1.26,1.859,1.859,0,0,0-.648-.552,4.583,4.583,0,0,0-.84-.4c-.2-.084-.348-.132-.444-.168l-.492-.156a5.055,5.055,0,0,1-1.368-.6.969.969,0,0,1-.4-.84c0-.768.612-1.248,1.524-1.248a1.922,1.922,0,0,1,1.908,1.3l.936-.54a3.02,3.02,0,0,0-2.844-1.836,2.82,2.82,0,0,0-1.872.648,2.1,2.1,0,0,0-.768,1.728,2.088,2.088,0,0,0,.528,1.4,2.237,2.237,0,0,0,.612.432c.276.132.516.24.7.312l.8.264a6.554,6.554,0,0,1,1.524.636,1.023,1.023,0,0,1,.456.9c0,.78-.624,1.3-1.776,1.3A2.109,2.109,0,0,1-26.184-2.46l-.96.552A3.145,3.145,0,0,0-23.964.156Zm9.084-.912A3.051,3.051,0,0,0-13.956-3a3.051,3.051,0,0,0-.924-2.244,3.06,3.06,0,0,0-2.244-.912,3.06,3.06,0,0,0-2.244.912A3.041,3.041,0,0,0-20.28-3a3.041,3.041,0,0,0,.912,2.244,3.06,3.06,0,0,0,2.244.912A3.06,3.06,0,0,0-14.88-.756Zm-2.244-.108a2.046,2.046,0,0,1-1.5-.612A2.062,2.062,0,0,1-19.236-3a2.062,2.062,0,0,1,.612-1.524,2.046,2.046,0,0,1,1.5-.612,2.054,2.054,0,0,1,1.512.612A2.062,2.062,0,0,1-15-3a2.062,2.062,0,0,1-.612,1.524A2.054,2.054,0,0,1-17.124-.864ZM-7.9-.756A3.051,3.051,0,0,0-6.972-3,3.051,3.051,0,0,0-7.9-5.244a3.06,3.06,0,0,0-2.244-.912,3.06,3.06,0,0,0-2.244.912A3.041,3.041,0,0,0-13.3-3a3.041,3.041,0,0,0,.912,2.244A3.06,3.06,0,0,0-10.14.156,3.06,3.06,0,0,0-7.9-.756ZM-10.14-.864a2.046,2.046,0,0,1-1.5-.612A2.062,2.062,0,0,1-12.252-3a2.062,2.062,0,0,1,.612-1.524,2.046,2.046,0,0,1,1.5-.612,2.054,2.054,0,0,1,1.512.612A2.062,2.062,0,0,1-8.016-3a2.062,2.062,0,0,1-.612,1.524A2.054,2.054,0,0,1-10.14-.864Zm7.152-5.292a2.117,2.117,0,0,0-1.944,1.02V-6H-5.976V0h1.044V-3.18c0-1.344.7-1.98,1.74-1.98A1.389,1.389,0,0,1-1.7-3.624V0H-.66V-3.684A2.246,2.246,0,0,0-2.988-6.156Z" transform="translate(81.75 14)" fill="#ff3067"/>
  </g>
</svg>
