<svg xmlns="http://www.w3.org/2000/svg" xmlns:xlink="http://www.w3.org/1999/xlink" width="23.66" height="16.38" viewBox="0 0 23.66 16.38">
  <defs>
    <clipPath id="clip-path">
      <rect id="Rectangle_25" data-name="Rectangle 25" width="23.66" height="16.38" rx="5" transform="translate(-23367 12601)" fill="#fff" stroke="#707070" stroke-width="1"/>
    </clipPath>
  </defs>
  <g id="Mask_Group_8" data-name="Mask Group 8" transform="translate(23367 -12601)" clip-path="url(#clip-path)">
    <g id="saudi-arabia" transform="translate(-23368 12601)">
      <path id="Path_15" data-name="Path 15" d="M0,5.5H24.96V21.88H0Z" transform="translate(0 -5.5)" fill="#3d9635"/>
      <g id="Group_2" data-name="Group 2" transform="translate(4.538 2.397)">
        <path id="Path_16" data-name="Path 16" d="M5.954,9.805c-.037.573-.083,1.587.35,1.69.523.054.234-1,.424-1.19.036-.094.1-.094.108.024v.9a.414.414,0,0,0,.3.431c.137-.009.229,0,.282.147.023.515.043,1.029.064,1.544,0,0,.321.108.335-.867a10.13,10.13,0,0,1-.037-1.161c0-.108.125-.118.214-.059.137.108.2.239.41.186.324-.1.517-.274.523-.558a2.7,2.7,0,0,0-.146-.8c.015-.049-.064-.171-.048-.22.058.1.145.093.165,0a.811.811,0,0,0-.278-.485c-.115-.113-.285-.088-.347.152a1.421,1.421,0,0,0,.268.858.948.948,0,0,1,.065.431.193.193,0,0,1-.264-.059s-.261-.22-.261-.264a1.17,1.17,0,0,0-.022-.691.931.931,0,0,0-.171-.372c-.064-.083-.151-.083-.193,0a1.439,1.439,0,0,0,.02.911c.058.2.151.319.108.319-.037.112-.109.083-.162-.044a3.538,3.538,0,0,1-.09-.838c-.024-.221-.05-.691-.179-.814-.078-.118-.2-.059-.234.054a4.914,4.914,0,0,0,.013.637,7.821,7.821,0,0,1,.16,1.031c.011.485-.249.211-.234-.034a2.472,2.472,0,0,0-.012-.93c-.043-.128-.093-.156-.2-.133-.083-.009-.293.25-.352.681a3.892,3.892,0,0,0-.072.422c-.03.22-.16.377-.25-.034-.078-.3-.128-1.034-.26-.863" transform="translate(-5.843 -8.647)" fill="#fff"/>
        <path id="Path_17" data-name="Path 17" d="M7.4,13c-.463.26-.912.5-1.367.74a1.451,1.451,0,0,1,1.082-.985c.281.01.209.122.285.245" transform="translate(-5.865 -9.494)" fill="#fff"/>
        <path id="Path_18" data-name="Path 18" d="M9.328,8.91a.4.4,0,0,0-.087.029.29.29,0,0,0-.183.358c.132.9.215,1.587.347,2.484.023.108-.058.245-.156.234-.173-.132-.216-.4-.51-.39a.612.612,0,0,0-.487.515,1.458,1.458,0,0,0,0,.587.4.4,0,0,0,.488.137c.129-.059.234-.205.282-.172.028.059,0,.53-.609.888-.374.186-.668.234-.829-.108-.1-.215.008-1.029-.234-.842-.72,2.087,1.684,2.381,1.95.088.018-.064.072-.127.109-.113.019.01.03.034.035.083-.056,2.072-1.859,2.21-2.164,1.56a2.168,2.168,0,0,1-.108-.7.4.4,0,0,0-.078-.234c-.073-.058-.171.1-.193.382a2.808,2.808,0,0,0-.022.5c.1,1.647,2.418.941,2.8-.417a5.212,5.212,0,0,0,.059-1.293h.008l.005,0c.234.279.555.034.624-.059a.1.1,0,0,1,.161-.019.353.353,0,0,0,.56-.176,6.824,6.824,0,0,0,.078-.78.635.635,0,0,0-.251.118.078.078,0,0,0-.018.039c-.009.069-.019.147-.03.221a.182.182,0,0,1-.005.019.046.046,0,0,1-.023.02.078.078,0,0,1-.118-.059c-.055-.279-.283-.324-.423.118-.1.088-.264.1-.282-.02.024-.3-.083-.338-.3-.2-.067-.588-.137-1.147-.206-1.735.09,0,.169.073.252-.039a3.544,3.544,0,0,0-.378-.994l-.017-.019-.006-.005H9.363s-.011,0-.012-.009-.02-.005-.03,0m-.646,3.219a.122.122,0,0,1,.128.088.172.172,0,0,1-.027.156c-.019.034-.078.019-.125.019a.114.114,0,0,1-.114-.064c-.016-.054.03-.108.051-.151l.008-.015a.161.161,0,0,1,.078-.034" transform="translate(-6.05 -8.644)" fill="#fff"/>
        <path id="Path_19" data-name="Path 19" d="M11.8,8.852a.4.4,0,0,0-.162.049.39.39,0,0,0-.055.468c.091.044.183.151.121.205-.257.312-.931.828-.964.927v.009h.005a1.547,1.547,0,0,0,.5,0v0a7.445,7.445,0,0,0,.83-.941c-.034-.034-.069-.058-.1-.093a.067.067,0,0,1,0-.108A.337.337,0,0,0,12,8.9a.374.374,0,0,0-.206-.044m-.032.269c.043,0,.092.044.117.1s.012.128-.029.143-.1-.034-.127-.1-.012-.133.031-.142c0,0,0-.005.008-.005" transform="translate(-6.901 -8.635)" fill="#fff"/>
        <path id="Path_20" data-name="Path 20" d="M6.038,14.947A1.694,1.694,0,0,0,5.9,16.3a.269.269,0,0,0,.291.108c.16-.078.234-.445.193-.578-.054-.1-.1-.113-.151-.03-.112.255-.16.078-.17-.069A3.744,3.744,0,0,1,6.091,15c.029-.2,0-.143-.056-.059" transform="translate(-5.818 -9.958)" fill="#fff"/>
        <path id="Path_21" data-name="Path 21" d="M19.432,12.852c-.246-.6-.59-1.2-.7-1.421S17.794,9.858,17.673,9.7c-.269-.358.436.152-.09-.563-.2-.191-.21-.2-.379-.358-.078-.069-.287-.186-.321.01a1.261,1.261,0,0,0,.018.426,1.482,1.482,0,0,0,.211.363,27.419,27.419,0,0,1,2.295,4.145c.114-.059.09-.769.022-.872" transform="translate(-8.25 -8.597)" fill="#fff"/>
        <path id="Path_22" data-name="Path 22" d="M18.758,14.895c-.05.059.119.328.34.323.367-.044.692-.279.991-.892a1.707,1.707,0,0,0,.226-.686,16.825,16.825,0,0,0-.247-3.469.624.624,0,0,1,.009-.24c.024-.034.1,0,.147-.078.064-.078-.165-.672-.3-.9-.047-.1-.063-.172-.14.009a1.454,1.454,0,0,0-.129.657c.175,1.363.229,2.562.346,3.925a.6.6,0,0,1-.086.4,3.441,3.441,0,0,1-1.16.951" transform="translate(-8.662 -8.634)" fill="#fff"/>
        <path id="Path_23" data-name="Path 23" d="M24.1,17.439c-.266.172-.266.372-.051.377a1.264,1.264,0,0,0,1.1-.593,2.154,2.154,0,0,0,.178-.764,20.16,20.16,0,0,0-.2-3.744,1.887,1.887,0,0,1-.037-.353c.025-.064.144.009.184-.069.066-.069-.307-.612-.44-.843-.045-.1-.061-.172-.139.015a1.17,1.17,0,0,0-.078.652,40.573,40.573,0,0,1,.369,4.233,1.342,1.342,0,0,1-.074.348,2.47,2.47,0,0,1-.36.475c-.122.1-.377.2-.459.27" transform="translate(-9.795 -9.184)" fill="#fff"/>
        <path id="Path_24" data-name="Path 24" d="M25.143,13.54c0-.348.009-.647,0-.906s-.116-1.23-.149-1.436-.073-.524-.123-.774a2.333,2.333,0,0,1-.046-.441c.02-.069.1,0,.143-.078a2.958,2.958,0,0,0-.347-1.088c-.048-.1-.14-.069-.249.1-.105.108-.066.353-.027.588a24.212,24.212,0,0,1,.42,4.65c-.016.122.39-.378.384-.612" transform="translate(-9.884 -8.614)" fill="#fff"/>
        <path id="Path_25" data-name="Path 25" d="M22.7,12.084c-.166,0-.515-.363-.616-.573a.449.449,0,0,1,.02-.312c.062-.044.156-.1.227-.044,0,0,.073.113.059.127.09.049.13.019.14-.024.005-.069-.028-.113-.028-.191.038-.221.259-.25.343-.113a.88.88,0,0,1,.093.382c0,.064-.09-.009-.141.005s-.063.078-.067.137c-.011.161-.027.411-.029.6" transform="translate(-9.393 -9.079)" fill="#fff"/>
        <path id="Path_26" data-name="Path 26" d="M18.73,13.927c.047-.476-.015-1.436-.02-1.716-.016-.656-.113-1.925-.156-2.136-.052-.4.145.044.116-.19A2.677,2.677,0,0,0,18.18,8.85c-.074-.118-.071-.142-.188.03a1.374,1.374,0,0,0,.016.8,16.513,16.513,0,0,1,.312,2.332,23.385,23.385,0,0,1,.019,2.48c.126,0,.326-.234.4-.569" transform="translate(-8.484 -8.614)" fill="#fff"/>
        <path id="Path_27" data-name="Path 27" d="M25.323,13.17c-.291-.554-.735-1.2-.852-1.42s-1.118-1.867-1.243-2.014c-.366-.427.168-.069-.069-.407a3.093,3.093,0,0,0-.432-.468c-.085-.059-.139-.181-.167.019a4.591,4.591,0,0,0-.013.539.725.725,0,0,0,.146.334,31.243,31.243,0,0,1,2.625,4.29c.112-.059.073-.769,0-.867" transform="translate(-9.498 -8.617)" fill="#fff"/>
        <path id="Path_28" data-name="Path 28" d="M18.731,21.139a.287.287,0,0,0-.083.509c-2.735,0-6.933-.048-7.829-.048-.505,0-2.1-.069-2.127-.069a1.545,1.545,0,0,0,1.482.686c1.215,0,6.842-.015,8.441-.015a.685.685,0,0,0,.1.657l.007,0a.009.009,0,0,0,.009.005h0c.107.029.156-.059.19-.118a10.149,10.149,0,0,0,1.228,0c.06.1.121.191.234.176.2-.049.356-.073.363-.53,0,0-.021-.774-.474-.725-.108.015-.407.048-.407.048-.349-.044-.606-.048-1-.069.037-.048.1-.259.022-.333a.128.128,0,0,0-.094-.029h-.008a.03.03,0,0,1-.009-.01v0a.976.976,0,0,1-.044-.133h-.009m.186,1.108c.4.02.771,0,1.17.024a.178.178,0,0,1-.011.225c0,.005,0,.005-.005.005h-.01c-.129-.005-.2-.005-.333-.01,0-.01,0-.015,0-.024-.031-.1-.253-.094-.306-.01v.024a.034.034,0,0,0,0,.015,2.48,2.48,0,0,1-.509-.019c-.049-.069-.044-.2.016-.23" transform="translate(-6.45 -11.338)" fill="#fff"/>
        <path id="Path_29" data-name="Path 29" d="M12.667,9.262c-.266.853.156,1.794.443,1.705.211.093.342-.357.429-.848.06-.137.1-.156.134-.083-.009.657.041.8.191,1a.436.436,0,0,0,.63.009c.022-.019.261-.289.261-.289a.143.143,0,0,1,.217-.01c.078.078.067.221.234.312a.468.468,0,0,0,.519-.122c.1-.181.117-.245.161-.312.069-.1.184-.059.184-.024-.01.059-.078.112-.033.215.083.069.1.025.15.01.169-.094.3-.5.3-.5.005-.156-.069-.142-.122-.108s-.068.059-.133.1c-.078.009-.243.073-.32-.064-.083-.167-.083-.4-.146-.569,0-.009-.107-.26-.007-.279.049.01.156.044.175-.059.053-.1-.113-.382-.227-.519a.234.234,0,0,0-.368-.015.5.5,0,0,0-.1.3.521.521,0,0,0,.089.411,1.374,1.374,0,0,1,.2.838.3.3,0,0,1-.27.156c-.07-.02-.187-.054-.25-.563a4.01,4.01,0,0,0-.135-1.19c-.054-.156-.09-.312-.22-.04a.665.665,0,0,0-.078.583,1.924,1.924,0,0,1,.083.906,1.667,1.667,0,0,1-.156.25.239.239,0,0,1-.328.049.4.4,0,0,1-.2-.312,4.939,4.939,0,0,0-.027-1c-.078-.186-.212-.118-.268-.064a2.376,2.376,0,0,0-.491,1.132c-.078.275-.156.2-.214.083-.137-.142-.147-1.279-.312-1.092" transform="translate(-7.306 -8.575)" fill="#fff"/>
        <path id="Path_30" data-name="Path 30" d="M12.974,11.722s0,0-.008,0v0c-.017.01-.04.044-.086.083a.468.468,0,0,0-.086.367c0,.025.146.468.269.789a2.751,2.751,0,0,1,.1,1.064,2.486,2.486,0,0,1-.953,1.117.438.438,0,0,1-.4,0v0a.283.283,0,0,1-.108-.255,2.438,2.438,0,0,0,.959-1.112,1.3,1.3,0,0,0,.026-.8.849.849,0,0,0-.163-.367V12.6c.054-.029.192.088.215.015a1.211,1.211,0,0,0-.275-.568.217.217,0,0,0-.339-.025c-.114.073-.138.333-.085.564.062.166.234.2.351.539v0a.737.737,0,0,1-.02.357,3.851,3.851,0,0,1-.718.755l0,0v0h-.007v0a.823.823,0,0,0,0-.112c0-.1.035-.334.033-.378v0c-.2.151-.275.612-.312.75A9.224,9.224,0,0,0,9.91,15.627c-.179.312,1.228-.363,1.39-.441l.006,0a1.282,1.282,0,0,0,.126.289.7.7,0,0,0,.758.279,2.53,2.53,0,0,0,1.1-1.029c.041-.069.108-.122.168-.069a1.684,1.684,0,0,0,1.555.916c.175-.239.093-.362.021-.406-.023-.02-.379-.176-.434-.333-.034-.142.049-.27.22-.367a6.888,6.888,0,0,0,1.434-.312,1.526,1.526,0,0,1,.156-.554.243.243,0,0,1,.078-.1v-.019l-.078-.054-1.56-.009A.2.2,0,0,1,14.8,13.4v-.029a.1.1,0,0,1,.049-.034c.375-.054,1.035-.177,1.077-.9a.6.6,0,0,0-.546-.681.617.617,0,0,0-.478.711c-.013.093.03.284-.057.3-.574.064-1.2.468-1.222.755H13.62v0h-.008l-.006,0a.167.167,0,0,1-.078-.177,3.775,3.775,0,0,0-.395-1.5c-.078-.093-.115-.127-.14-.132h-.009m2.279.642a.169.169,0,0,1,.122.034.174.174,0,0,1,.1.147v.019a.066.066,0,0,0-.009.01c-.03.034-.1.029-.164-.015a.19.19,0,0,1-.1-.142V12.41q0-.014.007-.014v-.01s0,0,.008-.01a.051.051,0,0,1,.037-.014m-1.45,1.482h.018a4.065,4.065,0,0,0,.653.083c.181.015.27.172.1.24s-.328.113-.328.39a.414.414,0,0,1,0,.234.01.01,0,0,1-.007.009v.01h0l-.008,0a.008.008,0,0,1-.007.005c-.041,0-.1-.044-.144-.064a1.014,1.014,0,0,1-.432-.72.176.176,0,0,1,.162-.191" transform="translate(-6.714 -9.266)" fill="#fff"/>
        <path id="Path_31" data-name="Path 31" d="M8.445,9.33c.181.093.517.054.5-.27,0-.03-.005-.127-.008-.156-.035-.1-.137-.078-.156.025-.007.029.011.083-.014.1s-.076.011-.076-.08a.142.142,0,0,0-.03-.078.046.046,0,0,0-.04-.014c-.024,0-.024.009-.035.034a.226.226,0,0,0-.014.078c0,.034-.016.044-.037.049s-.016,0-.037-.01a.048.048,0,0,1-.026-.046.4.4,0,0,0-.009-.078.078.078,0,0,0-.044-.03c-.1,0-.106.128-.1.176-.009.01-.012.234.121.3" transform="translate(-6.368 -8.632)" fill="#fff"/>
        <path id="Path_32" data-name="Path 32" d="M15.2,12.545c.18.093.608.039.5-.275,0-.03-.006-.127-.011-.156-.036-.1-.135-.073-.156.025-.005.034.014.088-.012.108s-.073,0-.072-.088a.127.127,0,0,0-.03-.073.047.047,0,0,0-.041-.015c-.023,0-.023.009-.037.034a.288.288,0,0,0-.013.073c0,.034-.014.044-.036.049s-.016,0-.036-.01-.027-.019-.027-.044a.212.212,0,0,0-.012-.078.068.068,0,0,0-.044-.029c-.1,0-.1.127-.1.176-.005,0-.01.23.122.3" transform="translate(-7.855 -9.339)" fill="#fff"/>
        <path id="Path_33" data-name="Path 33" d="M19.136,11.215c.179.093.516.049.5-.275,0-.024-.005-.122-.008-.151-.038-.094-.14-.074-.156.029-.009.03.01.083-.016.1s-.072.009-.069-.083a.176.176,0,0,0-.03-.078.07.07,0,0,0-.039-.005c-.024,0-.024.005-.038.03a.3.3,0,0,0-.014.078.039.039,0,0,1-.036.044c-.023,0-.019,0-.035-.01a.051.051,0,0,1-.026-.044.383.383,0,0,0-.012-.083.108.108,0,0,0-.044-.019c-.1,0-.105.127-.1.172-.006.009-.011.234.123.3" transform="translate(-8.721 -9.048)" fill="#fff"/>
        <path id="Path_34" data-name="Path 34" d="M21.154,13.384a1.361,1.361,0,0,0-.1,1.195.919.919,0,0,0,.39.5.251.251,0,0,0,.4-.049c.183-.215.187-.76.272-.867.062-.2.213-.167.287-.078a.8.8,0,0,0,.262.254.406.406,0,0,0,.579.044.714.714,0,0,0,.308-.421,17.145,17.145,0,0,0,.023-2.48c-.009-.058-.177-1.019-.177-1.029s-.024-.49-.041-.6c0-.049-.015-.063.029-.058.046.049.051.054.078.063.046.01.087-.078.06-.161-.141-.294-.286-.593-.429-.881-.033-.044-.078-.083-.134,0a.367.367,0,0,0-.1.264c.013.211.046.427.058.637.058.357.115.72.172,1.083.053.769.069,1.475.122,2.244-.009.323-.1.76-.185.8,0,0-.126.088-.213-.005a2.861,2.861,0,0,1-.312-.468c-.129-.132-.215-.1-.307,0a4.976,4.976,0,0,0-.536,1.137c-.046.078-.17.147-.307,0a1.794,1.794,0,0,1-.19-1.112" transform="translate(-9.148 -8.614)" fill="#fff"/>
        <path id="Path_35" data-name="Path 35" d="M19.217,8.924a.693.693,0,0,1,.234.618c-.032.221-.116.468-.178.431s.044-.221-.018-.422c-.038-.132-.256-.367-.234-.441a.148.148,0,0,1,.193-.186" transform="translate(-8.721 -8.649)" fill="#fff"/>
        <path id="Path_36" data-name="Path 36" d="M21.638,13.614a6.083,6.083,0,0,0-.034-.97c-.009-.255-.258-2.357-.312-2.553-.061-.367.243-.049.208-.264-.1-.27-.366-.667-.447-.9-.052-.1-.03-.191-.141-.025a2.308,2.308,0,0,0-.1.921,22.415,22.415,0,0,1,.493,4.43c.125,0,.268-.318.331-.637" transform="translate(-9.114 -8.625)" fill="#fff"/>
        <path id="Path_37" data-name="Path 37" d="M24.378,12.158c.15.088.234.546.218.676-.028.24-.105.5-.162.468s.012-.358-.017-.456c-.035-.143-.234-.4-.213-.48-.04-.162.087-.23.174-.206" transform="translate(-9.861 -9.362)" fill="#fff"/>
        <path id="Path_38" data-name="Path 38" d="M11.368,13.9c.139.059.222.4.206.5-.028.176-.1.363-.156.342s.012-.264-.017-.338c-.011-.181-.206-.275-.2-.353-.037-.142.078-.167.168-.147" transform="translate(-7 -9.744)" fill="#fff"/>
        <path id="Path_39" data-name="Path 39" d="M6.56,8.782c.207.069.219.412.206.514-.028.182-.1.378-.156.353s0-.27-.03-.348c-.027-.116-.205-.3-.183-.363-.04-.122.078-.182.165-.156" transform="translate(-5.943 -8.618)" fill="#fff"/>
        <path id="Path_40" data-name="Path 40" d="M11.8,10.847a.447.447,0,0,0-.121.554.225.225,0,0,0,.257.088c.156.024.248-.328.248-.328s0-.1-.179.088c-.078.019-.088-.015-.108-.064a.5.5,0,0,1,.023-.275c.029-.088-.031-.127-.121-.063" transform="translate(-7.097 -9.067)" fill="#fff"/>
        <path id="Path_41" data-name="Path 41" d="M13.308,8.6a.659.659,0,0,0-.242.461c-.007.117-.027.117.044.2.052.083.1.073.2.01a.243.243,0,0,0,.1-.156c.025-.137-.127.063-.148-.089s.064-.2.156-.338c0-.093,0-.156-.114-.083" transform="translate(-7.41 -8.574)" fill="#fff"/>
        <path id="Path_42" data-name="Path 42" d="M14.59,8.809a3.135,3.135,0,0,0-.069.534c-.029.133.125.191.193.02a1.736,1.736,0,0,0,.109-.583c-.031-.2-.156-.191-.234.029" transform="translate(-7.732 -8.587)" fill="#fff"/>
        <path id="Path_43" data-name="Path 43" d="M22.358,13.106c.022-.019.853-.686.853-.686.085-.034.067.343.029.338a3.31,3.31,0,0,1-.881.691c-.041.03-.082-.26,0-.343" transform="translate(-9.446 -9.419)" fill="#fff"/>
        <path id="Path_44" data-name="Path 44" d="M23.294,13.291c.148.083.206.563.19.7.005.255-.141.46-.2.431s.007-.318-.022-.421a2.262,2.262,0,0,1-.138-.485c-.041-.162.078-.25.168-.221" transform="translate(-9.624 -9.61)" fill="#fff"/>
        <path id="Path_45" data-name="Path 45" d="M16.991,15.887a1.281,1.281,0,0,1,.234-.23.134.134,0,0,1,.161.034c.014.088-.051.176-.03.3.016.049.03.108.111.083a.516.516,0,0,1,.39-.127c.1,0,.1.2.042.2a2.73,2.73,0,0,0-.528.211.111.111,0,0,1-.156-.024.186.186,0,0,1-.015-.172c.008-.1-.028-.156-.1-.147-.056.039-.1.059-.131-.01-.01-.054-.014-.083.022-.113" transform="translate(-8.269 -10.129)" fill="#fff"/>
        <path id="Path_46" data-name="Path 46" d="M24.417,16.213a.13.13,0,0,1,0,.182c-.059.064-.1.093-.156.156-.026.054-.043.132.04.156.156.049.515-.211.515-.221a.129.129,0,0,0,.034-.142c-.034-.044-.109-.02-.161-.02-.026,0-.105-.02-.067-.093a.788.788,0,0,0,.066-.143c.023-.063,0-.1-.087-.137a.685.685,0,0,0-.222,0c-.053.015-.072.044-.078.113,0,.108.063.1.125.147" transform="translate(-9.871 -10.195)" fill="#fff"/>
      </g>
    </g>
  </g>
</svg>
