<svg id="Group_20961" data-name="Group 20961" xmlns="http://www.w3.org/2000/svg" width="406.068" height="73.682" viewBox="0 0 406.068 73.682">
  <g id="Path_28560" data-name="Path 28560" transform="translate(0)" fill="#fff">
    <path d="M 385.6005859375 73.18161773681641 L 38.31439208984375 73.18161773681641 L 20.46714401245117 73.18161773681641 C 17.77139472961426 73.18161773681641 15.156494140625 72.65377044677734 12.69519424438477 71.61271667480469 C 10.31754398345947 70.60707092285156 8.182144165039062 69.16732025146484 6.348244190216064 67.33341979980469 C 4.514344215393066 65.49951934814453 3.074543952941895 63.36407089233398 2.068893909454346 60.98646926879883 C 1.027843952178955 58.52516937255859 0.4999939799308777 55.91027069091797 0.4999939799308777 53.21451950073242 L 0.4999939799308777 20.46712112426758 C 0.4999939799308777 17.77136993408203 1.027843952178955 15.15647029876709 2.068893909454346 12.69517040252686 C 3.074543952941895 10.31757068634033 4.514344215393066 8.182120323181152 6.348244190216064 6.348220348358154 C 8.182144165039062 4.514320373535156 10.31754398345947 3.074570417404175 12.69519424438477 2.068920373916626 C 15.156494140625 1.027870297431946 17.77139472961426 0.5000203251838684 20.46714401245117 0.5000203251838684 L 385.6005859375 0.5000203251838684 C 388.2963562011719 0.5000203251838684 390.9112548828125 1.027870297431946 393.37255859375 2.068920373916626 C 395.7501525878906 3.074570417404175 397.8855895996094 4.514320373535156 399.719482421875 6.348220348358154 C 401.5534057617188 8.182120323181152 402.9931335449219 10.31757068634033 403.998779296875 12.69517040252686 C 405.0398559570312 15.15647029876709 405.5676879882812 17.77136993408203 405.5676879882812 20.46712112426758 L 405.5676879882812 53.21451950073242 C 405.5676879882812 55.91027069091797 405.0398559570312 58.52516937255859 403.998779296875 60.98646926879883 C 402.9931335449219 63.36407089233398 401.5534057617188 65.49951934814453 399.719482421875 67.33341979980469 C 397.8855895996094 69.16732025146484 395.7501525878906 70.60707092285156 393.37255859375 71.61271667480469 C 390.9112548828125 72.65377044677734 388.2963562011719 73.18161773681641 385.6005859375 73.18161773681641 Z" stroke="none"/>
    <path d="M 20.46713256835938 1.000022888183594 C 17.83865356445312 1.000022888183594 15.289306640625 1.514572143554688 12.88995361328125 2.5294189453125 C 10.57192993164062 3.509872436523438 8.48992919921875 4.913673400878906 6.7017822265625 6.701766967773438 C 4.91363525390625 8.489921569824219 3.509857177734375 10.57191848754883 2.529388427734375 12.88991928100586 C 1.514556884765625 15.28932189941406 1 17.83861923217773 1 20.46712112426758 L 1 53.21451950073242 C 1 55.843017578125 1.514556884765625 58.39231872558594 2.529388427734375 60.79167175292969 C 3.509857177734375 63.10967254638672 4.91363525390625 65.19167327880859 6.7017822265625 66.97982025146484 C 8.48992919921875 68.76796722412109 10.57192993164062 70.17176818847656 12.88995361328125 71.1522216796875 C 15.28933715820312 72.16706848144531 17.83865356445312 72.68161773681641 20.46713256835938 72.68161773681641 L 385.6005859375 72.68161773681641 C 388.2290954589844 72.68161773681641 390.7783813476562 72.16706848144531 393.177734375 71.1522216796875 C 395.4957580566406 70.17176818847656 397.5777587890625 68.76796722412109 399.3659057617188 66.97982025146484 C 401.154052734375 65.19167327880859 402.5578308105469 63.10967254638672 403.5382995605469 60.79167175292969 C 404.5531311035156 58.39231872558594 405.0676879882812 55.843017578125 405.0676879882812 53.21451950073242 L 405.0676879882812 20.46712112426758 C 405.0676879882812 17.83861923217773 404.5531311035156 15.28932189941406 403.5382995605469 12.88991928100586 C 402.5578308105469 10.57191848754883 401.154052734375 8.489921569824219 399.3659057617188 6.701766967773438 C 397.5777587890625 4.913673400878906 395.4957580566406 3.509872436523438 393.177734375 2.5294189453125 C 390.7783813476562 1.514572143554688 388.2290954589844 1.000022888183594 385.6005859375 1.000022888183594 L 20.46713256835938 1.000022888183594 M 20.46713256835938 2.288818359375e-05 L 385.6005859375 2.288818359375e-05 C 396.9042358398438 2.288818359375e-05 406.0676879882812 9.163421630859375 406.0676879882812 20.46712112426758 L 406.0676879882812 53.21451950073242 C 406.0676879882812 64.51817321777344 396.9042358398438 73.68161773681641 385.6005859375 73.68161773681641 L 20.46713256835938 73.68161773681641 C 9.1634521484375 73.68161773681641 0 64.51817321777344 0 53.21451950073242 L 0 20.46712112426758 C 0 9.163421630859375 9.1634521484375 2.288818359375e-05 20.46713256835938 2.288818359375e-05 Z" stroke="none" fill="#fff"/>
  </g>
  <path id="Path_28559" data-name="Path 28559" d="M1.43-15.476V-2.868H6.437A5.738,5.738,0,0,0,10.76-4.687a6.182,6.182,0,0,0,1.747-4.485,6.182,6.182,0,0,0-1.747-4.485,5.738,5.738,0,0,0-4.323-1.819ZM3.916-5.246V-13.1H6.437A3.452,3.452,0,0,1,9.1-12a3.927,3.927,0,0,1,1.027,2.828A4,4,0,0,1,9.1-6.326,3.5,3.5,0,0,1,6.437-5.246ZM21.476-3.985a4.62,4.62,0,0,0,1.387-3.386,4.58,4.58,0,0,0-1.387-3.368,4.62,4.62,0,0,0-3.386-1.387A4.62,4.62,0,0,0,14.7-10.739a4.564,4.564,0,0,0-1.369,3.368A4.6,4.6,0,0,0,14.7-3.985,4.6,4.6,0,0,0,18.09-2.616,4.6,4.6,0,0,0,21.476-3.985Zm-5.133-1.6a2.475,2.475,0,0,1-.684-1.783,2.475,2.475,0,0,1,.684-1.783,2.362,2.362,0,0,1,1.747-.7,2.362,2.362,0,0,1,1.747.7,2.416,2.416,0,0,1,.7,1.783,2.416,2.416,0,0,1-.7,1.783,2.362,2.362,0,0,1-1.747.7A2.362,2.362,0,0,1,16.343-5.588ZM34.1-12.126a3.046,3.046,0,0,0-2.684,1.3,2.669,2.669,0,0,0-2.45-1.3,2.785,2.785,0,0,0-2.5,1.207v-.955H24.142v9.006h2.323V-7.929c0-1.315.666-2.035,1.693-2.035.955,0,1.513.63,1.513,1.711v5.385h2.323V-7.929c0-1.315.612-2.035,1.675-2.035.955,0,1.513.63,1.513,1.711v5.385h2.323V-8.415C37.506-10.667,36.173-12.126,34.1-12.126Zm11.869,1.315a3.527,3.527,0,0,0-2.936-1.315,4.108,4.108,0,0,0-3.1,1.387,4.785,4.785,0,0,0-1.279,3.368,4.829,4.829,0,0,0,1.279,3.386,4.09,4.09,0,0,0,3.1,1.369,3.527,3.527,0,0,0,2.936-1.315v1.063h2.323v-9.006H45.971ZM41.685-5.534a2.542,2.542,0,0,1-.7-1.837,2.471,2.471,0,0,1,.7-1.819,2.362,2.362,0,0,1,1.783-.72,2.362,2.362,0,0,1,1.783.72,2.415,2.415,0,0,1,.72,1.819,2.484,2.484,0,0,1-.72,1.837,2.416,2.416,0,0,1-1.783.7A2.416,2.416,0,0,1,41.685-5.534Zm9.51-7.421a1.441,1.441,0,0,0,1.441-1.423,1.457,1.457,0,0,0-1.441-1.441,1.453,1.453,0,0,0-1.423,1.441A1.438,1.438,0,0,0,51.195-12.954ZM52.365-2.868v-9.006H50.042v9.006Zm6.772-9.258a2.98,2.98,0,0,0-2.684,1.261v-1.009H54.13v9.006h2.323V-7.731c0-1.495.774-2.233,1.981-2.233a1.668,1.668,0,0,1,1.783,1.855v5.241h2.323V-8.4a3.74,3.74,0,0,0-.973-2.738A3.191,3.191,0,0,0,59.137-12.126Zm13.977,9.51A5.058,5.058,0,0,0,76.59-3.8a4.034,4.034,0,0,0,1.351-3.188v-8.483H75.455v8.285c0,1.315-.738,2.143-2.341,2.143s-2.341-.829-2.341-2.143v-8.285H68.305v8.483A4.034,4.034,0,0,0,69.656-3.8,5.042,5.042,0,0,0,73.114-2.616Zm16.3-.252L86.622-7.623A4.1,4.1,0,0,0,89.054-11.3a4.039,4.039,0,0,0-1.225-2.954,4.05,4.05,0,0,0-2.972-1.225H79.814V-2.868H82.3V-7.245h1.891l2.54,4.377ZM84.857-13.152A1.792,1.792,0,0,1,86.568-11.3a1.808,1.808,0,0,1-1.711,1.873H82.3v-3.728ZM93-15.476H90.513V-2.868h7.294V-5.246H93Z" transform="translate(74.241 46.258)" fill="#3b2a82"/>
  <g id="Group_19888" data-name="Group 19888" transform="translate(21.286 16.374)">
    <circle id="Ellipse_1357" data-name="Ellipse 1357" cx="20.5" cy="20.5" r="20.5" transform="translate(-0.286 -0.374)" fill="#3b2a82" opacity="0.1"/>
    <g id="XMLID_105_" transform="translate(10.643 10.643)">
      <path id="XMLID_106_" d="M10.5,108.706l-2.985,2.985h0a3.166,3.166,0,0,1-4.478-4.478h0l2.985-2.985a1.055,1.055,0,0,0-1.493-1.493l-2.985,2.985h0a5.277,5.277,0,0,0,7.463,7.462h0l2.985-2.985a1.055,1.055,0,0,0-1.493-1.493Z" transform="translate(0 -95.223)" fill="#3b2a82"/>
      <path id="XMLID_107_" d="M114.727,5.31a5.277,5.277,0,0,0-9.008-3.731h0l-2.985,2.985a1.055,1.055,0,1,0,1.493,1.493l2.985-2.985h0a3.166,3.166,0,0,1,4.478,4.478h0L108.7,10.534a1.055,1.055,0,1,0,1.493,1.493l2.985-2.985h0A5.243,5.243,0,0,0,114.727,5.31Z" transform="translate(-95.218 -0.036)" fill="#3b2a82"/>
      <path id="XMLID_108_" d="M81.523,88.985a1.055,1.055,0,0,0,1.493,0l5.97-5.97a1.055,1.055,0,1,0-1.493-1.493l-5.97,5.97A1.055,1.055,0,0,0,81.523,88.985Z" transform="translate(-75.499 -75.502)" fill="#3b2a82"/>
    </g>
  </g>
  <path id="Path_28558" data-name="Path 28558" d="M-174.733-5.176l-1.341-4.539h-1.8l-1.341,4.524-1.253-4.524h-2.019l2.343,7.368h1.813l1.356-4.465,1.356,4.465h1.813l2.343-7.368h-2.019Zm11.347,0-1.341-4.539h-1.8l-1.341,4.524-1.253-4.524h-2.019l2.343,7.368h1.813l1.356-4.465,1.356,4.465h1.813l2.343-7.368h-2.019Zm11.347,0-1.341-4.539h-1.8l-1.341,4.524-1.253-4.524h-2.019l2.343,7.368h1.813l1.356-4.465,1.356,4.465h1.813l2.343-7.368h-2.019Zm4.951,2.653a1.254,1.254,0,0,0,0-1.768,1.254,1.254,0,0,0-1.768,0,1.254,1.254,0,0,0,0,1.768A1.254,1.254,0,0,0-147.087-2.523Zm4.082-2.24-1.916-4.951H-147l3.021,7.132a1.8,1.8,0,0,1-1.93,1.415V.6c1.886.1,3.124-.825,3.89-2.947l2.682-7.368h-2.034Zm10.551,1.5a3.78,3.78,0,0,0,1.135-2.77,3.747,3.747,0,0,0-1.135-2.756,3.78,3.78,0,0,0-2.77-1.135A3.78,3.78,0,0,0-138-8.786a3.734,3.734,0,0,0-1.12,2.756A3.767,3.767,0,0,0-138-3.26a3.767,3.767,0,0,0,2.77,1.12A3.767,3.767,0,0,0-132.454-3.26Zm-4.2-1.312a2.025,2.025,0,0,1-.56-1.459,2.025,2.025,0,0,1,.56-1.459,1.933,1.933,0,0,1,1.429-.575,1.933,1.933,0,0,1,1.429.575,1.977,1.977,0,0,1,.575,1.459,1.977,1.977,0,0,1-.575,1.459A1.933,1.933,0,0,1-135.225-4,1.933,1.933,0,0,1-136.654-4.572Zm11.539-1.164c0,1.223-.634,1.827-1.621,1.827A1.365,1.365,0,0,1-128.2-5.426V-9.715h-1.9v4.524a3.115,3.115,0,0,0,.781,2.24,2.666,2.666,0,0,0,2,.81,2.438,2.438,0,0,0,2.2-1.032v.825h1.9V-9.715h-1.9Zm5.541-3.979h-1.9v7.368h1.9V-5.869a1.69,1.69,0,0,1,.678-1.518,2.214,2.214,0,0,1,1.562-.354V-9.862a2.26,2.26,0,0,0-2.24,1.415Zm8.65.869a2.839,2.839,0,0,0-2.387-1.076,3.392,3.392,0,0,0-2.549,1.135,3.915,3.915,0,0,0-1.046,2.756,3.951,3.951,0,0,0,1.046,2.77,3.378,3.378,0,0,0,2.549,1.12,2.839,2.839,0,0,0,2.387-1.076v.869h1.9V-12.662h-1.9Zm-3.507,4.318a2.08,2.08,0,0,1-.575-1.5,2.022,2.022,0,0,1,.575-1.488,1.988,1.988,0,0,1,1.474-.589,1.933,1.933,0,0,1,1.459.589,2.022,2.022,0,0,1,.575,1.488,2.08,2.08,0,0,1-.575,1.5,1.977,1.977,0,0,1-1.459.575A2.034,2.034,0,0,1-114.432-4.528Zm13.425,1.267a3.78,3.78,0,0,0,1.135-2.77,3.747,3.747,0,0,0-1.135-2.756,3.78,3.78,0,0,0-2.77-1.135,3.78,3.78,0,0,0-2.77,1.135,3.734,3.734,0,0,0-1.12,2.756,3.767,3.767,0,0,0,1.12,2.77,3.767,3.767,0,0,0,2.77,1.12A3.767,3.767,0,0,0-101.007-3.26Zm-4.2-1.312a2.025,2.025,0,0,1-.56-1.459,2.025,2.025,0,0,1,.56-1.459,1.933,1.933,0,0,1,1.429-.575,1.933,1.933,0,0,1,1.429.575,1.977,1.977,0,0,1,.575,1.459,1.977,1.977,0,0,1-.575,1.459A1.933,1.933,0,0,1-103.777-4,1.933,1.933,0,0,1-105.207-4.572Zm14.825-5.349a2.492,2.492,0,0,0-2.2,1.061,2.184,2.184,0,0,0-2-1.061,2.279,2.279,0,0,0-2.048.987v-.781h-1.9v7.368h1.9V-6.487c0-1.076.545-1.665,1.385-1.665.781,0,1.238.516,1.238,1.4v4.406h1.9V-6.487c0-1.076.5-1.665,1.37-1.665.781,0,1.238.516,1.238,1.4v4.406h1.9V-6.885A2.734,2.734,0,0,0-90.382-9.921Zm10.006,1.076a2.886,2.886,0,0,0-2.4-1.076,3.361,3.361,0,0,0-2.535,1.135,3.915,3.915,0,0,0-1.046,2.756,3.951,3.951,0,0,0,1.046,2.77,3.347,3.347,0,0,0,2.535,1.12,2.886,2.886,0,0,0,2.4-1.076v.869h1.9V-9.715h-1.9Zm-3.507,4.318a2.08,2.08,0,0,1-.575-1.5,2.022,2.022,0,0,1,.575-1.488,1.933,1.933,0,0,1,1.459-.589,1.933,1.933,0,0,1,1.459.589,1.976,1.976,0,0,1,.589,1.488,2.032,2.032,0,0,1-.589,1.5,1.977,1.977,0,0,1-1.459.575A1.977,1.977,0,0,1-83.883-4.528Zm8.076-6.071a1.179,1.179,0,0,0,1.179-1.164,1.192,1.192,0,0,0-1.179-1.179,1.189,1.189,0,0,0-1.164,1.179A1.176,1.176,0,0,0-75.808-10.6Zm.958,8.252V-9.715h-1.9v7.368Zm5.836-7.574a2.438,2.438,0,0,0-2.2,1.032v-.825h-1.9v7.368h1.9V-6.325c0-1.223.634-1.827,1.621-1.827A1.365,1.365,0,0,1-68.13-6.635v4.288h1.9V-6.871a3.06,3.06,0,0,0-.8-2.24A2.611,2.611,0,0,0-69.014-9.921Zm6.4,7.4a1.254,1.254,0,0,0,0-1.768,1.254,1.254,0,0,0-1.768,0,1.254,1.254,0,0,0,0,1.768A1.254,1.254,0,0,0-62.619-2.523Zm4.878.383a3.779,3.779,0,0,0,3.33-1.916L-56.061-5a1.817,1.817,0,0,1-1.695.973,1.921,1.921,0,0,1-1.415-.56,2.014,2.014,0,0,1-.56-1.444A1.932,1.932,0,0,1-57.756-8.05a1.822,1.822,0,0,1,1.68.987l1.636-.958a3.669,3.669,0,0,0-3.3-1.9A3.777,3.777,0,0,0-60.526-8.8a3.789,3.789,0,0,0-1.105,2.77,3.789,3.789,0,0,0,1.105,2.77A3.777,3.777,0,0,0-57.741-2.14Zm10.492-1.12a3.78,3.78,0,0,0,1.135-2.77,3.747,3.747,0,0,0-1.135-2.756,3.78,3.78,0,0,0-2.77-1.135,3.78,3.78,0,0,0-2.77,1.135,3.734,3.734,0,0,0-1.12,2.756,3.767,3.767,0,0,0,1.12,2.77,3.767,3.767,0,0,0,2.77,1.12A3.767,3.767,0,0,0-47.249-3.26Zm-4.2-1.312a2.025,2.025,0,0,1-.56-1.459,2.025,2.025,0,0,1,.56-1.459,1.933,1.933,0,0,1,1.429-.575,1.933,1.933,0,0,1,1.429.575,1.977,1.977,0,0,1,.575,1.459,1.977,1.977,0,0,1-.575,1.459A1.933,1.933,0,0,1-50.019-4,1.933,1.933,0,0,1-51.449-4.572Zm14.825-5.349a2.492,2.492,0,0,0-2.2,1.061,2.184,2.184,0,0,0-2-1.061,2.279,2.279,0,0,0-2.048.987v-.781h-1.9v7.368h1.9V-6.487c0-1.076.545-1.665,1.385-1.665.781,0,1.238.516,1.238,1.4v4.406h1.9V-6.487c0-1.076.5-1.665,1.37-1.665.781,0,1.238.516,1.238,1.4v4.406h1.9V-6.885A2.734,2.734,0,0,0-36.624-9.921Z" transform="translate(412.138 44.1)" fill="#ff3067"/>
</svg>
