<svg id="Group_20964" data-name="Group 20964" xmlns="http://www.w3.org/2000/svg" width="406.068" height="73.682" viewBox="0 0 406.068 73.682">
  <g id="Path_28563" data-name="Path 28563" transform="translate(0)" fill="#fff">
    <path d="M 385.6005859375 73.18161773681641 L 38.31444549560547 73.18161773681641 L 20.46714401245117 73.18161773681641 C 17.77139472961426 73.18161773681641 15.156494140625 72.65377044677734 12.69519424438477 71.61271667480469 C 10.31754398345947 70.60707092285156 8.182144165039062 69.16732025146484 6.348244190216064 67.33341979980469 C 4.514344215393066 65.49951934814453 3.074543952941895 63.36407089233398 2.068893909454346 60.98646926879883 C 1.027843952178955 58.52516937255859 0.4999939799308777 55.91027069091797 0.4999939799308777 53.21451950073242 L 0.4999939799308777 20.46712112426758 C 0.4999939799308777 17.77136993408203 1.027843952178955 15.15647029876709 2.068893909454346 12.69517040252686 C 3.074543952941895 10.31757068634033 4.514344215393066 8.182120323181152 6.348244190216064 6.348220348358154 C 8.182144165039062 4.514320373535156 10.31754398345947 3.074570417404175 12.69519424438477 2.068920373916626 C 15.156494140625 1.027870297431946 17.77139472961426 0.5000203251838684 20.46714401245117 0.5000203251838684 L 385.6005859375 0.5000203251838684 C 388.2963562011719 0.5000203251838684 390.9112548828125 1.027870297431946 393.37255859375 2.068920373916626 C 395.7501525878906 3.074570417404175 397.8855895996094 4.514320373535156 399.719482421875 6.348220348358154 C 401.5534057617188 8.182120323181152 402.9931335449219 10.31757068634033 403.998779296875 12.69517040252686 C 405.0398559570312 15.15647029876709 405.5676879882812 17.77136993408203 405.5676879882812 20.46712112426758 L 405.5676879882812 53.21451950073242 C 405.5676879882812 55.91027069091797 405.0398559570312 58.52516937255859 403.998779296875 60.98646926879883 C 402.9931335449219 63.36407089233398 401.5534057617188 65.49951934814453 399.719482421875 67.33341979980469 C 397.8855895996094 69.16732025146484 395.7501525878906 70.60707092285156 393.37255859375 71.61271667480469 C 390.9112548828125 72.65377044677734 388.2963562011719 73.18161773681641 385.6005859375 73.18161773681641 Z" stroke="none"/>
    <path d="M 20.46713256835938 1.000022888183594 C 17.83865356445312 1.000022888183594 15.289306640625 1.514572143554688 12.88995361328125 2.5294189453125 C 10.57192993164062 3.509872436523438 8.48992919921875 4.913673400878906 6.7017822265625 6.701766967773438 C 4.91363525390625 8.489921569824219 3.509857177734375 10.57191848754883 2.529388427734375 12.88991928100586 C 1.514556884765625 15.28932189941406 1 17.83861923217773 1 20.46712112426758 L 1 53.21451950073242 C 1 55.843017578125 1.514556884765625 58.39231872558594 2.529388427734375 60.79167175292969 C 3.509857177734375 63.10967254638672 4.91363525390625 65.19167327880859 6.7017822265625 66.97982025146484 C 8.48992919921875 68.76796722412109 10.57192993164062 70.17176818847656 12.88995361328125 71.1522216796875 C 15.28933715820312 72.16706848144531 17.83865356445312 72.68161773681641 20.46713256835938 72.68161773681641 L 385.6005859375 72.68161773681641 C 388.2290954589844 72.68161773681641 390.7783813476562 72.16706848144531 393.177734375 71.1522216796875 C 395.4957580566406 70.17176818847656 397.5777587890625 68.76796722412109 399.3659057617188 66.97982025146484 C 401.154052734375 65.19167327880859 402.5578308105469 63.10967254638672 403.5382995605469 60.79167175292969 C 404.5531311035156 58.39231872558594 405.0676879882812 55.843017578125 405.0676879882812 53.21451950073242 L 405.0676879882812 20.46712112426758 C 405.0676879882812 17.83861923217773 404.5531311035156 15.28932189941406 403.5382995605469 12.88991928100586 C 402.5578308105469 10.57191848754883 401.154052734375 8.489921569824219 399.3659057617188 6.701766967773438 C 397.5777587890625 4.913673400878906 395.4957580566406 3.509872436523438 393.177734375 2.5294189453125 C 390.7783813476562 1.514572143554688 388.2290954589844 1.000022888183594 385.6005859375 1.000022888183594 L 20.46713256835938 1.000022888183594 M 20.46713256835938 2.288818359375e-05 L 385.6005859375 2.288818359375e-05 C 396.9042358398438 2.288818359375e-05 406.0676879882812 9.163421630859375 406.0676879882812 20.46712112426758 L 406.0676879882812 53.21451950073242 C 406.0676879882812 64.51817321777344 396.9042358398438 73.68161773681641 385.6005859375 73.68161773681641 L 20.46713256835938 73.68161773681641 C 9.1634521484375 73.68161773681641 0 64.51817321777344 0 53.21451950073242 L 0 20.46712112426758 C 0 9.163421630859375 9.1634521484375 2.288818359375e-05 20.46713256835938 2.288818359375e-05 Z" stroke="none" fill="#fff"/>
  </g>
  <path id="Path_28553" data-name="Path 28553" d="M7.282-2.616A6.241,6.241,0,0,0,12.7-5.588L10.56-6.83A3.64,3.64,0,0,1,7.282-5.047,3.962,3.962,0,0,1,4.31-6.2,4.138,4.138,0,0,1,3.194-9.172a4.152,4.152,0,0,1,1.117-2.99,3.962,3.962,0,0,1,2.972-1.153,3.624,3.624,0,0,1,3.278,1.8L12.7-12.756a6.263,6.263,0,0,0-5.421-2.972,6.325,6.325,0,0,0-4.7,1.891A6.34,6.34,0,0,0,.726-9.172,6.369,6.369,0,0,0,2.581-4.507,6.325,6.325,0,0,0,7.282-2.616ZM19.854-7.011c0,1.495-.774,2.233-1.981,2.233a1.668,1.668,0,0,1-1.783-1.855v-5.241H13.766v5.529a3.807,3.807,0,0,0,.955,2.738,3.258,3.258,0,0,0,2.45.991,2.98,2.98,0,0,0,2.684-1.261v1.009h2.323v-9.006H19.854Zm6.16-2.305c0-.45.45-.738,1.045-.738a1.487,1.487,0,0,1,1.441.919l1.981-1.081a3.828,3.828,0,0,0-3.422-1.909,3.832,3.832,0,0,0-2.45.774,2.508,2.508,0,0,0-.973,2.089c0,1.873,1.675,2.431,3.008,2.774.919.234,1.639.5,1.639.991,0,.522-.414.774-1.243.774a1.676,1.676,0,0,1-1.765-1.171L23.258-4.759A3.787,3.787,0,0,0,27.04-2.616a4.353,4.353,0,0,0,2.576-.738A2.483,2.483,0,0,0,30.66-5.5c.018-1.927-1.693-2.558-3.008-2.828C26.734-8.56,26.014-8.83,26.014-9.316Zm10.663-2.558H34.641V-14.4l-2.323.7v1.819H30.75V-9.64h1.567v3.746c0,2.468,1.171,3.386,4.359,3.026V-4.975c-1.333.072-2.035.054-2.035-.919V-9.64h2.035Zm8.681,7.889a4.62,4.62,0,0,0,1.387-3.386,4.58,4.58,0,0,0-1.387-3.368,4.62,4.62,0,0,0-3.386-1.387,4.62,4.62,0,0,0-3.386,1.387,4.564,4.564,0,0,0-1.369,3.368,4.6,4.6,0,0,0,1.369,3.386,4.6,4.6,0,0,0,3.386,1.369A4.6,4.6,0,0,0,45.357-3.985Zm-5.133-1.6a2.475,2.475,0,0,1-.684-1.783,2.475,2.475,0,0,1,.684-1.783,2.362,2.362,0,0,1,1.747-.7,2.362,2.362,0,0,1,1.747.7,2.416,2.416,0,0,1,.7,1.783,2.416,2.416,0,0,1-.7,1.783,2.362,2.362,0,0,1-1.747.7A2.362,2.362,0,0,1,40.224-5.588Zm17.759-6.538a3.046,3.046,0,0,0-2.684,1.3,2.669,2.669,0,0,0-2.45-1.3,2.785,2.785,0,0,0-2.5,1.207v-.955H48.023v9.006h2.323V-7.929c0-1.315.666-2.035,1.693-2.035.955,0,1.513.63,1.513,1.711v5.385h2.323V-7.929c0-1.315.612-2.035,1.675-2.035.955,0,1.513.63,1.513,1.711v5.385h2.323V-8.415C61.387-10.667,60.054-12.126,57.983-12.126Zm16.894,2.72a3.067,3.067,0,0,0,1.189-2.522,3.279,3.279,0,0,0-1.117-2.54,3.908,3.908,0,0,0-2.72-1.009H67.259V-2.868h5.349A4.019,4.019,0,0,0,75.4-3.895a3.4,3.4,0,0,0,1.135-2.63A3.127,3.127,0,0,0,74.878-9.406ZM72.23-13.152a1.325,1.325,0,0,1,1.351,1.387,1.335,1.335,0,0,1-1.351,1.387H69.744v-2.774ZM69.744-5.191V-8.163h2.864a1.424,1.424,0,0,1,1.459,1.477,1.429,1.429,0,0,1-1.459,1.495Zm10.266-6.682H77.687v9.006h2.323v-4.3a2.065,2.065,0,0,1,.829-1.855,2.706,2.706,0,0,1,1.909-.432v-2.594a2.762,2.762,0,0,0-2.738,1.729Zm10.23,1.063a3.527,3.527,0,0,0-2.936-1.315,4.108,4.108,0,0,0-3.1,1.387,4.785,4.785,0,0,0-1.279,3.368,4.829,4.829,0,0,0,1.279,3.386,4.09,4.09,0,0,0,3.1,1.369,3.527,3.527,0,0,0,2.936-1.315v1.063h2.323v-9.006H90.241ZM85.954-5.534a2.542,2.542,0,0,1-.7-1.837,2.471,2.471,0,0,1,.7-1.819,2.362,2.362,0,0,1,1.783-.72,2.362,2.362,0,0,1,1.783.72,2.415,2.415,0,0,1,.72,1.819,2.484,2.484,0,0,1-.72,1.837,2.416,2.416,0,0,1-1.783.7A2.416,2.416,0,0,1,85.954-5.534Zm13.364-6.592a2.98,2.98,0,0,0-2.684,1.261v-1.009H94.312v9.006h2.323V-7.731c0-1.495.774-2.233,1.981-2.233A1.668,1.668,0,0,1,100.4-8.109v5.241h2.323V-8.4a3.74,3.74,0,0,0-.973-2.738A3.191,3.191,0,0,0,99.319-12.126Zm11.851,1.315a3.469,3.469,0,0,0-2.918-1.315,4.146,4.146,0,0,0-3.116,1.387,4.785,4.785,0,0,0-1.279,3.368,4.829,4.829,0,0,0,1.279,3.386,4.128,4.128,0,0,0,3.116,1.369,3.469,3.469,0,0,0,2.918-1.315v1.063h2.323V-15.476H111.17Zm-4.287,5.277a2.542,2.542,0,0,1-.7-1.837,2.471,2.471,0,0,1,.7-1.819,2.43,2.43,0,0,1,1.8-.72,2.362,2.362,0,0,1,1.783.72,2.471,2.471,0,0,1,.7,1.819,2.542,2.542,0,0,1-.7,1.837,2.416,2.416,0,0,1-1.783.7A2.487,2.487,0,0,1,106.883-5.534Zm9.528-7.421a1.441,1.441,0,0,0,1.441-1.423,1.457,1.457,0,0,0-1.441-1.441,1.453,1.453,0,0,0-1.423,1.441A1.438,1.438,0,0,0,116.411-12.954Zm1.171,10.086v-9.006h-2.323v9.006Zm6.772-9.258a2.98,2.98,0,0,0-2.684,1.261v-1.009h-2.323v9.006h2.323V-7.731c0-1.495.774-2.233,1.981-2.233a1.668,1.668,0,0,1,1.783,1.855v5.241h2.323V-8.4a3.74,3.74,0,0,0-.973-2.738A3.191,3.191,0,0,0,124.354-12.126Zm11.923,1.369a3.372,3.372,0,0,0-2.882-1.369,4.246,4.246,0,0,0-3.188,1.351,4.527,4.527,0,0,0-1.3,3.26,4.629,4.629,0,0,0,1.279,3.278A4.308,4.308,0,0,0,133.4-2.9a3.372,3.372,0,0,0,2.882-1.369V-3.3a2.1,2.1,0,0,1-2.359,2.215,2.443,2.443,0,0,1-2.359-1.261l-1.981,1.135a4.575,4.575,0,0,0,4.269,2.2,5.106,5.106,0,0,0,3.314-1.1A3.858,3.858,0,0,0,138.547-3.3v-8.573h-2.269Zm0,3.242a2.408,2.408,0,0,1-2.522,2.468,2.408,2.408,0,0,1-2.522-2.468,2.334,2.334,0,0,1,.7-1.747,2.5,2.5,0,0,1,1.819-.7,2.429,2.429,0,0,1,1.8.7A2.283,2.283,0,0,1,136.277-7.515Z" transform="translate(74.369 46.258)" fill="#3b2a82"/>
  <g id="Group_19876" data-name="Group 19876" transform="translate(21.286 16.374)">
    <circle id="Ellipse_1357" data-name="Ellipse 1357" cx="20.5" cy="20.5" r="20.5" transform="translate(-0.286 -0.26)" fill="#3b2a82" opacity="0.1"/>
    <g id="color-icon" transform="translate(12.912 10.63)">
      <path id="Path_27760" data-name="Path 27760" d="M19.234,12.45c0-3.983-6.275-10.865-6.99-11.638a.982.982,0,0,0-1.393,0c-.715.772-6.99,7.655-6.99,11.638a7.687,7.687,0,0,0,15.374,0Zm-9.9-.614a4.09,4.09,0,0,1-2.077-.507,5.353,5.353,0,0,0-1.152-.437c.962-2.558,3.736-6.066,5.439-8.01,1.9,2.172,5.135,6.287,5.7,8.858a4.257,4.257,0,0,1-1.114-.412,4.765,4.765,0,0,0-2.355-.563,4.785,4.785,0,0,0-2.355.563,4.117,4.117,0,0,1-2.083.507Z" transform="translate(-3.86 -0.522)" fill="#3b2a82"/>
    </g>
  </g>
  <path id="Path_28554" data-name="Path 28554" d="M8.662-3.31A4.605,4.605,0,0,0,10.051-6.7a4.555,4.555,0,0,0-1.388-3.38,4.6,4.6,0,0,0-3.38-1.388A4.6,4.6,0,0,0,1.9-10.082,4.594,4.594,0,0,0,.528-6.7,4.645,4.645,0,0,0,1.9-3.31a4.636,4.636,0,0,0,3.38,1.375A4.636,4.636,0,0,0,8.662-3.31ZM3.174-4.541A2.932,2.932,0,0,1,2.323-6.7a2.932,2.932,0,0,1,.851-2.161,2.874,2.874,0,0,1,2.109-.851,2.874,2.874,0,0,1,2.109.851A2.932,2.932,0,0,1,8.243-6.7a2.932,2.932,0,0,1-.851,2.161A2.863,2.863,0,0,1,5.283-3.7,2.863,2.863,0,0,1,3.174-4.541Zm9.759-4.126h-1.69v6.549h1.69V-5.248a1.5,1.5,0,0,1,.6-1.349,1.968,1.968,0,0,1,1.388-.314V-8.8a2.009,2.009,0,0,0-1.991,1.257Zm3.812-.786a1.048,1.048,0,0,0,1.048-1.035,1.06,1.06,0,0,0-1.048-1.048,1.057,1.057,0,0,0-1.035,1.048A1.046,1.046,0,0,0,16.745-9.453ZM17.6-2.118V-8.667h-1.69v6.549Zm6.563-5.737a2.452,2.452,0,0,0-2.1-1,3.088,3.088,0,0,0-2.319.982A3.293,3.293,0,0,0,18.8-5.5a3.367,3.367,0,0,0,.93,2.384,3.133,3.133,0,0,0,2.332.969,2.452,2.452,0,0,0,2.1-1v.707A1.525,1.525,0,0,1,22.443-.821a1.776,1.776,0,0,1-1.716-.917l-1.441.825a3.327,3.327,0,0,0,3.1,1.6,3.713,3.713,0,0,0,2.41-.8,2.806,2.806,0,0,0,1.009-2.319V-8.667h-1.65Zm0,2.358A1.751,1.751,0,0,1,22.325-3.7,1.751,1.751,0,0,1,20.491-5.5,1.7,1.7,0,0,1,21-6.768a1.818,1.818,0,0,1,1.323-.511,1.767,1.767,0,0,1,1.31.511A1.66,1.66,0,0,1,24.159-5.5ZM28.18-9.453a1.048,1.048,0,0,0,1.048-1.035,1.06,1.06,0,0,0-1.048-1.048,1.057,1.057,0,0,0-1.035,1.048A1.046,1.046,0,0,0,28.18-9.453Zm.851,7.335V-8.667h-1.69v6.549Zm5.187-6.733a2.167,2.167,0,0,0-1.952.917v-.734h-1.69v6.549h1.69V-5.654c0-1.087.563-1.624,1.441-1.624A1.213,1.213,0,0,1,35-5.93v3.812h1.69V-6.139a2.72,2.72,0,0,0-.707-1.991A2.321,2.321,0,0,0,34.219-8.851Zm8.894.956a2.565,2.565,0,0,0-2.135-.956,2.988,2.988,0,0,0-2.253,1.009,3.48,3.48,0,0,0-.93,2.45,3.512,3.512,0,0,0,.93,2.463,2.975,2.975,0,0,0,2.253,1,2.565,2.565,0,0,0,2.135-.956v.773H44.8V-8.667h-1.69ZM40-4.056a1.849,1.849,0,0,1-.511-1.336A1.8,1.8,0,0,1,40-6.715a1.718,1.718,0,0,1,1.3-.524,1.718,1.718,0,0,1,1.3.524,1.756,1.756,0,0,1,.524,1.323,1.806,1.806,0,0,1-.524,1.336,1.757,1.757,0,0,1-1.3.511A1.757,1.757,0,0,1,40-4.056Zm8.03,1.939V-11.68h-1.69v9.562Z" transform="translate(295.04 43.991)" fill="#3b2a82"/>
  <g id="Group_20953" data-name="Group 20953" transform="translate(352.853 27.017)">
    <rect id="Rectangle_7717" data-name="Rectangle 7717" width="6" height="20" rx="3" transform="translate(20.146 0.098)" fill="#586380"/>
    <rect id="Rectangle_7718" data-name="Rectangle 7718" width="6" height="20" rx="3" transform="translate(10.146 0.098)" fill="#2a3b82"/>
    <rect id="Rectangle_7719" data-name="Rectangle 7719" width="6" height="20" rx="3" transform="translate(0.146 0.098)" fill="#307fff"/>
  </g>
</svg>
