<svg xmlns="http://www.w3.org/2000/svg" width="80" height="80" viewBox="0 0 80 80">
  <g id="Group_21311" data-name="Group 21311" transform="translate(-423 -626)">
    <circle id="Ellipse_1370" data-name="Ellipse 1370" cx="40" cy="40" r="40" transform="translate(423 626)" fill="#fff" opacity="0.1"/>
    <path id="Subtraction_126" data-name="Subtraction 126" d="M27,34H7a7.008,7.008,0,0,1-7-7V10.929H34V27A7.008,7.008,0,0,1,27,34ZM10.163,27.951h0a4.834,4.834,0,0,0,.722.3l.125.986a.789.789,0,0,0,.782.7H12.97a.788.788,0,0,0,.782-.693l.125-.988a4.931,4.931,0,0,0,.723-.3l.786.611a.8.8,0,0,0,.488.168.763.763,0,0,0,.553-.232l.828-.828a.783.783,0,0,0,.067-1.044l-.61-.785a4.909,4.909,0,0,0,.3-.723L18,24.992a.787.787,0,0,0,.694-.781V23.033A.786.786,0,0,0,18,22.252l-.989-.126a4.949,4.949,0,0,0-.3-.722l.61-.787a.779.779,0,0,0-.064-1.04l-.828-.828a.767.767,0,0,0-.556-.234.791.791,0,0,0-.488.168l-.785.61a5.084,5.084,0,0,0-.724-.3l-.125-.986a.788.788,0,0,0-.782-.694H11.793a.788.788,0,0,0-.782.692l-.125.988a4.985,4.985,0,0,0-.724.3l-.785-.61a.8.8,0,0,0-.488-.168.764.764,0,0,0-.553.232l-.828.827a.785.785,0,0,0-.067,1.045l.61.786a4.856,4.856,0,0,0-.3.722l-.987.126a.788.788,0,0,0-.694.781v1.178a.786.786,0,0,0,.692.781l.989.126a5.005,5.005,0,0,0,.3.723l-.61.786a.78.78,0,0,0,.064,1.04l.828.828a.771.771,0,0,0,.557.234.79.79,0,0,0,.487-.167l.785-.61Zm11.974-7.475h0a3.043,3.043,0,0,0,.455.189l.079.622a.5.5,0,0,0,.492.438h.743a.5.5,0,0,0,.493-.437l.079-.624a3.165,3.165,0,0,0,.455-.188l.495.384a.505.505,0,0,0,.308.106.479.479,0,0,0,.348-.146l.522-.522a.494.494,0,0,0,.042-.658l-.384-.5a3.166,3.166,0,0,0,.188-.455l.622-.079a.5.5,0,0,0,.437-.493v-.743a.494.494,0,0,0-.436-.492l-.624-.079a3.131,3.131,0,0,0-.188-.455l.384-.5a.492.492,0,0,0-.04-.656l-.522-.522a.484.484,0,0,0-.351-.147.5.5,0,0,0-.307.105l-.495.385a3.132,3.132,0,0,0-.455-.188l-.079-.623a.5.5,0,0,0-.493-.437h-.743a.5.5,0,0,0-.492.436l-.079.624a3.136,3.136,0,0,0-.456.188l-.5-.385a.5.5,0,0,0-.307-.105.483.483,0,0,0-.349.146l-.522.522a.5.5,0,0,0-.042.659l.385.5a3.144,3.144,0,0,0-.189.455l-.622.079a.5.5,0,0,0-.437.492v.743a.5.5,0,0,0,.437.493l.623.079a3.277,3.277,0,0,0,.189.455l-.385.5a.492.492,0,0,0,.041.656l.522.522a.485.485,0,0,0,.351.148.5.5,0,0,0,.308-.106l.494-.385Zm-9.755,5.774a2.629,2.629,0,1,1,2.629-2.629A2.632,2.632,0,0,1,12.381,26.251ZM23.535,19.4a1.657,1.657,0,1,1,1.657-1.657A1.659,1.659,0,0,1,23.535,19.4ZM34,9.108H0V7A7.008,7.008,0,0,1,7,0H27a7.008,7.008,0,0,1,7,7V9.107ZM13.493,3.643a1.214,1.214,0,1,0,0,2.428h7.556a1.214,1.214,0,0,0,0-2.428Zm-4.386,0a1.214,1.214,0,1,0,1.214,1.214A1.215,1.215,0,0,0,9.107,3.643Zm-3.643,0A1.214,1.214,0,1,0,6.679,4.857,1.215,1.215,0,0,0,5.464,3.643Z" transform="translate(446 649)" fill="#fff"/>
  </g>
</svg>
