<svg xmlns="http://www.w3.org/2000/svg" width="1400" height="383" viewBox="0 0 1400 383">
  <g id="Group_21129" data-name="Group 21129" transform="translate(-300 -7054)">
    <g id="Rectangle_7363" data-name="Rectangle 7363" transform="translate(300 7054)" fill="rgba(255,255,255,0.1)" stroke="rgba(255,255,255,0.3)" stroke-width="1">
      <rect width="1400" height="383" rx="25" stroke="none"/>
      <rect x="0.5" y="0.5" width="1399" height="382" rx="24.5" fill="none"/>
    </g>
    <path id="Rectangle_7694" data-name="Rectangle 7694" d="M25,0H1375a25,25,0,0,1,25,25V60a0,0,0,0,1,0,0H0a0,0,0,0,1,0,0V25A25,25,0,0,1,25,0Z" transform="translate(300 7054)" fill="rgba(249,249,255,0.15)"/>
    <path id="Path_28968" data-name="Path 28968" d="M10.64,0,6.7-11.2H3.968L.048,0H2.432L3.1-2.016H7.568L8.24,0Zm-5.3-8.656L6.88-4.08H3.808ZM16.32.224a5.544,5.544,0,0,0,4.816-2.64l-1.9-1.1A3.234,3.234,0,0,1,16.32-1.936,3.519,3.519,0,0,1,13.68-2.96a3.676,3.676,0,0,1-.992-2.64,3.688,3.688,0,0,1,.992-2.656A3.519,3.519,0,0,1,16.32-9.28a3.219,3.219,0,0,1,2.912,1.6l1.9-1.1a5.563,5.563,0,0,0-4.816-2.64,5.619,5.619,0,0,0-4.176,1.68A5.632,5.632,0,0,0,10.5-5.6a5.658,5.658,0,0,0,1.648,4.144A5.619,5.619,0,0,0,16.32.224ZM21.3-11.2v2.112H24.3V0h2.208V-9.088h3.024V-11.2ZM30.448,0h2.208V-11.2H30.448ZM43.84-1.456a5.625,5.625,0,0,0,1.7-4.144,5.564,5.564,0,0,0-1.7-4.128,5.615,5.615,0,0,0-4.128-1.7,5.615,5.615,0,0,0-4.128,1.7A5.612,5.612,0,0,0,33.9-5.6a5.673,5.673,0,0,0,1.68,4.144A5.663,5.663,0,0,0,39.712.224,5.663,5.663,0,0,0,43.84-1.456Zm-6.7-1.5A3.581,3.581,0,0,1,36.1-5.6a3.581,3.581,0,0,1,1.04-2.64,3.511,3.511,0,0,1,2.576-1.04,3.511,3.511,0,0,1,2.576,1.04,3.581,3.581,0,0,1,1.04,2.64,3.581,3.581,0,0,1-1.04,2.64,3.5,3.5,0,0,1-2.576,1.024A3.5,3.5,0,0,1,37.136-2.96ZM53.248-4.368l-4.8-6.832h-1.68V0h2.208V-6.848L53.776,0h1.68V-11.2H53.248Z" transform="translate(1601 7089)" fill="#fff" opacity="0.8"/>
    <path id="Path_28967" data-name="Path 28967" d="M5.216.224A4.493,4.493,0,0,0,8.3-.832,3.583,3.583,0,0,0,9.5-3.664V-11.2H7.3v7.36c0,1.168-.656,1.9-2.08,1.9s-2.08-.736-2.08-1.9V-11.2H.944v7.536a3.583,3.583,0,0,0,1.2,2.832A4.479,4.479,0,0,0,5.216.224Zm9.776,0A4.511,4.511,0,0,0,17.92-.688a3,3,0,0,0,1.136-2.464,3.043,3.043,0,0,0-.416-1.584,3.281,3.281,0,0,0-1.056-.992,3.231,3.231,0,0,0-.7-.336,6.537,6.537,0,0,0-.72-.272l-.768-.256a6.838,6.838,0,0,1-1.7-.7,1.047,1.047,0,0,1-.432-.864c0-.656.56-1.12,1.472-1.12A2.241,2.241,0,0,1,16.88-7.84l1.856-1.072a4.28,4.28,0,0,0-4-2.512,3.928,3.928,0,0,0-2.608.912A2.97,2.97,0,0,0,11.056-8.1a2.7,2.7,0,0,0,1.056,2.3,7.225,7.225,0,0,0,2.32,1.04,7.741,7.741,0,0,1,1.888.72,1,1,0,0,1,.528.912c0,.688-.56,1.184-1.792,1.184A2.518,2.518,0,0,1,12.48-3.648l-1.888,1.1A4.333,4.333,0,0,0,14.992.224ZM22.3-4.624h4.24V-6.7H22.3V-9.088h4.64V-11.2H20.1V0h6.928V-2.112H22.3ZM36.784,0,34.3-4.224a3.64,3.64,0,0,0,2.16-3.264,3.588,3.588,0,0,0-1.088-2.624,3.6,3.6,0,0,0-2.64-1.088h-4.48V0h2.208V-3.888h1.68L34.4,0ZM32.736-9.136a1.592,1.592,0,0,1,1.52,1.648,1.606,1.606,0,0,1-1.52,1.664H30.464V-9.136ZM40.608-11.2v2.112h3.008V0h2.208V-9.088h3.024V-11.2Zm15.52,0L53.7-6.528,51.264-11.2h-2.5l3.824,6.832V0h2.192V-4.368l3.84-6.832Zm3.248,0V0h2.208V-3.68h1.968a3.754,3.754,0,0,0,2.72-1.088,3.6,3.6,0,0,0,1.1-2.672,3.6,3.6,0,0,0-1.1-2.672,3.754,3.754,0,0,0-2.72-1.088Zm2.208,5.456V-9.136h1.968a1.615,1.615,0,0,1,1.632,1.7,1.624,1.624,0,0,1-1.632,1.7Zm9.12,1.12h4.24V-6.7H70.7V-9.088h4.64V-11.2H68.5V0h6.928V-2.112H70.7Z" transform="translate(1195 7089)" fill="#fff"/>
    <path id="Path_28961" data-name="Path 28961" d="M3.248-4.624h4.24V-6.7H3.248V-9.088h4.64V-11.2H1.04V0H7.968V-2.112H3.248ZM15.2-3.84V-5.824h-6V-3.84ZM25.648-11.2l-3.2,5.3-3.216-5.3H16.96V0h2.208V-7.248L22.32-2.064h.256l3.152-5.2V0H27.92V-11.2ZM39.28,0,35.344-11.2H32.608L28.688,0h2.384l.672-2.016h4.464L36.88,0Zm-5.3-8.656L35.52-4.08H32.448ZM40.048,0h2.208V-11.2H40.048Zm6.176-11.2H44.016V0H50.5V-2.112H46.224ZM64.7,0,60.768-11.2H58.032L54.112,0H56.5l.672-2.016h4.464L62.3,0Zm-5.3-8.656L60.944-4.08H57.872ZM65.472-11.2V0H69.92a5.1,5.1,0,0,0,3.84-1.616A5.491,5.491,0,0,0,75.312-5.6,5.491,5.491,0,0,0,73.76-9.584,5.1,5.1,0,0,0,69.92-11.2ZM67.68-2.112V-9.088h2.24a3.066,3.066,0,0,1,2.368.976A3.488,3.488,0,0,1,73.2-5.6a3.554,3.554,0,0,1-.912,2.528,3.11,3.11,0,0,1-2.368.96ZM76.56-11.2V0h4.448a5.1,5.1,0,0,0,3.84-1.616A5.491,5.491,0,0,0,86.4-5.6a5.491,5.491,0,0,0-1.552-3.984,5.1,5.1,0,0,0-3.84-1.616Zm2.208,9.088V-9.088h2.24a3.066,3.066,0,0,1,2.368.976A3.488,3.488,0,0,1,84.288-5.6a3.554,3.554,0,0,1-.912,2.528,3.11,3.11,0,0,1-2.368.96ZM96.176,0,93.7-4.224a3.64,3.64,0,0,0,2.16-3.264,3.588,3.588,0,0,0-1.088-2.624,3.6,3.6,0,0,0-2.64-1.088h-4.48V0h2.208V-3.888h1.68L93.792,0ZM92.128-9.136a1.592,1.592,0,0,1,1.52,1.648,1.606,1.606,0,0,1-1.52,1.664H89.856V-9.136ZM99.36-4.624h4.24V-6.7H99.36V-9.088H104V-11.2H97.152V0h6.928V-2.112H99.36ZM109.136.224a4.511,4.511,0,0,0,2.928-.912A3,3,0,0,0,113.2-3.152a3.043,3.043,0,0,0-.416-1.584,3.281,3.281,0,0,0-1.056-.992,3.231,3.231,0,0,0-.7-.336,6.537,6.537,0,0,0-.72-.272l-.768-.256a6.838,6.838,0,0,1-1.7-.7,1.047,1.047,0,0,1-.432-.864c0-.656.56-1.12,1.472-1.12a2.241,2.241,0,0,1,2.144,1.44l1.856-1.072a4.28,4.28,0,0,0-4-2.512,3.928,3.928,0,0,0-2.608.912A2.97,2.97,0,0,0,105.2-8.1a2.7,2.7,0,0,0,1.056,2.3,7.225,7.225,0,0,0,2.32,1.04,7.741,7.741,0,0,1,1.888.72,1,1,0,0,1,.528.912c0,.688-.56,1.184-1.792,1.184a2.518,2.518,0,0,1-2.576-1.712l-1.888,1.1A4.333,4.333,0,0,0,109.136.224Zm8.672,0a4.511,4.511,0,0,0,2.928-.912,3,3,0,0,0,1.136-2.464,3.043,3.043,0,0,0-.416-1.584,3.281,3.281,0,0,0-1.056-.992,3.231,3.231,0,0,0-.7-.336,6.537,6.537,0,0,0-.72-.272l-.768-.256a6.838,6.838,0,0,1-1.7-.7,1.047,1.047,0,0,1-.432-.864c0-.656.56-1.12,1.472-1.12A2.241,2.241,0,0,1,119.7-7.84l1.856-1.072a4.28,4.28,0,0,0-4-2.512,3.928,3.928,0,0,0-2.608.912A2.97,2.97,0,0,0,113.872-8.1a2.7,2.7,0,0,0,1.056,2.3,7.225,7.225,0,0,0,2.32,1.04,7.741,7.741,0,0,1,1.888.72,1,1,0,0,1,.528.912c0,.688-.56,1.184-1.792,1.184A2.518,2.518,0,0,1,115.3-3.648l-1.888,1.1A4.333,4.333,0,0,0,117.808.224Z" transform="translate(743 7089)" fill="#fff"/>
    <path id="Path_28955" data-name="Path 28955" d="M7.728-11.2H1.04V0H3.248V-4.32H7.6V-6.432H3.248V-9.088h4.48ZM13.2.224A4.493,4.493,0,0,0,16.288-.832a3.583,3.583,0,0,0,1.2-2.832V-11.2H15.28v7.36c0,1.168-.656,1.9-2.08,1.9s-2.08-.736-2.08-1.9V-11.2H8.928v7.536a3.583,3.583,0,0,0,1.2,2.832A4.479,4.479,0,0,0,13.2.224ZM21.36-11.2H19.152V0h6.48V-2.112H21.36Zm7.408,0H26.56V0h6.48V-2.112H28.768Zm15.36,6.832-4.8-6.832h-1.68V0h2.208V-6.848L44.656,0h1.68V-11.2H44.128ZM57.7,0,53.76-11.2H51.024L47.1,0h2.384l.672-2.016h4.464L55.3,0ZM52.4-8.656,53.936-4.08H50.864ZM67.152-11.2l-3.2,5.3-3.216-5.3H58.464V0h2.208V-7.248l3.152,5.184h.256l3.152-5.2V0h2.192V-11.2Zm6.24,6.576h4.24V-6.7h-4.24V-9.088h4.64V-11.2H71.184V0h6.928V-2.112h-4.72Z" transform="translate(332 7089)" fill="#fff"/>
    <g id="Group_21130" data-name="Group 21130">
      <g id="Group_21131" data-name="Group 21131">
        <path id="Path_28960" data-name="Path 28960" d="M6.624,0,8.982-8.316,11.358,0h2.826l3.528-12.6H15.1L12.69-3.258,10.044-12.6H7.92L5.292-3.258,2.88-12.6H.27L3.8,0Zm17.82-7.938A3.525,3.525,0,0,0,21.51-9.252a4.106,4.106,0,0,0-3.1,1.386A4.782,4.782,0,0,0,17.136-4.5a4.826,4.826,0,0,0,1.278,3.384A4.088,4.088,0,0,0,21.51.252a3.525,3.525,0,0,0,2.934-1.314V0h2.322V-9H24.444ZM20.16-2.664a2.541,2.541,0,0,1-.7-1.836,2.469,2.469,0,0,1,.7-1.818,2.361,2.361,0,0,1,1.782-.72,2.361,2.361,0,0,1,1.782.72,2.414,2.414,0,0,1,.72,1.818,2.482,2.482,0,0,1-.72,1.836,2.414,2.414,0,0,1-1.782.7A2.414,2.414,0,0,1,20.16-2.664ZM30.834-9H28.512V0h2.322V-4.3a2.064,2.064,0,0,1,.828-1.854,2.7,2.7,0,0,1,1.908-.432V-9.18a2.76,2.76,0,0,0-2.736,1.728Zm6.048,0H34.56V0h2.322V-4.3a2.064,2.064,0,0,1,.828-1.854,2.7,2.7,0,0,1,1.908-.432V-9.18a2.76,2.76,0,0,0-2.736,1.728ZM49.014-3.546A6.079,6.079,0,0,0,49.1-4.5a4.732,4.732,0,0,0-1.3-3.384A4.242,4.242,0,0,0,44.55-9.252a4.543,4.543,0,0,0-3.42,1.368A4.656,4.656,0,0,0,39.8-4.5a4.612,4.612,0,0,0,1.35,3.4A4.832,4.832,0,0,0,44.73.252a4.471,4.471,0,0,0,3.924-1.926l-1.872-1.08a2.391,2.391,0,0,1-2.016.9,2.293,2.293,0,0,1-2.538-1.692Zm-6.822-1.8A2.244,2.244,0,0,1,44.55-7.164a2.175,2.175,0,0,1,2.232,1.818ZM55.368-9.252a2.978,2.978,0,0,0-2.682,1.26V-9H50.364V0h2.322V-4.86c0-1.494.774-2.232,1.98-2.232a1.667,1.667,0,0,1,1.782,1.854V0H58.77V-5.526A3.737,3.737,0,0,0,57.8-8.262,3.189,3.189,0,0,0,55.368-9.252ZM72.252-6.534a3.065,3.065,0,0,0,1.188-2.52,3.277,3.277,0,0,0-1.116-2.538A3.906,3.906,0,0,0,69.606-12.6H64.638V0h5.346a4.017,4.017,0,0,0,2.79-1.026,3.394,3.394,0,0,0,1.134-2.628A3.125,3.125,0,0,0,72.252-6.534Zm-2.646-3.744a1.324,1.324,0,0,1,1.35,1.386,1.335,1.335,0,0,1-1.35,1.386H67.122v-2.772ZM67.122-2.322v-2.97h2.862a1.424,1.424,0,0,1,1.458,1.476,1.428,1.428,0,0,1-1.458,1.494ZM81.2-4.14c0,1.494-.774,2.232-1.98,2.232a1.667,1.667,0,0,1-1.782-1.854V-9H75.114v5.526a3.8,3.8,0,0,0,.954,2.736,3.256,3.256,0,0,0,2.448.99A2.978,2.978,0,0,0,81.2-1.008V0H83.52V-9H81.2Zm13.914-8.892c-2.79-.162-4.23,1.224-4.23,3.762V-9H88.218v-.09c0-1.116.63-1.62,1.908-1.53v-2.232c-2.808-.162-4.23,1.224-4.23,3.762V-9H84.6v2.232h1.3V0h2.322V-6.768h2.664V0H93.2V-6.768h1.908V-9H93.2v-.27c0-1.116.63-1.62,1.908-1.53Zm9.108,9.486a6.078,6.078,0,0,0,.09-.954,4.732,4.732,0,0,0-1.3-3.384,4.242,4.242,0,0,0-3.258-1.368,4.543,4.543,0,0,0-3.42,1.368A4.656,4.656,0,0,0,95-4.5a4.612,4.612,0,0,0,1.35,3.4A4.832,4.832,0,0,0,99.936.252a4.471,4.471,0,0,0,3.924-1.926l-1.872-1.08a2.391,2.391,0,0,1-2.016.9,2.293,2.293,0,0,1-2.538-1.692ZM97.4-5.346a2.244,2.244,0,0,1,2.358-1.818,2.175,2.175,0,0,1,2.232,1.818ZM110.448-9h-2.034v-2.52l-2.322.7V-9h-1.566v2.232h1.566v3.744c0,2.466,1.17,3.384,4.356,3.024V-2.106c-1.332.072-2.034.054-2.034-.918V-6.768h2.034Zm6.084,0H114.5v-2.52l-2.322.7V-9H110.61v2.232h1.566v3.744c0,2.466,1.17,3.384,4.356,3.024V-2.106c-1.332.072-2.034.054-2.034-.918V-6.768h2.034Z" transform="translate(332 7409)" fill="#fff"/>
        <path id="Path_28966" data-name="Path 28966" d="M8.72-1.9,6.832-8H5.488L3.6-1.92,1.84-8H.384l2.48,8H4.288L6.16-5.92,8.032,0H9.456l2.48-8H10.48Zm10.64-4.72a3.382,3.382,0,0,0-3.024-1.584,3.837,3.837,0,0,0-2.864,1.232A4.143,4.143,0,0,0,12.288-4a4.181,4.181,0,0,0,1.184,2.992A3.822,3.822,0,0,0,16.336.208,3.382,3.382,0,0,0,19.36-1.376V0h1.392V-8H19.36ZM16.512-1.136A2.739,2.739,0,0,1,14.5-1.952,2.812,2.812,0,0,1,13.68-4,2.75,2.75,0,0,1,14.5-6.032a2.692,2.692,0,0,1,2.016-.832,2.7,2.7,0,0,1,2.032.832A2.75,2.75,0,0,1,19.36-4a2.812,2.812,0,0,1-.816,2.048A2.75,2.75,0,0,1,16.512-1.136ZM23.936-8H22.544V0h1.392V-4.24a2.285,2.285,0,0,1,.736-1.9,2.5,2.5,0,0,1,1.76-.544V-8.144a2.519,2.519,0,0,0-2.5,1.488Zm4.928,0H27.472V0h1.392V-4.24a2.285,2.285,0,0,1,.736-1.9,2.5,2.5,0,0,1,1.76-.544V-8.144a2.519,2.519,0,0,0-2.5,1.488ZM39.648-3.36a4.1,4.1,0,0,0,.048-.624,4.226,4.226,0,0,0-1.12-2.976,3.653,3.653,0,0,0-2.864-1.248,4.05,4.05,0,0,0-3.024,1.2A4.126,4.126,0,0,0,31.52-4,4.15,4.15,0,0,0,32.7-.976a4.261,4.261,0,0,0,3.1,1.184A3.926,3.926,0,0,0,39.328-1.6l-1.184-.672A2.493,2.493,0,0,1,35.84-1.1a2.73,2.73,0,0,1-2.9-2.256ZM35.712-6.9a2.532,2.532,0,0,1,2.576,2.32H32.944A2.664,2.664,0,0,1,35.712-6.9ZM44.96-8.208a2.822,2.822,0,0,0-2.592,1.36V-8H40.976V0h1.392V-4.24c0-1.792.928-2.64,2.32-2.64a1.852,1.852,0,0,1,1.984,2.048V0h1.392V-4.912A2.994,2.994,0,0,0,44.96-8.208Zm10.1-1.584A5.611,5.611,0,0,0,50.9-8.1,5.613,5.613,0,0,0,49.232-4,5.4,5.4,0,0,0,50.976.144a6.105,6.105,0,0,0,4.368,1.648,7.971,7.971,0,0,0,2.72-.416V.864a7.283,7.283,0,0,1-2.72.448,5.611,5.611,0,0,1-4.016-1.5A5.034,5.034,0,0,1,49.744-4,5.044,5.044,0,0,1,51.3-7.776a5.156,5.156,0,0,1,3.76-1.536,4.935,4.935,0,0,1,3.6,1.44A4.793,4.793,0,0,1,60.128-4.32c0,1.9-.672,2.816-1.616,2.816-.672,0-1.008-.464-1.008-1.408V-6.448H56.272v.576a2.132,2.132,0,0,0-1.616-.7,2.413,2.413,0,0,0-1.808.736,2.588,2.588,0,0,0-.7,1.84,2.588,2.588,0,0,0,.7,1.84,2.413,2.413,0,0,0,1.808.736,2.065,2.065,0,0,0,1.712-.816A1.771,1.771,0,0,0,58.272-.9a2.093,2.093,0,0,0,1.68-.864,4.065,4.065,0,0,0,.7-2.56,5.372,5.372,0,0,0-2.592-4.64A5.451,5.451,0,0,0,55.056-9.792ZM53.808-2.96A1.4,1.4,0,0,1,53.392-4a1.337,1.337,0,0,1,.416-1.024,1.522,1.522,0,0,1,2.048,0A1.337,1.337,0,0,1,56.272-4a1.4,1.4,0,0,1-.416,1.04A1.557,1.557,0,0,1,53.808-2.96Zm14.8-3.664a3.382,3.382,0,0,0-3.024-1.584A3.837,3.837,0,0,0,62.72-6.976,4.143,4.143,0,0,0,61.536-4,4.181,4.181,0,0,0,62.72-1.008,3.822,3.822,0,0,0,65.584.208a3.382,3.382,0,0,0,3.024-1.584V0H70V-8H68.608ZM65.76-1.136a2.739,2.739,0,0,1-2.016-.816A2.812,2.812,0,0,1,62.928-4a2.75,2.75,0,0,1,.816-2.032,2.692,2.692,0,0,1,2.016-.832,2.7,2.7,0,0,1,2.032.832A2.75,2.75,0,0,1,68.608-4a2.812,2.812,0,0,1-.816,2.048A2.75,2.75,0,0,1,65.76-1.136ZM78.416-6.624a3.382,3.382,0,0,0-3.024-1.584,3.837,3.837,0,0,0-2.864,1.232A4.143,4.143,0,0,0,71.344-4a4.181,4.181,0,0,0,1.184,2.992A3.822,3.822,0,0,0,75.392.208a3.382,3.382,0,0,0,3.024-1.584V0h1.392V-11.2H78.416ZM75.568-1.136a2.739,2.739,0,0,1-2.016-.816A2.812,2.812,0,0,1,72.736-4a2.75,2.75,0,0,1,.816-2.032,2.692,2.692,0,0,1,2.016-.832,2.7,2.7,0,0,1,2.032.832A2.75,2.75,0,0,1,78.416-4,2.812,2.812,0,0,1,77.6-1.952,2.75,2.75,0,0,1,75.568-1.136ZM85.36.208a4.059,4.059,0,0,0,3.6-2.08L87.776-2.56A2.671,2.671,0,0,1,85.36-1.168a2.739,2.739,0,0,1-2.016-.816A2.789,2.789,0,0,1,82.544-4a2.8,2.8,0,0,1,.8-2.032,2.739,2.739,0,0,1,2.016-.816A2.557,2.557,0,0,1,87.728-5.44L88.9-6.112a3.836,3.836,0,0,0-3.536-2.1,4.04,4.04,0,0,0-3.008,1.216A4.052,4.052,0,0,0,81.152-4a4.114,4.114,0,0,0,1.2,3.008A4.089,4.089,0,0,0,85.36.208ZM91.424-8H90.032V0h1.392V-4.24a2.285,2.285,0,0,1,.736-1.9,2.5,2.5,0,0,1,1.76-.544V-8.144a2.519,2.519,0,0,0-2.5,1.488Zm10.784,4.64a4.1,4.1,0,0,0,.048-.624,4.226,4.226,0,0,0-1.12-2.976,3.653,3.653,0,0,0-2.864-1.248,4.05,4.05,0,0,0-3.024,1.2A4.126,4.126,0,0,0,94.08-4,4.15,4.15,0,0,0,95.264-.976a4.261,4.261,0,0,0,3.1,1.184,3.926,3.926,0,0,0,3.52-1.808L100.7-2.272A2.493,2.493,0,0,1,98.4-1.1,2.73,2.73,0,0,1,95.5-3.36ZM98.272-6.9a2.532,2.532,0,0,1,2.576,2.32H95.5A2.664,2.664,0,0,1,98.272-6.9Zm11.872.272a3.382,3.382,0,0,0-3.024-1.584,3.837,3.837,0,0,0-2.864,1.232A4.143,4.143,0,0,0,103.072-4a4.181,4.181,0,0,0,1.184,2.992A3.822,3.822,0,0,0,107.12.208a3.382,3.382,0,0,0,3.024-1.584V0h1.392V-8h-1.392ZM107.3-1.136a2.739,2.739,0,0,1-2.016-.816A2.812,2.812,0,0,1,104.464-4a2.75,2.75,0,0,1,.816-2.032,2.692,2.692,0,0,1,2.016-.832,2.7,2.7,0,0,1,2.032.832A2.75,2.75,0,0,1,110.144-4a2.812,2.812,0,0,1-.816,2.048A2.75,2.75,0,0,1,107.3-1.136ZM117.68-8h-2.128v-2.24l-1.392.416V-8h-1.584v1.344h1.584V-2.32c0,1.984,1.088,2.64,3.52,2.32V-1.248c-1.424.064-2.128.16-2.128-1.072V-6.656h2.128Zm2.032-1.456a.929.929,0,0,0,.928-.928.942.942,0,0,0-.928-.944.946.946,0,0,0-.944.944A.932.932,0,0,0,119.712-9.456ZM120.4,0V-8h-1.392V0Zm4.9-1.488L122.784-8h-1.5l3.2,8h1.632l3.2-8h-1.5Zm12.24-1.872a4.1,4.1,0,0,0,.048-.624,4.226,4.226,0,0,0-1.12-2.976A3.653,3.653,0,0,0,133.6-8.208a4.05,4.05,0,0,0-3.024,1.2A4.126,4.126,0,0,0,129.408-4a4.15,4.15,0,0,0,1.184,3.024A4.261,4.261,0,0,0,133.7.208a3.926,3.926,0,0,0,3.52-1.808l-1.184-.672a2.493,2.493,0,0,1-2.3,1.168,2.73,2.73,0,0,1-2.9-2.256ZM133.6-6.9a2.532,2.532,0,0,1,2.576,2.32h-5.344A2.664,2.664,0,0,1,133.6-6.9ZM139.1.176a1.028,1.028,0,0,0,1.04-1.04A1.028,1.028,0,0,0,139.1-1.9a1.038,1.038,0,0,0-1.04,1.04A1.038,1.038,0,0,0,139.1.176Zm8.672-6.8a3.382,3.382,0,0,0-3.024-1.584,3.837,3.837,0,0,0-2.864,1.232A4.143,4.143,0,0,0,140.7-4a4.181,4.181,0,0,0,1.184,2.992A3.822,3.822,0,0,0,144.752.208a3.382,3.382,0,0,0,3.024-1.584V0h1.392V-8h-1.392Zm-2.848,5.488a2.739,2.739,0,0,1-2.016-.816A2.812,2.812,0,0,1,142.1-4a2.75,2.75,0,0,1,.816-2.032,2.692,2.692,0,0,1,2.016-.832,2.7,2.7,0,0,1,2.032.832A2.75,2.75,0,0,1,147.776-4a2.812,2.812,0,0,1-.816,2.048A2.75,2.75,0,0,1,144.928-1.136Zm6.736-8.32a.929.929,0,0,0,.928-.928.942.942,0,0,0-.928-.944.946.946,0,0,0-.944.944A.932.932,0,0,0,151.664-9.456ZM152.352,0V-8H150.96V0Z" transform="translate(742 7409)" fill="#fff"/>
        <g id="Group_9507" data-name="Group 9507" transform="translate(1193.746 7397)">
          <path id="Path_28970" data-name="Path 28970" d="M1.008-3.712A3.693,3.693,0,0,0,2.192-.848,4.41,4.41,0,0,0,5.248.208,4.41,4.41,0,0,0,8.3-.848,3.693,3.693,0,0,0,9.488-3.712V-11.2H7.648v7.376a2.11,2.11,0,0,1-2.4,2.24,2.11,2.11,0,0,1-2.4-2.24V-11.2H1.008Zm14,3.92a4.375,4.375,0,0,0,2.864-.88,2.949,2.949,0,0,0,1.1-2.416,2.686,2.686,0,0,0-1.152-2.3,3.087,3.087,0,0,0-.816-.448c-.352-.144-.624-.256-.832-.32-.192-.08-.5-.176-.928-.32-1.712-.528-2.256-.912-2.256-1.744,0-.848.688-1.392,1.76-1.392A2.411,2.411,0,0,1,17.1-8.048l1.552-.9a4.147,4.147,0,0,0-3.9-2.464,3.816,3.816,0,0,0-2.544.88,2.877,2.877,0,0,0-1.056,2.352A2.579,2.579,0,0,0,12.24-5.92,7.609,7.609,0,0,0,14.592-4.9a8.626,8.626,0,0,1,1.984.8,1.161,1.161,0,0,1,.56,1.04c0,.88-.688,1.472-2.08,1.472a2.676,2.676,0,0,1-2.784-1.888l-1.584.928A4.243,4.243,0,0,0,15.008.208ZM22-4.784h4.48V-6.528H22V-9.44h4.88V-11.2H20.16V0h6.8V-1.76H22ZM36.72,0,34.176-4.352A3.525,3.525,0,0,0,36.4-7.6a3.417,3.417,0,0,0-1.056-2.544A3.417,3.417,0,0,0,32.8-11.2H28.32V0h1.84V-4.08h2.176L34.7,0ZM32.8-9.472A1.812,1.812,0,0,1,34.56-7.6,1.812,1.812,0,0,1,32.8-5.728H30.16V-9.472Z" transform="translate(0.253 12)" fill="#fff"/>
        </g>
        <g id="Group_19828" data-name="Group 19828" transform="translate(1582 7385)">
          <rect id="Rectangle_7695" data-name="Rectangle 7695" width="40" height="40" rx="12" fill="#fff" opacity="0.1"/>
          <rect id="Rectangle_7696" data-name="Rectangle 7696" width="40" height="40" rx="12" transform="translate(54)" fill="#fff" opacity="0.1"/>
          <g id="Group_9760" data-name="Group 9760" transform="translate(9.479 9.479)">
            <g id="_002-pencil" data-name="002-pencil" transform="translate(0)">
              <g id="Group_9708" data-name="Group 9708" transform="translate(0)">
                <path id="Path_11256" data-name="Path 11256" d="M10.519,0A10.519,10.519,0,1,0,21.038,10.518,10.519,10.519,0,0,0,10.519,0Zm5,7.57-1,1L12.487,6.535l-.772.772L13.749,9.34,8.761,14.328,6.727,12.295l-.772.772L7.989,15.1l-.5.5-.009-.009a.394.394,0,0,1-.251.181l-1.9.423a.394.394,0,0,1-.47-.471l.423-1.9a.4.4,0,0,1,.181-.251l-.01-.01,8.027-8.027a.3.3,0,0,1,.426,0L15.52,7.143A.3.3,0,0,1,15.519,7.57Z" transform="translate(-0.001)" fill="#fff"/>
              </g>
            </g>
          </g>
          <g id="Group_19827" data-name="Group 19827" transform="translate(64 10)">
            <g id="Group_9709" data-name="Group 9709">
              <circle id="Ellipse_3" data-name="Ellipse 3" cx="10.5" cy="10.5" r="10.5" transform="translate(0)" fill="#fff"/>
              <path id="Path_3383" data-name="Path 3383" d="M11.068,4.94h-4.3V.648A.647.647,0,0,0,6.13,0H5.58a.648.648,0,0,0-.64.648V4.94H.64A.64.64,0,0,0,0,5.579v.553a.639.639,0,0,0,.64.637h4.3v4.307a.635.635,0,0,0,.64.633h.55a.634.634,0,0,0,.639-.633V6.769h4.3a.639.639,0,0,0,.641-.637V5.579A.64.64,0,0,0,11.068,4.94Z" transform="translate(2.523 10.802) rotate(-45)" fill="#3b2a82"/>
            </g>
          </g>
        </g>
        <path id="Path_28959" data-name="Path 28959" d="M8.784-6.534a3.065,3.065,0,0,0,1.188-2.52,3.277,3.277,0,0,0-1.116-2.538A3.906,3.906,0,0,0,6.138-12.6H1.17V0H6.516a4.017,4.017,0,0,0,2.79-1.026A3.394,3.394,0,0,0,10.44-3.654,3.125,3.125,0,0,0,8.784-6.534ZM6.138-10.278a1.324,1.324,0,0,1,1.35,1.386,1.335,1.335,0,0,1-1.35,1.386H3.654v-2.772ZM3.654-2.322v-2.97H6.516A1.424,1.424,0,0,1,7.974-3.816,1.428,1.428,0,0,1,6.516-2.322Zm9.09-7.758a1.441,1.441,0,0,0,1.44-1.422,1.456,1.456,0,0,0-1.44-1.44,1.452,1.452,0,0,0-1.422,1.44A1.437,1.437,0,0,0,12.744-10.08ZM13.914,0V-9H11.592V0ZM18,0V-13.14H15.678V0Zm4.086,0V-13.14H19.764V0Zm12.06-6.768v2.2h3.816A3.486,3.486,0,0,1,34.29-2.178,4.283,4.283,0,0,1,31.158-3.33a4.016,4.016,0,0,1-1.17-2.952,4.015,4.015,0,0,1,1.152-2.97,3.973,3.973,0,0,1,2.97-1.188,3.884,3.884,0,0,1,3.384,1.746l2.124-1.224a6.343,6.343,0,0,0-5.49-2.934,6.393,6.393,0,0,0-4.716,1.908,6.382,6.382,0,0,0-1.89,4.662A6.317,6.317,0,0,0,29.43-1.638,6.623,6.623,0,0,0,34.272.252a6.157,6.157,0,0,0,4.464-1.674A5.816,5.816,0,0,0,40.464-5.8v-.972ZM48.6-7.938a3.525,3.525,0,0,0-2.934-1.314,4.106,4.106,0,0,0-3.1,1.386A4.782,4.782,0,0,0,41.292-4.5,4.826,4.826,0,0,0,42.57-1.116a4.088,4.088,0,0,0,3.1,1.368A3.525,3.525,0,0,0,48.6-1.062V0h2.322V-9H48.6ZM44.316-2.664a2.541,2.541,0,0,1-.7-1.836,2.469,2.469,0,0,1,.7-1.818,2.361,2.361,0,0,1,1.782-.72,2.361,2.361,0,0,1,1.782.72A2.414,2.414,0,0,1,48.6-4.5a2.482,2.482,0,0,1-.72,1.836,2.414,2.414,0,0,1-1.782.7A2.414,2.414,0,0,1,44.316-2.664ZM57.816-9H55.782v-2.52l-2.322.7V-9H51.894v2.232H53.46v3.744C53.46-.558,54.63.36,57.816,0V-2.106c-1.332.072-2.034.054-2.034-.918V-6.768h2.034Zm9.756,5.454a6.078,6.078,0,0,0,.09-.954,4.732,4.732,0,0,0-1.3-3.384,4.242,4.242,0,0,0-3.258-1.368,4.543,4.543,0,0,0-3.42,1.368A4.656,4.656,0,0,0,58.356-4.5a4.612,4.612,0,0,0,1.35,3.4A4.832,4.832,0,0,0,63.288.252a4.471,4.471,0,0,0,3.924-1.926L65.34-2.754a2.391,2.391,0,0,1-2.016.9,2.293,2.293,0,0,1-2.538-1.692Zm-6.822-1.8a2.244,2.244,0,0,1,2.358-1.818A2.175,2.175,0,0,1,65.34-5.346Zm9.954-1.1c0-.45.45-.738,1.044-.738a1.486,1.486,0,0,1,1.44.918l1.98-1.08a3.826,3.826,0,0,0-3.42-1.908,3.83,3.83,0,0,0-2.448.774,2.506,2.506,0,0,0-.972,2.088c0,1.872,1.674,2.43,3.006,2.772.918.234,1.638.5,1.638.99,0,.522-.414.774-1.242.774a1.675,1.675,0,0,1-1.764-1.17L67.95-1.89A3.784,3.784,0,0,0,71.73.252,4.35,4.35,0,0,0,74.3-.486a2.481,2.481,0,0,0,1.044-2.142c.018-1.926-1.692-2.556-3.006-2.826C71.424-5.688,70.7-5.958,70.7-6.444Z" transform="translate(332 7345)" fill="#fff"/>
        <path id="Path_28965" data-name="Path 28965" d="M5.472-8.208A3.382,3.382,0,0,0,2.448-6.624V-11.2H1.056V0H2.448V-1.376A3.382,3.382,0,0,0,5.472.208,3.822,3.822,0,0,0,8.336-1.008,4.181,4.181,0,0,0,9.52-4,4.143,4.143,0,0,0,8.336-6.976,3.837,3.837,0,0,0,5.472-8.208ZM5.3-1.136a2.75,2.75,0,0,1-2.032-.816A2.812,2.812,0,0,1,2.448-4a2.75,2.75,0,0,1,.816-2.032A2.7,2.7,0,0,1,5.3-6.864a2.692,2.692,0,0,1,2.016.832A2.75,2.75,0,0,1,8.128-4a2.812,2.812,0,0,1-.816,2.048A2.739,2.739,0,0,1,5.3-1.136Zm6.272-8.32a.929.929,0,0,0,.928-.928.942.942,0,0,0-.928-.944.946.946,0,0,0-.944.944A.932.932,0,0,0,11.568-9.456ZM12.256,0V-8H10.864V0Zm3.2,0V-11.68H14.064V0Zm3.2,0V-11.68H17.264V0ZM25.84-9.792a5.611,5.611,0,0,0-4.16,1.7A5.613,5.613,0,0,0,20.016-4,5.4,5.4,0,0,0,21.76.144a6.105,6.105,0,0,0,4.368,1.648,7.971,7.971,0,0,0,2.72-.416V.864a7.283,7.283,0,0,1-2.72.448,5.611,5.611,0,0,1-4.016-1.5A5.034,5.034,0,0,1,20.528-4,5.044,5.044,0,0,1,22.08-7.776a5.156,5.156,0,0,1,3.76-1.536,4.935,4.935,0,0,1,3.6,1.44A4.793,4.793,0,0,1,30.912-4.32c0,1.9-.672,2.816-1.616,2.816-.672,0-1.008-.464-1.008-1.408V-6.448H27.056v.576a2.132,2.132,0,0,0-1.616-.7,2.413,2.413,0,0,0-1.808.736,2.588,2.588,0,0,0-.7,1.84,2.588,2.588,0,0,0,.7,1.84,2.413,2.413,0,0,0,1.808.736,2.065,2.065,0,0,0,1.712-.816A1.771,1.771,0,0,0,29.056-.9a2.093,2.093,0,0,0,1.68-.864,4.065,4.065,0,0,0,.7-2.56,5.372,5.372,0,0,0-2.592-4.64A5.451,5.451,0,0,0,25.84-9.792ZM24.592-2.96A1.4,1.4,0,0,1,24.176-4a1.337,1.337,0,0,1,.416-1.024,1.522,1.522,0,0,1,2.048,0A1.337,1.337,0,0,1,27.056-4a1.4,1.4,0,0,1-.416,1.04A1.557,1.557,0,0,1,24.592-2.96Zm14.8-3.664a3.382,3.382,0,0,0-3.024-1.584A3.837,3.837,0,0,0,33.5-6.976,4.143,4.143,0,0,0,32.32-4,4.181,4.181,0,0,0,33.5-1.008,3.822,3.822,0,0,0,36.368.208a3.382,3.382,0,0,0,3.024-1.584V0h1.392V-8H39.392ZM36.544-1.136a2.739,2.739,0,0,1-2.016-.816A2.812,2.812,0,0,1,33.712-4a2.75,2.75,0,0,1,.816-2.032,2.692,2.692,0,0,1,2.016-.832,2.7,2.7,0,0,1,2.032.832A2.75,2.75,0,0,1,39.392-4a2.812,2.812,0,0,1-.816,2.048A2.75,2.75,0,0,1,36.544-1.136ZM49.2-6.624a3.382,3.382,0,0,0-3.024-1.584,3.837,3.837,0,0,0-2.864,1.232A4.143,4.143,0,0,0,42.128-4a4.181,4.181,0,0,0,1.184,2.992A3.822,3.822,0,0,0,46.176.208,3.382,3.382,0,0,0,49.2-1.376V0h1.392V-11.2H49.2ZM46.352-1.136a2.739,2.739,0,0,1-2.016-.816A2.812,2.812,0,0,1,43.52-4a2.75,2.75,0,0,1,.816-2.032,2.692,2.692,0,0,1,2.016-.832,2.7,2.7,0,0,1,2.032.832A2.75,2.75,0,0,1,49.2-4a2.812,2.812,0,0,1-.816,2.048A2.75,2.75,0,0,1,46.352-1.136ZM56.144.208a4.059,4.059,0,0,0,3.6-2.08L58.56-2.56a2.671,2.671,0,0,1-2.416,1.392,2.739,2.739,0,0,1-2.016-.816A2.789,2.789,0,0,1,53.328-4a2.8,2.8,0,0,1,.8-2.032,2.739,2.739,0,0,1,2.016-.816A2.557,2.557,0,0,1,58.512-5.44l1.168-.672a3.836,3.836,0,0,0-3.536-2.1,4.04,4.04,0,0,0-3.008,1.216A4.052,4.052,0,0,0,51.936-4a4.114,4.114,0,0,0,1.2,3.008A4.089,4.089,0,0,0,56.144.208ZM62.208-8H60.816V0h1.392V-4.24a2.285,2.285,0,0,1,.736-1.9,2.5,2.5,0,0,1,1.76-.544V-8.144a2.519,2.519,0,0,0-2.5,1.488ZM72.992-3.36a4.1,4.1,0,0,0,.048-.624A4.226,4.226,0,0,0,71.92-6.96a3.653,3.653,0,0,0-2.864-1.248,4.05,4.05,0,0,0-3.024,1.2A4.126,4.126,0,0,0,64.864-4,4.15,4.15,0,0,0,66.048-.976a4.261,4.261,0,0,0,3.1,1.184A3.926,3.926,0,0,0,72.672-1.6l-1.184-.672a2.493,2.493,0,0,1-2.3,1.168,2.73,2.73,0,0,1-2.9-2.256ZM69.056-6.9a2.532,2.532,0,0,1,2.576,2.32H66.288A2.664,2.664,0,0,1,69.056-6.9Zm11.872.272A3.382,3.382,0,0,0,77.9-8.208,3.837,3.837,0,0,0,75.04-6.976,4.143,4.143,0,0,0,73.856-4,4.181,4.181,0,0,0,75.04-1.008,3.822,3.822,0,0,0,77.9.208a3.382,3.382,0,0,0,3.024-1.584V0H82.32V-8H80.928ZM78.08-1.136a2.739,2.739,0,0,1-2.016-.816A2.812,2.812,0,0,1,75.248-4a2.75,2.75,0,0,1,.816-2.032,2.692,2.692,0,0,1,2.016-.832,2.7,2.7,0,0,1,2.032.832A2.75,2.75,0,0,1,80.928-4a2.812,2.812,0,0,1-.816,2.048A2.75,2.75,0,0,1,78.08-1.136ZM88.464-8H86.336v-2.24l-1.392.416V-8H83.36v1.344h1.584V-2.32c0,1.984,1.088,2.64,3.52,2.32V-1.248c-1.424.064-2.128.16-2.128-1.072V-6.656h2.128ZM90.5-9.456a.929.929,0,0,0,.928-.928.942.942,0,0,0-.928-.944.946.946,0,0,0-.944.944A.932.932,0,0,0,90.5-9.456ZM91.184,0V-8H89.792V0Zm4.9-1.488L93.568-8h-1.5l3.2,8H96.9l3.2-8h-1.5ZM108.32-3.36a4.1,4.1,0,0,0,.048-.624,4.226,4.226,0,0,0-1.12-2.976,3.653,3.653,0,0,0-2.864-1.248,4.05,4.05,0,0,0-3.024,1.2A4.126,4.126,0,0,0,100.192-4a4.15,4.15,0,0,0,1.184,3.024,4.261,4.261,0,0,0,3.1,1.184A3.926,3.926,0,0,0,108-1.6l-1.184-.672a2.493,2.493,0,0,1-2.3,1.168,2.73,2.73,0,0,1-2.9-2.256ZM104.384-6.9a2.532,2.532,0,0,1,2.576,2.32h-5.344A2.664,2.664,0,0,1,104.384-6.9Zm5.5,7.072a1.028,1.028,0,0,0,1.04-1.04,1.028,1.028,0,0,0-1.04-1.04,1.038,1.038,0,0,0-1.04,1.04A1.038,1.038,0,0,0,109.888.176Zm8.672-6.8a3.382,3.382,0,0,0-3.024-1.584,3.837,3.837,0,0,0-2.864,1.232A4.143,4.143,0,0,0,111.488-4a4.181,4.181,0,0,0,1.184,2.992A3.822,3.822,0,0,0,115.536.208a3.382,3.382,0,0,0,3.024-1.584V0h1.392V-8H118.56Zm-2.848,5.488a2.739,2.739,0,0,1-2.016-.816A2.812,2.812,0,0,1,112.88-4a2.75,2.75,0,0,1,.816-2.032,2.692,2.692,0,0,1,2.016-.832,2.7,2.7,0,0,1,2.032.832A2.75,2.75,0,0,1,118.56-4a2.812,2.812,0,0,1-.816,2.048A2.75,2.75,0,0,1,115.712-1.136Zm6.736-8.32a.929.929,0,0,0,.928-.928.942.942,0,0,0-.928-.944.946.946,0,0,0-.944.944A.932.932,0,0,0,122.448-9.456ZM123.136,0V-8h-1.392V0Z" transform="translate(742 7345)" fill="#fff"/>
        <g id="Group_9507-2" data-name="Group 9507" transform="translate(1194.223 7333)">
          <text id="ADMIN" transform="translate(-0.223 12)" fill="#fff" font-size="16" font-family="Gilroy-Semibold, Gilroy" font-weight="600" letter-spacing="-0.02em"><tspan x="0" y="0">ADMIN</tspan></text>
        </g>
        <g id="Group_19828-2" data-name="Group 19828" transform="translate(1582 7321)">
          <rect id="Rectangle_7695-2" data-name="Rectangle 7695" width="40" height="40" rx="12" fill="#fff" opacity="0.1"/>
          <rect id="Rectangle_7696-2" data-name="Rectangle 7696" width="40" height="40" rx="12" transform="translate(54)" fill="#fff" opacity="0.1"/>
          <g id="Group_9760-2" data-name="Group 9760" transform="translate(9.479 9.479)">
            <g id="_002-pencil-2" data-name="002-pencil" transform="translate(0)">
              <g id="Group_9708-2" data-name="Group 9708" transform="translate(0)">
                <path id="Path_11256-2" data-name="Path 11256" d="M10.519,0A10.519,10.519,0,1,0,21.038,10.518,10.519,10.519,0,0,0,10.519,0Zm5,7.57-1,1L12.487,6.535l-.772.772L13.749,9.34,8.761,14.328,6.727,12.295l-.772.772L7.989,15.1l-.5.5-.009-.009a.394.394,0,0,1-.251.181l-1.9.423a.394.394,0,0,1-.47-.471l.423-1.9a.4.4,0,0,1,.181-.251l-.01-.01,8.027-8.027a.3.3,0,0,1,.426,0L15.52,7.143A.3.3,0,0,1,15.519,7.57Z" transform="translate(-0.001)" fill="#fff"/>
              </g>
            </g>
          </g>
          <g id="Group_19827-2" data-name="Group 19827" transform="translate(64 10)">
            <g id="Group_9709-2" data-name="Group 9709">
              <circle id="Ellipse_3-2" data-name="Ellipse 3" cx="10.5" cy="10.5" r="10.5" transform="translate(0)" fill="#fff"/>
              <path id="Path_3383-2" data-name="Path 3383" d="M11.068,4.94h-4.3V.648A.647.647,0,0,0,6.13,0H5.58a.648.648,0,0,0-.64.648V4.94H.64A.64.64,0,0,0,0,5.579v.553a.639.639,0,0,0,.64.637h4.3v4.307a.635.635,0,0,0,.64.633h.55a.634.634,0,0,0,.639-.633V6.769h4.3a.639.639,0,0,0,.641-.637V5.579A.64.64,0,0,0,11.068,4.94Z" transform="translate(2.523 10.802) rotate(-45)" fill="#3b2a82"/>
            </g>
          </g>
        </g>
        <path id="Path_28958" data-name="Path 28958" d="M10.944-12.6l-3.6,5.958L3.726-12.6H1.17V0H3.654V-8.154L7.2-2.322h.288l3.546-5.85V0H13.5V-12.6ZM22.212-7.938a3.525,3.525,0,0,0-2.934-1.314,4.106,4.106,0,0,0-3.1,1.386A4.782,4.782,0,0,0,14.9-4.5a4.826,4.826,0,0,0,1.278,3.384,4.088,4.088,0,0,0,3.1,1.368,3.525,3.525,0,0,0,2.934-1.314V0h2.322V-9H22.212ZM17.928-2.664a2.541,2.541,0,0,1-.7-1.836,2.469,2.469,0,0,1,.7-1.818,2.361,2.361,0,0,1,1.782-.72,2.361,2.361,0,0,1,1.782.72,2.414,2.414,0,0,1,.72,1.818,2.482,2.482,0,0,1-.72,1.836,2.414,2.414,0,0,1-1.782.7A2.414,2.414,0,0,1,17.928-2.664ZM28.6-9H26.28V0H28.6V-4.3a2.064,2.064,0,0,1,.828-1.854,2.7,2.7,0,0,1,1.908-.432V-9.18A2.76,2.76,0,0,0,28.6-7.452Zm8.3,4.446L40.518-9H37.746l-3.1,3.96V-12.6H32.328V0H34.65V-4.086L37.926,0h2.7Zm16.65-6.084V-12.6H45.27v2.376h5.112L45.144-1.98V0h8.514V-2.376H48.312Zm7.02,6.5c0,1.494-.774,2.232-1.98,2.232a1.667,1.667,0,0,1-1.782-1.854V-9H54.486v5.526A3.8,3.8,0,0,0,55.44-.738a3.256,3.256,0,0,0,2.448.99,2.978,2.978,0,0,0,2.682-1.26V0h2.322V-9H60.57ZM68.94.252a4.616,4.616,0,0,0,4.068-2.34L70.992-3.24a2.22,2.22,0,0,1-2.07,1.188,2.347,2.347,0,0,1-1.728-.684A2.46,2.46,0,0,1,66.51-4.5a2.36,2.36,0,0,1,2.412-2.466A2.225,2.225,0,0,1,70.974-5.76l2-1.17A4.481,4.481,0,0,0,68.94-9.252a4.614,4.614,0,0,0-3.4,1.368A4.628,4.628,0,0,0,64.188-4.5a4.628,4.628,0,0,0,1.35,3.384A4.614,4.614,0,0,0,68.94.252Zm9.5-4.806L82.062-9H79.29l-3.1,3.96V-12.6H73.872V0h2.322V-4.086L79.47,0h2.7ZM91.062-3.546a6.078,6.078,0,0,0,.09-.954,4.732,4.732,0,0,0-1.3-3.384A4.242,4.242,0,0,0,86.6-9.252a4.543,4.543,0,0,0-3.42,1.368A4.656,4.656,0,0,0,81.846-4.5,4.612,4.612,0,0,0,83.2-1.1,4.832,4.832,0,0,0,86.778.252,4.471,4.471,0,0,0,90.7-1.674L88.83-2.754a2.391,2.391,0,0,1-2.016.9,2.293,2.293,0,0,1-2.538-1.692Zm-6.822-1.8A2.244,2.244,0,0,1,86.6-7.164,2.175,2.175,0,0,1,88.83-5.346ZM94.734-9H92.412V0h2.322V-4.3a2.064,2.064,0,0,1,.828-1.854,2.7,2.7,0,0,1,1.908-.432V-9.18a2.76,2.76,0,0,0-2.736,1.728Zm8.964-.252a3.467,3.467,0,0,0-2.916,1.314V-12.6H98.46V0h2.322V-1.062A3.467,3.467,0,0,0,103.7.252a4.061,4.061,0,0,0,3.1-1.368,4.762,4.762,0,0,0,1.3-3.384,4.719,4.719,0,0,0-1.3-3.366A4.078,4.078,0,0,0,103.7-9.252Zm-2.214,6.588a2.541,2.541,0,0,1-.7-1.836,2.469,2.469,0,0,1,.7-1.818,2.361,2.361,0,0,1,1.782-.72,2.361,2.361,0,0,1,1.782.72,2.414,2.414,0,0,1,.72,1.818,2.482,2.482,0,0,1-.72,1.836,2.414,2.414,0,0,1-1.782.7A2.414,2.414,0,0,1,101.484-2.664Zm16.632-.882a6.078,6.078,0,0,0,.09-.954,4.732,4.732,0,0,0-1.3-3.384,4.242,4.242,0,0,0-3.258-1.368,4.543,4.543,0,0,0-3.42,1.368A4.656,4.656,0,0,0,108.9-4.5a4.612,4.612,0,0,0,1.35,3.4,4.832,4.832,0,0,0,3.582,1.35,4.471,4.471,0,0,0,3.924-1.926l-1.872-1.08a2.391,2.391,0,0,1-2.016.9,2.293,2.293,0,0,1-2.538-1.692Zm-6.822-1.8a2.244,2.244,0,0,1,2.358-1.818,2.175,2.175,0,0,1,2.232,1.818ZM121.788-9h-2.322V0h2.322V-4.3a2.064,2.064,0,0,1,.828-1.854,2.7,2.7,0,0,1,1.908-.432V-9.18a2.76,2.76,0,0,0-2.736,1.728Zm10.278,1.116a3.369,3.369,0,0,0-2.88-1.368A4.244,4.244,0,0,0,126-7.9a4.524,4.524,0,0,0-1.3,3.258,4.627,4.627,0,0,0,1.278,3.276,4.305,4.305,0,0,0,3.2,1.332,3.369,3.369,0,0,0,2.88-1.368v.972a2.1,2.1,0,0,1-2.358,2.214A2.441,2.441,0,0,1,127.35.522l-1.98,1.134a4.572,4.572,0,0,0,4.266,2.2,5.1,5.1,0,0,0,3.312-1.1,3.855,3.855,0,0,0,1.386-3.186V-9h-2.268Zm0,3.24a2.407,2.407,0,0,1-2.52,2.466,2.407,2.407,0,0,1-2.52-2.466,2.333,2.333,0,0,1,.7-1.746,2.5,2.5,0,0,1,1.818-.7,2.428,2.428,0,0,1,1.8.7A2.282,2.282,0,0,1,132.066-4.644Z" transform="translate(332 7281)" fill="#fff"/>
        <path id="Path_28964" data-name="Path 28964" d="M9.7-8.208a2.745,2.745,0,0,0-2.512,1.36,2.485,2.485,0,0,0-2.352-1.36,2.67,2.67,0,0,0-2.384,1.28V-8H1.056V0H2.448V-4.448c0-1.616.88-2.432,2.048-2.432,1.04,0,1.7.72,1.7,1.952V0H7.584V-4.448c0-1.648.768-2.432,1.968-2.432a1.721,1.721,0,0,1,1.76,1.952V0H12.7V-4.976A2.937,2.937,0,0,0,9.7-8.208ZM20.944-6.624A3.382,3.382,0,0,0,17.92-8.208a3.837,3.837,0,0,0-2.864,1.232A4.143,4.143,0,0,0,13.872-4a4.181,4.181,0,0,0,1.184,2.992A3.822,3.822,0,0,0,17.92.208a3.382,3.382,0,0,0,3.024-1.584V0h1.392V-8H20.944ZM18.1-1.136a2.739,2.739,0,0,1-2.016-.816A2.812,2.812,0,0,1,15.264-4a2.75,2.75,0,0,1,.816-2.032A2.692,2.692,0,0,1,18.1-6.864a2.7,2.7,0,0,1,2.032.832A2.75,2.75,0,0,1,20.944-4a2.812,2.812,0,0,1-.816,2.048A2.75,2.75,0,0,1,18.1-1.136ZM25.52-8H24.128V0H25.52V-4.24a2.285,2.285,0,0,1,.736-1.9,2.5,2.5,0,0,1,1.76-.544V-8.144a2.519,2.519,0,0,0-2.5,1.488Zm6.352,3.872L35.7-8H33.9L30.448-4.464V-11.2H29.056V0h1.392V-3.792L34.1,0h1.728Zm9.664-5.664a5.611,5.611,0,0,0-4.16,1.7A5.613,5.613,0,0,0,35.712-4,5.4,5.4,0,0,0,37.456.144a6.105,6.105,0,0,0,4.368,1.648,7.971,7.971,0,0,0,2.72-.416V.864a7.283,7.283,0,0,1-2.72.448,5.611,5.611,0,0,1-4.016-1.5A5.034,5.034,0,0,1,36.224-4a5.044,5.044,0,0,1,1.552-3.776,5.156,5.156,0,0,1,3.76-1.536,4.935,4.935,0,0,1,3.6,1.44A4.793,4.793,0,0,1,46.608-4.32c0,1.9-.672,2.816-1.616,2.816-.672,0-1.008-.464-1.008-1.408V-6.448H42.752v.576a2.132,2.132,0,0,0-1.616-.7,2.413,2.413,0,0,0-1.808.736,2.588,2.588,0,0,0-.7,1.84,2.588,2.588,0,0,0,.7,1.84,2.413,2.413,0,0,0,1.808.736,2.065,2.065,0,0,0,1.712-.816A1.771,1.771,0,0,0,44.752-.9a2.093,2.093,0,0,0,1.68-.864,4.065,4.065,0,0,0,.7-2.56,5.372,5.372,0,0,0-2.592-4.64A5.451,5.451,0,0,0,41.536-9.792ZM40.288-2.96A1.4,1.4,0,0,1,39.872-4a1.337,1.337,0,0,1,.416-1.024,1.522,1.522,0,0,1,2.048,0A1.337,1.337,0,0,1,42.752-4a1.4,1.4,0,0,1-.416,1.04A1.557,1.557,0,0,1,40.288-2.96Zm14.8-3.664a3.382,3.382,0,0,0-3.024-1.584A3.837,3.837,0,0,0,49.2-6.976,4.143,4.143,0,0,0,48.016-4,4.181,4.181,0,0,0,49.2-1.008,3.822,3.822,0,0,0,52.064.208a3.382,3.382,0,0,0,3.024-1.584V0H56.48V-8H55.088ZM52.24-1.136a2.739,2.739,0,0,1-2.016-.816A2.812,2.812,0,0,1,49.408-4a2.75,2.75,0,0,1,.816-2.032,2.692,2.692,0,0,1,2.016-.832,2.7,2.7,0,0,1,2.032.832A2.75,2.75,0,0,1,55.088-4a2.812,2.812,0,0,1-.816,2.048A2.75,2.75,0,0,1,52.24-1.136ZM64.9-6.624a3.382,3.382,0,0,0-3.024-1.584,3.837,3.837,0,0,0-2.864,1.232A4.143,4.143,0,0,0,57.824-4a4.181,4.181,0,0,0,1.184,2.992A3.822,3.822,0,0,0,61.872.208,3.382,3.382,0,0,0,64.9-1.376V0h1.392V-11.2H64.9ZM62.048-1.136a2.739,2.739,0,0,1-2.016-.816A2.812,2.812,0,0,1,59.216-4a2.75,2.75,0,0,1,.816-2.032,2.692,2.692,0,0,1,2.016-.832,2.7,2.7,0,0,1,2.032.832A2.75,2.75,0,0,1,64.9-4a2.812,2.812,0,0,1-.816,2.048A2.75,2.75,0,0,1,62.048-1.136ZM71.84.208a4.059,4.059,0,0,0,3.6-2.08L74.256-2.56A2.671,2.671,0,0,1,71.84-1.168a2.739,2.739,0,0,1-2.016-.816A2.789,2.789,0,0,1,69.024-4a2.8,2.8,0,0,1,.8-2.032,2.739,2.739,0,0,1,2.016-.816A2.557,2.557,0,0,1,74.208-5.44l1.168-.672a3.836,3.836,0,0,0-3.536-2.1,4.04,4.04,0,0,0-3.008,1.216A4.052,4.052,0,0,0,67.632-4a4.114,4.114,0,0,0,1.2,3.008A4.089,4.089,0,0,0,71.84.208ZM77.9-8H76.512V0H77.9V-4.24a2.285,2.285,0,0,1,.736-1.9,2.5,2.5,0,0,1,1.76-.544V-8.144a2.519,2.519,0,0,0-2.5,1.488ZM88.688-3.36a4.1,4.1,0,0,0,.048-.624,4.226,4.226,0,0,0-1.12-2.976,3.653,3.653,0,0,0-2.864-1.248,4.05,4.05,0,0,0-3.024,1.2A4.126,4.126,0,0,0,80.56-4,4.15,4.15,0,0,0,81.744-.976a4.261,4.261,0,0,0,3.1,1.184A3.926,3.926,0,0,0,88.368-1.6l-1.184-.672A2.493,2.493,0,0,1,84.88-1.1a2.73,2.73,0,0,1-2.9-2.256ZM84.752-6.9a2.532,2.532,0,0,1,2.576,2.32H81.984A2.664,2.664,0,0,1,84.752-6.9Zm11.872.272A3.382,3.382,0,0,0,93.6-8.208a3.837,3.837,0,0,0-2.864,1.232A4.143,4.143,0,0,0,89.552-4a4.181,4.181,0,0,0,1.184,2.992A3.822,3.822,0,0,0,93.6.208a3.382,3.382,0,0,0,3.024-1.584V0h1.392V-8H96.624ZM93.776-1.136a2.739,2.739,0,0,1-2.016-.816A2.812,2.812,0,0,1,90.944-4a2.75,2.75,0,0,1,.816-2.032,2.692,2.692,0,0,1,2.016-.832,2.7,2.7,0,0,1,2.032.832A2.75,2.75,0,0,1,96.624-4a2.812,2.812,0,0,1-.816,2.048A2.75,2.75,0,0,1,93.776-1.136ZM104.16-8h-2.128v-2.24l-1.392.416V-8H99.056v1.344h1.584V-2.32c0,1.984,1.088,2.64,3.52,2.32V-1.248c-1.424.064-2.128.16-2.128-1.072V-6.656h2.128Zm2.032-1.456a.929.929,0,0,0,.928-.928.942.942,0,0,0-.928-.944.946.946,0,0,0-.944.944A.932.932,0,0,0,106.192-9.456ZM106.88,0V-8h-1.392V0Zm4.9-1.488L109.264-8h-1.5l3.2,8h1.632l3.2-8h-1.5Zm12.24-1.872a4.1,4.1,0,0,0,.048-.624,4.226,4.226,0,0,0-1.12-2.976,3.653,3.653,0,0,0-2.864-1.248,4.05,4.05,0,0,0-3.024,1.2A4.126,4.126,0,0,0,115.888-4a4.15,4.15,0,0,0,1.184,3.024,4.261,4.261,0,0,0,3.1,1.184A3.926,3.926,0,0,0,123.7-1.6l-1.184-.672a2.493,2.493,0,0,1-2.3,1.168,2.73,2.73,0,0,1-2.9-2.256ZM120.08-6.9a2.532,2.532,0,0,1,2.576,2.32h-5.344A2.664,2.664,0,0,1,120.08-6.9Zm5.5,7.072a1.028,1.028,0,0,0,1.04-1.04,1.028,1.028,0,0,0-1.04-1.04,1.038,1.038,0,0,0-1.04,1.04A1.038,1.038,0,0,0,125.584.176Zm8.672-6.8a3.382,3.382,0,0,0-3.024-1.584,3.837,3.837,0,0,0-2.864,1.232A4.143,4.143,0,0,0,127.184-4a4.181,4.181,0,0,0,1.184,2.992A3.822,3.822,0,0,0,131.232.208a3.382,3.382,0,0,0,3.024-1.584V0h1.392V-8h-1.392Zm-2.848,5.488a2.739,2.739,0,0,1-2.016-.816A2.812,2.812,0,0,1,128.576-4a2.75,2.75,0,0,1,.816-2.032,2.692,2.692,0,0,1,2.016-.832,2.7,2.7,0,0,1,2.032.832A2.75,2.75,0,0,1,134.256-4a2.812,2.812,0,0,1-.816,2.048A2.75,2.75,0,0,1,131.408-1.136Zm6.736-8.32a.929.929,0,0,0,.928-.928.942.942,0,0,0-.928-.944.946.946,0,0,0-.944.944A.932.932,0,0,0,138.144-9.456ZM138.832,0V-8H137.44V0Z" transform="translate(742 7281)" fill="#fff"/>
        <g id="Group_9507-3" data-name="Group 9507" transform="translate(1193.746 7269)">
          <path id="Path_28969" data-name="Path 28969" d="M1.008-3.712A3.693,3.693,0,0,0,2.192-.848,4.41,4.41,0,0,0,5.248.208,4.41,4.41,0,0,0,8.3-.848,3.693,3.693,0,0,0,9.488-3.712V-11.2H7.648v7.376a2.11,2.11,0,0,1-2.4,2.24,2.11,2.11,0,0,1-2.4-2.24V-11.2H1.008Zm14,3.92a4.375,4.375,0,0,0,2.864-.88,2.949,2.949,0,0,0,1.1-2.416,2.686,2.686,0,0,0-1.152-2.3,3.087,3.087,0,0,0-.816-.448c-.352-.144-.624-.256-.832-.32-.192-.08-.5-.176-.928-.32-1.712-.528-2.256-.912-2.256-1.744,0-.848.688-1.392,1.76-1.392A2.411,2.411,0,0,1,17.1-8.048l1.552-.9a4.147,4.147,0,0,0-3.9-2.464,3.816,3.816,0,0,0-2.544.88,2.877,2.877,0,0,0-1.056,2.352A2.579,2.579,0,0,0,12.24-5.92,7.609,7.609,0,0,0,14.592-4.9a8.626,8.626,0,0,1,1.984.8,1.161,1.161,0,0,1,.56,1.04c0,.88-.688,1.472-2.08,1.472a2.676,2.676,0,0,1-2.784-1.888l-1.584.928A4.243,4.243,0,0,0,15.008.208ZM22-4.784h4.48V-6.528H22V-9.44h4.88V-11.2H20.16V0h6.8V-1.76H22ZM36.72,0,34.176-4.352A3.525,3.525,0,0,0,36.4-7.6a3.417,3.417,0,0,0-1.056-2.544A3.417,3.417,0,0,0,32.8-11.2H28.32V0h1.84V-4.08h2.176L34.7,0ZM32.8-9.472A1.812,1.812,0,0,1,34.56-7.6,1.812,1.812,0,0,1,32.8-5.728H30.16V-9.472Z" transform="translate(0.253 12)" fill="#fff"/>
        </g>
        <g id="Group_19828-3" data-name="Group 19828" transform="translate(1582 7257)">
          <rect id="Rectangle_7695-3" data-name="Rectangle 7695" width="40" height="40" rx="12" fill="#fff" opacity="0.1"/>
          <rect id="Rectangle_7696-3" data-name="Rectangle 7696" width="40" height="40" rx="12" transform="translate(54)" fill="#fff" opacity="0.1"/>
          <g id="Group_9760-3" data-name="Group 9760" transform="translate(9.479 9.479)">
            <g id="_002-pencil-3" data-name="002-pencil" transform="translate(0)">
              <g id="Group_9708-3" data-name="Group 9708" transform="translate(0)">
                <path id="Path_11256-3" data-name="Path 11256" d="M10.519,0A10.519,10.519,0,1,0,21.038,10.518,10.519,10.519,0,0,0,10.519,0Zm5,7.57-1,1L12.487,6.535l-.772.772L13.749,9.34,8.761,14.328,6.727,12.295l-.772.772L7.989,15.1l-.5.5-.009-.009a.394.394,0,0,1-.251.181l-1.9.423a.394.394,0,0,1-.47-.471l.423-1.9a.4.4,0,0,1,.181-.251l-.01-.01,8.027-8.027a.3.3,0,0,1,.426,0L15.52,7.143A.3.3,0,0,1,15.519,7.57Z" transform="translate(-0.001)" fill="#fff"/>
              </g>
            </g>
          </g>
          <g id="Group_19827-3" data-name="Group 19827" transform="translate(64 10)">
            <g id="Group_9709-3" data-name="Group 9709">
              <circle id="Ellipse_3-3" data-name="Ellipse 3" cx="10.5" cy="10.5" r="10.5" transform="translate(0)" fill="#fff"/>
              <path id="Path_3383-3" data-name="Path 3383" d="M11.068,4.94h-4.3V.648A.647.647,0,0,0,6.13,0H5.58a.648.648,0,0,0-.64.648V4.94H.64A.64.64,0,0,0,0,5.579v.553a.639.639,0,0,0,.64.637h4.3v4.307a.635.635,0,0,0,.64.633h.55a.634.634,0,0,0,.639-.633V6.769h4.3a.639.639,0,0,0,.641-.637V5.579A.64.64,0,0,0,11.068,4.94Z" transform="translate(2.523 10.802) rotate(-45)" fill="#3b2a82"/>
            </g>
          </g>
        </g>
        <path id="Path_28957" data-name="Path 28957" d="M4.752.252a4.6,4.6,0,0,0,3.186-1.1A3.91,3.91,0,0,0,9.18-3.924V-12.6H6.714v8.676c0,1.08-.648,1.746-1.962,1.746A2.07,2.07,0,0,1,2.736-3.366L.594-2.142A4.241,4.241,0,0,0,4.752.252Zm14.85-3.8a6.079,6.079,0,0,0,.09-.954,4.732,4.732,0,0,0-1.3-3.384,4.242,4.242,0,0,0-3.258-1.368,4.543,4.543,0,0,0-3.42,1.368A4.656,4.656,0,0,0,10.386-4.5a4.612,4.612,0,0,0,1.35,3.4A4.832,4.832,0,0,0,15.318.252a4.471,4.471,0,0,0,3.924-1.926L17.37-2.754a2.391,2.391,0,0,1-2.016.9,2.293,2.293,0,0,1-2.538-1.692Zm-6.822-1.8a2.244,2.244,0,0,1,2.358-1.818A2.175,2.175,0,0,1,17.37-5.346Zm17.73-7.686c-2.79-.162-4.23,1.224-4.23,3.762V-9H23.616v-.09c0-1.116.63-1.62,1.908-1.53v-2.232c-2.808-.162-4.23,1.224-4.23,3.762V-9H20v2.232h1.3V0h2.322V-6.768H26.28V0H28.6V-6.768H30.51V-9H28.6v-.27c0-1.116.63-1.62,1.908-1.53Zm12.564,6.5a3.065,3.065,0,0,0,1.188-2.52,3.277,3.277,0,0,0-1.116-2.538A3.906,3.906,0,0,0,40.428-12.6H35.46V0h5.346A4.017,4.017,0,0,0,43.6-1.026,3.394,3.394,0,0,0,44.73-3.654,3.125,3.125,0,0,0,43.074-6.534Zm-2.646-3.744a1.324,1.324,0,0,1,1.35,1.386,1.335,1.335,0,0,1-1.35,1.386H37.944v-2.772ZM37.944-2.322v-2.97h2.862a1.424,1.424,0,0,1,1.458,1.476,1.428,1.428,0,0,1-1.458,1.494Zm16.83-1.224a6.079,6.079,0,0,0,.09-.954,4.732,4.732,0,0,0-1.3-3.384A4.242,4.242,0,0,0,50.31-9.252a4.543,4.543,0,0,0-3.42,1.368A4.656,4.656,0,0,0,45.558-4.5a4.612,4.612,0,0,0,1.35,3.4A4.832,4.832,0,0,0,50.49.252a4.471,4.471,0,0,0,3.924-1.926l-1.872-1.08a2.391,2.391,0,0,1-2.016.9,2.293,2.293,0,0,1-2.538-1.692Zm-6.822-1.8A2.244,2.244,0,0,1,50.31-7.164a2.175,2.175,0,0,1,2.232,1.818Zm14.4-2.106V-9H55.6v2.178H59.22l-3.8,5.274V0h7.11V-2.178h-4Zm8.64,6.336A4.618,4.618,0,0,0,72.378-4.5a4.577,4.577,0,0,0-1.386-3.366,4.618,4.618,0,0,0-3.384-1.386,4.618,4.618,0,0,0-3.384,1.386A4.561,4.561,0,0,0,62.856-4.5a4.6,4.6,0,0,0,1.368,3.384A4.6,4.6,0,0,0,67.608.252,4.6,4.6,0,0,0,70.992-1.116Zm-5.13-1.6A2.473,2.473,0,0,1,65.178-4.5a2.473,2.473,0,0,1,.684-1.782,2.361,2.361,0,0,1,1.746-.7,2.361,2.361,0,0,1,1.746.7,2.414,2.414,0,0,1,.7,1.782,2.414,2.414,0,0,1-.7,1.782,2.361,2.361,0,0,1-1.746.7A2.361,2.361,0,0,1,65.862-2.718ZM75.6-6.444c0-.45.45-.738,1.044-.738a1.486,1.486,0,0,1,1.44.918l1.98-1.08a3.826,3.826,0,0,0-3.42-1.908,3.83,3.83,0,0,0-2.448.774,2.506,2.506,0,0,0-.972,2.088c0,1.872,1.674,2.43,3.006,2.772.918.234,1.638.5,1.638.99,0,.522-.414.774-1.242.774a1.675,1.675,0,0,1-1.764-1.17L72.846-1.89A3.784,3.784,0,0,0,76.626.252,4.35,4.35,0,0,0,79.2-.486a2.481,2.481,0,0,0,1.044-2.142c.018-1.926-1.692-2.556-3.006-2.826C76.32-5.688,75.6-5.958,75.6-6.444Z" transform="translate(332 7217)" fill="#fff"/>
        <path id="Path_28963" data-name="Path 28963" d="M2.112-9.456a.929.929,0,0,0,.928-.928.942.942,0,0,0-.928-.944.946.946,0,0,0-.944.944A.932.932,0,0,0,2.112-9.456ZM1.408.48c0,1.232-.528,1.7-1.7,1.584V3.408C1.744,3.552,2.8,2.544,2.8.48V-8H1.408ZM12.272-3.36a4.1,4.1,0,0,0,.048-.624A4.226,4.226,0,0,0,11.2-6.96,3.653,3.653,0,0,0,8.336-8.208a4.05,4.05,0,0,0-3.024,1.2A4.126,4.126,0,0,0,4.144-4,4.15,4.15,0,0,0,5.328-.976,4.261,4.261,0,0,0,8.432.208,3.926,3.926,0,0,0,11.952-1.6l-1.184-.672A2.493,2.493,0,0,1,8.464-1.1a2.73,2.73,0,0,1-2.9-2.256ZM8.336-6.9a2.532,2.532,0,0,1,2.576,2.32H5.568A2.664,2.664,0,0,1,8.336-6.9Zm13.488-4.672c-2.256-.144-3.488,1.008-3.488,3.168V-8H15.36v-.24q0-1.992,2.112-1.824v-1.344c-2.256-.144-3.5,1.008-3.5,3.168V-8h-1.28v1.344h1.28V0H15.36V-6.656h2.976V0h1.392V-6.656h2.1V-8h-2.1v-.4c0-1.328.7-1.936,2.1-1.824ZM27.76-9.792A5.611,5.611,0,0,0,23.6-8.1,5.613,5.613,0,0,0,21.936-4,5.4,5.4,0,0,0,23.68.144a6.105,6.105,0,0,0,4.368,1.648,7.971,7.971,0,0,0,2.72-.416V.864a7.283,7.283,0,0,1-2.72.448,5.611,5.611,0,0,1-4.016-1.5A5.034,5.034,0,0,1,22.448-4,5.044,5.044,0,0,1,24-7.776a5.156,5.156,0,0,1,3.76-1.536,4.935,4.935,0,0,1,3.6,1.44A4.793,4.793,0,0,1,32.832-4.32c0,1.9-.672,2.816-1.616,2.816-.672,0-1.008-.464-1.008-1.408V-6.448H28.976v.576a2.132,2.132,0,0,0-1.616-.7,2.413,2.413,0,0,0-1.808.736,2.588,2.588,0,0,0-.7,1.84,2.588,2.588,0,0,0,.7,1.84,2.413,2.413,0,0,0,1.808.736,2.065,2.065,0,0,0,1.712-.816A1.771,1.771,0,0,0,30.976-.9a2.093,2.093,0,0,0,1.68-.864,4.065,4.065,0,0,0,.7-2.56,5.372,5.372,0,0,0-2.592-4.64A5.451,5.451,0,0,0,27.76-9.792ZM26.512-2.96A1.4,1.4,0,0,1,26.1-4a1.337,1.337,0,0,1,.416-1.024,1.522,1.522,0,0,1,2.048,0A1.337,1.337,0,0,1,28.976-4a1.4,1.4,0,0,1-.416,1.04A1.557,1.557,0,0,1,26.512-2.96Zm14.8-3.664a3.382,3.382,0,0,0-3.024-1.584,3.837,3.837,0,0,0-2.864,1.232A4.143,4.143,0,0,0,34.24-4a4.181,4.181,0,0,0,1.184,2.992A3.822,3.822,0,0,0,38.288.208a3.382,3.382,0,0,0,3.024-1.584V0H42.7V-8H41.312ZM38.464-1.136a2.739,2.739,0,0,1-2.016-.816A2.812,2.812,0,0,1,35.632-4a2.75,2.75,0,0,1,.816-2.032,2.692,2.692,0,0,1,2.016-.832,2.7,2.7,0,0,1,2.032.832A2.75,2.75,0,0,1,41.312-4,2.812,2.812,0,0,1,40.5-1.952,2.75,2.75,0,0,1,38.464-1.136ZM51.12-6.624A3.382,3.382,0,0,0,48.1-8.208a3.837,3.837,0,0,0-2.864,1.232A4.143,4.143,0,0,0,44.048-4a4.181,4.181,0,0,0,1.184,2.992A3.822,3.822,0,0,0,48.1.208,3.382,3.382,0,0,0,51.12-1.376V0h1.392V-11.2H51.12ZM48.272-1.136a2.739,2.739,0,0,1-2.016-.816A2.812,2.812,0,0,1,45.44-4a2.75,2.75,0,0,1,.816-2.032,2.692,2.692,0,0,1,2.016-.832,2.7,2.7,0,0,1,2.032.832A2.75,2.75,0,0,1,51.12-4,2.812,2.812,0,0,1,50.3-1.952,2.75,2.75,0,0,1,48.272-1.136ZM58.064.208a4.059,4.059,0,0,0,3.6-2.08L60.48-2.56a2.671,2.671,0,0,1-2.416,1.392,2.739,2.739,0,0,1-2.016-.816A2.789,2.789,0,0,1,55.248-4a2.8,2.8,0,0,1,.8-2.032,2.739,2.739,0,0,1,2.016-.816A2.557,2.557,0,0,1,60.432-5.44L61.6-6.112a3.836,3.836,0,0,0-3.536-2.1,4.04,4.04,0,0,0-3.008,1.216A4.052,4.052,0,0,0,53.856-4a4.114,4.114,0,0,0,1.2,3.008A4.089,4.089,0,0,0,58.064.208ZM64.128-8H62.736V0h1.392V-4.24a2.285,2.285,0,0,1,.736-1.9,2.5,2.5,0,0,1,1.76-.544V-8.144a2.519,2.519,0,0,0-2.5,1.488ZM74.912-3.36a4.1,4.1,0,0,0,.048-.624A4.226,4.226,0,0,0,73.84-6.96a3.653,3.653,0,0,0-2.864-1.248,4.05,4.05,0,0,0-3.024,1.2A4.126,4.126,0,0,0,66.784-4,4.15,4.15,0,0,0,67.968-.976a4.261,4.261,0,0,0,3.1,1.184A3.926,3.926,0,0,0,74.592-1.6l-1.184-.672A2.493,2.493,0,0,1,71.1-1.1a2.73,2.73,0,0,1-2.9-2.256ZM70.976-6.9a2.532,2.532,0,0,1,2.576,2.32H68.208A2.664,2.664,0,0,1,70.976-6.9Zm11.872.272a3.382,3.382,0,0,0-3.024-1.584A3.837,3.837,0,0,0,76.96-6.976,4.143,4.143,0,0,0,75.776-4,4.181,4.181,0,0,0,76.96-1.008,3.822,3.822,0,0,0,79.824.208a3.382,3.382,0,0,0,3.024-1.584V0H84.24V-8H82.848ZM80-1.136a2.739,2.739,0,0,1-2.016-.816A2.812,2.812,0,0,1,77.168-4a2.75,2.75,0,0,1,.816-2.032A2.692,2.692,0,0,1,80-6.864a2.7,2.7,0,0,1,2.032.832A2.75,2.75,0,0,1,82.848-4a2.812,2.812,0,0,1-.816,2.048A2.75,2.75,0,0,1,80-1.136ZM90.384-8H88.256v-2.24l-1.392.416V-8H85.28v1.344h1.584V-2.32c0,1.984,1.088,2.64,3.52,2.32V-1.248c-1.424.064-2.128.16-2.128-1.072V-6.656h2.128Zm2.032-1.456a.929.929,0,0,0,.928-.928.942.942,0,0,0-.928-.944.946.946,0,0,0-.944.944A.932.932,0,0,0,92.416-9.456ZM93.1,0V-8H91.712V0ZM98-1.488,95.488-8h-1.5l3.2,8h1.632l3.2-8h-1.5ZM110.24-3.36a4.1,4.1,0,0,0,.048-.624,4.226,4.226,0,0,0-1.12-2.976A3.653,3.653,0,0,0,106.3-8.208a4.05,4.05,0,0,0-3.024,1.2A4.126,4.126,0,0,0,102.112-4,4.15,4.15,0,0,0,103.3-.976,4.261,4.261,0,0,0,106.4.208,3.926,3.926,0,0,0,109.92-1.6l-1.184-.672a2.493,2.493,0,0,1-2.3,1.168,2.73,2.73,0,0,1-2.9-2.256ZM106.3-6.9a2.532,2.532,0,0,1,2.576,2.32h-5.344A2.664,2.664,0,0,1,106.3-6.9Zm5.5,7.072a1.028,1.028,0,0,0,1.04-1.04,1.028,1.028,0,0,0-1.04-1.04,1.038,1.038,0,0,0-1.04,1.04A1.038,1.038,0,0,0,111.808.176Zm8.672-6.8a3.382,3.382,0,0,0-3.024-1.584,3.837,3.837,0,0,0-2.864,1.232A4.143,4.143,0,0,0,113.408-4a4.181,4.181,0,0,0,1.184,2.992A3.822,3.822,0,0,0,117.456.208a3.382,3.382,0,0,0,3.024-1.584V0h1.392V-8H120.48Zm-2.848,5.488a2.739,2.739,0,0,1-2.016-.816A2.812,2.812,0,0,1,114.8-4a2.75,2.75,0,0,1,.816-2.032,2.692,2.692,0,0,1,2.016-.832,2.7,2.7,0,0,1,2.032.832A2.75,2.75,0,0,1,120.48-4a2.812,2.812,0,0,1-.816,2.048A2.75,2.75,0,0,1,117.632-1.136Zm6.736-8.32a.929.929,0,0,0,.928-.928.942.942,0,0,0-.928-.944.946.946,0,0,0-.944.944A.932.932,0,0,0,124.368-9.456ZM125.056,0V-8h-1.392V0Z" transform="translate(742 7217)" fill="#fff"/>
        <g id="Group_9507-4" data-name="Group 9507" transform="translate(1194.223 7205)">
          <text id="ADMIN-2" data-name="ADMIN" transform="translate(-0.223 12)" fill="#fff" font-size="16" font-family="Gilroy-Semibold, Gilroy" font-weight="600" letter-spacing="-0.02em"><tspan x="0" y="0">ADMIN</tspan></text>
        </g>
        <g id="Group_19828-4" data-name="Group 19828" transform="translate(1582 7193)">
          <rect id="Rectangle_7695-4" data-name="Rectangle 7695" width="40" height="40" rx="12" fill="#fff" opacity="0.1"/>
          <rect id="Rectangle_7696-4" data-name="Rectangle 7696" width="40" height="40" rx="12" transform="translate(54)" fill="#fff" opacity="0.1"/>
          <g id="Group_9760-4" data-name="Group 9760" transform="translate(9.479 9.479)">
            <g id="_002-pencil-4" data-name="002-pencil" transform="translate(0)">
              <g id="Group_9708-4" data-name="Group 9708" transform="translate(0)">
                <path id="Path_11256-4" data-name="Path 11256" d="M10.519,0A10.519,10.519,0,1,0,21.038,10.518,10.519,10.519,0,0,0,10.519,0Zm5,7.57-1,1L12.487,6.535l-.772.772L13.749,9.34,8.761,14.328,6.727,12.295l-.772.772L7.989,15.1l-.5.5-.009-.009a.394.394,0,0,1-.251.181l-1.9.423a.394.394,0,0,1-.47-.471l.423-1.9a.4.4,0,0,1,.181-.251l-.01-.01,8.027-8.027a.3.3,0,0,1,.426,0L15.52,7.143A.3.3,0,0,1,15.519,7.57Z" transform="translate(-0.001)" fill="#fff"/>
              </g>
            </g>
          </g>
          <g id="Group_19827-4" data-name="Group 19827" transform="translate(64 10)">
            <g id="Group_9709-4" data-name="Group 9709">
              <circle id="Ellipse_3-4" data-name="Ellipse 3" cx="10.5" cy="10.5" r="10.5" transform="translate(0)" fill="#fff"/>
              <path id="Path_3383-4" data-name="Path 3383" d="M11.068,4.94h-4.3V.648A.647.647,0,0,0,6.13,0H5.58a.648.648,0,0,0-.64.648V4.94H.64A.64.64,0,0,0,0,5.579v.553a.639.639,0,0,0,.64.637h4.3v4.307a.635.635,0,0,0,.64.633h.55a.634.634,0,0,0,.639-.633V6.769h4.3a.639.639,0,0,0,.641-.637V5.579A.64.64,0,0,0,11.068,4.94Z" transform="translate(2.523 10.802) rotate(-45)" fill="#3b2a82"/>
            </g>
          </g>
        </g>
        <g id="Group_21147" data-name="Group 21147" opacity="0.3">
          <line id="Line_244" data-name="Line 244" x2="1398" transform="translate(301.5 7373)" fill="none" stroke="rgba(222,219,232,0.5)" stroke-width="1"/>
          <line id="Line_244-2" data-name="Line 244" x2="1398" transform="translate(301.5 7309)" fill="none" stroke="rgba(222,219,232,0.5)" stroke-width="1"/>
          <line id="Line_244-3" data-name="Line 244" x2="1398" transform="translate(301.5 7245)" fill="none" stroke="rgba(222,219,232,0.5)" stroke-width="1"/>
          <line id="Line_157" data-name="Line 157" x2="1398" transform="translate(301.5 7181)" fill="none" stroke="rgba(222,219,232,0.5)" stroke-width="1"/>
        </g>
        <path id="Path_28956" data-name="Path 28956" d="M3.654-5.2h4.77v-2.34H3.654v-2.682h5.22V-12.6H1.17V0H8.964V-2.376H3.654ZM12.564,0V-13.14H10.242V0ZM22-1.116A4.618,4.618,0,0,0,23.382-4.5,4.577,4.577,0,0,0,22-7.866a4.618,4.618,0,0,0-3.384-1.386,4.618,4.618,0,0,0-3.384,1.386A4.561,4.561,0,0,0,13.86-4.5a4.6,4.6,0,0,0,1.368,3.384A4.6,4.6,0,0,0,18.612.252,4.6,4.6,0,0,0,22-1.116Zm-5.13-1.6A2.473,2.473,0,0,1,16.182-4.5a2.473,2.473,0,0,1,.684-1.782,2.361,2.361,0,0,1,1.746-.7,2.361,2.361,0,0,1,1.746.7,2.414,2.414,0,0,1,.7,1.782,2.414,2.414,0,0,1-.7,1.782,2.361,2.361,0,0,1-1.746.7A2.361,2.361,0,0,1,16.866-2.718Zm12.8-6.534a2.978,2.978,0,0,0-2.682,1.26V-9H24.66V0h2.322V-4.86c0-1.494.774-2.232,1.98-2.232a1.667,1.667,0,0,1,1.782,1.854V0h2.322V-5.526a3.737,3.737,0,0,0-.972-2.736A3.189,3.189,0,0,0,29.664-9.252ZM48.708-12.6l-3.6,5.958L41.49-12.6H38.934V0h2.484V-8.154l3.546,5.832h.288L48.8-8.172V0h2.466V-12.6ZM59.076-4.14c0,1.494-.774,2.232-1.98,2.232a1.667,1.667,0,0,1-1.782-1.854V-9H52.992v5.526a3.8,3.8,0,0,0,.954,2.736,3.256,3.256,0,0,0,2.448.99,2.978,2.978,0,0,0,2.682-1.26V0H61.4V-9H59.076Zm6.156-2.3c0-.45.45-.738,1.044-.738a1.486,1.486,0,0,1,1.44.918l1.98-1.08a3.826,3.826,0,0,0-3.42-1.908,3.83,3.83,0,0,0-2.448.774,2.506,2.506,0,0,0-.972,2.088c0,1.872,1.674,2.43,3.006,2.772.918.234,1.638.5,1.638.99,0,.522-.414.774-1.242.774a1.675,1.675,0,0,1-1.764-1.17L62.478-1.89A3.784,3.784,0,0,0,66.258.252a4.35,4.35,0,0,0,2.574-.738,2.481,2.481,0,0,0,1.044-2.142c.018-1.926-1.692-2.556-3.006-2.826C65.952-5.688,65.232-5.958,65.232-6.444Zm10.35,1.89L79.2-9H76.428l-3.1,3.96V-12.6H71.01V0h2.322V-4.086L76.608,0h2.7Z" transform="translate(332 7153)" fill="#fff"/>
        <path id="Path_28962" data-name="Path 28962" d="M8.736-3.36a4.1,4.1,0,0,0,.048-.624A4.226,4.226,0,0,0,7.664-6.96,3.653,3.653,0,0,0,4.8-8.208a4.05,4.05,0,0,0-3.024,1.2A4.126,4.126,0,0,0,.608-4,4.15,4.15,0,0,0,1.792-.976,4.261,4.261,0,0,0,4.9.208,3.926,3.926,0,0,0,8.416-1.6L7.232-2.272A2.493,2.493,0,0,1,4.928-1.1a2.73,2.73,0,0,1-2.9-2.256ZM4.8-6.9a2.532,2.532,0,0,1,2.576,2.32H2.032A2.664,2.664,0,0,1,4.8-6.9ZM11.456,0V-11.68H10.064V0Zm8.56-1.008A4.068,4.068,0,0,0,21.248-4a4.068,4.068,0,0,0-1.232-2.992,4.08,4.08,0,0,0-2.992-1.216,4.08,4.08,0,0,0-2.992,1.216A4.054,4.054,0,0,0,12.816-4a4.054,4.054,0,0,0,1.216,2.992A4.08,4.08,0,0,0,17.024.208,4.08,4.08,0,0,0,20.016-1.008Zm-2.992-.144a2.728,2.728,0,0,1-2-.816A2.75,2.75,0,0,1,14.208-4a2.75,2.75,0,0,1,.816-2.032,2.728,2.728,0,0,1,2-.816,2.739,2.739,0,0,1,2.016.816A2.75,2.75,0,0,1,19.856-4a2.75,2.75,0,0,1-.816,2.032A2.739,2.739,0,0,1,17.024-1.152ZM26.56-8.208a2.822,2.822,0,0,0-2.592,1.36V-8H22.576V0h1.392V-4.24c0-1.792.928-2.64,2.32-2.64a1.852,1.852,0,0,1,1.984,2.048V0h1.392V-4.912A2.994,2.994,0,0,0,26.56-8.208Zm10.1-1.584A5.611,5.611,0,0,0,32.5-8.1,5.613,5.613,0,0,0,30.832-4,5.4,5.4,0,0,0,32.576.144a6.105,6.105,0,0,0,4.368,1.648,7.971,7.971,0,0,0,2.72-.416V.864a7.283,7.283,0,0,1-2.72.448,5.611,5.611,0,0,1-4.016-1.5A5.034,5.034,0,0,1,31.344-4,5.044,5.044,0,0,1,32.9-7.776a5.156,5.156,0,0,1,3.76-1.536,4.935,4.935,0,0,1,3.6,1.44A4.793,4.793,0,0,1,41.728-4.32c0,1.9-.672,2.816-1.616,2.816-.672,0-1.008-.464-1.008-1.408V-6.448H37.872v.576a2.132,2.132,0,0,0-1.616-.7,2.413,2.413,0,0,0-1.808.736,2.588,2.588,0,0,0-.7,1.84,2.588,2.588,0,0,0,.7,1.84,2.413,2.413,0,0,0,1.808.736,2.065,2.065,0,0,0,1.712-.816A1.771,1.771,0,0,0,39.872-.9a2.093,2.093,0,0,0,1.68-.864,4.065,4.065,0,0,0,.7-2.56,5.372,5.372,0,0,0-2.592-4.64A5.451,5.451,0,0,0,36.656-9.792ZM35.408-2.96A1.4,1.4,0,0,1,34.992-4a1.337,1.337,0,0,1,.416-1.024,1.522,1.522,0,0,1,2.048,0A1.337,1.337,0,0,1,37.872-4a1.4,1.4,0,0,1-.416,1.04A1.557,1.557,0,0,1,35.408-2.96Zm14.8-3.664a3.382,3.382,0,0,0-3.024-1.584A3.837,3.837,0,0,0,44.32-6.976,4.143,4.143,0,0,0,43.136-4,4.181,4.181,0,0,0,44.32-1.008,3.822,3.822,0,0,0,47.184.208a3.382,3.382,0,0,0,3.024-1.584V0H51.6V-8H50.208ZM47.36-1.136a2.739,2.739,0,0,1-2.016-.816A2.812,2.812,0,0,1,44.528-4a2.75,2.75,0,0,1,.816-2.032,2.692,2.692,0,0,1,2.016-.832,2.7,2.7,0,0,1,2.032.832A2.75,2.75,0,0,1,50.208-4a2.812,2.812,0,0,1-.816,2.048A2.75,2.75,0,0,1,47.36-1.136ZM60.016-6.624a3.382,3.382,0,0,0-3.024-1.584,3.837,3.837,0,0,0-2.864,1.232A4.143,4.143,0,0,0,52.944-4a4.181,4.181,0,0,0,1.184,2.992A3.822,3.822,0,0,0,56.992.208a3.382,3.382,0,0,0,3.024-1.584V0h1.392V-11.2H60.016ZM57.168-1.136a2.739,2.739,0,0,1-2.016-.816A2.812,2.812,0,0,1,54.336-4a2.75,2.75,0,0,1,.816-2.032,2.692,2.692,0,0,1,2.016-.832,2.7,2.7,0,0,1,2.032.832A2.75,2.75,0,0,1,60.016-4,2.812,2.812,0,0,1,59.2-1.952,2.75,2.75,0,0,1,57.168-1.136ZM66.96.208a4.059,4.059,0,0,0,3.6-2.08L69.376-2.56A2.671,2.671,0,0,1,66.96-1.168a2.739,2.739,0,0,1-2.016-.816A2.789,2.789,0,0,1,64.144-4a2.8,2.8,0,0,1,.8-2.032,2.739,2.739,0,0,1,2.016-.816A2.557,2.557,0,0,1,69.328-5.44L70.5-6.112a3.836,3.836,0,0,0-3.536-2.1,4.04,4.04,0,0,0-3.008,1.216A4.052,4.052,0,0,0,62.752-4a4.114,4.114,0,0,0,1.2,3.008A4.089,4.089,0,0,0,66.96.208ZM73.024-8H71.632V0h1.392V-4.24a2.285,2.285,0,0,1,.736-1.9,2.5,2.5,0,0,1,1.76-.544V-8.144a2.519,2.519,0,0,0-2.5,1.488ZM83.808-3.36a4.1,4.1,0,0,0,.048-.624,4.226,4.226,0,0,0-1.12-2.976,3.653,3.653,0,0,0-2.864-1.248,4.05,4.05,0,0,0-3.024,1.2A4.126,4.126,0,0,0,75.68-4,4.15,4.15,0,0,0,76.864-.976a4.261,4.261,0,0,0,3.1,1.184A3.926,3.926,0,0,0,83.488-1.6L82.3-2.272A2.493,2.493,0,0,1,80-1.1,2.73,2.73,0,0,1,77.1-3.36ZM79.872-6.9a2.532,2.532,0,0,1,2.576,2.32H77.1A2.664,2.664,0,0,1,79.872-6.9Zm11.872.272A3.382,3.382,0,0,0,88.72-8.208a3.837,3.837,0,0,0-2.864,1.232A4.143,4.143,0,0,0,84.672-4a4.181,4.181,0,0,0,1.184,2.992A3.822,3.822,0,0,0,88.72.208a3.382,3.382,0,0,0,3.024-1.584V0h1.392V-8H91.744ZM88.9-1.136a2.739,2.739,0,0,1-2.016-.816A2.812,2.812,0,0,1,86.064-4a2.75,2.75,0,0,1,.816-2.032A2.692,2.692,0,0,1,88.9-6.864a2.7,2.7,0,0,1,2.032.832A2.75,2.75,0,0,1,91.744-4a2.812,2.812,0,0,1-.816,2.048A2.75,2.75,0,0,1,88.9-1.136ZM99.28-8H97.152v-2.24l-1.392.416V-8H94.176v1.344H95.76V-2.32C95.76-.336,96.848.32,99.28,0V-1.248c-1.424.064-2.128.16-2.128-1.072V-6.656H99.28Zm2.032-1.456a.929.929,0,0,0,.928-.928.942.942,0,0,0-.928-.944.946.946,0,0,0-.944.944A.932.932,0,0,0,101.312-9.456ZM102,0V-8h-1.392V0Zm4.9-1.488L104.384-8h-1.5l3.2,8h1.632l3.2-8h-1.5Zm12.24-1.872a4.1,4.1,0,0,0,.048-.624,4.226,4.226,0,0,0-1.12-2.976A3.653,3.653,0,0,0,115.2-8.208a4.05,4.05,0,0,0-3.024,1.2A4.126,4.126,0,0,0,111.008-4a4.15,4.15,0,0,0,1.184,3.024A4.261,4.261,0,0,0,115.3.208a3.926,3.926,0,0,0,3.52-1.808l-1.184-.672a2.493,2.493,0,0,1-2.3,1.168,2.73,2.73,0,0,1-2.9-2.256ZM115.2-6.9a2.532,2.532,0,0,1,2.576,2.32h-5.344A2.664,2.664,0,0,1,115.2-6.9ZM120.7.176a1.028,1.028,0,0,0,1.04-1.04A1.028,1.028,0,0,0,120.7-1.9a1.038,1.038,0,0,0-1.04,1.04A1.038,1.038,0,0,0,120.7.176Zm8.672-6.8a3.382,3.382,0,0,0-3.024-1.584,3.837,3.837,0,0,0-2.864,1.232A4.143,4.143,0,0,0,122.3-4a4.181,4.181,0,0,0,1.184,2.992A3.822,3.822,0,0,0,126.352.208a3.382,3.382,0,0,0,3.024-1.584V0h1.392V-8h-1.392Zm-2.848,5.488a2.739,2.739,0,0,1-2.016-.816A2.812,2.812,0,0,1,123.7-4a2.75,2.75,0,0,1,.816-2.032,2.692,2.692,0,0,1,2.016-.832,2.7,2.7,0,0,1,2.032.832A2.75,2.75,0,0,1,129.376-4a2.812,2.812,0,0,1-.816,2.048A2.75,2.75,0,0,1,126.528-1.136Zm6.736-8.32a.929.929,0,0,0,.928-.928.942.942,0,0,0-.928-.944.946.946,0,0,0-.944.944A.932.932,0,0,0,133.264-9.456ZM133.952,0V-8H132.56V0Z" transform="translate(742 7153)" fill="#fff"/>
        <g id="Group_9507-5" data-name="Group 9507" transform="translate(1194.223 7141)">
          <text id="ADMIN-3" data-name="ADMIN" transform="translate(-0.223 12)" fill="#fff" font-size="16" font-family="Gilroy-Semibold, Gilroy" font-weight="600" letter-spacing="-0.02em"><tspan x="0" y="0">ADMIN</tspan></text>
        </g>
        <g id="Group_19822" data-name="Group 19822" transform="translate(1582 7129)">
          <rect id="Rectangle_7695-5" data-name="Rectangle 7695" width="94" height="40" rx="12" fill="#fff"/>
          <text id="Save" transform="translate(29 25)" fill="#3b2a82" font-size="16" font-family="Gilroy-Bold, Gilroy" font-weight="700"><tspan x="0" y="0">Save</tspan></text>
        </g>
      </g>
    </g>
  </g>
</svg>
