<svg xmlns="http://www.w3.org/2000/svg" width="325" height="261" viewBox="0 0 325 261">
  <g id="Group_21314" data-name="Group 21314" transform="translate(-974 -2426)">
    <g id="Rectangle_6249" data-name="Rectangle 6249" transform="translate(974 2426)" fill="rgba(255,255,255,0.1)" stroke="rgba(255,255,255,0.2)" stroke-width="0.8">
      <rect width="325" height="261" rx="25" stroke="none"/>
      <rect x="0.4" y="0.4" width="324.2" height="260.2" rx="24.6" fill="none"/>
    </g>
    <path id="Path_28976" data-name="Path 28976" d="M-53.273-15.4l-3.74,6.82-3.762-6.82h-2.882l5.368,9.284V0h2.53V-6.116l5.368-9.284ZM-45.9.286a5.575,5.575,0,0,0,4.114-1.672A5.594,5.594,0,0,0-40.095-5.5a5.594,5.594,0,0,0-1.694-4.114A5.575,5.575,0,0,0-45.9-11.286a5.61,5.61,0,0,0-4.114,1.672A5.594,5.594,0,0,0-51.711-5.5a5.594,5.594,0,0,0,1.694,4.114A5.61,5.61,0,0,0-45.9.286Zm-2.442-3.3a3.383,3.383,0,0,1-.99-2.486,3.383,3.383,0,0,1,.99-2.486,3.318,3.318,0,0,1,2.442-.99,3.318,3.318,0,0,1,2.442.99,3.383,3.383,0,0,1,.99,2.486,3.383,3.383,0,0,1-.99,2.486,3.318,3.318,0,0,1-2.442.99A3.318,3.318,0,0,1-48.345-3.014Zm17.82-2.09c0,2.134-1.122,3.168-2.794,3.168a2.293,2.293,0,0,1-2.464-2.552V-11h-2.376v6.754c0,2.816,1.694,4.532,4.224,4.532a3.761,3.761,0,0,0,3.41-1.694V0h2.376V-11h-2.376ZM-23-11h-2.376V0H-23V-5.544a2.764,2.764,0,0,1,1.012-2.42,3.436,3.436,0,0,1,2.376-.66V-11.2A3.365,3.365,0,0,0-23-9.152ZM-4.917.286A7.743,7.743,0,0,0-1.045-.7,7.224,7.224,0,0,0,1.705-3.41l-2.2-1.254A4.9,4.9,0,0,1-4.917-2.178a5.4,5.4,0,0,1-4-1.562A5.426,5.426,0,0,1-10.439-7.7a5.426,5.426,0,0,1,1.518-3.96,5.4,5.4,0,0,1,4-1.562A4.926,4.926,0,0,1-.495-10.736l2.2-1.276a7.593,7.593,0,0,0-6.622-3.674,7.776,7.776,0,0,0-5.764,2.31A7.712,7.712,0,0,0-12.969-7.7,7.8,7.8,0,0,0-10.681-2,7.843,7.843,0,0,0-4.917.286ZM6.127,0V-16.06H3.751V0Zm4.994-13.09a1.482,1.482,0,0,0,.022-2.134,1.489,1.489,0,0,0-2.156,0,1.5,1.5,0,0,0,0,2.134A1.5,1.5,0,0,0,11.121-13.09ZM11.253,0V-11H8.877V0ZM24.629-4.488a6.452,6.452,0,0,0,.088-.99,5.882,5.882,0,0,0-1.562-4.114,5.156,5.156,0,0,0-3.96-1.694,5.552,5.552,0,0,0-4.18,1.672A5.64,5.64,0,0,0,13.387-5.5a5.637,5.637,0,0,0,1.65,4.158A5.945,5.945,0,0,0,19.371.286a5.413,5.413,0,0,0,4.818-2.4L22.231-3.256a3.259,3.259,0,0,1-2.838,1.364,3.286,3.286,0,0,1-3.52-2.6ZM15.851-6.424A3.194,3.194,0,0,1,19.173-9.13a3.065,3.065,0,0,1,3.146,2.706Zm16.742-4.862a3.761,3.761,0,0,0-3.41,1.694V-11H26.807V0h2.376V-5.9c0-2.134,1.122-3.168,2.794-3.168a2.293,2.293,0,0,1,2.464,2.552V0h2.376V-6.754C36.817-9.57,35.123-11.286,32.593-11.286ZM45.507-11H42.779v-3.08l-2.376.7V-11H38.379v2.288H40.4v5.28C40.4-.55,41.877.44,45.507,0V-2.134c-1.8.088-2.728.11-2.728-1.3v-5.28h2.728Zm16.852-2.244V-15.4H52.9v2.376h6.446L56.023-8.646l1.012,1.518h.572c1.76,0,2.86.946,2.86,2.464s-1.1,2.486-2.86,2.486a2.856,2.856,0,0,1-3.014-1.98L52.437-2.9a5.237,5.237,0,0,0,5.17,3.19,5.7,5.7,0,0,0,3.828-1.32A4.521,4.521,0,0,0,63-4.664a4.5,4.5,0,0,0-3.762-4.444Z" transform="translate(1137 2610)" fill="#fff"/>
    <path id="Path_28977" data-name="Path 28977" d="M-57.28-3.3V-6.72H-58.4V-3.3h-4.688l4.16-7.9H-60.16l-4.16,7.9V-2.24h5.92V0h1.12V-2.24h1.44V-3.3Zm7.12-7.9V0h1.12V-4.16h2.88a3.4,3.4,0,0,0,2.512-1.008A3.4,3.4,0,0,0-42.64-7.68a3.4,3.4,0,0,0-1.008-2.512A3.4,3.4,0,0,0-46.16-11.2Zm1.12,5.984v-4.928h2.88a2.292,2.292,0,0,1,1.712.7,2.363,2.363,0,0,1,.688,1.76A2.4,2.4,0,0,1-44.448-5.9a2.279,2.279,0,0,1-1.712.688ZM-39.984-8H-41.04V0h1.056V-4.448A2.359,2.359,0,0,1-37.456-7.1V-8.128a2.592,2.592,0,0,0-2.528,1.456Zm10.192,6.992A4.068,4.068,0,0,0-28.56-4a4.007,4.007,0,0,0-1.232-2.976,4.044,4.044,0,0,0-2.976-1.216A4.08,4.08,0,0,0-35.76-6.976,3.994,3.994,0,0,0-36.976-4,4.054,4.054,0,0,0-35.76-1.008a4.129,4.129,0,0,0,2.992,1.2A4.092,4.092,0,0,0-29.792-1.008Zm-5.216-.736A3.116,3.116,0,0,1-35.92-4a3.054,3.054,0,0,1,.912-2.24,3.007,3.007,0,0,1,2.24-.928,3.007,3.007,0,0,1,2.24.928A3.054,3.054,0,0,1-29.616-4a3.116,3.116,0,0,1-.912,2.256,3.054,3.054,0,0,1-2.24.912A3.054,3.054,0,0,1-35.008-1.744Zm8.336-9.264a.763.763,0,0,0,0,1.088.763.763,0,0,0,1.088,0,.763.763,0,0,0,0-1.088A.763.763,0,0,0-26.672-11.008ZM-26.656.64c0,1.36-.56,1.856-1.824,1.728V3.392c1.84.176,2.88-.832,2.88-2.752V-8h-1.056Zm6.992-8.832a4.014,4.014,0,0,0-3.008,1.2A4.089,4.089,0,0,0-23.84-4,4.088,4.088,0,0,0-22.656-.992,4.16,4.16,0,0,0-19.584.192a4.014,4.014,0,0,0,3.52-1.84l-.928-.544a2.808,2.808,0,0,1-2.576,1.36,3,3,0,0,1-3.184-2.64h7.024c.016-.208.032-.384.032-.5a4.329,4.329,0,0,0-1.1-2.96A3.571,3.571,0,0,0-19.664-8.192Zm0,1.024a2.861,2.861,0,0,1,1.9.7A2.982,2.982,0,0,1-16.784-4.5h-5.968A2.988,2.988,0,0,1-19.664-7.168Zm9.376,7.36A3.967,3.967,0,0,0-6.7-1.888l-.88-.512a3.007,3.007,0,0,1-2.7,1.568,3.054,3.054,0,0,1-2.24-.912A3.116,3.116,0,0,1-13.44-4a3.054,3.054,0,0,1,.912-2.24,3.007,3.007,0,0,1,2.24-.928A2.806,2.806,0,0,1-7.648-5.6l.864-.5a3.738,3.738,0,0,0-3.5-2.1A4.04,4.04,0,0,0-13.3-6.976,4.041,4.041,0,0,0-14.5-4a4.1,4.1,0,0,0,1.2,2.992A4.089,4.089,0,0,0-10.288.192ZM-.944-8h-2.3v-2.24L-4.3-9.92V-8h-1.68v1.024H-4.3v4.848C-4.3-.272-3.184.336-.944,0V-.928c-1.536.064-2.3.176-2.3-1.2V-6.976h2.3ZM10.208.192a5.5,5.5,0,0,0,4.848-2.768l-.992-.56A4.306,4.306,0,0,1,10.208-.9a4.556,4.556,0,0,1-3.424-1.36A4.624,4.624,0,0,1,5.456-5.6,4.624,4.624,0,0,1,6.784-8.944a4.556,4.556,0,0,1,3.424-1.36,4.306,4.306,0,0,1,3.856,2.24l.992-.576a5.52,5.52,0,0,0-4.848-2.752A5.666,5.666,0,0,0,6-9.712,5.65,5.65,0,0,0,4.336-5.6,5.65,5.65,0,0,0,6-1.488,5.666,5.666,0,0,0,10.208.192ZM17.792-8H16.736V0h1.056V-4.448A2.359,2.359,0,0,1,20.32-7.1V-8.128a2.592,2.592,0,0,0-2.528,1.456Zm7.184-.192a4.014,4.014,0,0,0-3.008,1.2A4.089,4.089,0,0,0,20.8-4,4.088,4.088,0,0,0,21.984-.992,4.16,4.16,0,0,0,25.056.192a4.014,4.014,0,0,0,3.52-1.84l-.928-.544a2.808,2.808,0,0,1-2.576,1.36,3,3,0,0,1-3.184-2.64h7.024c.016-.208.032-.384.032-.5a4.329,4.329,0,0,0-1.1-2.96A3.571,3.571,0,0,0,24.976-8.192Zm0,1.024a2.861,2.861,0,0,1,1.9.7A2.982,2.982,0,0,1,27.856-4.5H21.888A2.988,2.988,0,0,1,24.976-7.168ZM37.5-6.432a3.586,3.586,0,0,0-3.232-1.76,3.988,3.988,0,0,0-2.928,1.216A4.092,4.092,0,0,0,30.144-4a4.092,4.092,0,0,0,1.2,2.976A3.988,3.988,0,0,0,34.272.192,3.586,3.586,0,0,0,37.5-1.568V0H38.56V-8H37.5ZM32.112-1.744A3.116,3.116,0,0,1,31.2-4a3.054,3.054,0,0,1,.912-2.24,3.007,3.007,0,0,1,2.24-.928,3.007,3.007,0,0,1,2.24.928A3.054,3.054,0,0,1,37.5-4a3.116,3.116,0,0,1-.912,2.256,3.054,3.054,0,0,1-2.24.912A3.054,3.054,0,0,1,32.112-1.744ZM45.04-8h-2.3v-2.24l-1.056.32V-8H40v1.024h1.68v4.848C41.68-.272,42.8.336,45.04,0V-.928c-1.536.064-2.3.176-2.3-1.2V-6.976h2.3Zm4.976-.192a4.014,4.014,0,0,0-3.008,1.2A4.089,4.089,0,0,0,45.84-4,4.088,4.088,0,0,0,47.024-.992,4.16,4.16,0,0,0,50.1.192a4.014,4.014,0,0,0,3.52-1.84l-.928-.544a2.808,2.808,0,0,1-2.576,1.36,3,3,0,0,1-3.184-2.64h7.024c.016-.208.032-.384.032-.5a4.329,4.329,0,0,0-1.1-2.96A3.571,3.571,0,0,0,50.016-8.192Zm0,1.024a2.861,2.861,0,0,1,1.9.7A2.982,2.982,0,0,1,52.9-4.5H46.928A2.988,2.988,0,0,1,50.016-7.168Zm12.528.736a3.586,3.586,0,0,0-3.232-1.76,3.988,3.988,0,0,0-2.928,1.216A4.092,4.092,0,0,0,55.184-4a4.092,4.092,0,0,0,1.2,2.976A3.988,3.988,0,0,0,59.312.192a3.586,3.586,0,0,0,3.232-1.76V0H63.6V-11.2H62.544ZM57.152-1.744A3.116,3.116,0,0,1,56.24-4a3.054,3.054,0,0,1,.912-2.24,3.007,3.007,0,0,1,2.24-.928,3.007,3.007,0,0,1,2.24.928A3.054,3.054,0,0,1,62.544-4a3.116,3.116,0,0,1-.912,2.256,3.054,3.054,0,0,1-2.24.912A3.054,3.054,0,0,1,57.152-1.744Z" transform="translate(1137 2637)" fill="#fff"/>
    <g id="Rectangle_6423" data-name="Rectangle 6423" transform="translate(1018 2477)" fill="rgba(255,255,255,0.05)" stroke="rgba(255,255,255,0.1)" stroke-width="1">
      <rect width="237" height="97" rx="15" stroke="none"/>
      <rect x="0.5" y="0.5" width="236" height="96" rx="14.5" fill="none"/>
    </g>
    <path id="Path_28981" data-name="Path 28981" d="M-55.5.22A6.843,6.843,0,0,0-49.46-3.2l-.94-.54A5.747,5.747,0,0,1-55.5-.8a6.058,6.058,0,0,1-4.48-1.78A6.128,6.128,0,0,1-61.72-7a6.049,6.049,0,0,1,1.74-4.4,6,6,0,0,1,4.48-1.8,5.712,5.712,0,0,1,3,.8,5.278,5.278,0,0,1,2.06,2.08l.94-.54a6.462,6.462,0,0,0-2.48-2.44,6.853,6.853,0,0,0-3.52-.92,7.024,7.024,0,0,0-5.22,2.1A6.967,6.967,0,0,0-62.78-7a7.045,7.045,0,0,0,2.06,5.14A7.084,7.084,0,0,0-55.5.22ZM-45.9-14h-1.06V0h7.66V-1h-6.6Zm8.8,14h1.06V-14H-37.1Zm5.6-6.56h6.4v-1h-6.4V-13h6.9v-1h-7.96V0h8.06V-1h-7Zm18.8,4.6L-20.98-14h-.92V0h1.06V-12.04L-12.58,0h.94V-14H-12.7ZM-9.44-14v1h4.4V0h1.08V-13H.44v-1ZM9.04-14H7.98V0h7.66V-1H9.04ZM28.38-1.88A7.02,7.02,0,0,0,30.48-7a6.943,6.943,0,0,0-2.1-5.1,6.9,6.9,0,0,0-5.12-2.12,6.9,6.9,0,0,0-5.12,2.12A6.943,6.943,0,0,0,16.04-7a7.02,7.02,0,0,0,2.1,5.12A6.956,6.956,0,0,0,23.26.22,6.956,6.956,0,0,0,28.38-1.88Zm-9.5-.72A6.1,6.1,0,0,1,17.1-7a6.022,6.022,0,0,1,1.78-4.38,5.9,5.9,0,0,1,4.38-1.82,5.828,5.828,0,0,1,4.36,1.82A5.962,5.962,0,0,1,29.42-7a6.039,6.039,0,0,1-1.8,4.4A5.885,5.885,0,0,1,23.26-.8,5.962,5.962,0,0,1,18.88-2.6ZM39.46-6.52v1H45.4a4.91,4.91,0,0,1-1.7,3.38A5.777,5.777,0,0,1,39.72-.8a6.133,6.133,0,0,1-4.54-1.78A6.064,6.064,0,0,1,33.42-7a6.049,6.049,0,0,1,1.74-4.4,6,6,0,0,1,4.48-1.8,5.712,5.712,0,0,1,3,.8,5.3,5.3,0,0,1,2.08,2.12l.94-.56a6.567,6.567,0,0,0-2.5-2.46,6.853,6.853,0,0,0-3.52-.92,7.024,7.024,0,0,0-5.22,2.1A6.967,6.967,0,0,0,32.36-7a7.062,7.062,0,0,0,2.08,5.14A7.159,7.159,0,0,0,39.72.22a6.831,6.831,0,0,0,4.9-1.78,5.922,5.922,0,0,0,1.86-4.42v-.54ZM60.68-1.88A7.02,7.02,0,0,0,62.78-7a6.943,6.943,0,0,0-2.1-5.1,6.9,6.9,0,0,0-5.12-2.12,6.9,6.9,0,0,0-5.12,2.12A6.943,6.943,0,0,0,48.34-7a7.02,7.02,0,0,0,2.1,5.12A6.956,6.956,0,0,0,55.56.22,6.956,6.956,0,0,0,60.68-1.88Zm-9.5-.72A6.1,6.1,0,0,1,49.4-7a6.022,6.022,0,0,1,1.78-4.38,5.9,5.9,0,0,1,4.38-1.82,5.828,5.828,0,0,1,4.36,1.82A5.962,5.962,0,0,1,61.72-7a6.039,6.039,0,0,1-1.8,4.4A5.885,5.885,0,0,1,55.56-.8,5.962,5.962,0,0,1,51.18-2.6Z" transform="translate(1137 2532)" fill="#fff"/>
    <g id="three-dot" transform="translate(1905.842 1572.666) rotate(90)" opacity="0.5">
      <circle id="Ellipse_5" data-name="Ellipse 5" cx="2" cy="2" r="2" transform="translate(878.11 626.842)" fill="#fff"/>
      <circle id="Ellipse_6" data-name="Ellipse 6" cx="2" cy="2" r="2" transform="translate(878.11 634.842)" fill="#fff"/>
      <circle id="Ellipse_7" data-name="Ellipse 7" cx="2" cy="2" r="2" transform="translate(878.11 642.842)" fill="#fff"/>
    </g>
    <g id="Group_21302" data-name="Group 21302" transform="translate(744.728 62)">
      <path id="Subtraction_139" data-name="Subtraction 139" d="M8.8,17.6A8.8,8.8,0,0,1,2.576,2.576,8.8,8.8,0,0,1,15.018,15.019,8.742,8.742,0,0,1,8.8,17.6ZM8.316,5.957a1.069,1.069,0,0,0-.911.63A2.152,2.152,0,0,0,7.349,8.6c-.094.476-.22.963-.332,1.392a10.368,10.368,0,0,0-.456,4.257c1.04-.76,1.382-2.26,1.621-3.606.143.082.264.166.4.26a1.865,1.865,0,0,0,1.047.433c.08.006.156.009.226.009a2.81,2.81,0,0,0,2.171-1.025A4.816,4.816,0,0,0,13,6.561a3.087,3.087,0,0,0-1.322-2.181A4.57,4.57,0,0,0,9.051,3.61a5.6,5.6,0,0,0-.65.038A4.35,4.35,0,0,0,5.943,4.811,3.661,3.661,0,0,0,4.766,7.342c-.051,1.407.451,2.2,1.532,2.435A1.034,1.034,0,0,0,6.24,8.55a1.664,1.664,0,0,1-.248-.556,2.758,2.758,0,0,1,.643-2.256A3.34,3.34,0,0,1,9.108,4.58a2.607,2.607,0,0,1,1.876.764,2.537,2.537,0,0,1,.594,1.631,4.534,4.534,0,0,1-.329,1.96,1.879,1.879,0,0,1-1.621,1.352,1.517,1.517,0,0,1-.309-.032.833.833,0,0,1-.6-.366C8.474,9.472,8.692,8.78,8.9,8.11c.275-.876.559-1.781-.2-2.072A1.023,1.023,0,0,0,8.316,5.957Z" transform="translate(424.807 2383.198)" fill="#fff"/>
      <path id="meta" d="M21.738,51.758c0,3.1-1.338,5.044-3.746,5.044-2.126,0-3.254-1.175-5.329-4.64L11.6,50.375c-.282-.425-.493-.822-.72-1.189-.683,1.148-1.6,2.819-1.6,2.819C7,55.966,5.723,56.8,3.947,56.8,1.475,56.8,0,54.855,0,51.846,0,46.989,2.71,42.4,6.246,42.4c1.705,0,3.186.838,4.918,3.04,1.26-1.7,2.653-3.04,4.436-3.04,3.366,0,6.138,4.27,6.138,9.358ZM9.762,47.488C8.3,45.379,7.354,44.754,6.216,44.754c-2.1,0-3.865,3.6-3.865,7.133,0,1.647.628,2.571,1.684,2.571,1.026,0,1.664-.645,3.505-3.526,0,0,.839-1.328,2.221-3.444Zm8.281,6.97c1.094,0,1.593-.934,1.593-2.544,0-4.219-1.844-7.657-4.185-7.657-1.128,0-2.075.88-3.223,2.65.319.469.649.985,1,1.542L14.5,50.569c1.994,3.2,2.5,3.889,3.546,3.889Z" transform="translate(393.069 2342.654)" fill="#fff"/>
      <g id="Group_20931" data-name="Group 20931" transform="translate(366.411 2383.198)">
        <g id="_281764" data-name="281764" transform="translate(0 0)">
          <path id="Path_1306" data-name="Path 1306" d="M3.692,143.827l-.58,2.161-2.119.045a8.316,8.316,0,0,1-.061-7.764h0l1.887.345.827,1.872a4.954,4.954,0,0,0,.047,3.341Z" transform="translate(0 -133.777)" fill="#fff"/>
          <path id="Path_1307" data-name="Path 1307" d="M269.628,208.176a8.3,8.3,0,0,1-2.969,8.037h0l-2.376-.121-.336-2.1a4.957,4.957,0,0,0,2.136-2.53h-4.454v-3.289h8Z" transform="translate(-253.116 -201.415)" fill="#fff"/>
          <path id="Path_1308" data-name="Path 1308" d="M43.059,314.158h0a8.34,8.34,0,0,1-12.551-2.544l2.7-2.206a4.958,4.958,0,0,0,7.138,2.532Z" transform="translate(-29.516 -299.36)" fill="#fff"/>
          <path id="Path_1309" data-name="Path 1309" d="M41.338,1.914l-2.7,2.205a4.957,4.957,0,0,0-7.3,2.589L28.624,4.491h0A8.339,8.339,0,0,1,41.338,1.914Z" transform="translate(-27.693)" fill="#fff"/>
        </g>
      </g>
      <path id="_1384046" data-name="1384046" d="M14.975,0H1.164A1.163,1.163,0,0,0,0,1.162V14.95a1.163,1.163,0,0,0,1.164,1.162H14.975a1.163,1.163,0,0,0,1.164-1.162V1.162A1.163,1.163,0,0,0,14.975,0ZM5.725,12.178H3.76v-5.9H5.725ZM4.742,5.47H4.729a1.023,1.023,0,1,1,.026-2.04,1.023,1.023,0,1,1-.013,2.04Zm8.069,6.709H10.846V9.02c0-.794-.285-1.335-1-1.335A1.076,1.076,0,0,0,8.842,8.4a1.341,1.341,0,0,0-.065.479v3.3H6.812s.026-5.349,0-5.9H8.778v.836a1.952,1.952,0,0,1,1.771-.974c1.293,0,2.263.844,2.263,2.657Zm0,0" transform="translate(340.272 2383.715)" fill="#fff"/>
    </g>
  </g>
</svg>
