<svg width="60" height="60" viewBox="0 0 60 60" fill="none" xmlns="http://www.w3.org/2000/svg">
<circle opacity="0.2" cx="30" cy="30" r="30" fill="#00B67A"/>
<path d="M37.26 38.308C34.95 38.308 33.036 37.538 31.518 35.998C30 34.458 29.252 32.566 29.252 30.3C29.252 28.034 30 26.12 31.518 24.602C33.036 23.062 34.95 22.292 37.26 22.292C40.054 22.292 42.562 23.7 43.882 25.922L41.264 27.44C40.494 26.054 39.02 25.24 37.26 25.24C35.764 25.24 34.554 25.702 33.63 26.648C32.728 27.594 32.266 28.804 32.266 30.3C32.266 31.774 32.728 32.984 33.63 33.93C34.554 34.876 35.764 35.338 37.26 35.338C39.02 35.338 40.538 34.502 41.264 33.16L43.882 34.678C42.562 36.9 40.076 38.308 37.26 38.308Z" fill="#00B67A"/>
<path d="M21.8086 38.3076C19.3886 38.3076 17.6946 37.3396 16.7266 35.3816L19.3446 33.8856C19.8286 34.8536 20.6426 35.3376 21.8086 35.3376C23.4146 35.3376 24.2066 34.5236 24.2066 33.2036V22.5996H27.2206V33.2036C27.2206 34.8096 26.7146 36.0636 25.7026 36.9656C24.6906 37.8676 23.3926 38.3076 21.8086 38.3076Z" fill="#00B67A"/>
</svg>
