<svg width="30" height="30" viewBox="0 0 30 30" fill="none" xmlns="http://www.w3.org/2000/svg">
<path d="M29.48 14.74C29.48 22.8803 22.8803 29.48 14.74 29.48C6.59872 29.48 0 22.8803 0 14.74C0 6.59872 6.59922 0 14.74 0C22.8803 0 29.48 6.59922 29.48 14.74Z" fill="#DA552F"/>
<path d="M16.7041 14.7401H12.5281V10.3181H16.7041C16.9944 10.3181 17.2819 10.3753 17.5502 10.4864C17.8184 10.5975 18.0622 10.7604 18.2675 10.9657C18.4728 11.171 18.6357 11.4148 18.7468 11.683C18.8579 11.9513 18.9151 12.2388 18.9151 12.5291C18.9151 12.8195 18.8579 13.107 18.7468 13.3752C18.6357 13.6435 18.4728 13.8872 18.2675 14.0925C18.0622 14.2978 17.8184 14.4607 17.5502 14.5718C17.2819 14.6829 16.9944 14.7401 16.7041 14.7401ZM16.7041 7.37012H9.58008V22.1101H12.5281V17.6881H16.7041C19.5533 17.6881 21.8631 15.3783 21.8631 12.5291C21.8631 9.67992 19.5533 7.37012 16.7041 7.37012Z" fill="white"/>
</svg>
