<svg xmlns="http://www.w3.org/2000/svg" xmlns:xlink="http://www.w3.org/1999/xlink" width="46.866" height="51.272" viewBox="0 0 46.866 51.272">
  <defs>
    <linearGradient id="linear-gradient" x1="1.002" y1="0.501" x2="0" y2="0.501" gradientUnits="objectBoundingBox">
      <stop offset="0" stop-color="#f6b8a9" stop-opacity="0"/>
      <stop offset="0.077" stop-color="#f9cec3" stop-opacity="0.157"/>
      <stop offset="0.175" stop-color="#fbe3dd" stop-opacity="0.357"/>
      <stop offset="0.275" stop-color="#fdf3f0" stop-opacity="0.561"/>
      <stop offset="0.379" stop-color="#fffcfb" stop-opacity="0.773"/>
      <stop offset="0.492" stop-color="#fff"/>
      <stop offset="0.641" stop-color="#fffdfc" stop-opacity="0.706"/>
      <stop offset="0.742" stop-color="#fef5f3" stop-opacity="0.51"/>
      <stop offset="0.828" stop-color="#fce9e4" stop-opacity="0.341"/>
      <stop offset="0.906" stop-color="#fad7cf" stop-opacity="0.184"/>
      <stop offset="0.978" stop-color="#f7c0b3" stop-opacity="0.043"/>
      <stop offset="1" stop-color="#f6b8a9" stop-opacity="0"/>
    </linearGradient>
    <linearGradient id="linear-gradient-2" x1="1" y1="0.5" x2="0" y2="0.5" gradientUnits="objectBoundingBox">
      <stop offset="0" stop-color="#f6b8a9"/>
      <stop offset="1" stop-color="#e20613"/>
    </linearGradient>
    <linearGradient id="linear-gradient-3" x1="1" y1="0.5" x2="0" y2="0.5" xlink:href="#linear-gradient-2"/>
    <linearGradient id="linear-gradient-4" x1="0.5" y1="1" x2="0.5" gradientUnits="objectBoundingBox">
      <stop offset="0" stop-color="#f6b8a9" stop-opacity="0"/>
      <stop offset="0.461" stop-color="#fff"/>
      <stop offset="0.584" stop-color="#fffcfb" stop-opacity="0.773"/>
      <stop offset="0.698" stop-color="#fdf3f0" stop-opacity="0.561"/>
      <stop offset="0.808" stop-color="#fbe3dd" stop-opacity="0.357"/>
      <stop offset="0.915" stop-color="#f9cec3" stop-opacity="0.157"/>
      <stop offset="1" stop-color="#f6b8a9" stop-opacity="0"/>
    </linearGradient>
    <linearGradient id="linear-gradient-5" x1="1" y1="0.497" x2="0" y2="0.497" xlink:href="#linear-gradient-4"/>
    <linearGradient id="linear-gradient-6" x1="0.499" y1="0.999" x2="0.499" y2="-0.002" gradientUnits="objectBoundingBox">
      <stop offset="0.003" stop-color="#bd1622" stop-opacity="0"/>
      <stop offset="1" stop-color="#5e0b00"/>
    </linearGradient>
    <linearGradient id="linear-gradient-7" x1="1" y1="0.499" x2="0" y2="0.499" gradientUnits="objectBoundingBox">
      <stop offset="0" stop-color="#fff"/>
      <stop offset="0.069" stop-color="#f0f5f8"/>
      <stop offset="0.325" stop-color="#bdd3e1"/>
      <stop offset="0.45" stop-color="#a9c6d8"/>
      <stop offset="0.604" stop-color="#ccdde8"/>
      <stop offset="0.761" stop-color="#e8f0f4"/>
      <stop offset="0.898" stop-color="#f9fbfc"/>
      <stop offset="1" stop-color="#fff"/>
    </linearGradient>
    <linearGradient id="linear-gradient-9" x1="1" y1="0.5" x2="-0.001" y2="0.5" gradientUnits="objectBoundingBox">
      <stop offset="0" stop-color="#fff"/>
      <stop offset="0.069" stop-color="#f0f5f8"/>
      <stop offset="0.325" stop-color="#bdd3e1"/>
      <stop offset="0.45" stop-color="#a9c6d8"/>
      <stop offset="0.553" stop-color="#b2ccdc"/>
      <stop offset="0.717" stop-color="#c9dbe6"/>
      <stop offset="0.921" stop-color="#eef4f7"/>
      <stop offset="1" stop-color="#fff"/>
    </linearGradient>
  </defs>
  <g id="Başlıksız-3" transform="translate(0)">
    <path id="Path_28655" data-name="Path 28655" d="M654.67,212.592s-.144-1.037-.144-1.313-.21-.144-1.877.42a28.171,28.171,0,0,1-3.61.971c-1.523.341-2.639.486-2.639.486a3.416,3.416,0,0,0,1.247.21,22.877,22.877,0,0,1,2.849-.63,15.685,15.685,0,0,0,2.77-.63A3.3,3.3,0,0,1,654.67,212.592Z" transform="translate(-625.598 -208.191)" fill="#54110f" opacity="0.2"/>
    <path id="Path_28656" data-name="Path 28656" d="M603.134,195.269s-.578-1.142-.827-1.562a9.967,9.967,0,0,0-1.457-1.72c-.263-.158-.88-.775-1.037-.525a6.729,6.729,0,0,0-.578,1.667,10.11,10.11,0,0,0,.158,1.772c0,.578-.052.21-.42.683s-.932.88-1.09.263.052-.525.21-1.615a22.353,22.353,0,0,1,.722-2.967c.092-.315.21-.722.525-.683a1.175,1.175,0,0,1,.984.42c.473.473,1.825,1.93,2.442,2.7.551.683.722,1.615.578,1.562" transform="translate(-567.945 -190.329)" opacity="0.36" fill="url(#linear-gradient)"/>
    <g id="Group_20964" data-name="Group 20964" transform="translate(0 0)">
      <path id="Path_28657" data-name="Path 28657" d="M510.889,196.025a9.591,9.591,0,0,0,3.387,0c1.93-.473,2.442-4,10.764-4.844s6.971-4.056,9.937-1.615c0,0,11.237,11.027,11.237,17.945.263.158.315,4.161,2.035,5.986,0,0,3.334,2.862-3.334,6.3a12.98,12.98,0,0,0-3.334,6.866,7.687,7.687,0,0,0-.263,3.177c.315,1.195-5.3-.722-5.3-.722a23.339,23.339,0,0,1,1.51-8.323s2.7-4.214.984-8.428-5.041-3.124-8.8-5-8.743-2.967-10.672-4.949A74.927,74.927,0,0,0,510.889,196.025Z" transform="translate(-502.217 -188.67)" fill="#e20613"/>
      <g id="Group_20961" data-name="Group 20961" transform="translate(15.217 0.417)" opacity="0.2">
        <path id="Path_28658" data-name="Path 28658" d="M648.548,192.05a9.893,9.893,0,0,0-1.313,4.516c.066,1.956-.971-1.313-4.03-.21-2.941,1.076-6.17.551-9.78,1.391,0,0-1.116-.144.21-.827,0,0,2.993-2.31,8.743-2.7C647.091,193.875,648.955,191.079,648.548,192.05Z" transform="translate(-632.987 -191.847)" fill="#ad3e3e"/>
        <path id="Path_28659" data-name="Path 28659" d="M648.592,192.145a9.989,9.989,0,0,0-1.313,4.5c.066,1.956-.971-1.313-4.017-.21-2.941,1.063-6.157.551-9.767,1.378,0,0-1.1-.144.21-.827,0,0,2.993-2.3,8.716-2.7C647.148,193.957,649.012,191.174,648.592,192.145Z" transform="translate(-633.043 -191.928)" fill="#ac3d3d"/>
        <path id="Path_28660" data-name="Path 28660" d="M648.552,192.173a9.974,9.974,0,0,0-1.313,4.49c.066,1.956-.971-1.313-4-.21-2.927,1.063-6.143.551-9.74,1.378,0,0-1.1-.144.21-.827,0,0,2.98-2.3,8.7-2.691C647.108,193.985,648.972,191.215,648.552,192.173Z" transform="translate(-633.004 -191.956)" fill="#ab3d3c"/>
        <path id="Path_28661" data-name="Path 28661" d="M648.526,192.245a9.961,9.961,0,0,0-1.313,4.476c.066,1.943-.971-1.313-4-.21-2.927,1.063-6.13.551-9.714,1.378,0,0-1.1-.144.21-.827,0,0,2.98-2.284,8.69-2.691C647.082,194.056,648.946,191.273,648.526,192.245Z" transform="translate(-632.977 -192.015)" fill="#aa3c3c"/>
        <path id="Path_28662" data-name="Path 28662" d="M648.5,192.273a9.894,9.894,0,0,0-1.313,4.476c.066,1.943-.958-1.313-3.991-.21-2.914,1.063-6.117.551-9.7,1.378,0,0-1.1-.131.21-.827,0,0,2.967-2.284,8.664-2.678C647.056,194.085,648.92,191.315,648.5,192.273Z" transform="translate(-632.951 -192.043)" fill="#a93b3b"/>
        <path id="Path_28663" data-name="Path 28663" d="M648.469,192.34a9.763,9.763,0,0,0-1.3,4.463c.066,1.943-.958-1.3-3.978-.21-2.914,1.063-6.1.551-9.675,1.378,0,0-1.1-.131.21-.827,0,0,2.967-2.284,8.651-2.678C647.025,194.138,648.876,191.369,648.469,192.34Z" transform="translate(-632.921 -192.097)" fill="#a83a3a"/>
        <path id="Path_28664" data-name="Path 28664" d="M648.45,192.367a9.857,9.857,0,0,0-1.3,4.45c.066,1.943-.958-1.3-3.978-.21-2.914,1.063-6.091.551-9.662,1.365,0,0-1.09-.131.21-.827,0,0,2.954-2.271,8.638-2.678C647.006,194.166,648.857,191.409,648.45,192.367Z" transform="translate(-632.902 -192.124)" fill="#a73a39"/>
        <path id="Path_28665" data-name="Path 28665" d="M648.409,192.4a9.843,9.843,0,0,0-1.3,4.437c.066,1.93-.958-1.3-3.964-.21-2.9,1.05-6.078.551-9.635,1.365,0,0-1.089-.131.21-.814,0,0,2.954-2.271,8.611-2.665C646.978,194.194,648.816,191.45,648.409,192.4Z" transform="translate(-632.86 -192.152)" fill="#a63939"/>
        <path id="Path_28666" data-name="Path 28666" d="M648.382,192.463a9.843,9.843,0,0,0-1.3,4.437c.066,1.93-.958-1.3-3.951-.21-2.9,1.05-6.065.551-9.622,1.365,0,0-1.09-.131.21-.814,0,0,2.94-2.271,8.6-2.665C646.951,194.248,648.789,191.5,648.382,192.463Z" transform="translate(-632.834 -192.206)" fill="#a53838"/>
        <path id="Path_28667" data-name="Path 28667" d="M648.356,192.491a9.763,9.763,0,0,0-1.3,4.424c.066,1.93-.958-1.3-3.951-.21-2.888,1.05-6.052.538-9.6,1.365,0,0-1.09-.131.21-.814,0,0,2.941-2.258,8.572-2.652C646.925,194.276,648.763,191.546,648.356,192.491Z" transform="translate(-632.808 -192.234)" fill="#a43737"/>
        <path id="Path_28668" data-name="Path 28668" d="M648.317,192.562a9.808,9.808,0,0,0-1.287,4.411c.066,1.917-.945-1.286-3.938-.21-2.888,1.05-6.039.538-9.583,1.352,0,0-1.09-.131.21-.814,0,0,2.927-2.258,8.559-2.652C646.886,194.348,648.724,191.6,648.317,192.562Z" transform="translate(-632.768 -192.293)" fill="#a33736"/>
        <path id="Path_28669" data-name="Path 28669" d="M648.28,192.591A9.809,9.809,0,0,0,646.994,197c.066,1.917-.945-1.286-3.925-.2-2.875,1.05-6.025.538-9.557,1.352,0,0-1.09-.131.2-.814,0,0,2.927-2.245,8.546-2.639C646.849,194.376,648.687,191.646,648.28,192.591Z" transform="translate(-632.732 -192.321)" fill="#a23636"/>
        <path id="Path_28670" data-name="Path 28670" d="M648.346,192.686a9.726,9.726,0,0,0-1.286,4.4c.066,1.917-.945-1.286-3.925-.2-2.875,1.05-6.025.538-9.53,1.352,0,0-1.076-.131.2-.814,0,0,2.927-2.245,8.52-2.639C646.928,194.458,648.753,191.74,648.346,192.686Z" transform="translate(-632.811 -192.403)" fill="#a13535"/>
        <path id="Path_28671" data-name="Path 28671" d="M648.32,192.686a9.712,9.712,0,0,0-1.286,4.385c.066,1.9-.945-1.286-3.912-.2-2.862,1.037-6.012.538-9.517,1.352,0,0-1.076-.131.2-.814,0,0,2.914-2.245,8.506-2.625C646.9,194.458,648.727,191.74,648.32,192.686Z" transform="translate(-632.784 -192.403)" fill="#a03534"/>
        <path id="Path_28672" data-name="Path 28672" d="M648.278,192.781A9.516,9.516,0,0,0,647,197.152c.066,1.9-.945-1.273-3.912-.2-2.862,1.037-6,.538-9.491,1.352,0,0-1.077-.131.2-.814,0,0,2.914-2.232,8.48-2.625C646.873,194.54,648.685,191.835,648.278,192.781Z" transform="translate(-632.742 -192.485)" fill="#9f3433"/>
        <path id="Path_28673" data-name="Path 28673" d="M648.252,192.781a9.691,9.691,0,0,0-1.273,4.371c.066,1.9-.945-1.273-3.9-.2-2.849,1.037-5.986.538-9.478,1.339,0,0-1.076-.131.2-.8,0,0,2.9-2.232,8.467-2.625C646.847,194.54,648.659,191.835,648.252,192.781Z" transform="translate(-632.716 -192.485)" fill="#9e3333"/>
        <path id="Path_28674" data-name="Path 28674" d="M648.212,192.808a9.677,9.677,0,0,0-1.273,4.358c.066,1.89-.932-1.273-3.886-.2-2.849,1.037-5.973.538-9.452,1.339,0,0-1.076-.131.2-.8,0,0,2.9-2.232,8.454-2.612C646.808,194.567,648.619,191.876,648.212,192.808Z" transform="translate(-632.677 -192.513)" fill="#9d3232"/>
        <path id="Path_28675" data-name="Path 28675" d="M648.2,192.88a9.6,9.6,0,0,0-1.273,4.345c.066,1.89-.932-1.273-3.886-.2-2.836,1.037-5.96.538-9.438,1.339,0,0-1.076-.131.2-.8,0,0,2.888-2.219,8.428-2.612C646.794,194.639,648.606,191.935,648.2,192.88Z" transform="translate(-632.664 -192.571)" fill="#9c3231"/>
        <path id="Path_28676" data-name="Path 28676" d="M648.176,192.908a9.6,9.6,0,0,0-1.273,4.345c.066,1.89-.932-1.273-3.873-.2-2.835,1.037-5.947.538-9.412,1.339,0,0-1.063-.131.2-.8,0,0,2.888-2.219,8.415-2.6C646.771,194.667,648.57,191.976,648.176,192.908Z" transform="translate(-632.641 -192.599)" fill="#9b3130"/>
        <path id="Path_28677" data-name="Path 28677" d="M648.123,193a9.642,9.642,0,0,0-1.26,4.332c.066,1.877-.932-1.26-3.859-.2-2.822,1.024-5.934.538-9.386,1.326,0,0-1.063-.131.2-.8,0,0,2.875-2.219,8.388-2.6C646.719,194.749,648.517,192.071,648.123,193Z" transform="translate(-632.588 -192.681)" fill="#9a302f"/>
        <path id="Path_28678" data-name="Path 28678" d="M648.11,193a9.56,9.56,0,0,0-1.26,4.319c.066,1.877-.932-1.26-3.859-.2-2.822,1.024-5.92.538-9.373,1.326,0,0-1.063-.131.2-.8,0,0,2.875-2.205,8.375-2.586C646.706,194.749,648.5,192.071,648.11,193Z" transform="translate(-632.575 -192.681)" fill="#992f2f"/>
        <path id="Path_28679" data-name="Path 28679" d="M648.069,193.1a9.546,9.546,0,0,0-1.26,4.306c.066,1.877-.932-1.26-3.846-.2-2.809,1.024-5.907.525-9.347,1.326,0,0-1.063-.131.2-.8,0,0,2.862-2.205,8.362-2.586C646.677,194.831,648.463,192.166,648.069,193.1Z" transform="translate(-632.533 -192.763)" fill="#982f2e"/>
        <path id="Path_28680" data-name="Path 28680" d="M648.042,193.1a9.479,9.479,0,0,0-1.26,4.306c.066,1.864-.932-1.26-3.833-.2-2.809,1.024-5.894.525-9.333,1.326,0,0-1.063-.131.2-.788,0,0,2.862-2.192,8.336-2.586C646.651,194.831,648.436,192.166,648.042,193.1Z" transform="translate(-632.507 -192.763)" fill="#972e2d"/>
        <path id="Path_28681" data-name="Path 28681" d="M648.01,193.131a9.464,9.464,0,0,0-1.26,4.293c.066,1.864-.919-1.26-3.833-.2-2.809,1.024-5.881.525-9.307,1.326,0,0-1.05-.131.2-.788,0,0,2.849-2.192,8.323-2.573C646.619,194.877,648.4,192.212,648.01,193.131Z" transform="translate(-632.475 -192.796)" fill="#962d2c"/>
        <path id="Path_28682" data-name="Path 28682" d="M648.046,193.226a9.511,9.511,0,0,0-1.247,4.279c.066,1.864-.919-1.247-3.82-.2-2.8,1.011-5.868.525-9.294,1.313,0,0-1.05-.131.2-.788,0,0,2.849-2.192,8.3-2.573C646.668,194.958,648.453,192.307,648.046,193.226Z" transform="translate(-632.524 -192.877)" fill="#952d2c"/>
        <path id="Path_28683" data-name="Path 28683" d="M648.029,193.226a9.429,9.429,0,0,0-1.247,4.266c.066,1.864-.919-1.247-3.807-.2-2.8,1.011-5.855.525-9.268,1.313,0,0-1.05-.131.2-.788,0,0,2.835-2.179,8.283-2.56C646.651,194.958,648.423,192.307,648.029,193.226Z" transform="translate(-632.507 -192.877)" fill="#942c2b"/>
        <path id="Path_28684" data-name="Path 28684" d="M648,193.321a9.429,9.429,0,0,0-1.247,4.266c.066,1.851-.919-1.247-3.807-.2-2.783,1.011-5.842.525-9.242,1.313,0,0-1.05-.131.2-.788,0,0,2.835-2.179,8.27-2.56C646.624,195.04,648.4,192.4,648,193.321Z" transform="translate(-632.48 -192.959)" fill="#932b2a"/>
        <path id="Path_28685" data-name="Path 28685" d="M647.974,193.321a9.348,9.348,0,0,0-1.247,4.253c.066,1.851-.919-1.247-3.794-.2-2.783,1.011-5.828.525-9.228,1.313,0,0-1.05-.131.2-.788,0,0,2.822-2.179,8.244-2.547C646.609,195.04,648.368,192.4,647.974,193.321Z" transform="translate(-632.452 -192.959)" fill="#922a29"/>
        <path id="Path_28686" data-name="Path 28686" d="M647.948,193.415a9.514,9.514,0,0,0-1.247,4.24c.066,1.851-.919-1.247-3.794-.2-2.77,1.011-5.815.525-9.2,1.3,0,0-1.05-.131.2-.788,0,0,2.822-2.166,8.231-2.547C646.583,195.122,648.342,192.5,647.948,193.415Z" transform="translate(-632.426 -193.041)" fill="#922a29"/>
        <path id="Path_28687" data-name="Path 28687" d="M647.9,193.443a9.394,9.394,0,0,0-1.234,4.24c.066,1.838-.906-1.234-3.781-.2-2.77,1.011-5.8.525-9.189,1.3,0,0-1.037-.131.2-.788,0,0,2.809-2.166,8.2-2.547C646.538,195.15,648.3,192.538,647.9,193.443Z" transform="translate(-632.38 -193.069)" fill="#912928"/>
        <path id="Path_28688" data-name="Path 28688" d="M647.863,193.516a9.313,9.313,0,0,0-1.234,4.227c.066,1.838-.906-1.234-3.768-.2-2.757,1-5.789.525-9.163,1.3,0,0-1.037-.131.2-.775,0,0,2.809-2.153,8.191-2.534C646.5,195.222,648.257,192.6,647.863,193.516Z" transform="translate(-632.341 -193.128)" fill="#902827"/>
        <path id="Path_28689" data-name="Path 28689" d="M647.872,193.543a9.3,9.3,0,0,0-1.234,4.214c.066,1.838-.906-1.234-3.768-.2-2.757,1-5.776.525-9.15,1.3,0,0-1.037-.131.2-.775,0,0,2.8-2.153,8.178-2.534C646.507,195.25,648.253,192.638,647.872,193.543Z" transform="translate(-632.35 -193.156)" fill="#8f2726"/>
        <path id="Path_28690" data-name="Path 28690" d="M647.833,193.543a9.285,9.285,0,0,0-1.234,4.2c.052,1.825-.906-1.234-3.754-.2-2.744,1-5.763.512-9.123,1.3,0,0-1.037-.131.2-.775,0,0,2.8-2.153,8.152-2.52C646.468,195.25,648.214,192.638,647.833,193.543Z" transform="translate(-632.311 -193.156)" fill="#8e2726"/>
        <path id="Path_28691" data-name="Path 28691" d="M647.793,193.638a9.277,9.277,0,0,0-1.221,4.2c.052,1.825-.906-1.221-3.741-.2-2.744,1-5.75.512-9.11,1.286,0,0-1.037-.131.2-.775,0,0,2.783-2.14,8.139-2.52C646.428,195.332,648.174,192.732,647.793,193.638Z" transform="translate(-632.271 -193.237)" fill="#8d2625"/>
        <path id="Path_28692" data-name="Path 28692" d="M647.765,193.666a9.262,9.262,0,0,0-1.221,4.188c.052,1.825-.906-1.221-3.741-.2-2.73,1-5.737.512-9.084,1.286,0,0-1.037-.131.2-.775,0,0,2.783-2.14,8.113-2.507C646.413,195.359,648.146,192.773,647.765,193.666Z" transform="translate(-632.243 -193.265)" fill="#8c2524"/>
        <path id="Path_28693" data-name="Path 28693" d="M647.795,193.733a9.182,9.182,0,0,0-1.221,4.174c.052,1.812-.906-1.221-3.728-.2-2.73,1-5.723.512-9.058,1.286,0,0-1.024-.131.2-.775a15.841,15.841,0,0,1,8.1-2.507C646.456,195.413,648.189,192.827,647.795,193.733Z" transform="translate(-632.286 -193.319)" fill="#8b2523"/>
        <path id="Path_28694" data-name="Path 28694" d="M647.769,193.761a9.182,9.182,0,0,0-1.221,4.174c.053,1.812-.893-1.221-3.715-.2-2.717.985-5.71.512-9.045,1.286,0,0-1.024-.131.2-.775,0,0,2.77-2.127,8.086-2.507C646.43,195.441,648.162,192.868,647.769,193.761Z" transform="translate(-632.259 -193.347)" fill="#8a2423"/>
        <path id="Path_28695" data-name="Path 28695" d="M647.742,193.833a9.348,9.348,0,0,0-1.221,4.161c.053,1.812-.893-1.221-3.715-.2-2.717.985-5.7.512-9.018,1.273,0,0-1.024-.131.2-.761a15.792,15.792,0,0,1,8.06-2.494C646.4,195.513,648.136,192.927,647.742,193.833Z" transform="translate(-632.233 -193.406)" fill="#892322"/>
        <path id="Path_28696" data-name="Path 28696" d="M647.725,193.861a9.146,9.146,0,0,0-1.208,4.148c.052,1.8-.893-1.208-3.7-.2-2.7.985-5.684.512-9.005,1.273,0,0-1.024-.131.2-.761,0,0,2.757-2.127,8.047-2.494C646.386,195.541,648.106,192.968,647.725,193.861Z" transform="translate(-632.216 -193.434)" fill="#882221"/>
        <path id="Path_28697" data-name="Path 28697" d="M647.686,193.889a9.132,9.132,0,0,0-1.208,4.135c.052,1.8-.893-1.208-3.689-.2-2.7.985-5.671.512-8.979,1.273,0,0-1.024-.131.2-.761a15.742,15.742,0,0,1,8.021-2.481C646.347,195.569,648.067,193.009,647.686,193.889Z" transform="translate(-632.177 -193.461)" fill="#872220"/>
        <path id="Path_28698" data-name="Path 28698" d="M647.667,193.956a9.132,9.132,0,0,0-1.208,4.135c.052,1.8-.893-1.208-3.689-.2-2.7.985-5.658.512-8.966,1.273,0,0-1.011-.131.2-.761a15.656,15.656,0,0,1,8.008-2.481C646.328,195.623,648.048,193.063,647.667,193.956Z" transform="translate(-632.158 -193.516)" fill="#86211f"/>
        <path id="Path_28699" data-name="Path 28699" d="M647.629,193.984a9.051,9.051,0,0,0-1.208,4.122c.052,1.8-.893-1.208-3.676-.184-2.691.985-5.645.512-8.94,1.273,0,0-1.011-.131.184-.761a15.713,15.713,0,0,1,7.995-2.468C646.3,195.651,648.009,193.1,647.629,193.984Z" transform="translate(-632.119 -193.544)" fill="#85201f"/>
        <path id="Path_28700" data-name="Path 28700" d="M647.589,194.051a9.216,9.216,0,0,0-1.208,4.109c.052,1.785-.88-1.208-3.663-.184-2.691.971-5.632.512-8.913,1.26,0,0-1.011-.131.184-.761a15.607,15.607,0,0,1,7.968-2.468C646.263,195.7,647.97,193.158,647.589,194.051Z" transform="translate(-632.08 -193.598)" fill="#841f1e"/>
        <path id="Path_28701" data-name="Path 28701" d="M647.563,194.078a9.015,9.015,0,0,0-1.195,4.1c.052,1.785-.88-1.195-3.663-.184-2.678.971-5.618.5-8.9,1.26,0,0-1.011-.131.184-.761a15.588,15.588,0,0,1,7.955-2.468C646.237,195.733,647.944,193.2,647.563,194.078Z" transform="translate(-632.054 -193.625)" fill="#831f1d"/>
        <path id="Path_28702" data-name="Path 28702" d="M647.546,194.179a9.015,9.015,0,0,0-1.195,4.1c.052,1.785-.88-1.195-3.649-.184-2.678.971-5.605.5-8.874,1.26,0,0-1.011-.131.184-.761a15.558,15.558,0,0,1,7.929-2.455C646.22,195.833,647.913,193.3,647.546,194.179Z" transform="translate(-632.036 -193.712)" fill="#821e1c"/>
        <path id="Path_28703" data-name="Path 28703" d="M647.533,194.179a9,9,0,0,0-1.195,4.083c.052,1.772-.88-1.195-3.649-.184-2.665.971-5.592.5-8.861,1.26,0,0-1.011-.131.184-.748a15.54,15.54,0,0,1,7.916-2.455C646.207,195.833,647.9,193.3,647.533,194.179Z" transform="translate(-632.023 -193.712)" fill="#811d1c"/>
        <path id="Path_28704" data-name="Path 28704" d="M647.487,194.274a9.1,9.1,0,0,0-1.195,4.069c.053,1.772-.88-1.195-3.636-.184-2.665.971-5.579.5-8.835,1.247,0,0-1-.131.184-.748a15.378,15.378,0,0,1,7.9-2.442C646.161,195.915,647.855,193.394,647.487,194.274Z" transform="translate(-631.978 -193.794)" fill="#801d1b"/>
        <path id="Path_28705" data-name="Path 28705" d="M647.536,194.274a9.1,9.1,0,0,0-1.195,4.069c.052,1.772-.88-1.195-3.623-.184-2.652.971-5.566.5-8.822,1.247,0,0-1-.131.184-.748a15.49,15.49,0,0,1,7.876-2.442C646.224,195.915,647.917,193.394,647.536,194.274Z" transform="translate(-632.04 -193.794)" fill="#7f1c1a"/>
        <path id="Path_28706" data-name="Path 28706" d="M647.495,194.3a8.966,8.966,0,0,0-1.181,4.056c.052,1.759-.88-1.181-3.623-.184-2.652.958-5.553.5-8.8,1.247,0,0-1-.131.184-.748a15.329,15.329,0,0,1,7.863-2.429C646.2,195.942,647.875,193.435,647.495,194.3Z" transform="translate(-631.999 -193.822)" fill="#7e1b19"/>
        <path id="Path_28707" data-name="Path 28707" d="M647.455,194.4a8.885,8.885,0,0,0-1.181,4.043c.052,1.759-.866-1.181-3.61-.184-2.639.958-5.54.5-8.769,1.247,0,0-1-.118.184-.748a15.442,15.442,0,0,1,7.837-2.429C646.156,196.024,647.836,193.53,647.455,194.4Z" transform="translate(-631.959 -193.904)" fill="#7d1a19"/>
        <path id="Path_28708" data-name="Path 28708" d="M647.429,194.4a8.871,8.871,0,0,0-1.181,4.03c.053,1.759-.866-1.181-3.6-.184-2.639.958-5.527.5-8.756,1.247,0,0-1-.118.184-.748a15.279,15.279,0,0,1,7.824-2.415C646.129,196.024,647.81,193.53,647.429,194.4Z" transform="translate(-631.933 -193.904)" fill="#7c1a18"/>
        <path id="Path_28709" data-name="Path 28709" d="M647.425,194.5a8.981,8.981,0,0,0-1.182,4.03c.053,1.746-.866-1.181-3.6-.184-2.625.958-5.513.5-8.73,1.234,0,0-1-.118.184-.748a15.261,15.261,0,0,1,7.811-2.415C646.125,196.124,647.793,193.63,647.425,194.5Z" transform="translate(-631.929 -193.99)" fill="#7b1917"/>
        <path id="Path_28710" data-name="Path 28710" d="M647.38,194.5a8.849,8.849,0,0,0-1.168,4.017c.052,1.746-.866-1.168-3.584-.184-2.625.958-5.5.5-8.717,1.234,0,0-.984-.118.184-.735a15.306,15.306,0,0,1,7.784-2.415C646.08,196.124,647.747,193.63,647.38,194.5Z" transform="translate(-631.884 -193.99)" fill="#7a1816"/>
        <path id="Path_28711" data-name="Path 28711" d="M647.34,194.591a8.835,8.835,0,0,0-1.168,4c.053,1.746-.866-1.168-3.571-.184-2.612.958-5.487.5-8.69,1.234,0,0-.985-.118.184-.735a15.211,15.211,0,0,1,7.771-2.4C646.041,196.206,647.708,193.725,647.34,194.591Z" transform="translate(-631.844 -194.072)" fill="#791716"/>
        <path id="Path_28712" data-name="Path 28712" d="M647.327,194.591a8.768,8.768,0,0,0-1.168,4c.052,1.733-.866-1.168-3.571-.184-2.612.945-5.474.486-8.677,1.234,0,0-.985-.118.184-.735a15.106,15.106,0,0,1,7.745-2.4C646.028,196.206,647.695,193.725,647.327,194.591Z" transform="translate(-631.831 -194.072)" fill="#781715"/>
        <path id="Path_28713" data-name="Path 28713" d="M647.286,194.686a8.932,8.932,0,0,0-1.168,3.991c.053,1.733-.853-1.168-3.557-.184-2.6.945-5.461.486-8.651,1.221,0,0-.985-.118.184-.735a15.162,15.162,0,0,1,7.732-2.389C646,196.288,647.653,193.82,647.286,194.686Z" transform="translate(-631.789 -194.154)" fill="#771614"/>
      </g>
      <g id="Group_20962" data-name="Group 20962" transform="translate(31.587 1.146)" opacity="0.4">
        <path id="Path_28714" data-name="Path 28714" d="M585.917,197.4s1.313,1.391,1.8,2.008a10.179,10.179,0,0,1,1.313,3.82c.144,1.247,1.392,2.98,1.8,3.82s-2.363-3.256-3.334-3.886-2.087-1.391-2.087-1.943C585.431,200.656,585.142,197.544,585.917,197.4Z" transform="translate(-585.373 -197.4)" fill="#992f2e"/>
        <path id="Path_28715" data-name="Path 28715" d="M585.8,197.6s1.313,1.378,1.8,2a10.18,10.18,0,0,1,1.313,3.794c.131,1.247,1.378,2.967,1.8,3.794s-2.35-3.242-3.308-3.859-2.074-1.378-2.074-1.93S585.043,197.744,585.8,197.6Z" transform="translate(-585.247 -197.574)" fill="#982e2d"/>
        <path id="Path_28716" data-name="Path 28716" d="M586.017,197.9s1.3,1.365,1.785,1.982a9.9,9.9,0,0,1,1.3,3.768c.131,1.234,1.365,2.941,1.785,3.768s-2.324-3.216-3.282-3.833-2.048-1.365-2.048-1.917C585.531,201.116,585.255,198.031,586.017,197.9Z" transform="translate(-585.447 -197.834)" fill="#972e2d"/>
        <path id="Path_28717" data-name="Path 28717" d="M586.208,198.1s1.286,1.365,1.772,1.969a10.073,10.073,0,0,1,1.286,3.741c.131,1.221,1.365,2.927,1.772,3.741s-2.31-3.2-3.269-3.807-2.035-1.365-2.035-1.9S585.46,198.244,586.208,198.1Z" transform="translate(-585.625 -198.008)" fill="#962d2c"/>
        <path id="Path_28718" data-name="Path 28718" d="M586.3,198.4s1.286,1.352,1.759,1.956a9.847,9.847,0,0,1,1.286,3.715c.131,1.221,1.352,2.9,1.759,3.715s-2.3-3.177-3.242-3.781-2.022-1.352-2.022-1.89S585.556,198.531,586.3,198.4Z" transform="translate(-585.708 -198.269)" fill="#952c2b"/>
        <path id="Path_28719" data-name="Path 28719" d="M586.5,198.6s1.273,1.339,1.746,1.943a9.791,9.791,0,0,1,1.273,3.689c.131,1.208,1.339,2.888,1.746,3.689s-2.284-3.151-3.216-3.754-2.008-1.339-2.008-1.877S585.764,198.731,586.5,198.6Z" transform="translate(-585.89 -198.442)" fill="#942b2a"/>
        <path id="Path_28720" data-name="Path 28720" d="M586.61,198.9s1.26,1.339,1.733,1.93a9.966,9.966,0,0,1,1.273,3.663c.131,1.195,1.339,2.862,1.733,3.663s-2.271-3.137-3.2-3.728-2-1.339-2-1.864S585.875,199.031,586.61,198.9Z" transform="translate(-585.987 -198.703)" fill="#932b2a"/>
        <path id="Path_28721" data-name="Path 28721" d="M586.8,199.1s1.26,1.326,1.72,1.917a9.826,9.826,0,0,1,1.26,3.636c.131,1.195,1.326,2.849,1.72,3.636s-2.258-3.111-3.177-3.7-1.982-1.326-1.982-1.851S586.082,199.231,586.8,199.1Z" transform="translate(-586.169 -198.877)" fill="#922a29"/>
        <path id="Path_28722" data-name="Path 28722" d="M587,199.3s1.247,1.313,1.707,1.9a9.674,9.674,0,0,1,1.247,3.623c.131,1.181,1.313,2.822,1.707,3.623s-2.232-3.085-3.151-3.689-1.969-1.313-1.969-1.838S586.28,199.431,587,199.3Z" transform="translate(-586.353 -199.051)" fill="#912928"/>
        <path id="Path_28723" data-name="Path 28723" d="M587.091,199.6s1.247,1.313,1.693,1.89a9.615,9.615,0,0,1,1.247,3.6c.131,1.181,1.313,2.809,1.693,3.6s-2.218-3.072-3.137-3.663-1.956-1.313-1.956-1.825S586.382,199.731,587.091,199.6Z" transform="translate(-586.429 -199.311)" fill="#902927"/>
        <path id="Path_28724" data-name="Path 28724" d="M587.2,199.8s1.234,1.3,1.68,1.877a9.475,9.475,0,0,1,1.234,3.571c.131,1.168,1.3,2.783,1.68,3.571s-2.205-3.046-3.111-3.636-1.943-1.3-1.943-1.812S586.477,199.931,587.2,199.8Z" transform="translate(-586.511 -199.485)" fill="#8f2827"/>
        <path id="Path_28725" data-name="Path 28725" d="M587.209,200.1s1.221,1.286,1.68,1.864a9.656,9.656,0,0,1,1.221,3.544c.131,1.155,1.286,2.77,1.68,3.544s-2.192-3.032-3.1-3.61-1.93-1.286-1.93-1.8S586.5,200.218,587.209,200.1Z" transform="translate(-586.508 -199.746)" fill="#8e2726"/>
        <path id="Path_28726" data-name="Path 28726" d="M587.3,200.3s1.221,1.273,1.667,1.851a9.509,9.509,0,0,1,1.221,3.518c.131,1.155,1.273,2.757,1.667,3.518s-2.179-3.006-3.072-3.584-1.917-1.273-1.917-1.785S586.591,200.431,587.3,200.3Z" transform="translate(-586.585 -199.919)" fill="#8d2625"/>
        <path id="Path_28727" data-name="Path 28727" d="M587.493,200.5s1.208,1.273,1.654,1.838a9.455,9.455,0,0,1,1.208,3.492c.131,1.142,1.273,2.73,1.654,3.492s-2.153-2.98-3.046-3.557-1.9-1.273-1.9-1.772S586.8,200.631,587.493,200.5Z" transform="translate(-586.765 -200.093)" fill="#8c2624"/>
        <path id="Path_28728" data-name="Path 28728" d="M587.694,200.8s1.195,1.26,1.641,1.825a9.089,9.089,0,0,1,1.195,3.466c.131,1.129,1.26,2.717,1.641,3.466s-2.14-2.967-3.032-3.531-1.89-1.26-1.89-1.772C587.247,203.767,587,200.918,587.694,200.8Z" transform="translate(-586.953 -200.354)" fill="#8b2524"/>
        <path id="Path_28729" data-name="Path 28729" d="M587.78,201s1.195,1.247,1.628,1.812a9.407,9.407,0,0,1,1.195,3.439c.131,1.129,1.247,2.691,1.628,3.439s-2.127-2.94-3.006-3.5-1.877-1.247-1.877-1.759C587.347,203.941,587.1,201.131,587.78,201Z" transform="translate(-587.027 -200.527)" fill="#8a2423"/>
        <path id="Path_28730" data-name="Path 28730" d="M588,201.3s1.181,1.247,1.615,1.8a9.355,9.355,0,0,1,1.181,3.413c.118,1.116,1.247,2.678,1.615,3.413s-2.113-2.927-2.98-3.479-1.864-1.247-1.864-1.746S587.314,201.418,588,201.3Z" transform="translate(-587.23 -200.788)" fill="#892422"/>
        <path id="Path_28731" data-name="Path 28731" d="M588.194,201.5s1.168,1.234,1.6,1.785a8.97,8.97,0,0,1,1.168,3.4c.118,1.116,1.234,2.652,1.6,3.4s-2.1-2.9-2.967-3.452-1.851-1.234-1.851-1.733S587.525,201.618,588.194,201.5Z" transform="translate(-587.414 -200.962)" fill="#882321"/>
        <path id="Path_28732" data-name="Path 28732" d="M588.284,201.8s1.168,1.221,1.588,1.772a9.14,9.14,0,0,1,1.168,3.374c.118,1.1,1.221,2.639,1.588,3.374s-2.087-2.875-2.94-3.426-1.838-1.221-1.838-1.72S587.615,201.918,588.284,201.8Z" transform="translate(-587.492 -201.222)" fill="#882221"/>
        <path id="Path_28733" data-name="Path 28733" d="M588.478,202s1.155,1.221,1.575,1.759a9,9,0,0,1,1.155,3.347c.118,1.09,1.221,2.612,1.575,3.347s-2.061-2.862-2.914-3.4-1.825-1.221-1.825-1.707S587.821,202.118,588.478,202Z" transform="translate(-587.672 -201.396)" fill="#872120"/>
        <path id="Path_28734" data-name="Path 28734" d="M588.383,202.2s1.142,1.208,1.575,1.746a8.863,8.863,0,0,1,1.142,3.321c.118,1.09,1.208,2.6,1.575,3.321s-2.048-2.835-2.9-3.374-1.812-1.208-1.812-1.693S587.714,202.331,588.383,202.2Z" transform="translate(-587.551 -201.57)" fill="#86211f"/>
        <path id="Path_28735" data-name="Path 28735" d="M588.492,202.5s1.142,1.195,1.562,1.733a8.8,8.8,0,0,1,1.142,3.295c.118,1.076,1.195,2.573,1.562,3.295s-2.035-2.809-2.875-3.361-1.8-1.195-1.8-1.68S587.822,202.618,588.492,202.5Z" transform="translate(-587.646 -201.831)" fill="#85201e"/>
        <path id="Path_28736" data-name="Path 28736" d="M588.686,202.7s1.129,1.195,1.549,1.72a8.748,8.748,0,0,1,1.129,3.269c.118,1.076,1.195,2.56,1.549,3.269s-2.022-2.8-2.849-3.334-1.785-1.195-1.785-1.667S588.03,202.818,588.686,202.7Z" transform="translate(-587.828 -202.004)" fill="#841f1e"/>
        <path id="Path_28737" data-name="Path 28737" d="M588.888,203s1.116,1.181,1.536,1.707a8.759,8.759,0,0,1,1.116,3.242c.118,1.063,1.181,2.534,1.536,3.242s-2.009-2.77-2.836-3.308-1.772-1.181-1.772-1.654S588.231,203.118,588.888,203Z" transform="translate(-588.016 -202.265)" fill="#831f1d"/>
        <path id="Path_28738" data-name="Path 28738" d="M588.974,203.2s1.116,1.168,1.523,1.693a8.7,8.7,0,0,1,1.116,3.216,11.6,11.6,0,0,0,1.523,3.216c.354.709-2-2.757-2.809-3.282s-1.759-1.168-1.759-1.641C588.567,205.957,588.331,203.318,588.974,203.2Z" transform="translate(-588.089 -202.439)" fill="#821e1c"/>
        <path id="Path_28739" data-name="Path 28739" d="M589.171,203.4s1.1,1.168,1.51,1.68a8.645,8.645,0,0,1,1.1,3.19,11.792,11.792,0,0,0,1.51,3.19c.354.7-1.969-2.73-2.783-3.256s-1.746-1.168-1.746-1.628S588.528,203.518,589.171,203.4Z" transform="translate(-588.273 -202.612)" fill="#811d1b"/>
        <path id="Path_28740" data-name="Path 28740" d="M589.386,203.7s1.09,1.155,1.5,1.667a8.267,8.267,0,0,1,1.09,3.177,11.874,11.874,0,0,0,1.5,3.177c.341.7-1.956-2.7-2.77-3.229s-1.733-1.155-1.733-1.615S588.756,203.818,589.386,203.7Z" transform="translate(-588.475 -202.873)" fill="#801c1b"/>
        <path id="Path_28741" data-name="Path 28741" d="M589.477,203.9s1.09,1.142,1.483,1.654a8.349,8.349,0,0,1,1.089,3.151,11.876,11.876,0,0,0,1.483,3.151c.341.683-1.943-2.691-2.744-3.2s-1.72-1.142-1.72-1.6S588.847,204.018,589.477,203.9Z" transform="translate(-588.553 -203.047)" fill="#7f1c1a"/>
        <path id="Path_28742" data-name="Path 28742" d="M589.672,204.2s1.076,1.129,1.47,1.641a8.53,8.53,0,0,1,1.076,3.124,11.486,11.486,0,0,0,1.47,3.124c.341.683-1.93-2.665-2.717-3.177s-1.707-1.129-1.707-1.588S589.055,204.305,589.672,204.2Z" transform="translate(-588.734 -203.307)" fill="#7e1b19"/>
        <path id="Path_28743" data-name="Path 28743" d="M589.873,204.4s1.063,1.129,1.457,1.628a8.241,8.241,0,0,1,1.063,3.1,11.887,11.887,0,0,0,1.457,3.1c.341.669-1.917-2.652-2.7-3.151s-1.693-1.129-1.693-1.575C589.479,207.052,589.256,204.518,589.873,204.4Z" transform="translate(-588.923 -203.481)" fill="#7d1a18"/>
        <path id="Path_28744" data-name="Path 28744" d="M589.664,204.6s1.063,1.116,1.457,1.615a8.244,8.244,0,0,1,1.063,3.072,11.115,11.115,0,0,0,1.457,3.072c.341.669-1.9-2.625-2.678-3.124s-1.68-1.116-1.68-1.562S589.047,204.718,589.664,204.6Z" transform="translate(-588.687 -203.655)" fill="#7c1a18"/>
        <path id="Path_28745" data-name="Path 28745" d="M589.881,204.9s1.05,1.1,1.444,1.6a7.962,7.962,0,0,1,1.05,3.046,10.739,10.739,0,0,0,1.444,3.046c.328.669-1.877-2.6-2.665-3.1s-1.667-1.1-1.667-1.549S589.264,205.005,589.881,204.9Z" transform="translate(-588.891 -203.915)" fill="#7b1917"/>
        <path id="Path_28746" data-name="Path 28746" d="M589.973,205.1s1.05,1.1,1.431,1.588a8.373,8.373,0,0,1,1.05,3.019,10.913,10.913,0,0,0,1.431,3.019c.328.656-1.864-2.586-2.639-3.072s-1.654-1.1-1.654-1.536S589.37,205.218,589.973,205.1Z" transform="translate(-588.97 -204.089)" fill="#7a1816"/>
        <path id="Path_28747" data-name="Path 28747" d="M590.166,205.4s1.037,1.09,1.418,1.575a7.991,7.991,0,0,1,1.037,2.993,10.729,10.729,0,0,0,1.418,2.993c.328.656-1.851-2.56-2.612-3.046s-1.641-1.09-1.641-1.523S589.563,205.505,590.166,205.4Z" transform="translate(-589.15 -204.35)" fill="#791715"/>
        <path id="Path_28748" data-name="Path 28748" d="M590.364,205.6s1.024,1.076,1.4,1.562a7.856,7.856,0,0,1,1.024,2.967,10.539,10.539,0,0,0,1.4,2.967c.328.643-1.838-2.534-2.6-3.032s-1.628-1.076-1.628-1.51C589.983,208.147,589.773,205.705,590.364,205.6Z" transform="translate(-589.334 -204.524)" fill="#781715"/>
        <path id="Path_28749" data-name="Path 28749" d="M590.475,205.9s1.024,1.076,1.392,1.549a8.015,8.015,0,0,1,1.024,2.954,11,11,0,0,0,1.392,2.954c.315.643-1.825-2.52-2.573-3.006s-1.6-1.076-1.6-1.5C590.094,208.407,589.884,206.005,590.475,205.9Z" transform="translate(-589.433 -204.784)" fill="#771614"/>
      </g>
      <path id="Path_28750" data-name="Path 28750" d="M518.982,363.062a12.361,12.361,0,0,0,1.877,3.019c.827.722-.42,2.389-2.389,3.846a14.152,14.152,0,0,0-3.544,4.161,57.844,57.844,0,0,1,2.284-6.445C518.155,365.766,518.365,362.222,518.982,363.062Z" transform="translate(-474.787 -340.059)" opacity="0.36" fill="url(#linear-gradient-2)"/>
      <path id="Path_28751" data-name="Path 28751" d="M570.456,355.622l.1-3.768s2.914-13.324,2.914-14.3c0-.459-3.925-1.969-3.689-2.205.263-.263,3.925.1,4.8,1.037a3.386,3.386,0,0,1,.63,1.8,30.881,30.881,0,0,1-.341,6.59c-.341,1.116-.341,1.8-.827,3.466s-1.116,3.059-1.313,4.227a14.791,14.791,0,0,1-1.181,2.7,1.461,1.461,0,0,1-.63.827Z" transform="translate(-536.146 -316.026)" fill="#771614" opacity="0.5"/>
      <path id="Path_28752" data-name="Path 28752" d="M569.176,379.394l.105-3.768s2.914-13.324,2.914-14.3.906-1.667,1.116-1.181a6.862,6.862,0,0,1,.63,1.8,30.881,30.881,0,0,1-.341,6.59c-.341,1.116-.341,1.8-.827,3.466s-1.116,3.059-1.313,4.227a14.8,14.8,0,0,1-1.181,2.7,1.461,1.461,0,0,1-.63.827Z" transform="translate(-534.787 -337.501)" fill="#771614" opacity="0.5"/>
      <path id="Path_28753" data-name="Path 28753" d="M607.287,214.761A17.391,17.391,0,0,1,605.2,210.6s.276,2.219.276,2.429S606.395,213.79,607.287,214.761Z" transform="translate(-572.807 -207.721)" fill="#54110f" opacity="0.2"/>
      <path id="Path_28754" data-name="Path 28754" d="M538.608,296.32a6.082,6.082,0,0,1,.906,2.494c.144,1.391.551,3.256.551,4.03a9.088,9.088,0,0,1-.63,3.059c-.341.7-1.8,5.618-2.284,7.141s.341-1.313.486-3.544.7-4.581.827-6.039.7-2.087.066-4.371S537.978,295.559,538.608,296.32Z" transform="translate(-496.632 -281.995)" fill="#771614" opacity="0.22"/>
      <path id="Path_28755" data-name="Path 28755" d="M552.625,242.8c0,.21,3.19,4.647,2.7,5.487s-.276,2.849-.21,3.4.906,1.116.63,2.77-1.037,6.931-1.182,7.627-.63,4.647-.7,5.474-.63,4.437-.971,4.791a6.2,6.2,0,0,0-.7,1.8l-.827-.63c1.6-6.931,1.418-7.312,1.943-9.714,1.6-7.351-.63-7.837-.21-9.018s-.276-1.8-.761-2.98a12.612,12.612,0,0,1-.551-4.371,22.109,22.109,0,0,0-.144-3.951c-.21-.827.827-1.667.971-1.037" transform="translate(-514.259 -235.193)" opacity="0.36" fill="url(#linear-gradient-3)"/>
      <path id="Path_28756" data-name="Path 28756" d="M577.056,233.749s2.284-.7,3.256.7.761,5.343,1.667,7.22,4.437,3.334,5.133,4.371,1.943,3.059,1.523,3.4-3.544-.551-4.713-1.313-5.2-1.313-5.487-2.573a20.811,20.811,0,0,1-.276-4.03C578.159,240.483,578.028,234.1,577.056,233.749Z" transform="translate(-550.544 -227.68)" opacity="0.36" fill="url(#linear-gradient-4)"/>
      <path id="Path_28757" data-name="Path 28757" d="M676.233,228.951a2.177,2.177,0,0,0-2.665-.079c-1.536.971-7.141.486-8.69.683a5.98,5.98,0,0,0-2.678,1.09s.236-.446,3.387-.118,5.33.2,6.616-.289S675.839,228.544,676.233,228.951Z" transform="translate(-649.235 -223.236)" opacity="0.36" fill="url(#linear-gradient-5)"/>
      <path id="Path_28758" data-name="Path 28758" d="M587.981,247.193s2.507,3.072,2.98,3.636-.8,4.109.893,5.973-3.072-1.286-4.279-3.873-.8-7.1.564-5.724" transform="translate(-555.326 -239.299)" opacity="0.3" fill="url(#linear-gradient-6)"/>
      <g id="Group_20963" data-name="Group 20963" transform="translate(0 7.39)">
        <path id="Path_28759" data-name="Path 28759" d="M616.857,263.123c.013-.21,2.363-5.356-4.713-7.509s-3.82-.144-7.522-2.849-4.2-3.466-9.951-5.487-7.417-3.19-9.714-1.523c0,0-8.808,9.924-4.306,12.418.066.066,9.005.381,16.015,5.513,4.634,3.439,10.515,11.92,14.926,11.7,0,0,4.371-.42,4.437-6.59A30.337,30.337,0,0,0,616.857,263.123Z" transform="translate(-579.37 -244.963)" fill="#fff"/>
        <path id="Path_28760" data-name="Path 28760" d="M582.234,339.652c4.516-.144,14.637,4.791,14.637,4.791,2.98,1.457,10.686,10.056,10.686,10.056,1.116.971,2.008,2.77,5.684,2.087s4.161-13.456,4.161-13.456,1.037-1.313-.761-3.059-.486.341-.486,2.008.21,3.741-1.247,5.553-3.61,5.2-6.445,2.7-7.627-5.894-10.541-6.8-5.684-2.429-7.22-2.494S583.967,338.746,582.234,339.652Z" transform="translate(-580.204 -327.019)" fill="url(#linear-gradient-7)"/>
        <path id="Path_28761" data-name="Path 28761" d="M582.234,339.652c4.516-.144,14.637,4.791,14.637,4.791,2.98,1.457,10.686,10.056,10.686,10.056,1.116.971,2.008,2.77,5.684,2.087s4.161-13.456,4.161-13.456,1.037-1.313-.761-3.059-.486.341-.486,2.008.21,3.741-1.247,5.553-3.61,5.2-6.445,2.7-7.627-5.894-10.541-6.8-5.684-2.429-7.22-2.494S583.967,338.746,582.234,339.652Z" transform="translate(-580.204 -327.019)" fill="url(#linear-gradient-7)"/>
        <path id="Path_28762" data-name="Path 28762" d="M723.184,261.444s-9.32-5.934-12.589-5.33-4.476,1.812-4.476,3.019,4.109-.486,6.419-.486S725.495,263.991,723.184,261.444Z" transform="translate(-702.277 -254.613)" fill="#fff"/>
      </g>
      <path id="Path_28763" data-name="Path 28763" d="M550.221,490.741a4.488,4.488,0,0,1,2.625,1.4c.958.919,2.219,2.4,2.166,3.859-.052,1.575-.591,5.317-4.266,5.907s-7.246-.643-7.824-2.1a16.743,16.743,0,0,1-.473-5.789c.289-2.389,4.148-3.623,4.148-3.623A32.583,32.583,0,0,1,550.221,490.741Z" transform="translate(-512.288 -450.791)" fill="#fff"/>
      <path id="Path_28764" data-name="Path 28764" d="M562.121,515.553c.118-.236-9.517,3.1-10.161-5.553,0,0-2.507,5.146,1,7.771C552.945,517.771,559.312,521.224,562.121,515.553Z" transform="translate(-520.539 -467.818)" fill="url(#linear-gradient-9)"/>
      <path id="Path_28765" data-name="Path 28765" d="M562.121,515.553c.118-.236-9.517,3.1-10.161-5.553,0,0-2.507,5.146,1,7.771C552.945,517.771,559.312,521.224,562.121,515.553Z" transform="translate(-520.539 -467.818)" fill="url(#linear-gradient-9)"/>
    </g>
  </g>
</svg>
