<svg id="Group_24398" data-name="Group 24398" xmlns="http://www.w3.org/2000/svg" xmlns:xlink="http://www.w3.org/1999/xlink" width="65.977" height="15.164" viewBox="0 0 65.977 15.164">
  <defs>
    <clipPath id="clip-path">
      <rect id="Rectangle_9267" data-name="Rectangle 9267" width="65.977" height="15.164" fill="none"/>
    </clipPath>
  </defs>
  <g id="Group_20951" data-name="Group 20951" transform="translate(0 0)" clip-path="url(#clip-path)">
    <path id="Path_28632" data-name="Path 28632" d="M11.832,8.476a2.684,2.684,0,1,1,3.229,1.994,2.686,2.686,0,0,1-3.229-1.994m.658-.156A2.007,2.007,0,1,0,13.981,5.9,2.009,2.009,0,0,0,12.49,8.32" transform="translate(-0.377 -0.166)" fill="#fff"/>
    <rect id="Rectangle_9153" data-name="Rectangle 9153" width="0.676" height="6.912" transform="matrix(0.973, -0.23, 0.23, 0.973, 12.145, 1.044)" fill="#fff"/>
    <rect id="Rectangle_9154" data-name="Rectangle 9154" width="0.676" height="1.547" transform="translate(11.376 2.548) rotate(-65.929)" fill="#fff"/>
    <rect id="Rectangle_9155" data-name="Rectangle 9155" width="1.547" height="0.676" transform="translate(12.664 2.656) rotate(-50.69)" fill="#fff"/>
    <rect id="Rectangle_9156" data-name="Rectangle 9156" width="0.677" height="1.546" transform="translate(11.699 3.913) rotate(-65.929)" fill="#fff"/>
    <rect id="Rectangle_9157" data-name="Rectangle 9157" width="1.547" height="0.676" transform="translate(12.987 4.021) rotate(-50.69)" fill="#fff"/>
    <rect id="Rectangle_9158" data-name="Rectangle 9158" width="0.676" height="6.911" transform="matrix(0.973, -0.23, 0.23, 0.973, 13.735, 7.77)" fill="#fff"/>
    <rect id="Rectangle_9159" data-name="Rectangle 9159" width="0.676" height="1.547" transform="translate(15.067 12.822) rotate(-65.929)" fill="#fff"/>
    <rect id="Rectangle_9160" data-name="Rectangle 9160" width="1.547" height="0.677" transform="matrix(0.634, -0.773, 0.773, 0.634, 13.964, 13.495)" fill="#fff"/>
    <rect id="Rectangle_9161" data-name="Rectangle 9161" width="0.677" height="1.546" transform="translate(14.745 11.457) rotate(-65.929)" fill="#fff"/>
    <rect id="Rectangle_9162" data-name="Rectangle 9162" width="1.547" height="0.677" transform="matrix(0.634, -0.773, 0.773, 0.634, 13.641, 12.13)" fill="#fff"/>
    <rect id="Rectangle_9163" data-name="Rectangle 9163" width="6.912" height="0.676" transform="translate(7.262 8.953) rotate(-13.303)" fill="#fff"/>
    <rect id="Rectangle_9164" data-name="Rectangle 9164" width="1.547" height="0.676" transform="matrix(0.408, -0.913, 0.913, 0.408, 8.305, 10.106)" fill="#fff"/>
    <rect id="Rectangle_9165" data-name="Rectangle 9165" width="0.677" height="1.546" transform="matrix(0.634, -0.774, 0.774, 0.634, 7.834, 8.114)" fill="#fff"/>
    <rect id="Rectangle_9166" data-name="Rectangle 9166" width="1.547" height="0.676" transform="matrix(0.408, -0.913, 0.913, 0.408, 9.67, 9.783)" fill="#fff"/>
    <rect id="Rectangle_9167" data-name="Rectangle 9167" width="0.677" height="1.546" transform="matrix(0.634, -0.774, 0.774, 0.634, 9.198, 7.791)" fill="#fff"/>
    <rect id="Rectangle_9168" data-name="Rectangle 9168" width="6.912" height="0.676" transform="translate(13.988 7.363) rotate(-13.303)" fill="#fff"/>
    <rect id="Rectangle_9169" data-name="Rectangle 9169" width="1.547" height="0.676" transform="translate(18.578 6.414) rotate(-65.921)" fill="#fff"/>
    <rect id="Rectangle_9170" data-name="Rectangle 9170" width="0.677" height="1.546" transform="matrix(0.634, -0.774, 0.774, 0.634, 18.673, 6.814)" fill="#fff"/>
    <rect id="Rectangle_9171" data-name="Rectangle 9171" width="1.547" height="0.676" transform="translate(17.214 6.737) rotate(-65.921)" fill="#fff"/>
    <rect id="Rectangle_9172" data-name="Rectangle 9172" width="0.677" height="1.546" transform="translate(17.308 7.137) rotate(-50.687)" fill="#fff"/>
    <rect id="Rectangle_9173" data-name="Rectangle 9173" width="0.676" height="6.911" transform="translate(8.007 4.35) rotate(-58.333)" fill="#fff"/>
    <rect id="Rectangle_9174" data-name="Rectangle 9174" width="1.546" height="0.676" transform="translate(8.285 5.325) rotate(-20.942)" fill="#fff"/>
    <rect id="Rectangle_9175" data-name="Rectangle 9175" width="0.676" height="1.547" transform="translate(9.361 3.583) rotate(-5.675)" fill="#fff"/>
    <rect id="Rectangle_9176" data-name="Rectangle 9176" width="1.546" height="0.677" transform="translate(9.478 6.062) rotate(-20.942)" fill="#fff"/>
    <rect id="Rectangle_9177" data-name="Rectangle 9177" width="0.676" height="1.547" transform="translate(10.555 4.32) rotate(-5.675)" fill="#fff"/>
    <rect id="Rectangle_9178" data-name="Rectangle 9178" width="0.676" height="6.911" transform="matrix(0.526, -0.851, 0.851, 0.526, 13.888, 7.979)" fill="#fff"/>
    <rect id="Rectangle_9179" data-name="Rectangle 9179" width="1.547" height="0.677" transform="translate(18.16 9.979) rotate(-20.942)" fill="#fff"/>
    <rect id="Rectangle_9180" data-name="Rectangle 9180" width="0.676" height="1.547" transform="translate(17.945 10.328) rotate(-5.675)" fill="#fff"/>
    <rect id="Rectangle_9181" data-name="Rectangle 9181" width="1.546" height="0.676" transform="translate(16.967 9.242) rotate(-20.942)" fill="#fff"/>
    <rect id="Rectangle_9182" data-name="Rectangle 9182" width="0.676" height="1.547" transform="translate(16.752 9.591) rotate(-5.675)" fill="#fff"/>
    <rect id="Rectangle_9183" data-name="Rectangle 9183" width="6.911" height="0.677" transform="matrix(0.525, -0.851, 0.851, 0.525, 10.146, 13.395)" fill="#fff"/>
    <rect id="Rectangle_9184" data-name="Rectangle 9184" width="0.677" height="1.546" transform="translate(11.146 12.028) rotate(-20.949)" fill="#fff"/>
    <rect id="Rectangle_9185" data-name="Rectangle 9185" width="1.547" height="0.677" transform="translate(9.89 11.723) rotate(-5.67)" fill="#fff"/>
    <rect id="Rectangle_9186" data-name="Rectangle 9186" width="0.677" height="1.546" transform="translate(11.883 10.835) rotate(-20.949)" fill="#fff"/>
    <rect id="Rectangle_9187" data-name="Rectangle 9187" width="1.547" height="0.677" transform="translate(10.627 10.53) rotate(-5.662)" fill="#fff"/>
    <rect id="Rectangle_9188" data-name="Rectangle 9188" width="6.911" height="0.676" transform="translate(13.778 7.514) rotate(-58.3)" fill="#fff"/>
    <rect id="Rectangle_9189" data-name="Rectangle 9189" width="0.677" height="1.546" transform="translate(15.8 2.153) rotate(-20.949)" fill="#fff"/>
    <rect id="Rectangle_9190" data-name="Rectangle 9190" width="1.547" height="0.677" transform="translate(16.635 3.139) rotate(-5.662)" fill="#fff"/>
    <rect id="Rectangle_9191" data-name="Rectangle 9191" width="0.677" height="1.546" transform="translate(15.063 3.346) rotate(-20.949)" fill="#fff"/>
    <rect id="Rectangle_9192" data-name="Rectangle 9192" width="1.547" height="0.677" transform="translate(15.899 4.333) rotate(-5.67)" fill="#fff"/>
    <path id="Path_28633" data-name="Path 28633" d="M39.711,3.847a1.385,1.385,0,1,1,.68,1.837,1.388,1.388,0,0,1-.68-1.837m.317.146A1.036,1.036,0,1,0,41.4,3.485a1.037,1.037,0,0,0-1.374.508" transform="translate(-1.268 -0.098)" fill="#fff"/>
    <rect id="Rectangle_9193" data-name="Rectangle 9193" width="3.567" height="0.349" transform="translate(39.542 4.256) rotate(-65.28)" fill="#fff"/>
    <rect id="Rectangle_9194" data-name="Rectangle 9194" width="0.349" height="0.798" transform="translate(40.242 1.382) rotate(-27.914)" fill="#fff"/>
    <rect id="Rectangle_9195" data-name="Rectangle 9195" width="0.798" height="0.349" transform="translate(40.731 1.835) rotate(-12.687)" fill="#fff"/>
    <rect id="Rectangle_9196" data-name="Rectangle 9196" width="0.349" height="0.798" transform="translate(39.939 2.04) rotate(-27.914)" fill="#fff"/>
    <rect id="Rectangle_9197" data-name="Rectangle 9197" width="0.798" height="0.349" transform="translate(40.429 2.493) rotate(-12.687)" fill="#fff"/>
    <rect id="Rectangle_9198" data-name="Rectangle 9198" width="3.567" height="0.35" transform="translate(38.052 7.496) rotate(-65.28)" fill="#fff"/>
    <rect id="Rectangle_9199" data-name="Rectangle 9199" width="0.349" height="0.798" transform="translate(38.479 6.734) rotate(-27.914)" fill="#fff"/>
    <rect id="Rectangle_9200" data-name="Rectangle 9200" width="0.798" height="0.349" transform="translate(37.816 6.656) rotate(-12.672)" fill="#fff"/>
    <rect id="Rectangle_9201" data-name="Rectangle 9201" width="0.349" height="0.798" transform="translate(38.781 6.076) rotate(-27.914)" fill="#fff"/>
    <rect id="Rectangle_9202" data-name="Rectangle 9202" width="0.798" height="0.349" transform="translate(38.119 5.999) rotate(-12.687)" fill="#fff"/>
    <rect id="Rectangle_9203" data-name="Rectangle 9203" width="0.349" height="3.567" transform="translate(36.388 2.997) rotate(-65.313)" fill="#fff"/>
    <rect id="Rectangle_9204" data-name="Rectangle 9204" width="0.798" height="0.35" transform="matrix(0.884, -0.468, 0.468, 0.884, 36.591, 3.48)" fill="#fff"/>
    <rect id="Rectangle_9205" data-name="Rectangle 9205" width="0.349" height="0.798" transform="translate(37.033 2.52) rotate(-12.649)" fill="#fff"/>
    <rect id="Rectangle_9206" data-name="Rectangle 9206" width="0.798" height="0.349" transform="matrix(0.884, -0.468, 0.468, 0.884, 37.249, 3.782)" fill="#fff"/>
    <rect id="Rectangle_9207" data-name="Rectangle 9207" width="0.349" height="0.799" transform="translate(37.69 2.822) rotate(-12.649)" fill="#fff"/>
    <rect id="Rectangle_9208" data-name="Rectangle 9208" width="0.35" height="3.567" transform="matrix(0.418, -0.908, 0.908, 0.418, 39.628, 4.487)" fill="#fff"/>
    <rect id="Rectangle_9209" data-name="Rectangle 9209" width="0.798" height="0.349" transform="matrix(0.883, -0.468, 0.468, 0.883, 41.943, 5.243)" fill="#fff"/>
    <rect id="Rectangle_9210" data-name="Rectangle 9210" width="0.349" height="0.798" transform="translate(41.854 5.435) rotate(-12.649)" fill="#fff"/>
    <rect id="Rectangle_9211" data-name="Rectangle 9211" width="0.798" height="0.349" transform="matrix(0.884, -0.468, 0.468, 0.884, 41.285, 4.94)" fill="#fff"/>
    <rect id="Rectangle_9212" data-name="Rectangle 9212" width="0.349" height="0.798" transform="translate(41.197 5.133) rotate(-12.649)" fill="#fff"/>
    <rect id="Rectangle_9213" data-name="Rectangle 9213" width="0.349" height="3.567" transform="translate(38.3 1.044) rotate(-20.295)" fill="#fff"/>
    <rect id="Rectangle_9214" data-name="Rectangle 9214" width="0.349" height="0.798" transform="translate(38 1.863) rotate(-72.928)" fill="#fff"/>
    <rect id="Rectangle_9215" data-name="Rectangle 9215" width="0.798" height="0.349" transform="matrix(0.535, -0.845, 0.845, 0.535, 38.666, 1.837)" fill="#fff"/>
    <rect id="Rectangle_9216" data-name="Rectangle 9216" width="0.349" height="0.798" transform="translate(38.251 2.542) rotate(-72.928)" fill="#fff"/>
    <rect id="Rectangle_9217" data-name="Rectangle 9217" width="0.798" height="0.349" transform="translate(38.917 2.516) rotate(-57.678)" fill="#fff"/>
    <rect id="Rectangle_9218" data-name="Rectangle 9218" width="0.349" height="3.567" transform="translate(39.538 4.389) rotate(-20.295)" fill="#fff"/>
    <rect id="Rectangle_9219" data-name="Rectangle 9219" width="0.349" height="0.798" transform="translate(40.537 6.894) rotate(-72.928)" fill="#fff"/>
    <rect id="Rectangle_9220" data-name="Rectangle 9220" width="0.798" height="0.349" transform="translate(40.014 7.308) rotate(-57.678)" fill="#fff"/>
    <rect id="Rectangle_9221" data-name="Rectangle 9221" width="0.349" height="0.798" transform="translate(40.286 6.215) rotate(-72.928)" fill="#fff"/>
    <rect id="Rectangle_9222" data-name="Rectangle 9222" width="0.798" height="0.349" transform="translate(39.763 6.629) rotate(-57.678)" fill="#fff"/>
    <rect id="Rectangle_9223" data-name="Rectangle 9223" width="3.567" height="0.349" transform="translate(36.295 5.403) rotate(-20.309)" fill="#fff"/>
    <rect id="Rectangle_9224" data-name="Rectangle 9224" width="0.798" height="0.349" transform="translate(36.902 5.928) rotate(-72.921)" fill="#fff"/>
    <rect id="Rectangle_9225" data-name="Rectangle 9225" width="0.349" height="0.798" transform="translate(36.535 4.937) rotate(-57.675)" fill="#fff"/>
    <rect id="Rectangle_9226" data-name="Rectangle 9226" width="0.798" height="0.349" transform="translate(37.581 5.677) rotate(-72.921)" fill="#fff"/>
    <rect id="Rectangle_9227" data-name="Rectangle 9227" width="0.349" height="0.798" transform="translate(37.214 4.686) rotate(-57.675)" fill="#fff"/>
    <rect id="Rectangle_9228" data-name="Rectangle 9228" width="3.567" height="0.349" transform="translate(39.641 4.165) rotate(-20.309)" fill="#fff"/>
    <rect id="Rectangle_9229" data-name="Rectangle 9229" width="0.798" height="0.349" transform="translate(41.932 3.39) rotate(-72.921)" fill="#fff"/>
    <rect id="Rectangle_9230" data-name="Rectangle 9230" width="0.349" height="0.798" transform="translate(42.006 3.589) rotate(-57.675)" fill="#fff"/>
    <rect id="Rectangle_9231" data-name="Rectangle 9231" width="0.798" height="0.349" transform="translate(41.254 3.641) rotate(-72.921)" fill="#fff"/>
    <rect id="Rectangle_9232" data-name="Rectangle 9232" width="0.349" height="0.798" transform="translate(41.327 3.84) rotate(-57.675)" fill="#fff"/>
    <path id="Path_28634" data-name="Path 28634" d="M65,11.09a.907.907,0,1,1,.445,1.2A.909.909,0,0,1,65,11.09m.208.1a.679.679,0,1,0,.9-.333.68.68,0,0,0-.9.333" transform="translate(-2.08 -0.339)" fill="#fff"/>
    <rect id="Rectangle_9233" data-name="Rectangle 9233" width="2.337" height="0.229" transform="matrix(0.418, -0.908, 0.908, 0.418, 63.641, 11.082)" fill="#fff"/>
    <rect id="Rectangle_9234" data-name="Rectangle 9234" width="0.229" height="0.523" transform="translate(64.099 9.201) rotate(-27.973)" fill="#fff"/>
    <rect id="Rectangle_9235" data-name="Rectangle 9235" width="0.523" height="0.229" transform="matrix(0.976, -0.218, 0.218, 0.976, 64.42, 9.497)" fill="#fff"/>
    <rect id="Rectangle_9236" data-name="Rectangle 9236" width="0.229" height="0.523" transform="translate(63.901 9.631) rotate(-27.973)" fill="#fff"/>
    <rect id="Rectangle_9237" data-name="Rectangle 9237" width="0.523" height="0.229" transform="matrix(0.976, -0.218, 0.218, 0.976, 64.222, 9.928)" fill="#fff"/>
    <rect id="Rectangle_9238" data-name="Rectangle 9238" width="2.336" height="0.229" transform="matrix(0.418, -0.908, 0.908, 0.418, 62.665, 13.205)" fill="#fff"/>
    <rect id="Rectangle_9239" data-name="Rectangle 9239" width="0.229" height="0.523" transform="translate(62.945 12.706) rotate(-27.973)" fill="#fff"/>
    <rect id="Rectangle_9240" data-name="Rectangle 9240" width="0.523" height="0.229" transform="matrix(0.975, -0.22, 0.22, 0.975, 62.511, 12.655)" fill="#fff"/>
    <rect id="Rectangle_9241" data-name="Rectangle 9241" width="0.229" height="0.523" transform="translate(63.143 12.275) rotate(-27.973)" fill="#fff"/>
    <rect id="Rectangle_9242" data-name="Rectangle 9242" width="0.523" height="0.229" transform="matrix(0.975, -0.22, 0.22, 0.975, 62.709, 12.225)" fill="#fff"/>
    <rect id="Rectangle_9243" data-name="Rectangle 9243" width="0.229" height="2.336" transform="translate(61.575 10.258) rotate(-65.314)" fill="#fff"/>
    <rect id="Rectangle_9244" data-name="Rectangle 9244" width="0.523" height="0.229" transform="matrix(0.883, -0.469, 0.469, 0.883, 61.708, 10.574)" fill="#fff"/>
    <rect id="Rectangle_9245" data-name="Rectangle 9245" width="0.229" height="0.523" transform="matrix(0.975, -0.221, 0.221, 0.975, 61.997, 9.946)" fill="#fff"/>
    <rect id="Rectangle_9246" data-name="Rectangle 9246" width="0.523" height="0.229" transform="matrix(0.883, -0.469, 0.469, 0.883, 62.139, 10.772)" fill="#fff"/>
    <path id="Path_28635" data-name="Path 28635" d="M64.61,10.988l.223-.05-.114-.51-.223.05Z" transform="translate(-2.066 -0.334)" fill="#fff"/>
    <rect id="Rectangle_9247" data-name="Rectangle 9247" width="0.229" height="2.336" transform="translate(63.698 11.234) rotate(-65.314)" fill="#fff"/>
    <rect id="Rectangle_9248" data-name="Rectangle 9248" width="0.523" height="0.229" transform="translate(65.214 11.729) rotate(-27.942)" fill="#fff"/>
    <path id="Path_28636" data-name="Path 28636" d="M67.428,12.756l.223-.05-.114-.51-.223.05Z" transform="translate(-2.157 -0.391)" fill="#fff"/>
    <rect id="Rectangle_9249" data-name="Rectangle 9249" width="0.523" height="0.229" transform="translate(64.783 11.531) rotate(-27.942)" fill="#fff"/>
    <rect id="Rectangle_9250" data-name="Rectangle 9250" width="0.229" height="0.523" transform="matrix(0.975, -0.221, 0.221, 0.975, 64.725, 11.657)" fill="#fff"/>
    <rect id="Rectangle_9251" data-name="Rectangle 9251" width="0.229" height="2.337" transform="translate(62.827 8.979) rotate(-20.357)" fill="#fff"/>
    <path id="Path_28637" data-name="Path 28637" d="M64.7,9.823l.5.154.068-.219-.5-.154Z" transform="translate(-2.073 -0.308)" fill="#fff"/>
    <rect id="Rectangle_9252" data-name="Rectangle 9252" width="0.523" height="0.229" transform="matrix(0.535, -0.845, 0.845, 0.535, 63.067, 9.498)" fill="#fff"/>
    <path id="Path_28638" data-name="Path 28638" d="M64.874,10.283l.5.154.068-.219-.5-.154Z" transform="translate(-2.079 -0.323)" fill="#fff"/>
    <rect id="Rectangle_9253" data-name="Rectangle 9253" width="0.523" height="0.229" transform="matrix(0.535, -0.845, 0.845, 0.535, 63.232, 9.943)" fill="#fff"/>
    <rect id="Rectangle_9254" data-name="Rectangle 9254" width="0.229" height="2.337" transform="translate(63.639 11.17) rotate(-20.273)" fill="#fff"/>
    <rect id="Rectangle_9255" data-name="Rectangle 9255" width="0.228" height="0.523" transform="translate(64.293 12.811) rotate(-72.975)" fill="#fff"/>
    <rect id="Rectangle_9256" data-name="Rectangle 9256" width="0.523" height="0.229" transform="translate(63.95 13.082) rotate(-57.634)" fill="#fff"/>
    <rect id="Rectangle_9257" data-name="Rectangle 9257" width="0.228" height="0.523" transform="translate(64.129 12.366) rotate(-72.975)" fill="#fff"/>
    <rect id="Rectangle_9258" data-name="Rectangle 9258" width="0.523" height="0.229" transform="translate(63.786 12.637) rotate(-57.634)" fill="#fff"/>
    <rect id="Rectangle_9259" data-name="Rectangle 9259" width="2.337" height="0.229" transform="matrix(0.938, -0.347, 0.347, 0.938, 61.515, 11.834)" fill="#fff"/>
    <rect id="Rectangle_9260" data-name="Rectangle 9260" width="0.522" height="0.228" transform="matrix(0.292, -0.956, 0.956, 0.292, 61.913, 12.178)" fill="#fff"/>
    <path id="Path_28639" data-name="Path 28639" d="M64.155,12.184l.122-.194-.441-.28-.122.194Z" transform="translate(-2.041 -0.376)" fill="#fff"/>
    <rect id="Rectangle_9261" data-name="Rectangle 9261" width="0.522" height="0.228" transform="matrix(0.292, -0.956, 0.956, 0.292, 62.357, 12.014)" fill="#fff"/>
    <path id="Path_28640" data-name="Path 28640" d="M64.615,12.014l.122-.194-.441-.28-.122.194Z" transform="translate(-2.056 -0.37)" fill="#fff"/>
    <rect id="Rectangle_9262" data-name="Rectangle 9262" width="2.337" height="0.229" transform="translate(63.706 11.023) rotate(-20.312)" fill="#fff"/>
    <rect id="Rectangle_9263" data-name="Rectangle 9263" width="0.522" height="0.228" transform="translate(65.208 10.516) rotate(-73.022)" fill="#fff"/>
    <rect id="Rectangle_9264" data-name="Rectangle 9264" width="0.228" height="0.522" transform="translate(65.256 10.646) rotate(-57.789)" fill="#fff"/>
    <rect id="Rectangle_9265" data-name="Rectangle 9265" width="0.522" height="0.229" transform="translate(64.763 10.68) rotate(-73.022)" fill="#fff"/>
    <rect id="Rectangle_9266" data-name="Rectangle 9266" width="0.228" height="0.522" transform="translate(64.811 10.811) rotate(-57.789)" fill="#fff"/>
    <path id="Path_28641" data-name="Path 28641" d="M25.9,10.158a.344.344,0,1,1-.344-.344.344.344,0,0,1,.344.344" transform="translate(-0.808 -0.315)" fill="#fff"/>
    <path id="Path_28642" data-name="Path 28642" d="M41.424,14.96a.487.487,0,1,1-.487-.487.487.487,0,0,1,.487.487" transform="translate(-1.296 -0.464)" fill="#fff"/>
    <path id="Path_28643" data-name="Path 28643" d="M50.88,1.493a.487.487,0,1,1-.487-.487.487.487,0,0,1,.487.487" transform="translate(-1.599 -0.033)" fill="#fff"/>
    <path id="Path_28644" data-name="Path 28644" d="M58.658,4.9a.344.344,0,1,1-.345-.344.345.345,0,0,1,.345.344" transform="translate(-1.857 -0.146)" fill="#fff"/>
    <path id="Path_28645" data-name="Path 28645" d="M61.013,15.3a.344.344,0,1,1-.345-.344.345.345,0,0,1,.345.344" transform="translate(-1.933 -0.479)" fill="#fff"/>
    <path id="Path_28646" data-name="Path 28646" d="M51.244,13.037a.344.344,0,1,1-.345-.344.345.345,0,0,1,.345.344" transform="translate(-1.62 -0.407)" fill="#fff"/>
    <path id="Path_28647" data-name="Path 28647" d="M5.027.907A.344.344,0,1,1,4.683.563a.345.345,0,0,1,.345.344" transform="translate(-0.139 -0.018)" fill="#fff"/>
    <path id="Path_28648" data-name="Path 28648" d="M.688,4.938a.344.344,0,1,1-.344-.345.344.344,0,0,1,.344.345" transform="translate(0 -0.147)" fill="#fff"/>
    <path id="Path_28649" data-name="Path 28649" d="M47.776,8.353a.487.487,0,1,1-.486-.487.486.486,0,0,1,.486.487" transform="translate(-1.5 -0.252)" fill="#fff"/>
    <path id="Path_28650" data-name="Path 28650" d="M64.588.487A.487.487,0,1,1,64.1,0a.487.487,0,0,1,.487.487" transform="translate(-2.038 0)" fill="#fff"/>
    <path id="Path_28651" data-name="Path 28651" d="M56.482,11.229a.722.722,0,1,1-.721-.721.721.721,0,0,1,.721.721" transform="translate(-1.763 -0.337)" fill="#fff"/>
    <path id="Path_28652" data-name="Path 28652" d="M32.148,2.818a.657.657,0,1,1-.656-.656.656.656,0,0,1,.656.656" transform="translate(-0.988 -0.07)" fill="#fff"/>
    <path id="Path_28653" data-name="Path 28653" d="M5.329,13.876a.657.657,0,1,1-.656-.656.656.656,0,0,1,.656.656" transform="translate(-0.129 -0.424)" fill="#fff"/>
    <path id="Path_28654" data-name="Path 28654" d="M35.6,13.073a.963.963,0,1,1-.963-.963.963.963,0,0,1,.963.963" transform="translate(-1.079 -0.388)" fill="#fff"/>
  </g>
</svg>
